G04 #@! TF.FileFunction,Legend,Bot*
%FSLAX46Y46*%
G04 Gerber Fmt 4.6, Leading zero omitted, Abs format (unit mm)*
G04 Created by KiCad (PCBNEW 4.0.2+dfsg1-stable) date Fri 11 Nov 2016 12:37:47 NZDT*
%MOMM*%
G01*
G04 APERTURE LIST*
%ADD10C,0.100000*%
%ADD11C,0.150000*%
G04 APERTURE END LIST*
D10*
D11*
X143918981Y-82398477D02*
X144934981Y-84938477D01*
X144934981Y-84938477D02*
X143918981Y-87478477D01*
X103278981Y-82398477D02*
X101754981Y-84938477D01*
X101754981Y-84938477D02*
X103278981Y-87478477D01*
X128170981Y-72746477D02*
X123598981Y-71730477D01*
X123598981Y-71730477D02*
X119026981Y-72746477D01*
X128170981Y-72746477D02*
X143918981Y-82398477D01*
X119026981Y-72746477D02*
X103278981Y-82398477D01*
X119026981Y-97130477D02*
X103278981Y-87478477D01*
X128170981Y-97130477D02*
X143918981Y-87478477D01*
X119026981Y-97130477D02*
X124106981Y-98146477D01*
X124106981Y-98146477D02*
X128170981Y-97130477D01*
X133778805Y-84938477D02*
G75*
G03X133778805Y-84938477I-10179824J0D01*
G01*
X172038981Y-114253497D02*
X172038981Y-74253577D01*
X172038981Y-74253577D02*
X170040001Y-74253577D01*
X172038981Y-79252297D02*
X171038221Y-79252297D01*
X172038981Y-84253557D02*
X170040001Y-84253557D01*
X172038981Y-89252277D02*
X171038221Y-89252277D01*
X172038981Y-94253537D02*
X170040001Y-94253537D01*
X172038981Y-99252257D02*
X171038221Y-99252257D01*
X172038981Y-104253517D02*
X170040001Y-104253517D01*
X172038981Y-109252237D02*
X171038221Y-109252237D01*
X172038981Y-115254257D02*
X171038221Y-115254257D01*
X172038981Y-116252477D02*
X171038221Y-116252477D01*
X172038981Y-117253237D02*
X171038221Y-117253237D01*
X172038981Y-118253997D02*
X171038221Y-118253997D01*
X172038981Y-120252977D02*
X171038221Y-120252977D01*
X172038981Y-121253737D02*
X171038221Y-121253737D01*
X172038981Y-122254497D02*
X171038221Y-122254497D01*
X172038981Y-123252717D02*
X171038221Y-123252717D01*
X172038981Y-119252217D02*
X170040001Y-119252217D01*
X172038981Y-124253477D02*
X170040001Y-124253477D01*
X172038981Y-124253477D02*
X172038981Y-114253497D01*
X172038981Y-114253497D02*
X170040001Y-114253497D01*
X138076886Y-73214858D02*
X138076886Y-74024382D01*
X138029267Y-74119620D01*
X137981648Y-74167239D01*
X137886410Y-74214858D01*
X137695933Y-74214858D01*
X137600695Y-74167239D01*
X137553076Y-74119620D01*
X137505457Y-74024382D01*
X137505457Y-73214858D01*
X136505457Y-74214858D02*
X137076886Y-74214858D01*
X136791172Y-74214858D02*
X136791172Y-73214858D01*
X136886410Y-73357715D01*
X136981648Y-73452953D01*
X137076886Y-73500572D01*
X129948980Y-86295620D02*
X129948980Y-83295620D01*
X117891838Y-84724191D02*
X116891838Y-84724191D01*
X116463267Y-86295620D02*
X117891838Y-86295620D01*
X117891838Y-83295620D01*
X116463267Y-83295620D01*
X168390022Y-72682149D02*
X168390022Y-72205958D01*
X168866212Y-72158339D01*
X168818593Y-72205958D01*
X168770974Y-72301196D01*
X168770974Y-72539292D01*
X168818593Y-72634530D01*
X168866212Y-72682149D01*
X168961451Y-72729768D01*
X169199546Y-72729768D01*
X169294784Y-72682149D01*
X169342403Y-72634530D01*
X169390022Y-72539292D01*
X169390022Y-72301196D01*
X169342403Y-72205958D01*
X169294784Y-72158339D01*
X168390022Y-73348815D02*
X168390022Y-73444054D01*
X168437641Y-73539292D01*
X168485260Y-73586911D01*
X168580498Y-73634530D01*
X168770974Y-73682149D01*
X169009070Y-73682149D01*
X169199546Y-73634530D01*
X169294784Y-73586911D01*
X169342403Y-73539292D01*
X169390022Y-73444054D01*
X169390022Y-73348815D01*
X169342403Y-73253577D01*
X169294784Y-73205958D01*
X169199546Y-73158339D01*
X169009070Y-73110720D01*
X168770974Y-73110720D01*
X168580498Y-73158339D01*
X168485260Y-73205958D01*
X168437641Y-73253577D01*
X168390022Y-73348815D01*
X169390022Y-74110720D02*
X168723355Y-74110720D01*
X168818593Y-74110720D02*
X168770974Y-74158339D01*
X168723355Y-74253577D01*
X168723355Y-74396435D01*
X168770974Y-74491673D01*
X168866212Y-74539292D01*
X169390022Y-74539292D01*
X168866212Y-74539292D02*
X168770974Y-74586911D01*
X168723355Y-74682149D01*
X168723355Y-74825006D01*
X168770974Y-74920244D01*
X168866212Y-74967863D01*
X169390022Y-74967863D01*
X169390022Y-75444053D02*
X168723355Y-75444053D01*
X168818593Y-75444053D02*
X168770974Y-75491672D01*
X168723355Y-75586910D01*
X168723355Y-75729768D01*
X168770974Y-75825006D01*
X168866212Y-75872625D01*
X169390022Y-75872625D01*
X168866212Y-75872625D02*
X168770974Y-75920244D01*
X168723355Y-76015482D01*
X168723355Y-76158339D01*
X168770974Y-76253577D01*
X168866212Y-76301196D01*
X169390022Y-76301196D01*
X168723355Y-83967843D02*
X169390022Y-83967843D01*
X168342403Y-83729747D02*
X169056689Y-83491652D01*
X169056689Y-84110700D01*
X168390022Y-84682128D02*
X168390022Y-84777367D01*
X168437641Y-84872605D01*
X168485260Y-84920224D01*
X168580498Y-84967843D01*
X168770974Y-85015462D01*
X169009070Y-85015462D01*
X169199546Y-84967843D01*
X169294784Y-84920224D01*
X169342403Y-84872605D01*
X169390022Y-84777367D01*
X169390022Y-84682128D01*
X169342403Y-84586890D01*
X169294784Y-84539271D01*
X169199546Y-84491652D01*
X169009070Y-84444033D01*
X168770974Y-84444033D01*
X168580498Y-84491652D01*
X168485260Y-84539271D01*
X168437641Y-84586890D01*
X168390022Y-84682128D01*
X168491622Y-93444013D02*
X168491622Y-94063061D01*
X168872574Y-93729727D01*
X168872574Y-93872585D01*
X168920193Y-93967823D01*
X168967812Y-94015442D01*
X169063051Y-94063061D01*
X169301146Y-94063061D01*
X169396384Y-94015442D01*
X169444003Y-93967823D01*
X169491622Y-93872585D01*
X169491622Y-93586870D01*
X169444003Y-93491632D01*
X169396384Y-93444013D01*
X168491622Y-94682108D02*
X168491622Y-94777347D01*
X168539241Y-94872585D01*
X168586860Y-94920204D01*
X168682098Y-94967823D01*
X168872574Y-95015442D01*
X169110670Y-95015442D01*
X169301146Y-94967823D01*
X169396384Y-94920204D01*
X169444003Y-94872585D01*
X169491622Y-94777347D01*
X169491622Y-94682108D01*
X169444003Y-94586870D01*
X169396384Y-94539251D01*
X169301146Y-94491632D01*
X169110670Y-94444013D01*
X168872574Y-94444013D01*
X168682098Y-94491632D01*
X168586860Y-94539251D01*
X168539241Y-94586870D01*
X168491622Y-94682108D01*
X168685920Y-103392552D02*
X168638301Y-103440171D01*
X168590682Y-103535409D01*
X168590682Y-103773505D01*
X168638301Y-103868743D01*
X168685920Y-103916362D01*
X168781158Y-103963981D01*
X168876396Y-103963981D01*
X169019253Y-103916362D01*
X169590682Y-103344933D01*
X169590682Y-103963981D01*
X168590682Y-104583028D02*
X168590682Y-104678267D01*
X168638301Y-104773505D01*
X168685920Y-104821124D01*
X168781158Y-104868743D01*
X168971634Y-104916362D01*
X169209730Y-104916362D01*
X169400206Y-104868743D01*
X169495444Y-104821124D01*
X169543063Y-104773505D01*
X169590682Y-104678267D01*
X169590682Y-104583028D01*
X169543063Y-104487790D01*
X169495444Y-104440171D01*
X169400206Y-104392552D01*
X169209730Y-104344933D01*
X168971634Y-104344933D01*
X168781158Y-104392552D01*
X168685920Y-104440171D01*
X168638301Y-104487790D01*
X168590682Y-104583028D01*
X168590682Y-119492853D02*
X168590682Y-119016662D01*
X169066872Y-118969043D01*
X169019253Y-119016662D01*
X168971634Y-119111900D01*
X168971634Y-119349996D01*
X169019253Y-119445234D01*
X169066872Y-119492853D01*
X169162111Y-119540472D01*
X169400206Y-119540472D01*
X169495444Y-119492853D01*
X169543063Y-119445234D01*
X169590682Y-119349996D01*
X169590682Y-119111900D01*
X169543063Y-119016662D01*
X169495444Y-118969043D01*
X168692282Y-124205858D02*
X168692282Y-124301097D01*
X168739901Y-124396335D01*
X168787520Y-124443954D01*
X168882758Y-124491573D01*
X169073234Y-124539192D01*
X169311330Y-124539192D01*
X169501806Y-124491573D01*
X169597044Y-124443954D01*
X169644663Y-124396335D01*
X169692282Y-124301097D01*
X169692282Y-124205858D01*
X169644663Y-124110620D01*
X169597044Y-124063001D01*
X169501806Y-124015382D01*
X169311330Y-123967763D01*
X169073234Y-123967763D01*
X168882758Y-124015382D01*
X168787520Y-124063001D01*
X168739901Y-124110620D01*
X168692282Y-124205858D01*
X169791342Y-112729688D02*
X169791342Y-112158259D01*
X169791342Y-112443973D02*
X168791342Y-112443973D01*
X168934199Y-112348735D01*
X169029437Y-112253497D01*
X169077056Y-112158259D01*
X168791342Y-113348735D02*
X168791342Y-113443974D01*
X168838961Y-113539212D01*
X168886580Y-113586831D01*
X168981818Y-113634450D01*
X169172294Y-113682069D01*
X169410390Y-113682069D01*
X169600866Y-113634450D01*
X169696104Y-113586831D01*
X169743723Y-113539212D01*
X169791342Y-113443974D01*
X169791342Y-113348735D01*
X169743723Y-113253497D01*
X169696104Y-113205878D01*
X169600866Y-113158259D01*
X169410390Y-113110640D01*
X169172294Y-113110640D01*
X168981818Y-113158259D01*
X168886580Y-113205878D01*
X168838961Y-113253497D01*
X168791342Y-113348735D01*
X169791342Y-114110640D02*
X169124675Y-114110640D01*
X169219913Y-114110640D02*
X169172294Y-114158259D01*
X169124675Y-114253497D01*
X169124675Y-114396355D01*
X169172294Y-114491593D01*
X169267532Y-114539212D01*
X169791342Y-114539212D01*
X169267532Y-114539212D02*
X169172294Y-114586831D01*
X169124675Y-114682069D01*
X169124675Y-114824926D01*
X169172294Y-114920164D01*
X169267532Y-114967783D01*
X169791342Y-114967783D01*
X169791342Y-115443973D02*
X169124675Y-115443973D01*
X169219913Y-115443973D02*
X169172294Y-115491592D01*
X169124675Y-115586830D01*
X169124675Y-115729688D01*
X169172294Y-115824926D01*
X169267532Y-115872545D01*
X169791342Y-115872545D01*
X169267532Y-115872545D02*
X169172294Y-115920164D01*
X169124675Y-116015402D01*
X169124675Y-116158259D01*
X169172294Y-116253497D01*
X169267532Y-116301116D01*
X169791342Y-116301116D01*
M02*
