%FSLAX45Y45*%
G04 Gerber Fmt 4.5, Leading zero omitted, Abs format (unit mm)*
G04 Created by KiCad (PCBNEW 4.0.2+dfsg1-stable) date Mon 14 Nov 2016 14:02:33 NZDT*
%MOMM*%
G01*
G04 APERTURE LIST*
%ADD10C,0.127000*%
%ADD11C,0.150000*%
%ADD12C,0.200000*%
%ADD13C,0.300000*%
G04 APERTURE END LIST*
D10*
D11*
X13000000Y0D02*
X12500000Y0D01*
X13000000Y-8500000D02*
X13000000Y0D01*
X12500000Y-8500000D02*
X13000000Y-8500000D01*
X0Y-8500000D02*
X500000Y-8500000D01*
X0Y0D02*
X0Y-8500000D01*
X0Y0D02*
X500000Y0D01*
X500000Y-8500000D02*
X12500000Y-8500000D01*
X12500000Y0D02*
X500000Y0D01*
D12*
X1000000Y-6260000D02*
X1040000Y-6300000D01*
X1040000Y-6260000D02*
X1000000Y-6300000D01*
X1427000Y-2717998D02*
X1467000Y-2757998D01*
X1467000Y-2717998D02*
X1427000Y-2757998D01*
X1860000Y-3980000D02*
X1900000Y-4020000D01*
X1900000Y-3980000D02*
X1860000Y-4020000D01*
X1920000Y-3120000D02*
X1960000Y-3160000D01*
X1960000Y-3120000D02*
X1920000Y-3160000D01*
X2125500Y-2797500D02*
X2165500Y-2837500D01*
X2165500Y-2797500D02*
X2125500Y-2837500D01*
X2443000Y-3242000D02*
X2483000Y-3282000D01*
X2483000Y-3242000D02*
X2443000Y-3282000D01*
X3060000Y-4200000D02*
X3100000Y-4240000D01*
X3100000Y-4200000D02*
X3060000Y-4240000D01*
X3081231Y-3996767D02*
X3121231Y-4036767D01*
X3121231Y-3996767D02*
X3081231Y-4036767D01*
X3205000Y-4067500D02*
X3245000Y-4107500D01*
X3245000Y-4067500D02*
X3205000Y-4107500D01*
X3720000Y-4920000D02*
X3760000Y-4960000D01*
X3760000Y-4920000D02*
X3720000Y-4960000D01*
X3840000Y-6020000D02*
X3880000Y-6060000D01*
X3880000Y-6020000D02*
X3840000Y-6060000D01*
X3860000Y-5200000D02*
X3900000Y-5240000D01*
X3900000Y-5200000D02*
X3860000Y-5240000D01*
X4680000Y-4720000D02*
X4720000Y-4760000D01*
X4720000Y-4720000D02*
X4680000Y-4760000D01*
X4690000Y-3127500D02*
X4730000Y-3167500D01*
X4730000Y-3127500D02*
X4690000Y-3167500D01*
X4900000Y-3507500D02*
X4940000Y-3547500D01*
X4940000Y-3507500D02*
X4900000Y-3547500D01*
X5065000Y-1780000D02*
X5105000Y-1820000D01*
X5105000Y-1780000D02*
X5065000Y-1820000D01*
X5620000Y-5280000D02*
X5660000Y-5320000D01*
X5660000Y-5280000D02*
X5620000Y-5320000D01*
X6767500Y-1815000D02*
X6807500Y-1855000D01*
X6807500Y-1815000D02*
X6767500Y-1855000D01*
X7260000Y-5060000D02*
X7300000Y-5100000D01*
X7300000Y-5060000D02*
X7260000Y-5100000D01*
X8031000Y-5274000D02*
X8071000Y-5314000D01*
X8071000Y-5274000D02*
X8031000Y-5314000D01*
X8190350Y-4352650D02*
X8230350Y-4392650D01*
X8230350Y-4352650D02*
X8190350Y-4392650D01*
X8289002Y-4321500D02*
X8329002Y-4361500D01*
X8329002Y-4321500D02*
X8289002Y-4361500D01*
X8348500Y-2289500D02*
X8388500Y-2329500D01*
X8388500Y-2289500D02*
X8348500Y-2329500D01*
X8348500Y-2607000D02*
X8388500Y-2647000D01*
X8388500Y-2607000D02*
X8348500Y-2647000D01*
X8920000Y-4639000D02*
X8960000Y-4679000D01*
X8960000Y-4639000D02*
X8920000Y-4679000D01*
X8928500Y-2622100D02*
X8968500Y-2662100D01*
X8968500Y-2622100D02*
X8928500Y-2662100D01*
X9082500Y-5077500D02*
X9122500Y-5117500D01*
X9122500Y-5077500D02*
X9082500Y-5117500D01*
X9545000Y-5052500D02*
X9585000Y-5092500D01*
X9585000Y-5052500D02*
X9545000Y-5092500D01*
X9988000Y-6220053D02*
X10028000Y-6260053D01*
X10028000Y-6220053D02*
X9988000Y-6260053D01*
X10321002Y-1019500D02*
X10361002Y-1059500D01*
X10361002Y-1019500D02*
X10321002Y-1059500D01*
X10348769Y-1287502D02*
X10388769Y-1327502D01*
X10388769Y-1287502D02*
X10348769Y-1327502D01*
X10376089Y-1136875D02*
X10416089Y-1176875D01*
X10416089Y-1136875D02*
X10376089Y-1176875D01*
X10380500Y-2059500D02*
X10420500Y-2099500D01*
X10420500Y-2059500D02*
X10380500Y-2099500D01*
X10485000Y-5532500D02*
X10525000Y-5572500D01*
X10525000Y-5532500D02*
X10485000Y-5572500D01*
X10900000Y-940000D02*
X10940000Y-980000D01*
X10940000Y-940000D02*
X10900000Y-980000D01*
X10977000Y-3700000D02*
X11017000Y-3740000D01*
X11017000Y-3700000D02*
X10977000Y-3740000D01*
X10980000Y-2700000D02*
X11020000Y-2740000D01*
X11020000Y-2700000D02*
X10980000Y-2740000D01*
X11092500Y-5340000D02*
X11132500Y-5380000D01*
X11132500Y-5340000D02*
X11092500Y-5380000D01*
X11142500Y-2037500D02*
X11182500Y-2077500D01*
X11182500Y-2037500D02*
X11142500Y-2077500D01*
X11387100Y-255800D02*
X11427100Y-295800D01*
X11427100Y-255800D02*
X11387100Y-295800D01*
X11905000Y-4912500D02*
X11945000Y-4952500D01*
X11945000Y-4912500D02*
X11905000Y-4952500D01*
X11960000Y-682500D02*
X12000000Y-722500D01*
X12000000Y-682500D02*
X11960000Y-722500D01*
X3903250Y-6823000D02*
G75*
G03X3903250Y-6823000I-31750J0D01*
G01*
X4526750Y-6818000D02*
G75*
G03X4526750Y-6818000I-31750J0D01*
G01*
X5669750Y-6818000D02*
G75*
G03X5669750Y-6818000I-31750J0D01*
G01*
X6812750Y-6818000D02*
G75*
G03X6812750Y-6818000I-31750J0D01*
G01*
X8367750Y-6800000D02*
G75*
G03X8367750Y-6800000I-31750J0D01*
G01*
X10070750Y-6777500D02*
G75*
G03X10070750Y-6777500I-31750J0D01*
G01*
X10705750Y-6777500D02*
G75*
G03X10705750Y-6777500I-31750J0D01*
G01*
X11931750Y-6825000D02*
G75*
G03X11931750Y-6825000I-31750J0D01*
G01*
X10616160Y-2936484D02*
X10616160Y-3006588D01*
X10581108Y-2971536D02*
X10651212Y-2971536D01*
X10616212Y-3317230D02*
X10616212Y-3387334D01*
X10581160Y-3352282D02*
X10651264Y-3352282D01*
X11632160Y-2936484D02*
X11632160Y-3006588D01*
X11597108Y-2971536D02*
X11667212Y-2971536D01*
X11632212Y-3317230D02*
X11632212Y-3387334D01*
X11597160Y-3352282D02*
X11667264Y-3352282D01*
X1094285Y-4306285D02*
X1094285Y-4249716D01*
X1037715Y-4249716D01*
X1037715Y-4306285D01*
X1094285Y-4306285D01*
X1594284Y-4306285D02*
X1594284Y-4249716D01*
X1537715Y-4249716D01*
X1537715Y-4306285D01*
X1594284Y-4306285D01*
X2364285Y-4560285D02*
X2364285Y-4503716D01*
X2307716Y-4503716D01*
X2307716Y-4560285D01*
X2364285Y-4560285D01*
X2364285Y-5060285D02*
X2364285Y-5003716D01*
X2307716Y-5003716D01*
X2307716Y-5060285D01*
X2364285Y-5060285D01*
X2364285Y-5703284D02*
X2364285Y-5646715D01*
X2307716Y-5646715D01*
X2307716Y-5703284D01*
X2364285Y-5703284D01*
X2364285Y-6203284D02*
X2364285Y-6146715D01*
X2307716Y-6146715D01*
X2307716Y-6203284D01*
X2364285Y-6203284D01*
X3507284Y-4941285D02*
X3507284Y-4884716D01*
X3450715Y-4884716D01*
X3450715Y-4941285D01*
X3507284Y-4941285D01*
X3507284Y-5195285D02*
X3507284Y-5138716D01*
X3450715Y-5138716D01*
X3450715Y-5195285D01*
X3507284Y-5195285D01*
X3507284Y-5449285D02*
X3507284Y-5392716D01*
X3450715Y-5392716D01*
X3450715Y-5449285D01*
X3507284Y-5449285D01*
X3507284Y-5703284D02*
X3507284Y-5646715D01*
X3450715Y-5646715D01*
X3450715Y-5703284D01*
X3507284Y-5703284D01*
X3634284Y-2221795D02*
X3634284Y-2165226D01*
X3577715Y-2165226D01*
X3577715Y-2221795D01*
X3634284Y-2221795D01*
X3634284Y-2983795D02*
X3634284Y-2927226D01*
X3577715Y-2927226D01*
X3577715Y-2983795D01*
X3634284Y-2983795D01*
X3888284Y-2221795D02*
X3888284Y-2165226D01*
X3831715Y-2165226D01*
X3831715Y-2221795D01*
X3888284Y-2221795D01*
X3888284Y-2983795D02*
X3888284Y-2927226D01*
X3831715Y-2927226D01*
X3831715Y-2983795D01*
X3888284Y-2983795D01*
X4142284Y-2221795D02*
X4142284Y-2165226D01*
X4085715Y-2165226D01*
X4085715Y-2221795D01*
X4142284Y-2221795D01*
X4142284Y-2983795D02*
X4142284Y-2927226D01*
X4085715Y-2927226D01*
X4085715Y-2983795D01*
X4142284Y-2983795D01*
X4269285Y-4941285D02*
X4269285Y-4884716D01*
X4212716Y-4884716D01*
X4212716Y-4941285D01*
X4269285Y-4941285D01*
X4269285Y-5195285D02*
X4269285Y-5138716D01*
X4212716Y-5138716D01*
X4212716Y-5195285D01*
X4269285Y-5195285D01*
X4269285Y-5449285D02*
X4269285Y-5392716D01*
X4212716Y-5392716D01*
X4212716Y-5449285D01*
X4269285Y-5449285D01*
X4269285Y-5703284D02*
X4269285Y-5646715D01*
X4212716Y-5646715D01*
X4212716Y-5703284D01*
X4269285Y-5703284D01*
X4396285Y-2221795D02*
X4396285Y-2165226D01*
X4339716Y-2165226D01*
X4339716Y-2221795D01*
X4396285Y-2221795D01*
X4396285Y-2983795D02*
X4396285Y-2927226D01*
X4339716Y-2927226D01*
X4339716Y-2983795D01*
X4396285Y-2983795D01*
X4816285Y-2241285D02*
X4816285Y-2184716D01*
X4759716Y-2184716D01*
X4759716Y-2241285D01*
X4816285Y-2241285D01*
X4816285Y-2495285D02*
X4816285Y-2438716D01*
X4759716Y-2438716D01*
X4759716Y-2495285D01*
X4816285Y-2495285D01*
X4816285Y-2749285D02*
X4816285Y-2692716D01*
X4759716Y-2692716D01*
X4759716Y-2749285D01*
X4816285Y-2749285D01*
X4816285Y-3003284D02*
X4816285Y-2946715D01*
X4759716Y-2946715D01*
X4759716Y-3003284D01*
X4816285Y-3003284D01*
X5412285Y-4941285D02*
X5412285Y-4884716D01*
X5355716Y-4884716D01*
X5355716Y-4941285D01*
X5412285Y-4941285D01*
X5412285Y-5195285D02*
X5412285Y-5138716D01*
X5355716Y-5138716D01*
X5355716Y-5195285D01*
X5412285Y-5195285D01*
X5412285Y-5449285D02*
X5412285Y-5392716D01*
X5355716Y-5392716D01*
X5355716Y-5449285D01*
X5412285Y-5449285D01*
X5412285Y-5703284D02*
X5412285Y-5646715D01*
X5355716Y-5646715D01*
X5355716Y-5703284D01*
X5412285Y-5703284D01*
X5578285Y-2241285D02*
X5578285Y-2184716D01*
X5521716Y-2184716D01*
X5521716Y-2241285D01*
X5578285Y-2241285D01*
X5578285Y-2495285D02*
X5578285Y-2438716D01*
X5521716Y-2438716D01*
X5521716Y-2495285D01*
X5578285Y-2495285D01*
X5578285Y-2749285D02*
X5578285Y-2692716D01*
X5521716Y-2692716D01*
X5521716Y-2749285D01*
X5578285Y-2749285D01*
X5578285Y-3003284D02*
X5578285Y-2946715D01*
X5521716Y-2946715D01*
X5521716Y-3003284D01*
X5578285Y-3003284D01*
X6174284Y-4941285D02*
X6174284Y-4884716D01*
X6117715Y-4884716D01*
X6117715Y-4941285D01*
X6174284Y-4941285D01*
X6174284Y-5195285D02*
X6174284Y-5138716D01*
X6117715Y-5138716D01*
X6117715Y-5195285D01*
X6174284Y-5195285D01*
X6174284Y-5449285D02*
X6174284Y-5392716D01*
X6117715Y-5392716D01*
X6117715Y-5449285D01*
X6174284Y-5449285D01*
X6174284Y-5703284D02*
X6174284Y-5646715D01*
X6117715Y-5646715D01*
X6117715Y-5703284D01*
X6174284Y-5703284D01*
X6497984Y-2278385D02*
X6497984Y-2221816D01*
X6441415Y-2221816D01*
X6441415Y-2278385D01*
X6497984Y-2278385D01*
X6497984Y-2532385D02*
X6497984Y-2475816D01*
X6441415Y-2475816D01*
X6441415Y-2532385D01*
X6497984Y-2532385D01*
X6497984Y-2786385D02*
X6497984Y-2729816D01*
X6441415Y-2729816D01*
X6441415Y-2786385D01*
X6497984Y-2786385D01*
X6497984Y-3040384D02*
X6497984Y-2983815D01*
X6441415Y-2983815D01*
X6441415Y-3040384D01*
X6497984Y-3040384D01*
X6993163Y-4831126D02*
X6993163Y-4774557D01*
X6936594Y-4774557D01*
X6936594Y-4831126D01*
X6993163Y-4831126D01*
X6993163Y-5085126D02*
X6993163Y-5028557D01*
X6936594Y-5028557D01*
X6936594Y-5085126D01*
X6993163Y-5085126D01*
X6993163Y-5339126D02*
X6993163Y-5282557D01*
X6936594Y-5282557D01*
X6936594Y-5339126D01*
X6993163Y-5339126D01*
X6993163Y-5593126D02*
X6993163Y-5536557D01*
X6936594Y-5536557D01*
X6936594Y-5593126D01*
X6993163Y-5593126D01*
X7259984Y-2278385D02*
X7259984Y-2221816D01*
X7203415Y-2221816D01*
X7203415Y-2278385D01*
X7259984Y-2278385D01*
X7259984Y-2532385D02*
X7259984Y-2475816D01*
X7203415Y-2475816D01*
X7203415Y-2532385D01*
X7259984Y-2532385D01*
X7259984Y-2786385D02*
X7259984Y-2729816D01*
X7203415Y-2729816D01*
X7203415Y-2786385D01*
X7259984Y-2786385D01*
X7259984Y-3040384D02*
X7259984Y-2983815D01*
X7203415Y-2983815D01*
X7203415Y-3040384D01*
X7259984Y-3040384D01*
X7755163Y-4831126D02*
X7755163Y-4774557D01*
X7698594Y-4774557D01*
X7698594Y-4831126D01*
X7755163Y-4831126D01*
X7755163Y-5085126D02*
X7755163Y-5028557D01*
X7698594Y-5028557D01*
X7698594Y-5085126D01*
X7755163Y-5085126D01*
X7755163Y-5339126D02*
X7755163Y-5282557D01*
X7698594Y-5282557D01*
X7698594Y-5339126D01*
X7755163Y-5339126D01*
X7755163Y-5593126D02*
X7755163Y-5536557D01*
X7698594Y-5536557D01*
X7698594Y-5593126D01*
X7755163Y-5593126D01*
X8968285Y-2147285D02*
X8968285Y-2090715D01*
X8911716Y-2090715D01*
X8911716Y-2147285D01*
X8968285Y-2147285D01*
X8968285Y-2909284D02*
X8968285Y-2852715D01*
X8911716Y-2852715D01*
X8911716Y-2909284D01*
X8968285Y-2909284D01*
X9222285Y-2147285D02*
X9222285Y-2090715D01*
X9165716Y-2090715D01*
X9165716Y-2147285D01*
X9222285Y-2147285D01*
X9222285Y-2909284D02*
X9222285Y-2852715D01*
X9165716Y-2852715D01*
X9165716Y-2909284D01*
X9222285Y-2909284D01*
X9274285Y-4900785D02*
X9274285Y-4844216D01*
X9217716Y-4844216D01*
X9217716Y-4900785D01*
X9274285Y-4900785D01*
X9274285Y-5154785D02*
X9274285Y-5098216D01*
X9217716Y-5098216D01*
X9217716Y-5154785D01*
X9274285Y-5154785D01*
X9274285Y-5408785D02*
X9274285Y-5352216D01*
X9217716Y-5352216D01*
X9217716Y-5408785D01*
X9274285Y-5408785D01*
X9274285Y-5662784D02*
X9274285Y-5606215D01*
X9217716Y-5606215D01*
X9217716Y-5662784D01*
X9274285Y-5662784D01*
X9476285Y-2147285D02*
X9476285Y-2090715D01*
X9419716Y-2090715D01*
X9419716Y-2147285D01*
X9476285Y-2147285D01*
X9476285Y-2909284D02*
X9476285Y-2852715D01*
X9419716Y-2852715D01*
X9419716Y-2909284D01*
X9476285Y-2909284D01*
X9730285Y-2147285D02*
X9730285Y-2090715D01*
X9673716Y-2090715D01*
X9673716Y-2147285D01*
X9730285Y-2147285D01*
X9730285Y-2909284D02*
X9730285Y-2852715D01*
X9673716Y-2852715D01*
X9673716Y-2909284D01*
X9730285Y-2909284D01*
X10036285Y-4900785D02*
X10036285Y-4844216D01*
X9979716Y-4844216D01*
X9979716Y-4900785D01*
X10036285Y-4900785D01*
X10036285Y-5154785D02*
X10036285Y-5098216D01*
X9979716Y-5098216D01*
X9979716Y-5154785D01*
X10036285Y-5154785D01*
X10036285Y-5408785D02*
X10036285Y-5352216D01*
X9979716Y-5352216D01*
X9979716Y-5408785D01*
X10036285Y-5408785D01*
X10036285Y-5662784D02*
X10036285Y-5606215D01*
X9979716Y-5606215D01*
X9979716Y-5662784D01*
X10036285Y-5662784D01*
X10798285Y-5154785D02*
X10798285Y-5098216D01*
X10741716Y-5098216D01*
X10741716Y-5154785D01*
X10798285Y-5154785D01*
X10798285Y-5408785D02*
X10798285Y-5352216D01*
X10741716Y-5352216D01*
X10741716Y-5408785D01*
X10798285Y-5408785D01*
X10798285Y-5662784D02*
X10798285Y-5606215D01*
X10741716Y-5606215D01*
X10741716Y-5662784D01*
X10798285Y-5662784D01*
X10798285Y-5916784D02*
X10798285Y-5860215D01*
X10741716Y-5860215D01*
X10741716Y-5916784D01*
X10798285Y-5916784D01*
X11560284Y-5154785D02*
X11560284Y-5098216D01*
X11503715Y-5098216D01*
X11503715Y-5154785D01*
X11560284Y-5154785D01*
X11560284Y-5408785D02*
X11560284Y-5352216D01*
X11503715Y-5352216D01*
X11503715Y-5408785D01*
X11560284Y-5408785D01*
X11560284Y-5662784D02*
X11560284Y-5606215D01*
X11503715Y-5606215D01*
X11503715Y-5662784D01*
X11560284Y-5662784D01*
X11560284Y-5916784D02*
X11560284Y-5860215D01*
X11503715Y-5860215D01*
X11503715Y-5916784D01*
X11560284Y-5916784D01*
X4495000Y-7366640D02*
X4535640Y-7326000D01*
X4495000Y-7285360D01*
X4454360Y-7326000D01*
X4495000Y-7366640D01*
X4495000Y-7620640D02*
X4535640Y-7580000D01*
X4495000Y-7539360D01*
X4454360Y-7580000D01*
X4495000Y-7620640D01*
X4495000Y-7874640D02*
X4535640Y-7834000D01*
X4495000Y-7793360D01*
X4454360Y-7834000D01*
X4495000Y-7874640D01*
X5638000Y-7366640D02*
X5678640Y-7326000D01*
X5638000Y-7285360D01*
X5597360Y-7326000D01*
X5638000Y-7366640D01*
X5638000Y-7620640D02*
X5678640Y-7580000D01*
X5638000Y-7539360D01*
X5597360Y-7580000D01*
X5638000Y-7620640D01*
X5638000Y-7874640D02*
X5678640Y-7834000D01*
X5638000Y-7793360D01*
X5597360Y-7834000D01*
X5638000Y-7874640D01*
X6781000Y-7366640D02*
X6821640Y-7326000D01*
X6781000Y-7285360D01*
X6740360Y-7326000D01*
X6781000Y-7366640D01*
X6781000Y-7620640D02*
X6821640Y-7580000D01*
X6781000Y-7539360D01*
X6740360Y-7580000D01*
X6781000Y-7620640D01*
X6781000Y-7874640D02*
X6821640Y-7834000D01*
X6781000Y-7793360D01*
X6740360Y-7834000D01*
X6781000Y-7874640D01*
X8350000Y-7354140D02*
X8390640Y-7313500D01*
X8350000Y-7272860D01*
X8309360Y-7313500D01*
X8350000Y-7354140D01*
X8350000Y-7608140D02*
X8390640Y-7567500D01*
X8350000Y-7526860D01*
X8309360Y-7567500D01*
X8350000Y-7608140D01*
X8350000Y-7862140D02*
X8390640Y-7821500D01*
X8350000Y-7780860D01*
X8309360Y-7821500D01*
X8350000Y-7862140D01*
X9150000Y-7326140D02*
X9190640Y-7285500D01*
X9150000Y-7244860D01*
X9109360Y-7285500D01*
X9150000Y-7326140D01*
X9150000Y-7580140D02*
X9190640Y-7539500D01*
X9150000Y-7498860D01*
X9109360Y-7539500D01*
X9150000Y-7580140D01*
X9150000Y-7834140D02*
X9190640Y-7793500D01*
X9150000Y-7752860D01*
X9109360Y-7793500D01*
X9150000Y-7834140D01*
X10039000Y-7326140D02*
X10079640Y-7285500D01*
X10039000Y-7244860D01*
X9998360Y-7285500D01*
X10039000Y-7326140D01*
X10039000Y-7580140D02*
X10079640Y-7539500D01*
X10039000Y-7498860D01*
X9998360Y-7539500D01*
X10039000Y-7580140D01*
X10039000Y-7834140D02*
X10079640Y-7793500D01*
X10039000Y-7752860D01*
X9998360Y-7793500D01*
X10039000Y-7834140D01*
X10650000Y-7326140D02*
X10690640Y-7285500D01*
X10650000Y-7244860D01*
X10609360Y-7285500D01*
X10650000Y-7326140D01*
X10650000Y-7580140D02*
X10690640Y-7539500D01*
X10650000Y-7498860D01*
X10609360Y-7539500D01*
X10650000Y-7580140D01*
X10650000Y-7834140D02*
X10690640Y-7793500D01*
X10650000Y-7752860D01*
X10609360Y-7793500D01*
X10650000Y-7834140D01*
X11900000Y-7326140D02*
X11940640Y-7285500D01*
X11900000Y-7244860D01*
X11859360Y-7285500D01*
X11900000Y-7326140D01*
X11900000Y-7580140D02*
X11940640Y-7539500D01*
X11900000Y-7498860D01*
X11859360Y-7539500D01*
X11900000Y-7580140D01*
X11900000Y-7834140D02*
X11940640Y-7793500D01*
X11900000Y-7752860D01*
X11859360Y-7793500D01*
X11900000Y-7834140D01*
X976662Y-7570362D02*
X1076738Y-7670438D01*
X1076738Y-7570362D02*
X976662Y-7670438D01*
X1076738Y-7620400D02*
G75*
G03X1076738Y-7620400I-50038J0D01*
G01*
X976662Y-7824362D02*
X1076738Y-7924438D01*
X1076738Y-7824362D02*
X976662Y-7924438D01*
X1076738Y-7874400D02*
G75*
G03X1076738Y-7874400I-50038J0D01*
G01*
X1655026Y-1170088D02*
X1755102Y-1270164D01*
X1755102Y-1170088D02*
X1655026Y-1270164D01*
X1755102Y-1220126D02*
G75*
G03X1755102Y-1220126I-50038J0D01*
G01*
X1904962Y-1170088D02*
X2005038Y-1270164D01*
X2005038Y-1170088D02*
X1904962Y-1270164D01*
X2005038Y-1220126D02*
G75*
G03X2005038Y-1220126I-50038J0D01*
G01*
X2158962Y-3719962D02*
X2259038Y-3820038D01*
X2259038Y-3719962D02*
X2158962Y-3820038D01*
X2259038Y-3770000D02*
G75*
G03X2259038Y-3770000I-50038J0D01*
G01*
X2412962Y-3719962D02*
X2513038Y-3820038D01*
X2513038Y-3719962D02*
X2412962Y-3820038D01*
X2513038Y-3770000D02*
G75*
G03X2513038Y-3770000I-50038J0D01*
G01*
X2666962Y-3719962D02*
X2767038Y-3820038D01*
X2767038Y-3719962D02*
X2666962Y-3820038D01*
X2767038Y-3770000D02*
G75*
G03X2767038Y-3770000I-50038J0D01*
G01*
X3720065Y-1172939D02*
X3820141Y-1273015D01*
X3820141Y-1172939D02*
X3720065Y-1273015D01*
X3820141Y-1222977D02*
G75*
G03X3820141Y-1222977I-50038J0D01*
G01*
X3970001Y-1172939D02*
X4070077Y-1273015D01*
X4070077Y-1172939D02*
X3970001Y-1273015D01*
X4070077Y-1222977D02*
G75*
G03X4070077Y-1222977I-50038J0D01*
G01*
X5339804Y-1172088D02*
X5439880Y-1272164D01*
X5439880Y-1172088D02*
X5339804Y-1272164D01*
X5439880Y-1222126D02*
G75*
G03X5439880Y-1222126I-50038J0D01*
G01*
X5589740Y-1172088D02*
X5689816Y-1272164D01*
X5689816Y-1172088D02*
X5589740Y-1272164D01*
X5689816Y-1222126D02*
G75*
G03X5689816Y-1222126I-50038J0D01*
G01*
X6472136Y-6259962D02*
X6572212Y-6360038D01*
X6572212Y-6259962D02*
X6472136Y-6360038D01*
X6572212Y-6310000D02*
G75*
G03X6572212Y-6310000I-50038J0D01*
G01*
X7116026Y-1179962D02*
X7216102Y-1280038D01*
X7216102Y-1179962D02*
X7116026Y-1280038D01*
X7216102Y-1230000D02*
G75*
G03X7216102Y-1230000I-50038J0D01*
G01*
X7365962Y-1179962D02*
X7466038Y-1280038D01*
X7466038Y-1179962D02*
X7365962Y-1280038D01*
X7466038Y-1230000D02*
G75*
G03X7466038Y-1230000I-50038J0D01*
G01*
X7472388Y-6259962D02*
X7572464Y-6360038D01*
X7572464Y-6259962D02*
X7472388Y-6360038D01*
X7572464Y-6310000D02*
G75*
G03X7572464Y-6310000I-50038J0D01*
G01*
X8758136Y-6386962D02*
X8858212Y-6487038D01*
X8858212Y-6386962D02*
X8758136Y-6487038D01*
X8858212Y-6437000D02*
G75*
G03X8858212Y-6437000I-50038J0D01*
G01*
X8894026Y-1172088D02*
X8994102Y-1272164D01*
X8994102Y-1172088D02*
X8894026Y-1272164D01*
X8994102Y-1222126D02*
G75*
G03X8994102Y-1222126I-50038J0D01*
G01*
X9143962Y-1172088D02*
X9244038Y-1272164D01*
X9244038Y-1172088D02*
X9143962Y-1272164D01*
X9244038Y-1222126D02*
G75*
G03X9244038Y-1222126I-50038J0D01*
G01*
X9758388Y-6386962D02*
X9858464Y-6487038D01*
X9858464Y-6386962D02*
X9758388Y-6487038D01*
X9858464Y-6437000D02*
G75*
G03X9858464Y-6437000I-50038J0D01*
G01*
X5784200Y-2103700D02*
X5885800Y-2205300D01*
X5885800Y-2103700D02*
X5784200Y-2205300D01*
X5835000Y-2103700D02*
X5835000Y-2205300D01*
X5784200Y-2154500D02*
X5885800Y-2154500D01*
X5784200Y-2357700D02*
X5885800Y-2459300D01*
X5885800Y-2357700D02*
X5784200Y-2459300D01*
X5835000Y-2357700D02*
X5835000Y-2459300D01*
X5784200Y-2408500D02*
X5885800Y-2408500D01*
X5784200Y-2611700D02*
X5885800Y-2713300D01*
X5885800Y-2611700D02*
X5784200Y-2713300D01*
X5835000Y-2611700D02*
X5835000Y-2713300D01*
X5784200Y-2662500D02*
X5885800Y-2662500D01*
X6139200Y-2106700D02*
X6240800Y-2208300D01*
X6240800Y-2106700D02*
X6139200Y-2208300D01*
X6190000Y-2106700D02*
X6190000Y-2208300D01*
X6139200Y-2157500D02*
X6240800Y-2157500D01*
X6139200Y-2360700D02*
X6240800Y-2462300D01*
X6240800Y-2360700D02*
X6139200Y-2462300D01*
X6190000Y-2360700D02*
X6190000Y-2462300D01*
X6139200Y-2411500D02*
X6240800Y-2411500D01*
X6139200Y-2614700D02*
X6240800Y-2716300D01*
X6240800Y-2614700D02*
X6139200Y-2716300D01*
X6190000Y-2614700D02*
X6190000Y-2716300D01*
X6139200Y-2665500D02*
X6240800Y-2665500D01*
X1260000Y-5519000D02*
X1380000Y-5639000D01*
X1380000Y-5519000D02*
X1260000Y-5639000D01*
X1362427Y-5621427D02*
X1362427Y-5536573D01*
X1277573Y-5536573D01*
X1277573Y-5621427D01*
X1362427Y-5621427D01*
X1260000Y-5869000D02*
X1380000Y-5989000D01*
X1380000Y-5869000D02*
X1260000Y-5989000D01*
X1362427Y-5971427D02*
X1362427Y-5886573D01*
X1277573Y-5886573D01*
X1277573Y-5971427D01*
X1362427Y-5971427D01*
X1260000Y-6219000D02*
X1380000Y-6339000D01*
X1380000Y-6219000D02*
X1260000Y-6339000D01*
X1362427Y-6321427D02*
X1362427Y-6236573D01*
X1277573Y-6236573D01*
X1277573Y-6321427D01*
X1362427Y-6321427D01*
X7585960Y-2244460D02*
X7718040Y-2376540D01*
X7718040Y-2244460D02*
X7585960Y-2376540D01*
X7652000Y-2376540D02*
X7718040Y-2310500D01*
X7652000Y-2244460D01*
X7585960Y-2310500D01*
X7652000Y-2376540D01*
X7585960Y-3260460D02*
X7718040Y-3392540D01*
X7718040Y-3260460D02*
X7585960Y-3392540D01*
X7652000Y-3392540D02*
X7718040Y-3326500D01*
X7652000Y-3260460D01*
X7585960Y-3326500D01*
X7652000Y-3392540D01*
X8093960Y-2244460D02*
X8226040Y-2376540D01*
X8226040Y-2244460D02*
X8093960Y-2376540D01*
X8160000Y-2376540D02*
X8226040Y-2310500D01*
X8160000Y-2244460D01*
X8093960Y-2310500D01*
X8160000Y-2376540D01*
X8093960Y-3260460D02*
X8226040Y-3392540D01*
X8226040Y-3260460D02*
X8093960Y-3392540D01*
X8160000Y-3392540D02*
X8226040Y-3326500D01*
X8160000Y-3260460D01*
X8093960Y-3326500D01*
X8160000Y-3392540D01*
X11275000Y-6855000D02*
X11275000Y-7005000D01*
X11200000Y-6930000D02*
X11350000Y-6930000D01*
X11350000Y-6930000D02*
G75*
G03X11350000Y-6930000I-75000J0D01*
G01*
X11275000Y-7325000D02*
X11275000Y-7475000D01*
X11200000Y-7400000D02*
X11350000Y-7400000D01*
X11350000Y-7400000D02*
G75*
G03X11350000Y-7400000I-75000J0D01*
G01*
X11275000Y-7795000D02*
X11275000Y-7945000D01*
X11200000Y-7870000D02*
X11350000Y-7870000D01*
X11350000Y-7870000D02*
G75*
G03X11350000Y-7870000I-75000J0D01*
G01*
X1522992Y-871430D02*
X1522992Y-715890D01*
X1367452Y-715890D01*
X1367452Y-871430D01*
X1522992Y-871430D01*
X1555204Y-793660D02*
G75*
G03X1555204Y-793660I-109982J0D01*
G01*
X2542802Y-871430D02*
X2542802Y-715890D01*
X2387262Y-715890D01*
X2387262Y-871430D01*
X2542802Y-871430D01*
X2575014Y-793660D02*
G75*
G03X2575014Y-793660I-109982J0D01*
G01*
X3588031Y-874280D02*
X3588031Y-718741D01*
X3432491Y-718741D01*
X3432491Y-874280D01*
X3588031Y-874280D01*
X3620243Y-796510D02*
G75*
G03X3620243Y-796510I-109982J0D01*
G01*
X4607841Y-874280D02*
X4607841Y-718741D01*
X4452302Y-718741D01*
X4452302Y-874280D01*
X4607841Y-874280D01*
X4640053Y-796510D02*
G75*
G03X4640053Y-796510I-109982J0D01*
G01*
X5207770Y-873430D02*
X5207770Y-717890D01*
X5052230Y-717890D01*
X5052230Y-873430D01*
X5207770Y-873430D01*
X5239982Y-795660D02*
G75*
G03X5239982Y-795660I-109982J0D01*
G01*
X6227580Y-873430D02*
X6227580Y-717890D01*
X6072040Y-717890D01*
X6072040Y-873430D01*
X6227580Y-873430D01*
X6259792Y-795660D02*
G75*
G03X6259792Y-795660I-109982J0D01*
G01*
X6983992Y-881304D02*
X6983992Y-725764D01*
X6828452Y-725764D01*
X6828452Y-881304D01*
X6983992Y-881304D01*
X7016204Y-803534D02*
G75*
G03X7016204Y-803534I-109982J0D01*
G01*
X8003802Y-881304D02*
X8003802Y-725764D01*
X7848262Y-725764D01*
X7848262Y-881304D01*
X8003802Y-881304D01*
X8036014Y-803534D02*
G75*
G03X8036014Y-803534I-109982J0D01*
G01*
X8761992Y-873430D02*
X8761992Y-717890D01*
X8606452Y-717890D01*
X8606452Y-873430D01*
X8761992Y-873430D01*
X8794204Y-795660D02*
G75*
G03X8794204Y-795660I-109982J0D01*
G01*
X9781802Y-873430D02*
X9781802Y-717890D01*
X9626262Y-717890D01*
X9626262Y-873430D01*
X9781802Y-873430D01*
X9814014Y-795660D02*
G75*
G03X9814014Y-795660I-109982J0D01*
G01*
X500000Y-675000D02*
X675000Y-500000D01*
X500000Y-325000D01*
X325000Y-500000D01*
X500000Y-675000D01*
X675000Y-500000D02*
G75*
G03X675000Y-500000I-175000J0D01*
G01*
X500000Y-8175000D02*
X675000Y-8000000D01*
X500000Y-7825000D01*
X325000Y-8000000D01*
X500000Y-8175000D01*
X675000Y-8000000D02*
G75*
G03X675000Y-8000000I-175000J0D01*
G01*
X12500000Y-675000D02*
X12675000Y-500000D01*
X12500000Y-325000D01*
X12325000Y-500000D01*
X12500000Y-675000D01*
X12675000Y-500000D02*
G75*
G03X12675000Y-500000I-175000J0D01*
G01*
X12500000Y-8175000D02*
X12675000Y-8000000D01*
X12500000Y-7825000D01*
X12325000Y-8000000D01*
X12500000Y-8175000D01*
X12675000Y-8000000D02*
G75*
G03X12675000Y-8000000I-175000J0D01*
G01*
D13*
X263929Y-8973214D02*
X263929Y-8673214D01*
X335357Y-8673214D01*
X378214Y-8687500D01*
X406786Y-8716072D01*
X421071Y-8744643D01*
X435357Y-8801786D01*
X435357Y-8844643D01*
X421071Y-8901786D01*
X406786Y-8930357D01*
X378214Y-8958929D01*
X335357Y-8973214D01*
X263929Y-8973214D01*
X563929Y-8973214D02*
X563929Y-8773214D01*
X563929Y-8830357D02*
X578214Y-8801786D01*
X592500Y-8787500D01*
X621071Y-8773214D01*
X649643Y-8773214D01*
X749643Y-8973214D02*
X749643Y-8773214D01*
X749643Y-8673214D02*
X735357Y-8687500D01*
X749643Y-8701786D01*
X763928Y-8687500D01*
X749643Y-8673214D01*
X749643Y-8701786D01*
X935357Y-8973214D02*
X906786Y-8958929D01*
X892500Y-8930357D01*
X892500Y-8673214D01*
X1092500Y-8973214D02*
X1063929Y-8958929D01*
X1049643Y-8930357D01*
X1049643Y-8673214D01*
X1435357Y-8973214D02*
X1435357Y-8673214D01*
X1535357Y-8887500D01*
X1635357Y-8673214D01*
X1635357Y-8973214D01*
X1906786Y-8973214D02*
X1906786Y-8816072D01*
X1892500Y-8787500D01*
X1863928Y-8773214D01*
X1806786Y-8773214D01*
X1778214Y-8787500D01*
X1906786Y-8958929D02*
X1878214Y-8973214D01*
X1806786Y-8973214D01*
X1778214Y-8958929D01*
X1763928Y-8930357D01*
X1763928Y-8901786D01*
X1778214Y-8873214D01*
X1806786Y-8858929D01*
X1878214Y-8858929D01*
X1906786Y-8844643D01*
X2049643Y-8773214D02*
X2049643Y-9073214D01*
X2049643Y-8787500D02*
X2078214Y-8773214D01*
X2135357Y-8773214D01*
X2163929Y-8787500D01*
X2178214Y-8801786D01*
X2192500Y-8830357D01*
X2192500Y-8916072D01*
X2178214Y-8944643D01*
X2163929Y-8958929D01*
X2135357Y-8973214D01*
X2078214Y-8973214D01*
X2049643Y-8958929D01*
X2321071Y-8944643D02*
X2335357Y-8958929D01*
X2321071Y-8973214D01*
X2306786Y-8958929D01*
X2321071Y-8944643D01*
X2321071Y-8973214D01*
X2321071Y-8787500D02*
X2335357Y-8801786D01*
X2321071Y-8816072D01*
X2306786Y-8801786D01*
X2321071Y-8787500D01*
X2321071Y-8816072D01*
X-47500Y-9447500D02*
X-7500Y-9487500D01*
X-7500Y-9447500D02*
X-47500Y-9487500D01*
X321071Y-9303214D02*
X349643Y-9303214D01*
X378214Y-9317500D01*
X392500Y-9331786D01*
X406786Y-9360357D01*
X421071Y-9417500D01*
X421071Y-9488929D01*
X406786Y-9546072D01*
X392500Y-9574643D01*
X378214Y-9588929D01*
X349643Y-9603214D01*
X321071Y-9603214D01*
X292500Y-9588929D01*
X278214Y-9574643D01*
X263929Y-9546072D01*
X249643Y-9488929D01*
X249643Y-9417500D01*
X263929Y-9360357D01*
X278214Y-9331786D01*
X292500Y-9317500D01*
X321071Y-9303214D01*
X549643Y-9574643D02*
X563929Y-9588929D01*
X549643Y-9603214D01*
X535357Y-9588929D01*
X549643Y-9574643D01*
X549643Y-9603214D01*
X821071Y-9403214D02*
X821071Y-9603214D01*
X749643Y-9288929D02*
X678214Y-9503214D01*
X863928Y-9503214D01*
X1035357Y-9303214D02*
X1063929Y-9303214D01*
X1092500Y-9317500D01*
X1106786Y-9331786D01*
X1121071Y-9360357D01*
X1135357Y-9417500D01*
X1135357Y-9488929D01*
X1121071Y-9546072D01*
X1106786Y-9574643D01*
X1092500Y-9588929D01*
X1063929Y-9603214D01*
X1035357Y-9603214D01*
X1006786Y-9588929D01*
X992500Y-9574643D01*
X978214Y-9546072D01*
X963928Y-9488929D01*
X963928Y-9417500D01*
X978214Y-9360357D01*
X992500Y-9331786D01*
X1006786Y-9317500D01*
X1035357Y-9303214D01*
X1263929Y-9603214D02*
X1263929Y-9403214D01*
X1263929Y-9431786D02*
X1278214Y-9417500D01*
X1306786Y-9403214D01*
X1349643Y-9403214D01*
X1378214Y-9417500D01*
X1392500Y-9446072D01*
X1392500Y-9603214D01*
X1392500Y-9446072D02*
X1406786Y-9417500D01*
X1435357Y-9403214D01*
X1478214Y-9403214D01*
X1506786Y-9417500D01*
X1521071Y-9446072D01*
X1521071Y-9603214D01*
X1663928Y-9603214D02*
X1663928Y-9403214D01*
X1663928Y-9431786D02*
X1678214Y-9417500D01*
X1706786Y-9403214D01*
X1749643Y-9403214D01*
X1778214Y-9417500D01*
X1792500Y-9446072D01*
X1792500Y-9603214D01*
X1792500Y-9446072D02*
X1806786Y-9417500D01*
X1835357Y-9403214D01*
X1878214Y-9403214D01*
X1906786Y-9417500D01*
X1921071Y-9446072D01*
X1921071Y-9603214D01*
X2506786Y-9288929D02*
X2249643Y-9674643D01*
X2892500Y-9303214D02*
X2921071Y-9303214D01*
X2949643Y-9317500D01*
X2963928Y-9331786D01*
X2978214Y-9360357D01*
X2992500Y-9417500D01*
X2992500Y-9488929D01*
X2978214Y-9546072D01*
X2963928Y-9574643D01*
X2949643Y-9588929D01*
X2921071Y-9603214D01*
X2892500Y-9603214D01*
X2863928Y-9588929D01*
X2849643Y-9574643D01*
X2835357Y-9546072D01*
X2821071Y-9488929D01*
X2821071Y-9417500D01*
X2835357Y-9360357D01*
X2849643Y-9331786D01*
X2863928Y-9317500D01*
X2892500Y-9303214D01*
X3121071Y-9574643D02*
X3135357Y-9588929D01*
X3121071Y-9603214D01*
X3106786Y-9588929D01*
X3121071Y-9574643D01*
X3121071Y-9603214D01*
X3321071Y-9303214D02*
X3349643Y-9303214D01*
X3378214Y-9317500D01*
X3392500Y-9331786D01*
X3406785Y-9360357D01*
X3421071Y-9417500D01*
X3421071Y-9488929D01*
X3406785Y-9546072D01*
X3392500Y-9574643D01*
X3378214Y-9588929D01*
X3349643Y-9603214D01*
X3321071Y-9603214D01*
X3292500Y-9588929D01*
X3278214Y-9574643D01*
X3263928Y-9546072D01*
X3249643Y-9488929D01*
X3249643Y-9417500D01*
X3263928Y-9360357D01*
X3278214Y-9331786D01*
X3292500Y-9317500D01*
X3321071Y-9303214D01*
X3706785Y-9603214D02*
X3535357Y-9603214D01*
X3621071Y-9603214D02*
X3621071Y-9303214D01*
X3592500Y-9346072D01*
X3563928Y-9374643D01*
X3535357Y-9388929D01*
X3963928Y-9303214D02*
X3906785Y-9303214D01*
X3878214Y-9317500D01*
X3863928Y-9331786D01*
X3835357Y-9374643D01*
X3821071Y-9431786D01*
X3821071Y-9546072D01*
X3835357Y-9574643D01*
X3849643Y-9588929D01*
X3878214Y-9603214D01*
X3935357Y-9603214D01*
X3963928Y-9588929D01*
X3978214Y-9574643D01*
X3992500Y-9546072D01*
X3992500Y-9474643D01*
X3978214Y-9446072D01*
X3963928Y-9431786D01*
X3935357Y-9417500D01*
X3878214Y-9417500D01*
X3849643Y-9431786D01*
X3835357Y-9446072D01*
X3821071Y-9474643D01*
X4106786Y-9303214D02*
X4106786Y-9360357D01*
X4221071Y-9303214D02*
X4221071Y-9360357D01*
X4663928Y-9717500D02*
X4649643Y-9703214D01*
X4621071Y-9660357D01*
X4606786Y-9631786D01*
X4592500Y-9588929D01*
X4578214Y-9517500D01*
X4578214Y-9460357D01*
X4592500Y-9388929D01*
X4606786Y-9346072D01*
X4621071Y-9317500D01*
X4649643Y-9274643D01*
X4663928Y-9260357D01*
X4906786Y-9403214D02*
X4906786Y-9603214D01*
X4835357Y-9288929D02*
X4763928Y-9503214D01*
X4949643Y-9503214D01*
X5049643Y-9331786D02*
X5063928Y-9317500D01*
X5092500Y-9303214D01*
X5163928Y-9303214D01*
X5192500Y-9317500D01*
X5206786Y-9331786D01*
X5221071Y-9360357D01*
X5221071Y-9388929D01*
X5206786Y-9431786D01*
X5035357Y-9603214D01*
X5221071Y-9603214D01*
X5578214Y-9603214D02*
X5578214Y-9303214D01*
X5706785Y-9603214D02*
X5706785Y-9446072D01*
X5692500Y-9417500D01*
X5663928Y-9403214D01*
X5621071Y-9403214D01*
X5592500Y-9417500D01*
X5578214Y-9431786D01*
X5892500Y-9603214D02*
X5863928Y-9588929D01*
X5849643Y-9574643D01*
X5835357Y-9546072D01*
X5835357Y-9460357D01*
X5849643Y-9431786D01*
X5863928Y-9417500D01*
X5892500Y-9403214D01*
X5935357Y-9403214D01*
X5963928Y-9417500D01*
X5978214Y-9431786D01*
X5992500Y-9460357D01*
X5992500Y-9546072D01*
X5978214Y-9574643D01*
X5963928Y-9588929D01*
X5935357Y-9603214D01*
X5892500Y-9603214D01*
X6163928Y-9603214D02*
X6135357Y-9588929D01*
X6121071Y-9560357D01*
X6121071Y-9303214D01*
X6392500Y-9588929D02*
X6363928Y-9603214D01*
X6306786Y-9603214D01*
X6278214Y-9588929D01*
X6263928Y-9560357D01*
X6263928Y-9446072D01*
X6278214Y-9417500D01*
X6306786Y-9403214D01*
X6363928Y-9403214D01*
X6392500Y-9417500D01*
X6406786Y-9446072D01*
X6406786Y-9474643D01*
X6263928Y-9503214D01*
X6521071Y-9588929D02*
X6549643Y-9603214D01*
X6606786Y-9603214D01*
X6635357Y-9588929D01*
X6649643Y-9560357D01*
X6649643Y-9546072D01*
X6635357Y-9517500D01*
X6606786Y-9503214D01*
X6563928Y-9503214D01*
X6535357Y-9488929D01*
X6521071Y-9460357D01*
X6521071Y-9446072D01*
X6535357Y-9417500D01*
X6563928Y-9403214D01*
X6606786Y-9403214D01*
X6635357Y-9417500D01*
X6749643Y-9717500D02*
X6763928Y-9703214D01*
X6792500Y-9660357D01*
X6806786Y-9631786D01*
X6821071Y-9588929D01*
X6835357Y-9517500D01*
X6835357Y-9460357D01*
X6821071Y-9388929D01*
X6806786Y-9346072D01*
X6792500Y-9317500D01*
X6763928Y-9274643D01*
X6749643Y-9260357D01*
X-7500Y-9863500D02*
G75*
G03X-7500Y-9863500I-31750J0D01*
G01*
X321071Y-9699214D02*
X349643Y-9699214D01*
X378214Y-9713500D01*
X392500Y-9727786D01*
X406786Y-9756357D01*
X421071Y-9813500D01*
X421071Y-9884929D01*
X406786Y-9942072D01*
X392500Y-9970643D01*
X378214Y-9984929D01*
X349643Y-9999214D01*
X321071Y-9999214D01*
X292500Y-9984929D01*
X278214Y-9970643D01*
X263929Y-9942072D01*
X249643Y-9884929D01*
X249643Y-9813500D01*
X263929Y-9756357D01*
X278214Y-9727786D01*
X292500Y-9713500D01*
X321071Y-9699214D01*
X549643Y-9970643D02*
X563929Y-9984929D01*
X549643Y-9999214D01*
X535357Y-9984929D01*
X549643Y-9970643D01*
X549643Y-9999214D01*
X821071Y-9699214D02*
X763928Y-9699214D01*
X735357Y-9713500D01*
X721071Y-9727786D01*
X692500Y-9770643D01*
X678214Y-9827786D01*
X678214Y-9942072D01*
X692500Y-9970643D01*
X706786Y-9984929D01*
X735357Y-9999214D01*
X792500Y-9999214D01*
X821071Y-9984929D01*
X835357Y-9970643D01*
X849643Y-9942072D01*
X849643Y-9870643D01*
X835357Y-9842072D01*
X821071Y-9827786D01*
X792500Y-9813500D01*
X735357Y-9813500D01*
X706786Y-9827786D01*
X692500Y-9842072D01*
X678214Y-9870643D01*
X1106786Y-9799214D02*
X1106786Y-9999214D01*
X1035357Y-9684929D02*
X963928Y-9899214D01*
X1149643Y-9899214D01*
X1263929Y-9999214D02*
X1263929Y-9799214D01*
X1263929Y-9827786D02*
X1278214Y-9813500D01*
X1306786Y-9799214D01*
X1349643Y-9799214D01*
X1378214Y-9813500D01*
X1392500Y-9842072D01*
X1392500Y-9999214D01*
X1392500Y-9842072D02*
X1406786Y-9813500D01*
X1435357Y-9799214D01*
X1478214Y-9799214D01*
X1506786Y-9813500D01*
X1521071Y-9842072D01*
X1521071Y-9999214D01*
X1663928Y-9999214D02*
X1663928Y-9799214D01*
X1663928Y-9827786D02*
X1678214Y-9813500D01*
X1706786Y-9799214D01*
X1749643Y-9799214D01*
X1778214Y-9813500D01*
X1792500Y-9842072D01*
X1792500Y-9999214D01*
X1792500Y-9842072D02*
X1806786Y-9813500D01*
X1835357Y-9799214D01*
X1878214Y-9799214D01*
X1906786Y-9813500D01*
X1921071Y-9842072D01*
X1921071Y-9999214D01*
X2506786Y-9684929D02*
X2249643Y-10070643D01*
X2892500Y-9699214D02*
X2921071Y-9699214D01*
X2949643Y-9713500D01*
X2963928Y-9727786D01*
X2978214Y-9756357D01*
X2992500Y-9813500D01*
X2992500Y-9884929D01*
X2978214Y-9942072D01*
X2963928Y-9970643D01*
X2949643Y-9984929D01*
X2921071Y-9999214D01*
X2892500Y-9999214D01*
X2863928Y-9984929D01*
X2849643Y-9970643D01*
X2835357Y-9942072D01*
X2821071Y-9884929D01*
X2821071Y-9813500D01*
X2835357Y-9756357D01*
X2849643Y-9727786D01*
X2863928Y-9713500D01*
X2892500Y-9699214D01*
X3121071Y-9970643D02*
X3135357Y-9984929D01*
X3121071Y-9999214D01*
X3106786Y-9984929D01*
X3121071Y-9970643D01*
X3121071Y-9999214D01*
X3321071Y-9699214D02*
X3349643Y-9699214D01*
X3378214Y-9713500D01*
X3392500Y-9727786D01*
X3406785Y-9756357D01*
X3421071Y-9813500D01*
X3421071Y-9884929D01*
X3406785Y-9942072D01*
X3392500Y-9970643D01*
X3378214Y-9984929D01*
X3349643Y-9999214D01*
X3321071Y-9999214D01*
X3292500Y-9984929D01*
X3278214Y-9970643D01*
X3263928Y-9942072D01*
X3249643Y-9884929D01*
X3249643Y-9813500D01*
X3263928Y-9756357D01*
X3278214Y-9727786D01*
X3292500Y-9713500D01*
X3321071Y-9699214D01*
X3535357Y-9727786D02*
X3549643Y-9713500D01*
X3578214Y-9699214D01*
X3649643Y-9699214D01*
X3678214Y-9713500D01*
X3692500Y-9727786D01*
X3706785Y-9756357D01*
X3706785Y-9784929D01*
X3692500Y-9827786D01*
X3521071Y-9999214D01*
X3706785Y-9999214D01*
X3978214Y-9699214D02*
X3835357Y-9699214D01*
X3821071Y-9842072D01*
X3835357Y-9827786D01*
X3863928Y-9813500D01*
X3935357Y-9813500D01*
X3963928Y-9827786D01*
X3978214Y-9842072D01*
X3992500Y-9870643D01*
X3992500Y-9942072D01*
X3978214Y-9970643D01*
X3963928Y-9984929D01*
X3935357Y-9999214D01*
X3863928Y-9999214D01*
X3835357Y-9984929D01*
X3821071Y-9970643D01*
X4106786Y-9699214D02*
X4106786Y-9756357D01*
X4221071Y-9699214D02*
X4221071Y-9756357D01*
X4663928Y-10113500D02*
X4649643Y-10099214D01*
X4621071Y-10056357D01*
X4606786Y-10027786D01*
X4592500Y-9984929D01*
X4578214Y-9913500D01*
X4578214Y-9856357D01*
X4592500Y-9784929D01*
X4606786Y-9742072D01*
X4621071Y-9713500D01*
X4649643Y-9670643D01*
X4663928Y-9656357D01*
X4821071Y-9827786D02*
X4792500Y-9813500D01*
X4778214Y-9799214D01*
X4763928Y-9770643D01*
X4763928Y-9756357D01*
X4778214Y-9727786D01*
X4792500Y-9713500D01*
X4821071Y-9699214D01*
X4878214Y-9699214D01*
X4906786Y-9713500D01*
X4921071Y-9727786D01*
X4935357Y-9756357D01*
X4935357Y-9770643D01*
X4921071Y-9799214D01*
X4906786Y-9813500D01*
X4878214Y-9827786D01*
X4821071Y-9827786D01*
X4792500Y-9842072D01*
X4778214Y-9856357D01*
X4763928Y-9884929D01*
X4763928Y-9942072D01*
X4778214Y-9970643D01*
X4792500Y-9984929D01*
X4821071Y-9999214D01*
X4878214Y-9999214D01*
X4906786Y-9984929D01*
X4921071Y-9970643D01*
X4935357Y-9942072D01*
X4935357Y-9884929D01*
X4921071Y-9856357D01*
X4906786Y-9842072D01*
X4878214Y-9827786D01*
X5292500Y-9999214D02*
X5292500Y-9699214D01*
X5421071Y-9999214D02*
X5421071Y-9842072D01*
X5406786Y-9813500D01*
X5378214Y-9799214D01*
X5335357Y-9799214D01*
X5306786Y-9813500D01*
X5292500Y-9827786D01*
X5606785Y-9999214D02*
X5578214Y-9984929D01*
X5563928Y-9970643D01*
X5549643Y-9942072D01*
X5549643Y-9856357D01*
X5563928Y-9827786D01*
X5578214Y-9813500D01*
X5606785Y-9799214D01*
X5649643Y-9799214D01*
X5678214Y-9813500D01*
X5692500Y-9827786D01*
X5706785Y-9856357D01*
X5706785Y-9942072D01*
X5692500Y-9970643D01*
X5678214Y-9984929D01*
X5649643Y-9999214D01*
X5606785Y-9999214D01*
X5878214Y-9999214D02*
X5849643Y-9984929D01*
X5835357Y-9956357D01*
X5835357Y-9699214D01*
X6106786Y-9984929D02*
X6078214Y-9999214D01*
X6021071Y-9999214D01*
X5992500Y-9984929D01*
X5978214Y-9956357D01*
X5978214Y-9842072D01*
X5992500Y-9813500D01*
X6021071Y-9799214D01*
X6078214Y-9799214D01*
X6106786Y-9813500D01*
X6121071Y-9842072D01*
X6121071Y-9870643D01*
X5978214Y-9899214D01*
X6235357Y-9984929D02*
X6263928Y-9999214D01*
X6321071Y-9999214D01*
X6349643Y-9984929D01*
X6363928Y-9956357D01*
X6363928Y-9942072D01*
X6349643Y-9913500D01*
X6321071Y-9899214D01*
X6278214Y-9899214D01*
X6249643Y-9884929D01*
X6235357Y-9856357D01*
X6235357Y-9842072D01*
X6249643Y-9813500D01*
X6278214Y-9799214D01*
X6321071Y-9799214D01*
X6349643Y-9813500D01*
X6463928Y-10113500D02*
X6478214Y-10099214D01*
X6506786Y-10056357D01*
X6521071Y-10027786D01*
X6535357Y-9984929D01*
X6549643Y-9913500D01*
X6549643Y-9856357D01*
X6535357Y-9784929D01*
X6521071Y-9742072D01*
X6506786Y-9713500D01*
X6478214Y-9670643D01*
X6463928Y-9656357D01*
X-42552Y-10224448D02*
X-42552Y-10294552D01*
X-77604Y-10259500D02*
X-7500Y-10259500D01*
X321071Y-10095214D02*
X349643Y-10095214D01*
X378214Y-10109500D01*
X392500Y-10123786D01*
X406786Y-10152357D01*
X421071Y-10209500D01*
X421071Y-10280929D01*
X406786Y-10338072D01*
X392500Y-10366643D01*
X378214Y-10380929D01*
X349643Y-10395214D01*
X321071Y-10395214D01*
X292500Y-10380929D01*
X278214Y-10366643D01*
X263929Y-10338072D01*
X249643Y-10280929D01*
X249643Y-10209500D01*
X263929Y-10152357D01*
X278214Y-10123786D01*
X292500Y-10109500D01*
X321071Y-10095214D01*
X549643Y-10366643D02*
X563929Y-10380929D01*
X549643Y-10395214D01*
X535357Y-10380929D01*
X549643Y-10366643D01*
X549643Y-10395214D01*
X663928Y-10095214D02*
X863928Y-10095214D01*
X735357Y-10395214D01*
X1035357Y-10095214D02*
X1063929Y-10095214D01*
X1092500Y-10109500D01*
X1106786Y-10123786D01*
X1121071Y-10152357D01*
X1135357Y-10209500D01*
X1135357Y-10280929D01*
X1121071Y-10338072D01*
X1106786Y-10366643D01*
X1092500Y-10380929D01*
X1063929Y-10395214D01*
X1035357Y-10395214D01*
X1006786Y-10380929D01*
X992500Y-10366643D01*
X978214Y-10338072D01*
X963928Y-10280929D01*
X963928Y-10209500D01*
X978214Y-10152357D01*
X992500Y-10123786D01*
X1006786Y-10109500D01*
X1035357Y-10095214D01*
X1263929Y-10395214D02*
X1263929Y-10195214D01*
X1263929Y-10223786D02*
X1278214Y-10209500D01*
X1306786Y-10195214D01*
X1349643Y-10195214D01*
X1378214Y-10209500D01*
X1392500Y-10238072D01*
X1392500Y-10395214D01*
X1392500Y-10238072D02*
X1406786Y-10209500D01*
X1435357Y-10195214D01*
X1478214Y-10195214D01*
X1506786Y-10209500D01*
X1521071Y-10238072D01*
X1521071Y-10395214D01*
X1663928Y-10395214D02*
X1663928Y-10195214D01*
X1663928Y-10223786D02*
X1678214Y-10209500D01*
X1706786Y-10195214D01*
X1749643Y-10195214D01*
X1778214Y-10209500D01*
X1792500Y-10238072D01*
X1792500Y-10395214D01*
X1792500Y-10238072D02*
X1806786Y-10209500D01*
X1835357Y-10195214D01*
X1878214Y-10195214D01*
X1906786Y-10209500D01*
X1921071Y-10238072D01*
X1921071Y-10395214D01*
X2506786Y-10080929D02*
X2249643Y-10466643D01*
X2892500Y-10095214D02*
X2921071Y-10095214D01*
X2949643Y-10109500D01*
X2963928Y-10123786D01*
X2978214Y-10152357D01*
X2992500Y-10209500D01*
X2992500Y-10280929D01*
X2978214Y-10338072D01*
X2963928Y-10366643D01*
X2949643Y-10380929D01*
X2921071Y-10395214D01*
X2892500Y-10395214D01*
X2863928Y-10380929D01*
X2849643Y-10366643D01*
X2835357Y-10338072D01*
X2821071Y-10280929D01*
X2821071Y-10209500D01*
X2835357Y-10152357D01*
X2849643Y-10123786D01*
X2863928Y-10109500D01*
X2892500Y-10095214D01*
X3121071Y-10366643D02*
X3135357Y-10380929D01*
X3121071Y-10395214D01*
X3106786Y-10380929D01*
X3121071Y-10366643D01*
X3121071Y-10395214D01*
X3321071Y-10095214D02*
X3349643Y-10095214D01*
X3378214Y-10109500D01*
X3392500Y-10123786D01*
X3406785Y-10152357D01*
X3421071Y-10209500D01*
X3421071Y-10280929D01*
X3406785Y-10338072D01*
X3392500Y-10366643D01*
X3378214Y-10380929D01*
X3349643Y-10395214D01*
X3321071Y-10395214D01*
X3292500Y-10380929D01*
X3278214Y-10366643D01*
X3263928Y-10338072D01*
X3249643Y-10280929D01*
X3249643Y-10209500D01*
X3263928Y-10152357D01*
X3278214Y-10123786D01*
X3292500Y-10109500D01*
X3321071Y-10095214D01*
X3535357Y-10123786D02*
X3549643Y-10109500D01*
X3578214Y-10095214D01*
X3649643Y-10095214D01*
X3678214Y-10109500D01*
X3692500Y-10123786D01*
X3706785Y-10152357D01*
X3706785Y-10180929D01*
X3692500Y-10223786D01*
X3521071Y-10395214D01*
X3706785Y-10395214D01*
X3878214Y-10223786D02*
X3849643Y-10209500D01*
X3835357Y-10195214D01*
X3821071Y-10166643D01*
X3821071Y-10152357D01*
X3835357Y-10123786D01*
X3849643Y-10109500D01*
X3878214Y-10095214D01*
X3935357Y-10095214D01*
X3963928Y-10109500D01*
X3978214Y-10123786D01*
X3992500Y-10152357D01*
X3992500Y-10166643D01*
X3978214Y-10195214D01*
X3963928Y-10209500D01*
X3935357Y-10223786D01*
X3878214Y-10223786D01*
X3849643Y-10238072D01*
X3835357Y-10252357D01*
X3821071Y-10280929D01*
X3821071Y-10338072D01*
X3835357Y-10366643D01*
X3849643Y-10380929D01*
X3878214Y-10395214D01*
X3935357Y-10395214D01*
X3963928Y-10380929D01*
X3978214Y-10366643D01*
X3992500Y-10338072D01*
X3992500Y-10280929D01*
X3978214Y-10252357D01*
X3963928Y-10238072D01*
X3935357Y-10223786D01*
X4106786Y-10095214D02*
X4106786Y-10152357D01*
X4221071Y-10095214D02*
X4221071Y-10152357D01*
X4663928Y-10509500D02*
X4649643Y-10495214D01*
X4621071Y-10452357D01*
X4606786Y-10423786D01*
X4592500Y-10380929D01*
X4578214Y-10309500D01*
X4578214Y-10252357D01*
X4592500Y-10180929D01*
X4606786Y-10138072D01*
X4621071Y-10109500D01*
X4649643Y-10066643D01*
X4663928Y-10052357D01*
X4906786Y-10195214D02*
X4906786Y-10395214D01*
X4835357Y-10080929D02*
X4763928Y-10295214D01*
X4949643Y-10295214D01*
X5292500Y-10395214D02*
X5292500Y-10095214D01*
X5421071Y-10395214D02*
X5421071Y-10238072D01*
X5406786Y-10209500D01*
X5378214Y-10195214D01*
X5335357Y-10195214D01*
X5306786Y-10209500D01*
X5292500Y-10223786D01*
X5606785Y-10395214D02*
X5578214Y-10380929D01*
X5563928Y-10366643D01*
X5549643Y-10338072D01*
X5549643Y-10252357D01*
X5563928Y-10223786D01*
X5578214Y-10209500D01*
X5606785Y-10195214D01*
X5649643Y-10195214D01*
X5678214Y-10209500D01*
X5692500Y-10223786D01*
X5706785Y-10252357D01*
X5706785Y-10338072D01*
X5692500Y-10366643D01*
X5678214Y-10380929D01*
X5649643Y-10395214D01*
X5606785Y-10395214D01*
X5878214Y-10395214D02*
X5849643Y-10380929D01*
X5835357Y-10352357D01*
X5835357Y-10095214D01*
X6106786Y-10380929D02*
X6078214Y-10395214D01*
X6021071Y-10395214D01*
X5992500Y-10380929D01*
X5978214Y-10352357D01*
X5978214Y-10238072D01*
X5992500Y-10209500D01*
X6021071Y-10195214D01*
X6078214Y-10195214D01*
X6106786Y-10209500D01*
X6121071Y-10238072D01*
X6121071Y-10266643D01*
X5978214Y-10295214D01*
X6235357Y-10380929D02*
X6263928Y-10395214D01*
X6321071Y-10395214D01*
X6349643Y-10380929D01*
X6363928Y-10352357D01*
X6363928Y-10338072D01*
X6349643Y-10309500D01*
X6321071Y-10295214D01*
X6278214Y-10295214D01*
X6249643Y-10280929D01*
X6235357Y-10252357D01*
X6235357Y-10238072D01*
X6249643Y-10209500D01*
X6278214Y-10195214D01*
X6321071Y-10195214D01*
X6349643Y-10209500D01*
X6463928Y-10509500D02*
X6478214Y-10495214D01*
X6506786Y-10452357D01*
X6521071Y-10423786D01*
X6535357Y-10380929D01*
X6549643Y-10309500D01*
X6549643Y-10252357D01*
X6535357Y-10180929D01*
X6521071Y-10138072D01*
X6506786Y-10109500D01*
X6478214Y-10066643D01*
X6463928Y-10052357D01*
X-19216Y-10683785D02*
X-19216Y-10627216D01*
X-75785Y-10627216D01*
X-75785Y-10683785D01*
X-19216Y-10683785D01*
X321071Y-10491214D02*
X349643Y-10491214D01*
X378214Y-10505500D01*
X392500Y-10519786D01*
X406786Y-10548357D01*
X421071Y-10605500D01*
X421071Y-10676929D01*
X406786Y-10734072D01*
X392500Y-10762643D01*
X378214Y-10776929D01*
X349643Y-10791214D01*
X321071Y-10791214D01*
X292500Y-10776929D01*
X278214Y-10762643D01*
X263929Y-10734072D01*
X249643Y-10676929D01*
X249643Y-10605500D01*
X263929Y-10548357D01*
X278214Y-10519786D01*
X292500Y-10505500D01*
X321071Y-10491214D01*
X549643Y-10762643D02*
X563929Y-10776929D01*
X549643Y-10791214D01*
X535357Y-10776929D01*
X549643Y-10762643D01*
X549643Y-10791214D01*
X735357Y-10619786D02*
X706786Y-10605500D01*
X692500Y-10591214D01*
X678214Y-10562643D01*
X678214Y-10548357D01*
X692500Y-10519786D01*
X706786Y-10505500D01*
X735357Y-10491214D01*
X792500Y-10491214D01*
X821071Y-10505500D01*
X835357Y-10519786D01*
X849643Y-10548357D01*
X849643Y-10562643D01*
X835357Y-10591214D01*
X821071Y-10605500D01*
X792500Y-10619786D01*
X735357Y-10619786D01*
X706786Y-10634072D01*
X692500Y-10648357D01*
X678214Y-10676929D01*
X678214Y-10734072D01*
X692500Y-10762643D01*
X706786Y-10776929D01*
X735357Y-10791214D01*
X792500Y-10791214D01*
X821071Y-10776929D01*
X835357Y-10762643D01*
X849643Y-10734072D01*
X849643Y-10676929D01*
X835357Y-10648357D01*
X821071Y-10634072D01*
X792500Y-10619786D01*
X1035357Y-10491214D02*
X1063929Y-10491214D01*
X1092500Y-10505500D01*
X1106786Y-10519786D01*
X1121071Y-10548357D01*
X1135357Y-10605500D01*
X1135357Y-10676929D01*
X1121071Y-10734072D01*
X1106786Y-10762643D01*
X1092500Y-10776929D01*
X1063929Y-10791214D01*
X1035357Y-10791214D01*
X1006786Y-10776929D01*
X992500Y-10762643D01*
X978214Y-10734072D01*
X963928Y-10676929D01*
X963928Y-10605500D01*
X978214Y-10548357D01*
X992500Y-10519786D01*
X1006786Y-10505500D01*
X1035357Y-10491214D01*
X1263929Y-10791214D02*
X1263929Y-10591214D01*
X1263929Y-10619786D02*
X1278214Y-10605500D01*
X1306786Y-10591214D01*
X1349643Y-10591214D01*
X1378214Y-10605500D01*
X1392500Y-10634072D01*
X1392500Y-10791214D01*
X1392500Y-10634072D02*
X1406786Y-10605500D01*
X1435357Y-10591214D01*
X1478214Y-10591214D01*
X1506786Y-10605500D01*
X1521071Y-10634072D01*
X1521071Y-10791214D01*
X1663928Y-10791214D02*
X1663928Y-10591214D01*
X1663928Y-10619786D02*
X1678214Y-10605500D01*
X1706786Y-10591214D01*
X1749643Y-10591214D01*
X1778214Y-10605500D01*
X1792500Y-10634072D01*
X1792500Y-10791214D01*
X1792500Y-10634072D02*
X1806786Y-10605500D01*
X1835357Y-10591214D01*
X1878214Y-10591214D01*
X1906786Y-10605500D01*
X1921071Y-10634072D01*
X1921071Y-10791214D01*
X2506786Y-10476929D02*
X2249643Y-10862643D01*
X2892500Y-10491214D02*
X2921071Y-10491214D01*
X2949643Y-10505500D01*
X2963928Y-10519786D01*
X2978214Y-10548357D01*
X2992500Y-10605500D01*
X2992500Y-10676929D01*
X2978214Y-10734072D01*
X2963928Y-10762643D01*
X2949643Y-10776929D01*
X2921071Y-10791214D01*
X2892500Y-10791214D01*
X2863928Y-10776929D01*
X2849643Y-10762643D01*
X2835357Y-10734072D01*
X2821071Y-10676929D01*
X2821071Y-10605500D01*
X2835357Y-10548357D01*
X2849643Y-10519786D01*
X2863928Y-10505500D01*
X2892500Y-10491214D01*
X3121071Y-10762643D02*
X3135357Y-10776929D01*
X3121071Y-10791214D01*
X3106786Y-10776929D01*
X3121071Y-10762643D01*
X3121071Y-10791214D01*
X3321071Y-10491214D02*
X3349643Y-10491214D01*
X3378214Y-10505500D01*
X3392500Y-10519786D01*
X3406785Y-10548357D01*
X3421071Y-10605500D01*
X3421071Y-10676929D01*
X3406785Y-10734072D01*
X3392500Y-10762643D01*
X3378214Y-10776929D01*
X3349643Y-10791214D01*
X3321071Y-10791214D01*
X3292500Y-10776929D01*
X3278214Y-10762643D01*
X3263928Y-10734072D01*
X3249643Y-10676929D01*
X3249643Y-10605500D01*
X3263928Y-10548357D01*
X3278214Y-10519786D01*
X3292500Y-10505500D01*
X3321071Y-10491214D01*
X3521071Y-10491214D02*
X3706785Y-10491214D01*
X3606785Y-10605500D01*
X3649643Y-10605500D01*
X3678214Y-10619786D01*
X3692500Y-10634072D01*
X3706785Y-10662643D01*
X3706785Y-10734072D01*
X3692500Y-10762643D01*
X3678214Y-10776929D01*
X3649643Y-10791214D01*
X3563928Y-10791214D01*
X3535357Y-10776929D01*
X3521071Y-10762643D01*
X3992500Y-10791214D02*
X3821071Y-10791214D01*
X3906785Y-10791214D02*
X3906785Y-10491214D01*
X3878214Y-10534072D01*
X3849643Y-10562643D01*
X3821071Y-10576929D01*
X4106786Y-10491214D02*
X4106786Y-10548357D01*
X4221071Y-10491214D02*
X4221071Y-10548357D01*
X4663928Y-10905500D02*
X4649643Y-10891214D01*
X4621071Y-10848357D01*
X4606786Y-10819786D01*
X4592500Y-10776929D01*
X4578214Y-10705500D01*
X4578214Y-10648357D01*
X4592500Y-10576929D01*
X4606786Y-10534072D01*
X4621071Y-10505500D01*
X4649643Y-10462643D01*
X4663928Y-10448357D01*
X4749643Y-10491214D02*
X4949643Y-10491214D01*
X4821071Y-10791214D01*
X5106786Y-10619786D02*
X5078214Y-10605500D01*
X5063928Y-10591214D01*
X5049643Y-10562643D01*
X5049643Y-10548357D01*
X5063928Y-10519786D01*
X5078214Y-10505500D01*
X5106786Y-10491214D01*
X5163928Y-10491214D01*
X5192500Y-10505500D01*
X5206786Y-10519786D01*
X5221071Y-10548357D01*
X5221071Y-10562643D01*
X5206786Y-10591214D01*
X5192500Y-10605500D01*
X5163928Y-10619786D01*
X5106786Y-10619786D01*
X5078214Y-10634072D01*
X5063928Y-10648357D01*
X5049643Y-10676929D01*
X5049643Y-10734072D01*
X5063928Y-10762643D01*
X5078214Y-10776929D01*
X5106786Y-10791214D01*
X5163928Y-10791214D01*
X5192500Y-10776929D01*
X5206786Y-10762643D01*
X5221071Y-10734072D01*
X5221071Y-10676929D01*
X5206786Y-10648357D01*
X5192500Y-10634072D01*
X5163928Y-10619786D01*
X5578214Y-10791214D02*
X5578214Y-10491214D01*
X5706785Y-10791214D02*
X5706785Y-10634072D01*
X5692500Y-10605500D01*
X5663928Y-10591214D01*
X5621071Y-10591214D01*
X5592500Y-10605500D01*
X5578214Y-10619786D01*
X5892500Y-10791214D02*
X5863928Y-10776929D01*
X5849643Y-10762643D01*
X5835357Y-10734072D01*
X5835357Y-10648357D01*
X5849643Y-10619786D01*
X5863928Y-10605500D01*
X5892500Y-10591214D01*
X5935357Y-10591214D01*
X5963928Y-10605500D01*
X5978214Y-10619786D01*
X5992500Y-10648357D01*
X5992500Y-10734072D01*
X5978214Y-10762643D01*
X5963928Y-10776929D01*
X5935357Y-10791214D01*
X5892500Y-10791214D01*
X6163928Y-10791214D02*
X6135357Y-10776929D01*
X6121071Y-10748357D01*
X6121071Y-10491214D01*
X6392500Y-10776929D02*
X6363928Y-10791214D01*
X6306786Y-10791214D01*
X6278214Y-10776929D01*
X6263928Y-10748357D01*
X6263928Y-10634072D01*
X6278214Y-10605500D01*
X6306786Y-10591214D01*
X6363928Y-10591214D01*
X6392500Y-10605500D01*
X6406786Y-10634072D01*
X6406786Y-10662643D01*
X6263928Y-10691214D01*
X6521071Y-10776929D02*
X6549643Y-10791214D01*
X6606786Y-10791214D01*
X6635357Y-10776929D01*
X6649643Y-10748357D01*
X6649643Y-10734072D01*
X6635357Y-10705500D01*
X6606786Y-10691214D01*
X6563928Y-10691214D01*
X6535357Y-10676929D01*
X6521071Y-10648357D01*
X6521071Y-10634072D01*
X6535357Y-10605500D01*
X6563928Y-10591214D01*
X6606786Y-10591214D01*
X6635357Y-10605500D01*
X6749643Y-10905500D02*
X6763928Y-10891214D01*
X6792500Y-10848357D01*
X6806786Y-10819786D01*
X6821071Y-10776929D01*
X6835357Y-10705500D01*
X6835357Y-10648357D01*
X6821071Y-10576929D01*
X6806786Y-10534072D01*
X6792500Y-10505500D01*
X6763928Y-10462643D01*
X6749643Y-10448357D01*
X-48140Y-11092140D02*
X-7500Y-11051500D01*
X-48140Y-11010860D01*
X-88780Y-11051500D01*
X-48140Y-11092140D01*
X321071Y-10887214D02*
X349643Y-10887214D01*
X378214Y-10901500D01*
X392500Y-10915786D01*
X406786Y-10944357D01*
X421071Y-11001500D01*
X421071Y-11072929D01*
X406786Y-11130072D01*
X392500Y-11158643D01*
X378214Y-11172929D01*
X349643Y-11187214D01*
X321071Y-11187214D01*
X292500Y-11172929D01*
X278214Y-11158643D01*
X263929Y-11130072D01*
X249643Y-11072929D01*
X249643Y-11001500D01*
X263929Y-10944357D01*
X278214Y-10915786D01*
X292500Y-10901500D01*
X321071Y-10887214D01*
X549643Y-11158643D02*
X563929Y-11172929D01*
X549643Y-11187214D01*
X535357Y-11172929D01*
X549643Y-11158643D01*
X549643Y-11187214D01*
X735357Y-11015786D02*
X706786Y-11001500D01*
X692500Y-10987214D01*
X678214Y-10958643D01*
X678214Y-10944357D01*
X692500Y-10915786D01*
X706786Y-10901500D01*
X735357Y-10887214D01*
X792500Y-10887214D01*
X821071Y-10901500D01*
X835357Y-10915786D01*
X849643Y-10944357D01*
X849643Y-10958643D01*
X835357Y-10987214D01*
X821071Y-11001500D01*
X792500Y-11015786D01*
X735357Y-11015786D01*
X706786Y-11030072D01*
X692500Y-11044357D01*
X678214Y-11072929D01*
X678214Y-11130072D01*
X692500Y-11158643D01*
X706786Y-11172929D01*
X735357Y-11187214D01*
X792500Y-11187214D01*
X821071Y-11172929D01*
X835357Y-11158643D01*
X849643Y-11130072D01*
X849643Y-11072929D01*
X835357Y-11044357D01*
X821071Y-11030072D01*
X792500Y-11015786D01*
X1135357Y-11187214D02*
X963928Y-11187214D01*
X1049643Y-11187214D02*
X1049643Y-10887214D01*
X1021071Y-10930072D01*
X992500Y-10958643D01*
X963928Y-10972929D01*
X1263929Y-11187214D02*
X1263929Y-10987214D01*
X1263929Y-11015786D02*
X1278214Y-11001500D01*
X1306786Y-10987214D01*
X1349643Y-10987214D01*
X1378214Y-11001500D01*
X1392500Y-11030072D01*
X1392500Y-11187214D01*
X1392500Y-11030072D02*
X1406786Y-11001500D01*
X1435357Y-10987214D01*
X1478214Y-10987214D01*
X1506786Y-11001500D01*
X1521071Y-11030072D01*
X1521071Y-11187214D01*
X1663928Y-11187214D02*
X1663928Y-10987214D01*
X1663928Y-11015786D02*
X1678214Y-11001500D01*
X1706786Y-10987214D01*
X1749643Y-10987214D01*
X1778214Y-11001500D01*
X1792500Y-11030072D01*
X1792500Y-11187214D01*
X1792500Y-11030072D02*
X1806786Y-11001500D01*
X1835357Y-10987214D01*
X1878214Y-10987214D01*
X1906786Y-11001500D01*
X1921071Y-11030072D01*
X1921071Y-11187214D01*
X2506786Y-10872929D02*
X2249643Y-11258643D01*
X2892500Y-10887214D02*
X2921071Y-10887214D01*
X2949643Y-10901500D01*
X2963928Y-10915786D01*
X2978214Y-10944357D01*
X2992500Y-11001500D01*
X2992500Y-11072929D01*
X2978214Y-11130072D01*
X2963928Y-11158643D01*
X2949643Y-11172929D01*
X2921071Y-11187214D01*
X2892500Y-11187214D01*
X2863928Y-11172929D01*
X2849643Y-11158643D01*
X2835357Y-11130072D01*
X2821071Y-11072929D01*
X2821071Y-11001500D01*
X2835357Y-10944357D01*
X2849643Y-10915786D01*
X2863928Y-10901500D01*
X2892500Y-10887214D01*
X3121071Y-11158643D02*
X3135357Y-11172929D01*
X3121071Y-11187214D01*
X3106786Y-11172929D01*
X3121071Y-11158643D01*
X3121071Y-11187214D01*
X3321071Y-10887214D02*
X3349643Y-10887214D01*
X3378214Y-10901500D01*
X3392500Y-10915786D01*
X3406785Y-10944357D01*
X3421071Y-11001500D01*
X3421071Y-11072929D01*
X3406785Y-11130072D01*
X3392500Y-11158643D01*
X3378214Y-11172929D01*
X3349643Y-11187214D01*
X3321071Y-11187214D01*
X3292500Y-11172929D01*
X3278214Y-11158643D01*
X3263928Y-11130072D01*
X3249643Y-11072929D01*
X3249643Y-11001500D01*
X3263928Y-10944357D01*
X3278214Y-10915786D01*
X3292500Y-10901500D01*
X3321071Y-10887214D01*
X3521071Y-10887214D02*
X3706785Y-10887214D01*
X3606785Y-11001500D01*
X3649643Y-11001500D01*
X3678214Y-11015786D01*
X3692500Y-11030072D01*
X3706785Y-11058643D01*
X3706785Y-11130072D01*
X3692500Y-11158643D01*
X3678214Y-11172929D01*
X3649643Y-11187214D01*
X3563928Y-11187214D01*
X3535357Y-11172929D01*
X3521071Y-11158643D01*
X3821071Y-10915786D02*
X3835357Y-10901500D01*
X3863928Y-10887214D01*
X3935357Y-10887214D01*
X3963928Y-10901500D01*
X3978214Y-10915786D01*
X3992500Y-10944357D01*
X3992500Y-10972929D01*
X3978214Y-11015786D01*
X3806785Y-11187214D01*
X3992500Y-11187214D01*
X4106786Y-10887214D02*
X4106786Y-10944357D01*
X4221071Y-10887214D02*
X4221071Y-10944357D01*
X4663928Y-11301500D02*
X4649643Y-11287214D01*
X4621071Y-11244357D01*
X4606786Y-11215786D01*
X4592500Y-11172929D01*
X4578214Y-11101500D01*
X4578214Y-11044357D01*
X4592500Y-10972929D01*
X4606786Y-10930072D01*
X4621071Y-10901500D01*
X4649643Y-10858643D01*
X4663928Y-10844357D01*
X4763928Y-10915786D02*
X4778214Y-10901500D01*
X4806786Y-10887214D01*
X4878214Y-10887214D01*
X4906786Y-10901500D01*
X4921071Y-10915786D01*
X4935357Y-10944357D01*
X4935357Y-10972929D01*
X4921071Y-11015786D01*
X4749643Y-11187214D01*
X4935357Y-11187214D01*
X5192500Y-10987214D02*
X5192500Y-11187214D01*
X5121071Y-10872929D02*
X5049643Y-11087214D01*
X5235357Y-11087214D01*
X5578214Y-11187214D02*
X5578214Y-10887214D01*
X5706785Y-11187214D02*
X5706785Y-11030072D01*
X5692500Y-11001500D01*
X5663928Y-10987214D01*
X5621071Y-10987214D01*
X5592500Y-11001500D01*
X5578214Y-11015786D01*
X5892500Y-11187214D02*
X5863928Y-11172929D01*
X5849643Y-11158643D01*
X5835357Y-11130072D01*
X5835357Y-11044357D01*
X5849643Y-11015786D01*
X5863928Y-11001500D01*
X5892500Y-10987214D01*
X5935357Y-10987214D01*
X5963928Y-11001500D01*
X5978214Y-11015786D01*
X5992500Y-11044357D01*
X5992500Y-11130072D01*
X5978214Y-11158643D01*
X5963928Y-11172929D01*
X5935357Y-11187214D01*
X5892500Y-11187214D01*
X6163928Y-11187214D02*
X6135357Y-11172929D01*
X6121071Y-11144357D01*
X6121071Y-10887214D01*
X6392500Y-11172929D02*
X6363928Y-11187214D01*
X6306786Y-11187214D01*
X6278214Y-11172929D01*
X6263928Y-11144357D01*
X6263928Y-11030072D01*
X6278214Y-11001500D01*
X6306786Y-10987214D01*
X6363928Y-10987214D01*
X6392500Y-11001500D01*
X6406786Y-11030072D01*
X6406786Y-11058643D01*
X6263928Y-11087214D01*
X6521071Y-11172929D02*
X6549643Y-11187214D01*
X6606786Y-11187214D01*
X6635357Y-11172929D01*
X6649643Y-11144357D01*
X6649643Y-11130072D01*
X6635357Y-11101500D01*
X6606786Y-11087214D01*
X6563928Y-11087214D01*
X6535357Y-11072929D01*
X6521071Y-11044357D01*
X6521071Y-11030072D01*
X6535357Y-11001500D01*
X6563928Y-10987214D01*
X6606786Y-10987214D01*
X6635357Y-11001500D01*
X6749643Y-11301500D02*
X6763928Y-11287214D01*
X6792500Y-11244357D01*
X6806786Y-11215786D01*
X6821071Y-11172929D01*
X6835357Y-11101500D01*
X6835357Y-11044357D01*
X6821071Y-10972929D01*
X6806786Y-10930072D01*
X6792500Y-10901500D01*
X6763928Y-10858643D01*
X6749643Y-10844357D01*
X-107576Y-11397462D02*
X-7500Y-11497538D01*
X-7500Y-11397462D02*
X-107576Y-11497538D01*
X-7500Y-11447500D02*
G75*
G03X-7500Y-11447500I-50038J0D01*
G01*
X421071Y-11583214D02*
X249643Y-11583214D01*
X335357Y-11583214D02*
X335357Y-11283214D01*
X306786Y-11326071D01*
X278214Y-11354643D01*
X249643Y-11368929D01*
X549643Y-11554643D02*
X563929Y-11568929D01*
X549643Y-11583214D01*
X535357Y-11568929D01*
X549643Y-11554643D01*
X549643Y-11583214D01*
X749643Y-11283214D02*
X778214Y-11283214D01*
X806786Y-11297500D01*
X821071Y-11311786D01*
X835357Y-11340357D01*
X849643Y-11397500D01*
X849643Y-11468929D01*
X835357Y-11526071D01*
X821071Y-11554643D01*
X806786Y-11568929D01*
X778214Y-11583214D01*
X749643Y-11583214D01*
X721071Y-11568929D01*
X706786Y-11554643D01*
X692500Y-11526071D01*
X678214Y-11468929D01*
X678214Y-11397500D01*
X692500Y-11340357D01*
X706786Y-11311786D01*
X721071Y-11297500D01*
X749643Y-11283214D01*
X1035357Y-11283214D02*
X1063929Y-11283214D01*
X1092500Y-11297500D01*
X1106786Y-11311786D01*
X1121071Y-11340357D01*
X1135357Y-11397500D01*
X1135357Y-11468929D01*
X1121071Y-11526071D01*
X1106786Y-11554643D01*
X1092500Y-11568929D01*
X1063929Y-11583214D01*
X1035357Y-11583214D01*
X1006786Y-11568929D01*
X992500Y-11554643D01*
X978214Y-11526071D01*
X963928Y-11468929D01*
X963928Y-11397500D01*
X978214Y-11340357D01*
X992500Y-11311786D01*
X1006786Y-11297500D01*
X1035357Y-11283214D01*
X1263929Y-11583214D02*
X1263929Y-11383214D01*
X1263929Y-11411786D02*
X1278214Y-11397500D01*
X1306786Y-11383214D01*
X1349643Y-11383214D01*
X1378214Y-11397500D01*
X1392500Y-11426071D01*
X1392500Y-11583214D01*
X1392500Y-11426071D02*
X1406786Y-11397500D01*
X1435357Y-11383214D01*
X1478214Y-11383214D01*
X1506786Y-11397500D01*
X1521071Y-11426071D01*
X1521071Y-11583214D01*
X1663928Y-11583214D02*
X1663928Y-11383214D01*
X1663928Y-11411786D02*
X1678214Y-11397500D01*
X1706786Y-11383214D01*
X1749643Y-11383214D01*
X1778214Y-11397500D01*
X1792500Y-11426071D01*
X1792500Y-11583214D01*
X1792500Y-11426071D02*
X1806786Y-11397500D01*
X1835357Y-11383214D01*
X1878214Y-11383214D01*
X1906786Y-11397500D01*
X1921071Y-11426071D01*
X1921071Y-11583214D01*
X2506786Y-11268929D02*
X2249643Y-11654643D01*
X2892500Y-11283214D02*
X2921071Y-11283214D01*
X2949643Y-11297500D01*
X2963928Y-11311786D01*
X2978214Y-11340357D01*
X2992500Y-11397500D01*
X2992500Y-11468929D01*
X2978214Y-11526071D01*
X2963928Y-11554643D01*
X2949643Y-11568929D01*
X2921071Y-11583214D01*
X2892500Y-11583214D01*
X2863928Y-11568929D01*
X2849643Y-11554643D01*
X2835357Y-11526071D01*
X2821071Y-11468929D01*
X2821071Y-11397500D01*
X2835357Y-11340357D01*
X2849643Y-11311786D01*
X2863928Y-11297500D01*
X2892500Y-11283214D01*
X3121071Y-11554643D02*
X3135357Y-11568929D01*
X3121071Y-11583214D01*
X3106786Y-11568929D01*
X3121071Y-11554643D01*
X3121071Y-11583214D01*
X3321071Y-11283214D02*
X3349643Y-11283214D01*
X3378214Y-11297500D01*
X3392500Y-11311786D01*
X3406785Y-11340357D01*
X3421071Y-11397500D01*
X3421071Y-11468929D01*
X3406785Y-11526071D01*
X3392500Y-11554643D01*
X3378214Y-11568929D01*
X3349643Y-11583214D01*
X3321071Y-11583214D01*
X3292500Y-11568929D01*
X3278214Y-11554643D01*
X3263928Y-11526071D01*
X3249643Y-11468929D01*
X3249643Y-11397500D01*
X3263928Y-11340357D01*
X3278214Y-11311786D01*
X3292500Y-11297500D01*
X3321071Y-11283214D01*
X3521071Y-11283214D02*
X3706785Y-11283214D01*
X3606785Y-11397500D01*
X3649643Y-11397500D01*
X3678214Y-11411786D01*
X3692500Y-11426071D01*
X3706785Y-11454643D01*
X3706785Y-11526071D01*
X3692500Y-11554643D01*
X3678214Y-11568929D01*
X3649643Y-11583214D01*
X3563928Y-11583214D01*
X3535357Y-11568929D01*
X3521071Y-11554643D01*
X3849643Y-11583214D02*
X3906785Y-11583214D01*
X3935357Y-11568929D01*
X3949643Y-11554643D01*
X3978214Y-11511786D01*
X3992500Y-11454643D01*
X3992500Y-11340357D01*
X3978214Y-11311786D01*
X3963928Y-11297500D01*
X3935357Y-11283214D01*
X3878214Y-11283214D01*
X3849643Y-11297500D01*
X3835357Y-11311786D01*
X3821071Y-11340357D01*
X3821071Y-11411786D01*
X3835357Y-11440357D01*
X3849643Y-11454643D01*
X3878214Y-11468929D01*
X3935357Y-11468929D01*
X3963928Y-11454643D01*
X3978214Y-11440357D01*
X3992500Y-11411786D01*
X4106786Y-11283214D02*
X4106786Y-11340357D01*
X4221071Y-11283214D02*
X4221071Y-11340357D01*
X4663928Y-11697500D02*
X4649643Y-11683214D01*
X4621071Y-11640357D01*
X4606786Y-11611786D01*
X4592500Y-11568929D01*
X4578214Y-11497500D01*
X4578214Y-11440357D01*
X4592500Y-11368929D01*
X4606786Y-11326071D01*
X4621071Y-11297500D01*
X4649643Y-11254643D01*
X4663928Y-11240357D01*
X4935357Y-11583214D02*
X4763928Y-11583214D01*
X4849643Y-11583214D02*
X4849643Y-11283214D01*
X4821071Y-11326071D01*
X4792500Y-11354643D01*
X4763928Y-11368929D01*
X5078214Y-11583214D02*
X5135357Y-11583214D01*
X5163928Y-11568929D01*
X5178214Y-11554643D01*
X5206786Y-11511786D01*
X5221071Y-11454643D01*
X5221071Y-11340357D01*
X5206786Y-11311786D01*
X5192500Y-11297500D01*
X5163928Y-11283214D01*
X5106786Y-11283214D01*
X5078214Y-11297500D01*
X5063928Y-11311786D01*
X5049643Y-11340357D01*
X5049643Y-11411786D01*
X5063928Y-11440357D01*
X5078214Y-11454643D01*
X5106786Y-11468929D01*
X5163928Y-11468929D01*
X5192500Y-11454643D01*
X5206786Y-11440357D01*
X5221071Y-11411786D01*
X5578214Y-11583214D02*
X5578214Y-11283214D01*
X5706785Y-11583214D02*
X5706785Y-11426071D01*
X5692500Y-11397500D01*
X5663928Y-11383214D01*
X5621071Y-11383214D01*
X5592500Y-11397500D01*
X5578214Y-11411786D01*
X5892500Y-11583214D02*
X5863928Y-11568929D01*
X5849643Y-11554643D01*
X5835357Y-11526071D01*
X5835357Y-11440357D01*
X5849643Y-11411786D01*
X5863928Y-11397500D01*
X5892500Y-11383214D01*
X5935357Y-11383214D01*
X5963928Y-11397500D01*
X5978214Y-11411786D01*
X5992500Y-11440357D01*
X5992500Y-11526071D01*
X5978214Y-11554643D01*
X5963928Y-11568929D01*
X5935357Y-11583214D01*
X5892500Y-11583214D01*
X6163928Y-11583214D02*
X6135357Y-11568929D01*
X6121071Y-11540357D01*
X6121071Y-11283214D01*
X6392500Y-11568929D02*
X6363928Y-11583214D01*
X6306786Y-11583214D01*
X6278214Y-11568929D01*
X6263928Y-11540357D01*
X6263928Y-11426071D01*
X6278214Y-11397500D01*
X6306786Y-11383214D01*
X6363928Y-11383214D01*
X6392500Y-11397500D01*
X6406786Y-11426071D01*
X6406786Y-11454643D01*
X6263928Y-11483214D01*
X6521071Y-11568929D02*
X6549643Y-11583214D01*
X6606786Y-11583214D01*
X6635357Y-11568929D01*
X6649643Y-11540357D01*
X6649643Y-11526071D01*
X6635357Y-11497500D01*
X6606786Y-11483214D01*
X6563928Y-11483214D01*
X6535357Y-11468929D01*
X6521071Y-11440357D01*
X6521071Y-11426071D01*
X6535357Y-11397500D01*
X6563928Y-11383214D01*
X6606786Y-11383214D01*
X6635357Y-11397500D01*
X6749643Y-11697500D02*
X6763928Y-11683214D01*
X6792500Y-11640357D01*
X6806786Y-11611786D01*
X6821071Y-11568929D01*
X6835357Y-11497500D01*
X6835357Y-11440357D01*
X6821071Y-11368929D01*
X6806786Y-11326071D01*
X6792500Y-11297500D01*
X6763928Y-11254643D01*
X6749643Y-11240357D01*
X-109100Y-11792700D02*
X-7500Y-11894300D01*
X-7500Y-11792700D02*
X-109100Y-11894300D01*
X-58300Y-11792700D02*
X-58300Y-11894300D01*
X-109100Y-11843500D02*
X-7500Y-11843500D01*
X421071Y-11979214D02*
X249643Y-11979214D01*
X335357Y-11979214D02*
X335357Y-11679214D01*
X306786Y-11722071D01*
X278214Y-11750643D01*
X249643Y-11764929D01*
X549643Y-11950643D02*
X563929Y-11964929D01*
X549643Y-11979214D01*
X535357Y-11964929D01*
X549643Y-11950643D01*
X549643Y-11979214D01*
X749643Y-11679214D02*
X778214Y-11679214D01*
X806786Y-11693500D01*
X821071Y-11707786D01*
X835357Y-11736357D01*
X849643Y-11793500D01*
X849643Y-11864929D01*
X835357Y-11922071D01*
X821071Y-11950643D01*
X806786Y-11964929D01*
X778214Y-11979214D01*
X749643Y-11979214D01*
X721071Y-11964929D01*
X706786Y-11950643D01*
X692500Y-11922071D01*
X678214Y-11864929D01*
X678214Y-11793500D01*
X692500Y-11736357D01*
X706786Y-11707786D01*
X721071Y-11693500D01*
X749643Y-11679214D01*
X963928Y-11707786D02*
X978214Y-11693500D01*
X1006786Y-11679214D01*
X1078214Y-11679214D01*
X1106786Y-11693500D01*
X1121071Y-11707786D01*
X1135357Y-11736357D01*
X1135357Y-11764929D01*
X1121071Y-11807786D01*
X949643Y-11979214D01*
X1135357Y-11979214D01*
X1263929Y-11979214D02*
X1263929Y-11779214D01*
X1263929Y-11807786D02*
X1278214Y-11793500D01*
X1306786Y-11779214D01*
X1349643Y-11779214D01*
X1378214Y-11793500D01*
X1392500Y-11822071D01*
X1392500Y-11979214D01*
X1392500Y-11822071D02*
X1406786Y-11793500D01*
X1435357Y-11779214D01*
X1478214Y-11779214D01*
X1506786Y-11793500D01*
X1521071Y-11822071D01*
X1521071Y-11979214D01*
X1663928Y-11979214D02*
X1663928Y-11779214D01*
X1663928Y-11807786D02*
X1678214Y-11793500D01*
X1706786Y-11779214D01*
X1749643Y-11779214D01*
X1778214Y-11793500D01*
X1792500Y-11822071D01*
X1792500Y-11979214D01*
X1792500Y-11822071D02*
X1806786Y-11793500D01*
X1835357Y-11779214D01*
X1878214Y-11779214D01*
X1906786Y-11793500D01*
X1921071Y-11822071D01*
X1921071Y-11979214D01*
X2506786Y-11664929D02*
X2249643Y-12050643D01*
X2892500Y-11679214D02*
X2921071Y-11679214D01*
X2949643Y-11693500D01*
X2963928Y-11707786D01*
X2978214Y-11736357D01*
X2992500Y-11793500D01*
X2992500Y-11864929D01*
X2978214Y-11922071D01*
X2963928Y-11950643D01*
X2949643Y-11964929D01*
X2921071Y-11979214D01*
X2892500Y-11979214D01*
X2863928Y-11964929D01*
X2849643Y-11950643D01*
X2835357Y-11922071D01*
X2821071Y-11864929D01*
X2821071Y-11793500D01*
X2835357Y-11736357D01*
X2849643Y-11707786D01*
X2863928Y-11693500D01*
X2892500Y-11679214D01*
X3121071Y-11950643D02*
X3135357Y-11964929D01*
X3121071Y-11979214D01*
X3106786Y-11964929D01*
X3121071Y-11950643D01*
X3121071Y-11979214D01*
X3321071Y-11679214D02*
X3349643Y-11679214D01*
X3378214Y-11693500D01*
X3392500Y-11707786D01*
X3406785Y-11736357D01*
X3421071Y-11793500D01*
X3421071Y-11864929D01*
X3406785Y-11922071D01*
X3392500Y-11950643D01*
X3378214Y-11964929D01*
X3349643Y-11979214D01*
X3321071Y-11979214D01*
X3292500Y-11964929D01*
X3278214Y-11950643D01*
X3263928Y-11922071D01*
X3249643Y-11864929D01*
X3249643Y-11793500D01*
X3263928Y-11736357D01*
X3278214Y-11707786D01*
X3292500Y-11693500D01*
X3321071Y-11679214D01*
X3678214Y-11779214D02*
X3678214Y-11979214D01*
X3606785Y-11664929D02*
X3535357Y-11879214D01*
X3721071Y-11879214D01*
X3892500Y-11679214D02*
X3921071Y-11679214D01*
X3949643Y-11693500D01*
X3963928Y-11707786D01*
X3978214Y-11736357D01*
X3992500Y-11793500D01*
X3992500Y-11864929D01*
X3978214Y-11922071D01*
X3963928Y-11950643D01*
X3949643Y-11964929D01*
X3921071Y-11979214D01*
X3892500Y-11979214D01*
X3863928Y-11964929D01*
X3849643Y-11950643D01*
X3835357Y-11922071D01*
X3821071Y-11864929D01*
X3821071Y-11793500D01*
X3835357Y-11736357D01*
X3849643Y-11707786D01*
X3863928Y-11693500D01*
X3892500Y-11679214D01*
X4106786Y-11679214D02*
X4106786Y-11736357D01*
X4221071Y-11679214D02*
X4221071Y-11736357D01*
X4663928Y-12093500D02*
X4649643Y-12079214D01*
X4621071Y-12036357D01*
X4606786Y-12007786D01*
X4592500Y-11964929D01*
X4578214Y-11893500D01*
X4578214Y-11836357D01*
X4592500Y-11764929D01*
X4606786Y-11722071D01*
X4621071Y-11693500D01*
X4649643Y-11650643D01*
X4663928Y-11636357D01*
X4906786Y-11679214D02*
X4849643Y-11679214D01*
X4821071Y-11693500D01*
X4806786Y-11707786D01*
X4778214Y-11750643D01*
X4763928Y-11807786D01*
X4763928Y-11922071D01*
X4778214Y-11950643D01*
X4792500Y-11964929D01*
X4821071Y-11979214D01*
X4878214Y-11979214D01*
X4906786Y-11964929D01*
X4921071Y-11950643D01*
X4935357Y-11922071D01*
X4935357Y-11850643D01*
X4921071Y-11822071D01*
X4906786Y-11807786D01*
X4878214Y-11793500D01*
X4821071Y-11793500D01*
X4792500Y-11807786D01*
X4778214Y-11822071D01*
X4763928Y-11850643D01*
X5292500Y-11979214D02*
X5292500Y-11679214D01*
X5421071Y-11979214D02*
X5421071Y-11822071D01*
X5406786Y-11793500D01*
X5378214Y-11779214D01*
X5335357Y-11779214D01*
X5306786Y-11793500D01*
X5292500Y-11807786D01*
X5606785Y-11979214D02*
X5578214Y-11964929D01*
X5563928Y-11950643D01*
X5549643Y-11922071D01*
X5549643Y-11836357D01*
X5563928Y-11807786D01*
X5578214Y-11793500D01*
X5606785Y-11779214D01*
X5649643Y-11779214D01*
X5678214Y-11793500D01*
X5692500Y-11807786D01*
X5706785Y-11836357D01*
X5706785Y-11922071D01*
X5692500Y-11950643D01*
X5678214Y-11964929D01*
X5649643Y-11979214D01*
X5606785Y-11979214D01*
X5878214Y-11979214D02*
X5849643Y-11964929D01*
X5835357Y-11936357D01*
X5835357Y-11679214D01*
X6106786Y-11964929D02*
X6078214Y-11979214D01*
X6021071Y-11979214D01*
X5992500Y-11964929D01*
X5978214Y-11936357D01*
X5978214Y-11822071D01*
X5992500Y-11793500D01*
X6021071Y-11779214D01*
X6078214Y-11779214D01*
X6106786Y-11793500D01*
X6121071Y-11822071D01*
X6121071Y-11850643D01*
X5978214Y-11879214D01*
X6235357Y-11964929D02*
X6263928Y-11979214D01*
X6321071Y-11979214D01*
X6349643Y-11964929D01*
X6363928Y-11936357D01*
X6363928Y-11922071D01*
X6349643Y-11893500D01*
X6321071Y-11879214D01*
X6278214Y-11879214D01*
X6249643Y-11864929D01*
X6235357Y-11836357D01*
X6235357Y-11822071D01*
X6249643Y-11793500D01*
X6278214Y-11779214D01*
X6321071Y-11779214D01*
X6349643Y-11793500D01*
X6463928Y-12093500D02*
X6478214Y-12079214D01*
X6506786Y-12036357D01*
X6521071Y-12007786D01*
X6535357Y-11964929D01*
X6549643Y-11893500D01*
X6549643Y-11836357D01*
X6535357Y-11764929D01*
X6521071Y-11722071D01*
X6506786Y-11693500D01*
X6478214Y-11650643D01*
X6463928Y-11636357D01*
X-127500Y-12179500D02*
X-7500Y-12299500D01*
X-7500Y-12179500D02*
X-127500Y-12299500D01*
X-25073Y-12281927D02*
X-25073Y-12197073D01*
X-109927Y-12197073D01*
X-109927Y-12281927D01*
X-25073Y-12281927D01*
X421071Y-12375214D02*
X249643Y-12375214D01*
X335357Y-12375214D02*
X335357Y-12075214D01*
X306786Y-12118071D01*
X278214Y-12146643D01*
X249643Y-12160929D01*
X549643Y-12346643D02*
X563929Y-12360929D01*
X549643Y-12375214D01*
X535357Y-12360929D01*
X549643Y-12346643D01*
X549643Y-12375214D01*
X678214Y-12103786D02*
X692500Y-12089500D01*
X721071Y-12075214D01*
X792500Y-12075214D01*
X821071Y-12089500D01*
X835357Y-12103786D01*
X849643Y-12132357D01*
X849643Y-12160929D01*
X835357Y-12203786D01*
X663928Y-12375214D01*
X849643Y-12375214D01*
X1035357Y-12075214D02*
X1063929Y-12075214D01*
X1092500Y-12089500D01*
X1106786Y-12103786D01*
X1121071Y-12132357D01*
X1135357Y-12189500D01*
X1135357Y-12260929D01*
X1121071Y-12318071D01*
X1106786Y-12346643D01*
X1092500Y-12360929D01*
X1063929Y-12375214D01*
X1035357Y-12375214D01*
X1006786Y-12360929D01*
X992500Y-12346643D01*
X978214Y-12318071D01*
X963928Y-12260929D01*
X963928Y-12189500D01*
X978214Y-12132357D01*
X992500Y-12103786D01*
X1006786Y-12089500D01*
X1035357Y-12075214D01*
X1263929Y-12375214D02*
X1263929Y-12175214D01*
X1263929Y-12203786D02*
X1278214Y-12189500D01*
X1306786Y-12175214D01*
X1349643Y-12175214D01*
X1378214Y-12189500D01*
X1392500Y-12218071D01*
X1392500Y-12375214D01*
X1392500Y-12218071D02*
X1406786Y-12189500D01*
X1435357Y-12175214D01*
X1478214Y-12175214D01*
X1506786Y-12189500D01*
X1521071Y-12218071D01*
X1521071Y-12375214D01*
X1663928Y-12375214D02*
X1663928Y-12175214D01*
X1663928Y-12203786D02*
X1678214Y-12189500D01*
X1706786Y-12175214D01*
X1749643Y-12175214D01*
X1778214Y-12189500D01*
X1792500Y-12218071D01*
X1792500Y-12375214D01*
X1792500Y-12218071D02*
X1806786Y-12189500D01*
X1835357Y-12175214D01*
X1878214Y-12175214D01*
X1906786Y-12189500D01*
X1921071Y-12218071D01*
X1921071Y-12375214D01*
X2506786Y-12060929D02*
X2249643Y-12446643D01*
X2892500Y-12075214D02*
X2921071Y-12075214D01*
X2949643Y-12089500D01*
X2963928Y-12103786D01*
X2978214Y-12132357D01*
X2992500Y-12189500D01*
X2992500Y-12260929D01*
X2978214Y-12318071D01*
X2963928Y-12346643D01*
X2949643Y-12360929D01*
X2921071Y-12375214D01*
X2892500Y-12375214D01*
X2863928Y-12360929D01*
X2849643Y-12346643D01*
X2835357Y-12318071D01*
X2821071Y-12260929D01*
X2821071Y-12189500D01*
X2835357Y-12132357D01*
X2849643Y-12103786D01*
X2863928Y-12089500D01*
X2892500Y-12075214D01*
X3121071Y-12346643D02*
X3135357Y-12360929D01*
X3121071Y-12375214D01*
X3106786Y-12360929D01*
X3121071Y-12346643D01*
X3121071Y-12375214D01*
X3321071Y-12075214D02*
X3349643Y-12075214D01*
X3378214Y-12089500D01*
X3392500Y-12103786D01*
X3406785Y-12132357D01*
X3421071Y-12189500D01*
X3421071Y-12260929D01*
X3406785Y-12318071D01*
X3392500Y-12346643D01*
X3378214Y-12360929D01*
X3349643Y-12375214D01*
X3321071Y-12375214D01*
X3292500Y-12360929D01*
X3278214Y-12346643D01*
X3263928Y-12318071D01*
X3249643Y-12260929D01*
X3249643Y-12189500D01*
X3263928Y-12132357D01*
X3278214Y-12103786D01*
X3292500Y-12089500D01*
X3321071Y-12075214D01*
X3678214Y-12175214D02*
X3678214Y-12375214D01*
X3606785Y-12060929D02*
X3535357Y-12275214D01*
X3721071Y-12275214D01*
X3806785Y-12075214D02*
X4006785Y-12075214D01*
X3878214Y-12375214D01*
X4106786Y-12075214D02*
X4106786Y-12132357D01*
X4221071Y-12075214D02*
X4221071Y-12132357D01*
X4663928Y-12489500D02*
X4649643Y-12475214D01*
X4621071Y-12432357D01*
X4606786Y-12403786D01*
X4592500Y-12360929D01*
X4578214Y-12289500D01*
X4578214Y-12232357D01*
X4592500Y-12160929D01*
X4606786Y-12118071D01*
X4621071Y-12089500D01*
X4649643Y-12046643D01*
X4663928Y-12032357D01*
X4749643Y-12075214D02*
X4935357Y-12075214D01*
X4835357Y-12189500D01*
X4878214Y-12189500D01*
X4906786Y-12203786D01*
X4921071Y-12218071D01*
X4935357Y-12246643D01*
X4935357Y-12318071D01*
X4921071Y-12346643D01*
X4906786Y-12360929D01*
X4878214Y-12375214D01*
X4792500Y-12375214D01*
X4763928Y-12360929D01*
X4749643Y-12346643D01*
X5292500Y-12375214D02*
X5292500Y-12075214D01*
X5421071Y-12375214D02*
X5421071Y-12218071D01*
X5406786Y-12189500D01*
X5378214Y-12175214D01*
X5335357Y-12175214D01*
X5306786Y-12189500D01*
X5292500Y-12203786D01*
X5606785Y-12375214D02*
X5578214Y-12360929D01*
X5563928Y-12346643D01*
X5549643Y-12318071D01*
X5549643Y-12232357D01*
X5563928Y-12203786D01*
X5578214Y-12189500D01*
X5606785Y-12175214D01*
X5649643Y-12175214D01*
X5678214Y-12189500D01*
X5692500Y-12203786D01*
X5706785Y-12232357D01*
X5706785Y-12318071D01*
X5692500Y-12346643D01*
X5678214Y-12360929D01*
X5649643Y-12375214D01*
X5606785Y-12375214D01*
X5878214Y-12375214D02*
X5849643Y-12360929D01*
X5835357Y-12332357D01*
X5835357Y-12075214D01*
X6106786Y-12360929D02*
X6078214Y-12375214D01*
X6021071Y-12375214D01*
X5992500Y-12360929D01*
X5978214Y-12332357D01*
X5978214Y-12218071D01*
X5992500Y-12189500D01*
X6021071Y-12175214D01*
X6078214Y-12175214D01*
X6106786Y-12189500D01*
X6121071Y-12218071D01*
X6121071Y-12246643D01*
X5978214Y-12275214D01*
X6235357Y-12360929D02*
X6263928Y-12375214D01*
X6321071Y-12375214D01*
X6349643Y-12360929D01*
X6363928Y-12332357D01*
X6363928Y-12318071D01*
X6349643Y-12289500D01*
X6321071Y-12275214D01*
X6278214Y-12275214D01*
X6249643Y-12260929D01*
X6235357Y-12232357D01*
X6235357Y-12218071D01*
X6249643Y-12189500D01*
X6278214Y-12175214D01*
X6321071Y-12175214D01*
X6349643Y-12189500D01*
X6463928Y-12489500D02*
X6478214Y-12475214D01*
X6506786Y-12432357D01*
X6521071Y-12403786D01*
X6535357Y-12360929D01*
X6549643Y-12289500D01*
X6549643Y-12232357D01*
X6535357Y-12160929D01*
X6521071Y-12118071D01*
X6506786Y-12089500D01*
X6478214Y-12046643D01*
X6463928Y-12032357D01*
X-139580Y-12569460D02*
X-7500Y-12701540D01*
X-7500Y-12569460D02*
X-139580Y-12701540D01*
X-73540Y-12701540D02*
X-7500Y-12635500D01*
X-73540Y-12569460D01*
X-139580Y-12635500D01*
X-73540Y-12701540D01*
X421071Y-12771214D02*
X249643Y-12771214D01*
X335357Y-12771214D02*
X335357Y-12471214D01*
X306786Y-12514071D01*
X278214Y-12542643D01*
X249643Y-12556929D01*
X549643Y-12742643D02*
X563929Y-12756929D01*
X549643Y-12771214D01*
X535357Y-12756929D01*
X549643Y-12742643D01*
X549643Y-12771214D01*
X663928Y-12471214D02*
X849643Y-12471214D01*
X749643Y-12585500D01*
X792500Y-12585500D01*
X821071Y-12599786D01*
X835357Y-12614071D01*
X849643Y-12642643D01*
X849643Y-12714071D01*
X835357Y-12742643D01*
X821071Y-12756929D01*
X792500Y-12771214D01*
X706786Y-12771214D01*
X678214Y-12756929D01*
X663928Y-12742643D01*
X963928Y-12499786D02*
X978214Y-12485500D01*
X1006786Y-12471214D01*
X1078214Y-12471214D01*
X1106786Y-12485500D01*
X1121071Y-12499786D01*
X1135357Y-12528357D01*
X1135357Y-12556929D01*
X1121071Y-12599786D01*
X949643Y-12771214D01*
X1135357Y-12771214D01*
X1263929Y-12771214D02*
X1263929Y-12571214D01*
X1263929Y-12599786D02*
X1278214Y-12585500D01*
X1306786Y-12571214D01*
X1349643Y-12571214D01*
X1378214Y-12585500D01*
X1392500Y-12614071D01*
X1392500Y-12771214D01*
X1392500Y-12614071D02*
X1406786Y-12585500D01*
X1435357Y-12571214D01*
X1478214Y-12571214D01*
X1506786Y-12585500D01*
X1521071Y-12614071D01*
X1521071Y-12771214D01*
X1663928Y-12771214D02*
X1663928Y-12571214D01*
X1663928Y-12599786D02*
X1678214Y-12585500D01*
X1706786Y-12571214D01*
X1749643Y-12571214D01*
X1778214Y-12585500D01*
X1792500Y-12614071D01*
X1792500Y-12771214D01*
X1792500Y-12614071D02*
X1806786Y-12585500D01*
X1835357Y-12571214D01*
X1878214Y-12571214D01*
X1906786Y-12585500D01*
X1921071Y-12614071D01*
X1921071Y-12771214D01*
X2506786Y-12456929D02*
X2249643Y-12842643D01*
X2892500Y-12471214D02*
X2921071Y-12471214D01*
X2949643Y-12485500D01*
X2963928Y-12499786D01*
X2978214Y-12528357D01*
X2992500Y-12585500D01*
X2992500Y-12656929D01*
X2978214Y-12714071D01*
X2963928Y-12742643D01*
X2949643Y-12756929D01*
X2921071Y-12771214D01*
X2892500Y-12771214D01*
X2863928Y-12756929D01*
X2849643Y-12742643D01*
X2835357Y-12714071D01*
X2821071Y-12656929D01*
X2821071Y-12585500D01*
X2835357Y-12528357D01*
X2849643Y-12499786D01*
X2863928Y-12485500D01*
X2892500Y-12471214D01*
X3121071Y-12742643D02*
X3135357Y-12756929D01*
X3121071Y-12771214D01*
X3106786Y-12756929D01*
X3121071Y-12742643D01*
X3121071Y-12771214D01*
X3321071Y-12471214D02*
X3349643Y-12471214D01*
X3378214Y-12485500D01*
X3392500Y-12499786D01*
X3406785Y-12528357D01*
X3421071Y-12585500D01*
X3421071Y-12656929D01*
X3406785Y-12714071D01*
X3392500Y-12742643D01*
X3378214Y-12756929D01*
X3349643Y-12771214D01*
X3321071Y-12771214D01*
X3292500Y-12756929D01*
X3278214Y-12742643D01*
X3263928Y-12714071D01*
X3249643Y-12656929D01*
X3249643Y-12585500D01*
X3263928Y-12528357D01*
X3278214Y-12499786D01*
X3292500Y-12485500D01*
X3321071Y-12471214D01*
X3692500Y-12471214D02*
X3549643Y-12471214D01*
X3535357Y-12614071D01*
X3549643Y-12599786D01*
X3578214Y-12585500D01*
X3649643Y-12585500D01*
X3678214Y-12599786D01*
X3692500Y-12614071D01*
X3706785Y-12642643D01*
X3706785Y-12714071D01*
X3692500Y-12742643D01*
X3678214Y-12756929D01*
X3649643Y-12771214D01*
X3578214Y-12771214D01*
X3549643Y-12756929D01*
X3535357Y-12742643D01*
X3821071Y-12499786D02*
X3835357Y-12485500D01*
X3863928Y-12471214D01*
X3935357Y-12471214D01*
X3963928Y-12485500D01*
X3978214Y-12499786D01*
X3992500Y-12528357D01*
X3992500Y-12556929D01*
X3978214Y-12599786D01*
X3806785Y-12771214D01*
X3992500Y-12771214D01*
X4106786Y-12471214D02*
X4106786Y-12528357D01*
X4221071Y-12471214D02*
X4221071Y-12528357D01*
X4663928Y-12885500D02*
X4649643Y-12871214D01*
X4621071Y-12828357D01*
X4606786Y-12799786D01*
X4592500Y-12756929D01*
X4578214Y-12685500D01*
X4578214Y-12628357D01*
X4592500Y-12556929D01*
X4606786Y-12514071D01*
X4621071Y-12485500D01*
X4649643Y-12442643D01*
X4663928Y-12428357D01*
X4906786Y-12571214D02*
X4906786Y-12771214D01*
X4835357Y-12456929D02*
X4763928Y-12671214D01*
X4949643Y-12671214D01*
X5292500Y-12771214D02*
X5292500Y-12471214D01*
X5421071Y-12771214D02*
X5421071Y-12614071D01*
X5406786Y-12585500D01*
X5378214Y-12571214D01*
X5335357Y-12571214D01*
X5306786Y-12585500D01*
X5292500Y-12599786D01*
X5606785Y-12771214D02*
X5578214Y-12756929D01*
X5563928Y-12742643D01*
X5549643Y-12714071D01*
X5549643Y-12628357D01*
X5563928Y-12599786D01*
X5578214Y-12585500D01*
X5606785Y-12571214D01*
X5649643Y-12571214D01*
X5678214Y-12585500D01*
X5692500Y-12599786D01*
X5706785Y-12628357D01*
X5706785Y-12714071D01*
X5692500Y-12742643D01*
X5678214Y-12756929D01*
X5649643Y-12771214D01*
X5606785Y-12771214D01*
X5878214Y-12771214D02*
X5849643Y-12756929D01*
X5835357Y-12728357D01*
X5835357Y-12471214D01*
X6106786Y-12756929D02*
X6078214Y-12771214D01*
X6021071Y-12771214D01*
X5992500Y-12756929D01*
X5978214Y-12728357D01*
X5978214Y-12614071D01*
X5992500Y-12585500D01*
X6021071Y-12571214D01*
X6078214Y-12571214D01*
X6106786Y-12585500D01*
X6121071Y-12614071D01*
X6121071Y-12642643D01*
X5978214Y-12671214D01*
X6235357Y-12756929D02*
X6263928Y-12771214D01*
X6321071Y-12771214D01*
X6349643Y-12756929D01*
X6363928Y-12728357D01*
X6363928Y-12714071D01*
X6349643Y-12685500D01*
X6321071Y-12671214D01*
X6278214Y-12671214D01*
X6249643Y-12656929D01*
X6235357Y-12628357D01*
X6235357Y-12614071D01*
X6249643Y-12585500D01*
X6278214Y-12571214D01*
X6321071Y-12571214D01*
X6349643Y-12585500D01*
X6463928Y-12885500D02*
X6478214Y-12871214D01*
X6506786Y-12828357D01*
X6521071Y-12799786D01*
X6535357Y-12756929D01*
X6549643Y-12685500D01*
X6549643Y-12628357D01*
X6535357Y-12556929D01*
X6521071Y-12514071D01*
X6506786Y-12485500D01*
X6478214Y-12442643D01*
X6463928Y-12428357D01*
X-82500Y-12956500D02*
X-82500Y-13106500D01*
X-157500Y-13031500D02*
X-7500Y-13031500D01*
X-7500Y-13031500D02*
G75*
G03X-7500Y-13031500I-75000J0D01*
G01*
X421071Y-13167214D02*
X249643Y-13167214D01*
X335357Y-13167214D02*
X335357Y-12867214D01*
X306786Y-12910071D01*
X278214Y-12938643D01*
X249643Y-12952929D01*
X549643Y-13138643D02*
X563929Y-13152929D01*
X549643Y-13167214D01*
X535357Y-13152929D01*
X549643Y-13138643D01*
X549643Y-13167214D01*
X835357Y-12867214D02*
X692500Y-12867214D01*
X678214Y-13010071D01*
X692500Y-12995786D01*
X721071Y-12981500D01*
X792500Y-12981500D01*
X821071Y-12995786D01*
X835357Y-13010071D01*
X849643Y-13038643D01*
X849643Y-13110071D01*
X835357Y-13138643D01*
X821071Y-13152929D01*
X792500Y-13167214D01*
X721071Y-13167214D01*
X692500Y-13152929D01*
X678214Y-13138643D01*
X1035357Y-12867214D02*
X1063929Y-12867214D01*
X1092500Y-12881500D01*
X1106786Y-12895786D01*
X1121071Y-12924357D01*
X1135357Y-12981500D01*
X1135357Y-13052929D01*
X1121071Y-13110071D01*
X1106786Y-13138643D01*
X1092500Y-13152929D01*
X1063929Y-13167214D01*
X1035357Y-13167214D01*
X1006786Y-13152929D01*
X992500Y-13138643D01*
X978214Y-13110071D01*
X963928Y-13052929D01*
X963928Y-12981500D01*
X978214Y-12924357D01*
X992500Y-12895786D01*
X1006786Y-12881500D01*
X1035357Y-12867214D01*
X1263929Y-13167214D02*
X1263929Y-12967214D01*
X1263929Y-12995786D02*
X1278214Y-12981500D01*
X1306786Y-12967214D01*
X1349643Y-12967214D01*
X1378214Y-12981500D01*
X1392500Y-13010071D01*
X1392500Y-13167214D01*
X1392500Y-13010071D02*
X1406786Y-12981500D01*
X1435357Y-12967214D01*
X1478214Y-12967214D01*
X1506786Y-12981500D01*
X1521071Y-13010071D01*
X1521071Y-13167214D01*
X1663928Y-13167214D02*
X1663928Y-12967214D01*
X1663928Y-12995786D02*
X1678214Y-12981500D01*
X1706786Y-12967214D01*
X1749643Y-12967214D01*
X1778214Y-12981500D01*
X1792500Y-13010071D01*
X1792500Y-13167214D01*
X1792500Y-13010071D02*
X1806786Y-12981500D01*
X1835357Y-12967214D01*
X1878214Y-12967214D01*
X1906786Y-12981500D01*
X1921071Y-13010071D01*
X1921071Y-13167214D01*
X2506786Y-12852929D02*
X2249643Y-13238643D01*
X2892500Y-12867214D02*
X2921071Y-12867214D01*
X2949643Y-12881500D01*
X2963928Y-12895786D01*
X2978214Y-12924357D01*
X2992500Y-12981500D01*
X2992500Y-13052929D01*
X2978214Y-13110071D01*
X2963928Y-13138643D01*
X2949643Y-13152929D01*
X2921071Y-13167214D01*
X2892500Y-13167214D01*
X2863928Y-13152929D01*
X2849643Y-13138643D01*
X2835357Y-13110071D01*
X2821071Y-13052929D01*
X2821071Y-12981500D01*
X2835357Y-12924357D01*
X2849643Y-12895786D01*
X2863928Y-12881500D01*
X2892500Y-12867214D01*
X3121071Y-13138643D02*
X3135357Y-13152929D01*
X3121071Y-13167214D01*
X3106786Y-13152929D01*
X3121071Y-13138643D01*
X3121071Y-13167214D01*
X3321071Y-12867214D02*
X3349643Y-12867214D01*
X3378214Y-12881500D01*
X3392500Y-12895786D01*
X3406785Y-12924357D01*
X3421071Y-12981500D01*
X3421071Y-13052929D01*
X3406785Y-13110071D01*
X3392500Y-13138643D01*
X3378214Y-13152929D01*
X3349643Y-13167214D01*
X3321071Y-13167214D01*
X3292500Y-13152929D01*
X3278214Y-13138643D01*
X3263928Y-13110071D01*
X3249643Y-13052929D01*
X3249643Y-12981500D01*
X3263928Y-12924357D01*
X3278214Y-12895786D01*
X3292500Y-12881500D01*
X3321071Y-12867214D01*
X3692500Y-12867214D02*
X3549643Y-12867214D01*
X3535357Y-13010071D01*
X3549643Y-12995786D01*
X3578214Y-12981500D01*
X3649643Y-12981500D01*
X3678214Y-12995786D01*
X3692500Y-13010071D01*
X3706785Y-13038643D01*
X3706785Y-13110071D01*
X3692500Y-13138643D01*
X3678214Y-13152929D01*
X3649643Y-13167214D01*
X3578214Y-13167214D01*
X3549643Y-13152929D01*
X3535357Y-13138643D01*
X3849643Y-13167214D02*
X3906785Y-13167214D01*
X3935357Y-13152929D01*
X3949643Y-13138643D01*
X3978214Y-13095786D01*
X3992500Y-13038643D01*
X3992500Y-12924357D01*
X3978214Y-12895786D01*
X3963928Y-12881500D01*
X3935357Y-12867214D01*
X3878214Y-12867214D01*
X3849643Y-12881500D01*
X3835357Y-12895786D01*
X3821071Y-12924357D01*
X3821071Y-12995786D01*
X3835357Y-13024357D01*
X3849643Y-13038643D01*
X3878214Y-13052929D01*
X3935357Y-13052929D01*
X3963928Y-13038643D01*
X3978214Y-13024357D01*
X3992500Y-12995786D01*
X4106786Y-12867214D02*
X4106786Y-12924357D01*
X4221071Y-12867214D02*
X4221071Y-12924357D01*
X4663928Y-13281500D02*
X4649643Y-13267214D01*
X4621071Y-13224357D01*
X4606786Y-13195786D01*
X4592500Y-13152929D01*
X4578214Y-13081500D01*
X4578214Y-13024357D01*
X4592500Y-12952929D01*
X4606786Y-12910071D01*
X4621071Y-12881500D01*
X4649643Y-12838643D01*
X4663928Y-12824357D01*
X4749643Y-12867214D02*
X4935357Y-12867214D01*
X4835357Y-12981500D01*
X4878214Y-12981500D01*
X4906786Y-12995786D01*
X4921071Y-13010071D01*
X4935357Y-13038643D01*
X4935357Y-13110071D01*
X4921071Y-13138643D01*
X4906786Y-13152929D01*
X4878214Y-13167214D01*
X4792500Y-13167214D01*
X4763928Y-13152929D01*
X4749643Y-13138643D01*
X5292500Y-13167214D02*
X5292500Y-12867214D01*
X5421071Y-13167214D02*
X5421071Y-13010071D01*
X5406786Y-12981500D01*
X5378214Y-12967214D01*
X5335357Y-12967214D01*
X5306786Y-12981500D01*
X5292500Y-12995786D01*
X5606785Y-13167214D02*
X5578214Y-13152929D01*
X5563928Y-13138643D01*
X5549643Y-13110071D01*
X5549643Y-13024357D01*
X5563928Y-12995786D01*
X5578214Y-12981500D01*
X5606785Y-12967214D01*
X5649643Y-12967214D01*
X5678214Y-12981500D01*
X5692500Y-12995786D01*
X5706785Y-13024357D01*
X5706785Y-13110071D01*
X5692500Y-13138643D01*
X5678214Y-13152929D01*
X5649643Y-13167214D01*
X5606785Y-13167214D01*
X5878214Y-13167214D02*
X5849643Y-13152929D01*
X5835357Y-13124357D01*
X5835357Y-12867214D01*
X6106786Y-13152929D02*
X6078214Y-13167214D01*
X6021071Y-13167214D01*
X5992500Y-13152929D01*
X5978214Y-13124357D01*
X5978214Y-13010071D01*
X5992500Y-12981500D01*
X6021071Y-12967214D01*
X6078214Y-12967214D01*
X6106786Y-12981500D01*
X6121071Y-13010071D01*
X6121071Y-13038643D01*
X5978214Y-13067214D01*
X6235357Y-13152929D02*
X6263928Y-13167214D01*
X6321071Y-13167214D01*
X6349643Y-13152929D01*
X6363928Y-13124357D01*
X6363928Y-13110071D01*
X6349643Y-13081500D01*
X6321071Y-13067214D01*
X6278214Y-13067214D01*
X6249643Y-13052929D01*
X6235357Y-13024357D01*
X6235357Y-13010071D01*
X6249643Y-12981500D01*
X6278214Y-12967214D01*
X6321071Y-12967214D01*
X6349643Y-12981500D01*
X6463928Y-13281500D02*
X6478214Y-13267214D01*
X6506786Y-13224357D01*
X6521071Y-13195786D01*
X6535357Y-13152929D01*
X6549643Y-13081500D01*
X6549643Y-13024357D01*
X6535357Y-12952929D01*
X6521071Y-12910071D01*
X6506786Y-12881500D01*
X6478214Y-12838643D01*
X6463928Y-12824357D01*
X-39712Y-13505270D02*
X-39712Y-13349730D01*
X-195252Y-13349730D01*
X-195252Y-13505270D01*
X-39712Y-13505270D01*
X-7500Y-13427500D02*
G75*
G03X-7500Y-13427500I-109982J0D01*
G01*
X249643Y-13291786D02*
X263929Y-13277500D01*
X292500Y-13263214D01*
X363928Y-13263214D01*
X392500Y-13277500D01*
X406786Y-13291786D01*
X421071Y-13320357D01*
X421071Y-13348929D01*
X406786Y-13391786D01*
X235357Y-13563214D01*
X421071Y-13563214D01*
X549643Y-13534643D02*
X563929Y-13548929D01*
X549643Y-13563214D01*
X535357Y-13548929D01*
X549643Y-13534643D01*
X549643Y-13563214D01*
X678214Y-13291786D02*
X692500Y-13277500D01*
X721071Y-13263214D01*
X792500Y-13263214D01*
X821071Y-13277500D01*
X835357Y-13291786D01*
X849643Y-13320357D01*
X849643Y-13348929D01*
X835357Y-13391786D01*
X663928Y-13563214D01*
X849643Y-13563214D01*
X1035357Y-13263214D02*
X1063929Y-13263214D01*
X1092500Y-13277500D01*
X1106786Y-13291786D01*
X1121071Y-13320357D01*
X1135357Y-13377500D01*
X1135357Y-13448929D01*
X1121071Y-13506071D01*
X1106786Y-13534643D01*
X1092500Y-13548929D01*
X1063929Y-13563214D01*
X1035357Y-13563214D01*
X1006786Y-13548929D01*
X992500Y-13534643D01*
X978214Y-13506071D01*
X963928Y-13448929D01*
X963928Y-13377500D01*
X978214Y-13320357D01*
X992500Y-13291786D01*
X1006786Y-13277500D01*
X1035357Y-13263214D01*
X1263929Y-13563214D02*
X1263929Y-13363214D01*
X1263929Y-13391786D02*
X1278214Y-13377500D01*
X1306786Y-13363214D01*
X1349643Y-13363214D01*
X1378214Y-13377500D01*
X1392500Y-13406071D01*
X1392500Y-13563214D01*
X1392500Y-13406071D02*
X1406786Y-13377500D01*
X1435357Y-13363214D01*
X1478214Y-13363214D01*
X1506786Y-13377500D01*
X1521071Y-13406071D01*
X1521071Y-13563214D01*
X1663928Y-13563214D02*
X1663928Y-13363214D01*
X1663928Y-13391786D02*
X1678214Y-13377500D01*
X1706786Y-13363214D01*
X1749643Y-13363214D01*
X1778214Y-13377500D01*
X1792500Y-13406071D01*
X1792500Y-13563214D01*
X1792500Y-13406071D02*
X1806786Y-13377500D01*
X1835357Y-13363214D01*
X1878214Y-13363214D01*
X1906786Y-13377500D01*
X1921071Y-13406071D01*
X1921071Y-13563214D01*
X2506786Y-13248929D02*
X2249643Y-13634643D01*
X2892500Y-13263214D02*
X2921071Y-13263214D01*
X2949643Y-13277500D01*
X2963928Y-13291786D01*
X2978214Y-13320357D01*
X2992500Y-13377500D01*
X2992500Y-13448929D01*
X2978214Y-13506071D01*
X2963928Y-13534643D01*
X2949643Y-13548929D01*
X2921071Y-13563214D01*
X2892500Y-13563214D01*
X2863928Y-13548929D01*
X2849643Y-13534643D01*
X2835357Y-13506071D01*
X2821071Y-13448929D01*
X2821071Y-13377500D01*
X2835357Y-13320357D01*
X2849643Y-13291786D01*
X2863928Y-13277500D01*
X2892500Y-13263214D01*
X3121071Y-13534643D02*
X3135357Y-13548929D01*
X3121071Y-13563214D01*
X3106786Y-13548929D01*
X3121071Y-13534643D01*
X3121071Y-13563214D01*
X3321071Y-13263214D02*
X3349643Y-13263214D01*
X3378214Y-13277500D01*
X3392500Y-13291786D01*
X3406785Y-13320357D01*
X3421071Y-13377500D01*
X3421071Y-13448929D01*
X3406785Y-13506071D01*
X3392500Y-13534643D01*
X3378214Y-13548929D01*
X3349643Y-13563214D01*
X3321071Y-13563214D01*
X3292500Y-13548929D01*
X3278214Y-13534643D01*
X3263928Y-13506071D01*
X3249643Y-13448929D01*
X3249643Y-13377500D01*
X3263928Y-13320357D01*
X3278214Y-13291786D01*
X3292500Y-13277500D01*
X3321071Y-13263214D01*
X3592500Y-13391786D02*
X3563928Y-13377500D01*
X3549643Y-13363214D01*
X3535357Y-13334643D01*
X3535357Y-13320357D01*
X3549643Y-13291786D01*
X3563928Y-13277500D01*
X3592500Y-13263214D01*
X3649643Y-13263214D01*
X3678214Y-13277500D01*
X3692500Y-13291786D01*
X3706785Y-13320357D01*
X3706785Y-13334643D01*
X3692500Y-13363214D01*
X3678214Y-13377500D01*
X3649643Y-13391786D01*
X3592500Y-13391786D01*
X3563928Y-13406071D01*
X3549643Y-13420357D01*
X3535357Y-13448929D01*
X3535357Y-13506071D01*
X3549643Y-13534643D01*
X3563928Y-13548929D01*
X3592500Y-13563214D01*
X3649643Y-13563214D01*
X3678214Y-13548929D01*
X3692500Y-13534643D01*
X3706785Y-13506071D01*
X3706785Y-13448929D01*
X3692500Y-13420357D01*
X3678214Y-13406071D01*
X3649643Y-13391786D01*
X3806785Y-13263214D02*
X4006785Y-13263214D01*
X3878214Y-13563214D01*
X4106786Y-13263214D02*
X4106786Y-13320357D01*
X4221071Y-13263214D02*
X4221071Y-13320357D01*
X4663928Y-13677500D02*
X4649643Y-13663214D01*
X4621071Y-13620357D01*
X4606786Y-13591786D01*
X4592500Y-13548929D01*
X4578214Y-13477500D01*
X4578214Y-13420357D01*
X4592500Y-13348929D01*
X4606786Y-13306071D01*
X4621071Y-13277500D01*
X4649643Y-13234643D01*
X4663928Y-13220357D01*
X4935357Y-13563214D02*
X4763928Y-13563214D01*
X4849643Y-13563214D02*
X4849643Y-13263214D01*
X4821071Y-13306071D01*
X4792500Y-13334643D01*
X4763928Y-13348929D01*
X5121071Y-13263214D02*
X5149643Y-13263214D01*
X5178214Y-13277500D01*
X5192500Y-13291786D01*
X5206786Y-13320357D01*
X5221071Y-13377500D01*
X5221071Y-13448929D01*
X5206786Y-13506071D01*
X5192500Y-13534643D01*
X5178214Y-13548929D01*
X5149643Y-13563214D01*
X5121071Y-13563214D01*
X5092500Y-13548929D01*
X5078214Y-13534643D01*
X5063928Y-13506071D01*
X5049643Y-13448929D01*
X5049643Y-13377500D01*
X5063928Y-13320357D01*
X5078214Y-13291786D01*
X5092500Y-13277500D01*
X5121071Y-13263214D01*
X5578214Y-13563214D02*
X5578214Y-13263214D01*
X5706785Y-13563214D02*
X5706785Y-13406071D01*
X5692500Y-13377500D01*
X5663928Y-13363214D01*
X5621071Y-13363214D01*
X5592500Y-13377500D01*
X5578214Y-13391786D01*
X5892500Y-13563214D02*
X5863928Y-13548929D01*
X5849643Y-13534643D01*
X5835357Y-13506071D01*
X5835357Y-13420357D01*
X5849643Y-13391786D01*
X5863928Y-13377500D01*
X5892500Y-13363214D01*
X5935357Y-13363214D01*
X5963928Y-13377500D01*
X5978214Y-13391786D01*
X5992500Y-13420357D01*
X5992500Y-13506071D01*
X5978214Y-13534643D01*
X5963928Y-13548929D01*
X5935357Y-13563214D01*
X5892500Y-13563214D01*
X6163928Y-13563214D02*
X6135357Y-13548929D01*
X6121071Y-13520357D01*
X6121071Y-13263214D01*
X6392500Y-13548929D02*
X6363928Y-13563214D01*
X6306786Y-13563214D01*
X6278214Y-13548929D01*
X6263928Y-13520357D01*
X6263928Y-13406071D01*
X6278214Y-13377500D01*
X6306786Y-13363214D01*
X6363928Y-13363214D01*
X6392500Y-13377500D01*
X6406786Y-13406071D01*
X6406786Y-13434643D01*
X6263928Y-13463214D01*
X6521071Y-13548929D02*
X6549643Y-13563214D01*
X6606786Y-13563214D01*
X6635357Y-13548929D01*
X6649643Y-13520357D01*
X6649643Y-13506071D01*
X6635357Y-13477500D01*
X6606786Y-13463214D01*
X6563928Y-13463214D01*
X6535357Y-13448929D01*
X6521071Y-13420357D01*
X6521071Y-13406071D01*
X6535357Y-13377500D01*
X6563928Y-13363214D01*
X6606786Y-13363214D01*
X6635357Y-13377500D01*
X6749643Y-13677500D02*
X6763928Y-13663214D01*
X6792500Y-13620357D01*
X6806786Y-13591786D01*
X6821071Y-13548929D01*
X6835357Y-13477500D01*
X6835357Y-13420357D01*
X6821071Y-13348929D01*
X6806786Y-13306071D01*
X6792500Y-13277500D01*
X6763928Y-13234643D01*
X6749643Y-13220357D01*
X-182500Y-13998500D02*
X-7500Y-13823500D01*
X-182500Y-13648500D01*
X-357500Y-13823500D01*
X-182500Y-13998500D01*
X-7500Y-13823500D02*
G75*
G03X-7500Y-13823500I-175000J0D01*
G01*
X235357Y-13659214D02*
X421071Y-13659214D01*
X321071Y-13773500D01*
X363928Y-13773500D01*
X392500Y-13787786D01*
X406786Y-13802071D01*
X421071Y-13830643D01*
X421071Y-13902071D01*
X406786Y-13930643D01*
X392500Y-13944929D01*
X363928Y-13959214D01*
X278214Y-13959214D01*
X249643Y-13944929D01*
X235357Y-13930643D01*
X549643Y-13930643D02*
X563929Y-13944929D01*
X549643Y-13959214D01*
X535357Y-13944929D01*
X549643Y-13930643D01*
X549643Y-13959214D01*
X835357Y-13659214D02*
X692500Y-13659214D01*
X678214Y-13802071D01*
X692500Y-13787786D01*
X721071Y-13773500D01*
X792500Y-13773500D01*
X821071Y-13787786D01*
X835357Y-13802071D01*
X849643Y-13830643D01*
X849643Y-13902071D01*
X835357Y-13930643D01*
X821071Y-13944929D01*
X792500Y-13959214D01*
X721071Y-13959214D01*
X692500Y-13944929D01*
X678214Y-13930643D01*
X1035357Y-13659214D02*
X1063929Y-13659214D01*
X1092500Y-13673500D01*
X1106786Y-13687786D01*
X1121071Y-13716357D01*
X1135357Y-13773500D01*
X1135357Y-13844929D01*
X1121071Y-13902071D01*
X1106786Y-13930643D01*
X1092500Y-13944929D01*
X1063929Y-13959214D01*
X1035357Y-13959214D01*
X1006786Y-13944929D01*
X992500Y-13930643D01*
X978214Y-13902071D01*
X963928Y-13844929D01*
X963928Y-13773500D01*
X978214Y-13716357D01*
X992500Y-13687786D01*
X1006786Y-13673500D01*
X1035357Y-13659214D01*
X1263929Y-13959214D02*
X1263929Y-13759214D01*
X1263929Y-13787786D02*
X1278214Y-13773500D01*
X1306786Y-13759214D01*
X1349643Y-13759214D01*
X1378214Y-13773500D01*
X1392500Y-13802071D01*
X1392500Y-13959214D01*
X1392500Y-13802071D02*
X1406786Y-13773500D01*
X1435357Y-13759214D01*
X1478214Y-13759214D01*
X1506786Y-13773500D01*
X1521071Y-13802071D01*
X1521071Y-13959214D01*
X1663928Y-13959214D02*
X1663928Y-13759214D01*
X1663928Y-13787786D02*
X1678214Y-13773500D01*
X1706786Y-13759214D01*
X1749643Y-13759214D01*
X1778214Y-13773500D01*
X1792500Y-13802071D01*
X1792500Y-13959214D01*
X1792500Y-13802071D02*
X1806786Y-13773500D01*
X1835357Y-13759214D01*
X1878214Y-13759214D01*
X1906786Y-13773500D01*
X1921071Y-13802071D01*
X1921071Y-13959214D01*
X2506786Y-13644929D02*
X2249643Y-14030643D01*
X2892500Y-13659214D02*
X2921071Y-13659214D01*
X2949643Y-13673500D01*
X2963928Y-13687786D01*
X2978214Y-13716357D01*
X2992500Y-13773500D01*
X2992500Y-13844929D01*
X2978214Y-13902071D01*
X2963928Y-13930643D01*
X2949643Y-13944929D01*
X2921071Y-13959214D01*
X2892500Y-13959214D01*
X2863928Y-13944929D01*
X2849643Y-13930643D01*
X2835357Y-13902071D01*
X2821071Y-13844929D01*
X2821071Y-13773500D01*
X2835357Y-13716357D01*
X2849643Y-13687786D01*
X2863928Y-13673500D01*
X2892500Y-13659214D01*
X3121071Y-13930643D02*
X3135357Y-13944929D01*
X3121071Y-13959214D01*
X3106786Y-13944929D01*
X3121071Y-13930643D01*
X3121071Y-13959214D01*
X3421071Y-13959214D02*
X3249643Y-13959214D01*
X3335357Y-13959214D02*
X3335357Y-13659214D01*
X3306785Y-13702071D01*
X3278214Y-13730643D01*
X3249643Y-13744929D01*
X3521071Y-13659214D02*
X3706785Y-13659214D01*
X3606785Y-13773500D01*
X3649643Y-13773500D01*
X3678214Y-13787786D01*
X3692500Y-13802071D01*
X3706785Y-13830643D01*
X3706785Y-13902071D01*
X3692500Y-13930643D01*
X3678214Y-13944929D01*
X3649643Y-13959214D01*
X3563928Y-13959214D01*
X3535357Y-13944929D01*
X3521071Y-13930643D01*
X3878214Y-13787786D02*
X3849643Y-13773500D01*
X3835357Y-13759214D01*
X3821071Y-13730643D01*
X3821071Y-13716357D01*
X3835357Y-13687786D01*
X3849643Y-13673500D01*
X3878214Y-13659214D01*
X3935357Y-13659214D01*
X3963928Y-13673500D01*
X3978214Y-13687786D01*
X3992500Y-13716357D01*
X3992500Y-13730643D01*
X3978214Y-13759214D01*
X3963928Y-13773500D01*
X3935357Y-13787786D01*
X3878214Y-13787786D01*
X3849643Y-13802071D01*
X3835357Y-13816357D01*
X3821071Y-13844929D01*
X3821071Y-13902071D01*
X3835357Y-13930643D01*
X3849643Y-13944929D01*
X3878214Y-13959214D01*
X3935357Y-13959214D01*
X3963928Y-13944929D01*
X3978214Y-13930643D01*
X3992500Y-13902071D01*
X3992500Y-13844929D01*
X3978214Y-13816357D01*
X3963928Y-13802071D01*
X3935357Y-13787786D01*
X4106786Y-13659214D02*
X4106786Y-13716357D01*
X4221071Y-13659214D02*
X4221071Y-13716357D01*
X4663928Y-14073500D02*
X4649643Y-14059214D01*
X4621071Y-14016357D01*
X4606786Y-13987786D01*
X4592500Y-13944929D01*
X4578214Y-13873500D01*
X4578214Y-13816357D01*
X4592500Y-13744929D01*
X4606786Y-13702071D01*
X4621071Y-13673500D01*
X4649643Y-13630643D01*
X4663928Y-13616357D01*
X4906786Y-13759214D02*
X4906786Y-13959214D01*
X4835357Y-13644929D02*
X4763928Y-13859214D01*
X4949643Y-13859214D01*
X5292500Y-13959214D02*
X5292500Y-13659214D01*
X5421071Y-13959214D02*
X5421071Y-13802071D01*
X5406786Y-13773500D01*
X5378214Y-13759214D01*
X5335357Y-13759214D01*
X5306786Y-13773500D01*
X5292500Y-13787786D01*
X5606785Y-13959214D02*
X5578214Y-13944929D01*
X5563928Y-13930643D01*
X5549643Y-13902071D01*
X5549643Y-13816357D01*
X5563928Y-13787786D01*
X5578214Y-13773500D01*
X5606785Y-13759214D01*
X5649643Y-13759214D01*
X5678214Y-13773500D01*
X5692500Y-13787786D01*
X5706785Y-13816357D01*
X5706785Y-13902071D01*
X5692500Y-13930643D01*
X5678214Y-13944929D01*
X5649643Y-13959214D01*
X5606785Y-13959214D01*
X5878214Y-13959214D02*
X5849643Y-13944929D01*
X5835357Y-13916357D01*
X5835357Y-13659214D01*
X6106786Y-13944929D02*
X6078214Y-13959214D01*
X6021071Y-13959214D01*
X5992500Y-13944929D01*
X5978214Y-13916357D01*
X5978214Y-13802071D01*
X5992500Y-13773500D01*
X6021071Y-13759214D01*
X6078214Y-13759214D01*
X6106786Y-13773500D01*
X6121071Y-13802071D01*
X6121071Y-13830643D01*
X5978214Y-13859214D01*
X6235357Y-13944929D02*
X6263928Y-13959214D01*
X6321071Y-13959214D01*
X6349643Y-13944929D01*
X6363928Y-13916357D01*
X6363928Y-13902071D01*
X6349643Y-13873500D01*
X6321071Y-13859214D01*
X6278214Y-13859214D01*
X6249643Y-13844929D01*
X6235357Y-13816357D01*
X6235357Y-13802071D01*
X6249643Y-13773500D01*
X6278214Y-13759214D01*
X6321071Y-13759214D01*
X6349643Y-13773500D01*
X6463928Y-14073500D02*
X6478214Y-14059214D01*
X6506786Y-14016357D01*
X6521071Y-13987786D01*
X6535357Y-13944929D01*
X6549643Y-13873500D01*
X6549643Y-13816357D01*
X6535357Y-13744929D01*
X6521071Y-13702071D01*
X6506786Y-13673500D01*
X6478214Y-13630643D01*
X6463928Y-13616357D01*
M02*
