G04 #@! TF.FileFunction,Legend,Bot*
%FSLAX46Y46*%
G04 Gerber Fmt 4.6, Leading zero omitted, Abs format (unit mm)*
G04 Created by KiCad (PCBNEW 4.0.2+dfsg1-stable) date Mon 14 Nov 2016 14:02:26 NZDT*
%MOMM*%
G01*
G04 APERTURE LIST*
%ADD10C,0.100000*%
%ADD11C,0.150000*%
G04 APERTURE END LIST*
D10*
D11*
X99380000Y-25645000D02*
X100396000Y-28185000D01*
X100396000Y-28185000D02*
X99380000Y-30725000D01*
X58740000Y-25645000D02*
X57216000Y-28185000D01*
X57216000Y-28185000D02*
X58740000Y-30725000D01*
X83632000Y-15993000D02*
X79060000Y-14977000D01*
X79060000Y-14977000D02*
X74488000Y-15993000D01*
X83632000Y-15993000D02*
X99380000Y-25645000D01*
X74488000Y-15993000D02*
X58740000Y-25645000D01*
X74488000Y-40377000D02*
X58740000Y-30725000D01*
X83632000Y-40377000D02*
X99380000Y-30725000D01*
X74488000Y-40377000D02*
X79568000Y-41393000D01*
X79568000Y-41393000D02*
X83632000Y-40377000D01*
X89239824Y-28185000D02*
G75*
G03X89239824Y-28185000I-10179824J0D01*
G01*
X127500000Y-57500020D02*
X127500000Y-17500100D01*
X127500000Y-17500100D02*
X125501020Y-17500100D01*
X127500000Y-22498820D02*
X126499240Y-22498820D01*
X127500000Y-27500080D02*
X125501020Y-27500080D01*
X127500000Y-32498800D02*
X126499240Y-32498800D01*
X127500000Y-37500060D02*
X125501020Y-37500060D01*
X127500000Y-42498780D02*
X126499240Y-42498780D01*
X127500000Y-47500040D02*
X125501020Y-47500040D01*
X127500000Y-52498760D02*
X126499240Y-52498760D01*
X127500000Y-58500780D02*
X126499240Y-58500780D01*
X127500000Y-59499000D02*
X126499240Y-59499000D01*
X127500000Y-60499760D02*
X126499240Y-60499760D01*
X127500000Y-61500520D02*
X126499240Y-61500520D01*
X127500000Y-63499500D02*
X126499240Y-63499500D01*
X127500000Y-64500260D02*
X126499240Y-64500260D01*
X127500000Y-65501020D02*
X126499240Y-65501020D01*
X127500000Y-66499240D02*
X126499240Y-66499240D01*
X127500000Y-62498740D02*
X125501020Y-62498740D01*
X127500000Y-67500000D02*
X125501020Y-67500000D01*
X127500000Y-67500000D02*
X127500000Y-57500020D01*
X127500000Y-57500020D02*
X125501020Y-57500020D01*
X93537905Y-16461381D02*
X93537905Y-17270905D01*
X93490286Y-17366143D01*
X93442667Y-17413762D01*
X93347429Y-17461381D01*
X93156952Y-17461381D01*
X93061714Y-17413762D01*
X93014095Y-17366143D01*
X92966476Y-17270905D01*
X92966476Y-16461381D01*
X91966476Y-17461381D02*
X92537905Y-17461381D01*
X92252191Y-17461381D02*
X92252191Y-16461381D01*
X92347429Y-16604238D01*
X92442667Y-16699476D01*
X92537905Y-16747095D01*
X85409999Y-29542143D02*
X85409999Y-26542143D01*
X73352857Y-27970714D02*
X72352857Y-27970714D01*
X71924286Y-29542143D02*
X73352857Y-29542143D01*
X73352857Y-26542143D01*
X71924286Y-26542143D01*
X123851041Y-15928672D02*
X123851041Y-15452481D01*
X124327231Y-15404862D01*
X124279612Y-15452481D01*
X124231993Y-15547719D01*
X124231993Y-15785815D01*
X124279612Y-15881053D01*
X124327231Y-15928672D01*
X124422470Y-15976291D01*
X124660565Y-15976291D01*
X124755803Y-15928672D01*
X124803422Y-15881053D01*
X124851041Y-15785815D01*
X124851041Y-15547719D01*
X124803422Y-15452481D01*
X124755803Y-15404862D01*
X123851041Y-16595338D02*
X123851041Y-16690577D01*
X123898660Y-16785815D01*
X123946279Y-16833434D01*
X124041517Y-16881053D01*
X124231993Y-16928672D01*
X124470089Y-16928672D01*
X124660565Y-16881053D01*
X124755803Y-16833434D01*
X124803422Y-16785815D01*
X124851041Y-16690577D01*
X124851041Y-16595338D01*
X124803422Y-16500100D01*
X124755803Y-16452481D01*
X124660565Y-16404862D01*
X124470089Y-16357243D01*
X124231993Y-16357243D01*
X124041517Y-16404862D01*
X123946279Y-16452481D01*
X123898660Y-16500100D01*
X123851041Y-16595338D01*
X124851041Y-17357243D02*
X124184374Y-17357243D01*
X124279612Y-17357243D02*
X124231993Y-17404862D01*
X124184374Y-17500100D01*
X124184374Y-17642958D01*
X124231993Y-17738196D01*
X124327231Y-17785815D01*
X124851041Y-17785815D01*
X124327231Y-17785815D02*
X124231993Y-17833434D01*
X124184374Y-17928672D01*
X124184374Y-18071529D01*
X124231993Y-18166767D01*
X124327231Y-18214386D01*
X124851041Y-18214386D01*
X124851041Y-18690576D02*
X124184374Y-18690576D01*
X124279612Y-18690576D02*
X124231993Y-18738195D01*
X124184374Y-18833433D01*
X124184374Y-18976291D01*
X124231993Y-19071529D01*
X124327231Y-19119148D01*
X124851041Y-19119148D01*
X124327231Y-19119148D02*
X124231993Y-19166767D01*
X124184374Y-19262005D01*
X124184374Y-19404862D01*
X124231993Y-19500100D01*
X124327231Y-19547719D01*
X124851041Y-19547719D01*
X124184374Y-27214366D02*
X124851041Y-27214366D01*
X123803422Y-26976270D02*
X124517708Y-26738175D01*
X124517708Y-27357223D01*
X123851041Y-27928651D02*
X123851041Y-28023890D01*
X123898660Y-28119128D01*
X123946279Y-28166747D01*
X124041517Y-28214366D01*
X124231993Y-28261985D01*
X124470089Y-28261985D01*
X124660565Y-28214366D01*
X124755803Y-28166747D01*
X124803422Y-28119128D01*
X124851041Y-28023890D01*
X124851041Y-27928651D01*
X124803422Y-27833413D01*
X124755803Y-27785794D01*
X124660565Y-27738175D01*
X124470089Y-27690556D01*
X124231993Y-27690556D01*
X124041517Y-27738175D01*
X123946279Y-27785794D01*
X123898660Y-27833413D01*
X123851041Y-27928651D01*
X123952641Y-36690536D02*
X123952641Y-37309584D01*
X124333593Y-36976250D01*
X124333593Y-37119108D01*
X124381212Y-37214346D01*
X124428831Y-37261965D01*
X124524070Y-37309584D01*
X124762165Y-37309584D01*
X124857403Y-37261965D01*
X124905022Y-37214346D01*
X124952641Y-37119108D01*
X124952641Y-36833393D01*
X124905022Y-36738155D01*
X124857403Y-36690536D01*
X123952641Y-37928631D02*
X123952641Y-38023870D01*
X124000260Y-38119108D01*
X124047879Y-38166727D01*
X124143117Y-38214346D01*
X124333593Y-38261965D01*
X124571689Y-38261965D01*
X124762165Y-38214346D01*
X124857403Y-38166727D01*
X124905022Y-38119108D01*
X124952641Y-38023870D01*
X124952641Y-37928631D01*
X124905022Y-37833393D01*
X124857403Y-37785774D01*
X124762165Y-37738155D01*
X124571689Y-37690536D01*
X124333593Y-37690536D01*
X124143117Y-37738155D01*
X124047879Y-37785774D01*
X124000260Y-37833393D01*
X123952641Y-37928631D01*
X124146939Y-46639075D02*
X124099320Y-46686694D01*
X124051701Y-46781932D01*
X124051701Y-47020028D01*
X124099320Y-47115266D01*
X124146939Y-47162885D01*
X124242177Y-47210504D01*
X124337415Y-47210504D01*
X124480272Y-47162885D01*
X125051701Y-46591456D01*
X125051701Y-47210504D01*
X124051701Y-47829551D02*
X124051701Y-47924790D01*
X124099320Y-48020028D01*
X124146939Y-48067647D01*
X124242177Y-48115266D01*
X124432653Y-48162885D01*
X124670749Y-48162885D01*
X124861225Y-48115266D01*
X124956463Y-48067647D01*
X125004082Y-48020028D01*
X125051701Y-47924790D01*
X125051701Y-47829551D01*
X125004082Y-47734313D01*
X124956463Y-47686694D01*
X124861225Y-47639075D01*
X124670749Y-47591456D01*
X124432653Y-47591456D01*
X124242177Y-47639075D01*
X124146939Y-47686694D01*
X124099320Y-47734313D01*
X124051701Y-47829551D01*
X124051701Y-62739376D02*
X124051701Y-62263185D01*
X124527891Y-62215566D01*
X124480272Y-62263185D01*
X124432653Y-62358423D01*
X124432653Y-62596519D01*
X124480272Y-62691757D01*
X124527891Y-62739376D01*
X124623130Y-62786995D01*
X124861225Y-62786995D01*
X124956463Y-62739376D01*
X125004082Y-62691757D01*
X125051701Y-62596519D01*
X125051701Y-62358423D01*
X125004082Y-62263185D01*
X124956463Y-62215566D01*
X124153301Y-67452381D02*
X124153301Y-67547620D01*
X124200920Y-67642858D01*
X124248539Y-67690477D01*
X124343777Y-67738096D01*
X124534253Y-67785715D01*
X124772349Y-67785715D01*
X124962825Y-67738096D01*
X125058063Y-67690477D01*
X125105682Y-67642858D01*
X125153301Y-67547620D01*
X125153301Y-67452381D01*
X125105682Y-67357143D01*
X125058063Y-67309524D01*
X124962825Y-67261905D01*
X124772349Y-67214286D01*
X124534253Y-67214286D01*
X124343777Y-67261905D01*
X124248539Y-67309524D01*
X124200920Y-67357143D01*
X124153301Y-67452381D01*
X125252361Y-55976211D02*
X125252361Y-55404782D01*
X125252361Y-55690496D02*
X124252361Y-55690496D01*
X124395218Y-55595258D01*
X124490456Y-55500020D01*
X124538075Y-55404782D01*
X124252361Y-56595258D02*
X124252361Y-56690497D01*
X124299980Y-56785735D01*
X124347599Y-56833354D01*
X124442837Y-56880973D01*
X124633313Y-56928592D01*
X124871409Y-56928592D01*
X125061885Y-56880973D01*
X125157123Y-56833354D01*
X125204742Y-56785735D01*
X125252361Y-56690497D01*
X125252361Y-56595258D01*
X125204742Y-56500020D01*
X125157123Y-56452401D01*
X125061885Y-56404782D01*
X124871409Y-56357163D01*
X124633313Y-56357163D01*
X124442837Y-56404782D01*
X124347599Y-56452401D01*
X124299980Y-56500020D01*
X124252361Y-56595258D01*
X125252361Y-57357163D02*
X124585694Y-57357163D01*
X124680932Y-57357163D02*
X124633313Y-57404782D01*
X124585694Y-57500020D01*
X124585694Y-57642878D01*
X124633313Y-57738116D01*
X124728551Y-57785735D01*
X125252361Y-57785735D01*
X124728551Y-57785735D02*
X124633313Y-57833354D01*
X124585694Y-57928592D01*
X124585694Y-58071449D01*
X124633313Y-58166687D01*
X124728551Y-58214306D01*
X125252361Y-58214306D01*
X125252361Y-58690496D02*
X124585694Y-58690496D01*
X124680932Y-58690496D02*
X124633313Y-58738115D01*
X124585694Y-58833353D01*
X124585694Y-58976211D01*
X124633313Y-59071449D01*
X124728551Y-59119068D01*
X125252361Y-59119068D01*
X124728551Y-59119068D02*
X124633313Y-59166687D01*
X124585694Y-59261925D01*
X124585694Y-59404782D01*
X124633313Y-59500020D01*
X124728551Y-59547639D01*
X125252361Y-59547639D01*
M02*
