M48
;DRILL file {KiCad 4.0.2+dfsg1-stable} date Fri 11 Nov 2016 12:38:10 NZDT
;FORMAT={-:-/ absolute / metric / decimal}
FMAT,2
METRIC,TZ
T1C0.400
T2C0.635
T3C0.701
T4C0.800
T5C0.800
T6C0.813
T7C1.001
T8C1.016
T9C1.200
T10C1.321
T11C1.500
T12C2.200
T13C3.000
%
G90
G05
M71
T1
X54.739Y-119.553
X63.339Y-96.753
X63.939Y-88.153
X65.994Y-84.928
X69.169Y-89.373
X75.339Y-98.953
X75.551Y-96.921
X76.789Y-97.628
X81.939Y-106.153
X83.139Y-117.153
X83.339Y-108.953
X91.539Y-104.153
X91.639Y-88.228
X93.739Y-92.028
X95.389Y-74.753
X100.939Y-109.753
X112.414Y-75.103
X117.339Y-107.553
X125.049Y-109.693
X126.642Y-100.48
X127.629Y-100.168
X128.224Y-79.848
X128.224Y-83.023
X133.939Y-103.343
X134.024Y-83.174
X135.564Y-107.728
X140.189Y-107.478
X144.619Y-119.154
X147.949Y-67.148
X148.227Y-69.828
X148.5Y-68.322
X148.544Y-77.548
X149.589Y-112.278
X153.739Y-66.353
X154.509Y-93.953
X154.539Y-83.953
X155.664Y-110.353
X156.164Y-77.328
X158.61Y-59.511
X163.789Y-106.078
X164.339Y-63.778
T2
X83.254Y-124.983
X89.489Y-124.933
X100.919Y-124.933
X112.349Y-124.933
X127.899Y-124.753
X144.929Y-124.528
X151.279Y-124.528
X163.539Y-125.003
T3
X150.701Y-86.469
X150.701Y-90.276
X160.861Y-86.469
X160.861Y-90.276
T4
X55.199Y-99.533
X60.199Y-99.533
X67.899Y-102.073
X67.899Y-107.073
X67.899Y-113.503
X67.899Y-118.503
X79.329Y-105.883
X79.329Y-108.423
X79.329Y-110.963
X79.329Y-113.503
X80.599Y-78.689
X80.599Y-86.309
X83.139Y-78.689
X83.139Y-86.309
X85.679Y-78.689
X85.679Y-86.309
X86.949Y-105.883
X86.949Y-108.423
X86.949Y-110.963
X86.949Y-113.503
X88.219Y-78.689
X88.219Y-86.309
X92.419Y-78.883
X92.419Y-81.423
X92.419Y-83.963
X92.419Y-86.503
X98.379Y-105.883
X98.379Y-108.423
X98.379Y-110.963
X98.379Y-113.503
X100.039Y-78.883
X100.039Y-81.423
X100.039Y-83.963
X100.039Y-86.503
X105.999Y-105.883
X105.999Y-108.423
X105.999Y-110.963
X105.999Y-113.503
X109.236Y-79.254
X109.236Y-81.794
X109.236Y-84.334
X109.236Y-86.874
X114.188Y-104.782
X114.188Y-107.322
X114.188Y-109.862
X114.188Y-112.402
X116.856Y-79.254
X116.856Y-81.794
X116.856Y-84.334
X116.856Y-86.874
X121.808Y-104.782
X121.808Y-107.322
X121.808Y-109.862
X121.808Y-112.402
X133.939Y-77.943
X133.939Y-85.563
X136.479Y-77.943
X136.479Y-85.563
X136.999Y-105.478
X136.999Y-108.018
X136.999Y-110.558
X136.999Y-113.098
X139.019Y-77.943
X139.019Y-85.563
X141.559Y-77.943
X141.559Y-85.563
X144.619Y-105.478
X144.619Y-108.018
X144.619Y-110.558
X144.619Y-113.098
X152.239Y-108.018
X152.239Y-110.558
X152.239Y-113.098
X152.239Y-115.638
X159.859Y-108.018
X159.859Y-110.558
X159.859Y-113.098
X159.859Y-115.638
T5
X56.469Y-74.133
X56.469Y-84.133
X59.009Y-74.133
X59.009Y-84.133
X61.549Y-74.133
X61.549Y-84.133
T6
X89.489Y-130.013
X89.489Y-132.553
X89.489Y-135.093
X100.919Y-130.013
X100.919Y-132.553
X100.919Y-135.093
X112.349Y-130.013
X112.349Y-132.553
X112.349Y-135.093
X128.039Y-129.888
X128.039Y-132.428
X128.039Y-134.968
X136.039Y-129.608
X136.039Y-132.148
X136.039Y-134.688
X144.929Y-129.608
X144.929Y-132.148
X144.929Y-134.688
X151.039Y-129.608
X151.039Y-132.148
X151.039Y-134.688
X163.539Y-129.608
X163.539Y-132.148
X163.539Y-134.688
T7
X54.806Y-132.957
X54.806Y-135.497
X59.05Y-68.975
X61.549Y-68.975
X66.629Y-94.453
X69.169Y-94.453
X71.709Y-94.453
X82.24Y-68.983
X84.739Y-68.983
X98.437Y-68.975
X100.937Y-68.975
X109.761Y-119.853
X116.2Y-69.053
X118.699Y-69.053
X119.763Y-119.853
X132.621Y-121.123
X133.98Y-68.975
X136.479Y-68.975
X142.623Y-121.123
T8
X102.889Y-78.298
X102.889Y-80.838
X102.889Y-83.378
X106.439Y-78.328
X106.439Y-80.868
X106.439Y-83.408
T9
X57.739Y-112.543
X57.739Y-116.043
X57.739Y-119.543
T10
X121.059Y-79.858
X121.059Y-90.018
X126.139Y-79.858
X126.139Y-90.018
T11
X157.289Y-126.053
X157.289Y-130.753
X157.289Y-135.453
T12
X56.451Y-64.71
X66.649Y-64.71
X79.642Y-64.719
X89.84Y-64.719
X95.839Y-64.71
X106.037Y-64.71
X113.601Y-64.789
X123.799Y-64.789
X131.381Y-64.71
X141.579Y-64.71
T13
X49.539Y-61.753
X49.539Y-136.753
X169.539Y-61.753
X169.539Y-136.753
T0
M30
