M48
;DRILL file {KiCad 4.0.2+dfsg1-stable} date Mon 14 Nov 2016 14:02:33 NZDT
;FORMAT={-:-/ absolute / metric / decimal}
FMAT,2
METRIC,TZ
T1C0.400
T2C0.635
T3C0.701
T4C0.800
T5C0.813
T6C1.001
T7C1.016
T8C1.200
T9C1.321
T10C1.500
T11C2.200
T12C3.500
%
G90
G05
M71
T1
X10.2Y-62.8
X14.47Y-27.38
X18.8Y-40.
X19.4Y-31.4
X21.455Y-28.175
X24.63Y-32.62
X30.8Y-42.2
X31.012Y-40.168
X32.25Y-40.875
X37.4Y-49.4
X38.6Y-60.4
X38.8Y-52.2
X47.Y-47.4
X47.1Y-31.475
X49.2Y-35.275
X50.85Y-18.
X56.4Y-53.
X67.875Y-18.35
X72.8Y-50.8
X80.51Y-52.94
X82.103Y-43.727
X83.09Y-43.415
X83.685Y-23.095
X83.685Y-26.27
X89.4Y-46.59
X89.485Y-26.421
X91.025Y-50.975
X95.65Y-50.725
X100.08Y-62.401
X103.41Y-10.395
X103.688Y-13.075
X103.961Y-11.569
X104.005Y-20.795
X105.05Y-55.525
X109.2Y-9.6
X109.97Y-37.2
X110.Y-27.2
X111.125Y-53.6
X111.625Y-20.575
X114.071Y-2.758
X119.25Y-49.325
X119.8Y-7.025
T2
X38.715Y-68.23
X44.95Y-68.18
X56.38Y-68.18
X67.81Y-68.18
X83.36Y-68.
X100.39Y-67.775
X106.74Y-67.775
X119.Y-68.25
T3
X106.162Y-29.715
X106.162Y-33.523
X116.322Y-29.715
X116.322Y-33.523
T4
X10.66Y-42.78
X15.66Y-42.78
X23.36Y-45.32
X23.36Y-50.32
X23.36Y-56.75
X23.36Y-61.75
X34.79Y-49.13
X34.79Y-51.67
X34.79Y-54.21
X34.79Y-56.75
X36.06Y-21.935
X36.06Y-29.555
X38.6Y-21.935
X38.6Y-29.555
X41.14Y-21.935
X41.14Y-29.555
X42.41Y-49.13
X42.41Y-51.67
X42.41Y-54.21
X42.41Y-56.75
X43.68Y-21.935
X43.68Y-29.555
X47.88Y-22.13
X47.88Y-24.67
X47.88Y-27.21
X47.88Y-29.75
X53.84Y-49.13
X53.84Y-51.67
X53.84Y-54.21
X53.84Y-56.75
X55.5Y-22.13
X55.5Y-24.67
X55.5Y-27.21
X55.5Y-29.75
X61.46Y-49.13
X61.46Y-51.67
X61.46Y-54.21
X61.46Y-56.75
X64.697Y-22.501
X64.697Y-25.041
X64.697Y-27.581
X64.697Y-30.121
X69.649Y-48.028
X69.649Y-50.568
X69.649Y-53.108
X69.649Y-55.648
X72.317Y-22.501
X72.317Y-25.041
X72.317Y-27.581
X72.317Y-30.121
X77.269Y-48.028
X77.269Y-50.568
X77.269Y-53.108
X77.269Y-55.648
X89.4Y-21.19
X89.4Y-28.81
X91.94Y-21.19
X91.94Y-28.81
X92.46Y-48.725
X92.46Y-51.265
X92.46Y-53.805
X92.46Y-56.345
X94.48Y-21.19
X94.48Y-28.81
X97.02Y-21.19
X97.02Y-28.81
X100.08Y-48.725
X100.08Y-51.265
X100.08Y-53.805
X100.08Y-56.345
X107.7Y-51.265
X107.7Y-53.805
X107.7Y-56.345
X107.7Y-58.885
X115.32Y-51.265
X115.32Y-53.805
X115.32Y-56.345
X115.32Y-58.885
T5
X44.95Y-73.26
X44.95Y-75.8
X44.95Y-78.34
X56.38Y-73.26
X56.38Y-75.8
X56.38Y-78.34
X67.81Y-73.26
X67.81Y-75.8
X67.81Y-78.34
X83.5Y-73.135
X83.5Y-75.675
X83.5Y-78.215
X91.5Y-72.855
X91.5Y-75.395
X91.5Y-77.935
X100.39Y-72.855
X100.39Y-75.395
X100.39Y-77.935
X106.5Y-72.855
X106.5Y-75.395
X106.5Y-77.935
X119.Y-72.855
X119.Y-75.395
X119.Y-77.935
T6
X10.267Y-76.204
X10.267Y-78.744
X17.051Y-12.201
X19.55Y-12.201
X22.09Y-37.7
X24.63Y-37.7
X27.17Y-37.7
X37.701Y-12.23
X40.2Y-12.23
X53.898Y-12.221
X56.398Y-12.221
X65.222Y-63.1
X71.661Y-12.3
X74.16Y-12.3
X75.224Y-63.1
X88.082Y-64.37
X89.441Y-12.221
X91.94Y-12.221
X98.084Y-64.37
T7
X58.35Y-21.545
X58.35Y-24.085
X58.35Y-26.625
X61.9Y-21.575
X61.9Y-24.115
X61.9Y-26.655
T8
X13.2Y-55.79
X13.2Y-59.29
X13.2Y-62.79
T9
X76.52Y-23.105
X76.52Y-33.265
X81.6Y-23.105
X81.6Y-33.265
T10
X112.75Y-69.3
X112.75Y-74.
X112.75Y-78.7
T11
X14.452Y-7.937
X24.65Y-7.937
X35.103Y-7.965
X45.301Y-7.965
X51.3Y-7.957
X61.498Y-7.957
X69.062Y-8.035
X79.26Y-8.035
X86.842Y-7.957
X97.04Y-7.957
T12
X5.Y-5.
X5.Y-80.
X125.Y-5.
X125.Y-80.
T0
M30
