G04 #@! TF.FileFunction,Legend,Top*
%FSLAX46Y46*%
G04 Gerber Fmt 4.6, Leading zero omitted, Abs format (unit mm)*
G04 Created by KiCad (PCBNEW 4.0.2+dfsg1-stable) date Mon 14 Nov 2016 14:02:26 NZDT*
%MOMM*%
G01*
G04 APERTURE LIST*
%ADD10C,0.100000*%
%ADD11C,0.300000*%
%ADD12C,0.200000*%
%ADD13C,0.400000*%
%ADD14C,0.250000*%
%ADD15C,0.150000*%
G04 APERTURE END LIST*
D10*
D11*
X39449999Y-36878571D02*
X39449999Y-38092857D01*
X39378570Y-38235714D01*
X39307142Y-38307143D01*
X39164285Y-38378571D01*
X38949999Y-38378571D01*
X38807142Y-38307143D01*
X39449999Y-37807143D02*
X39307142Y-37878571D01*
X39021428Y-37878571D01*
X38878570Y-37807143D01*
X38807142Y-37735714D01*
X38735713Y-37592857D01*
X38735713Y-37164286D01*
X38807142Y-37021429D01*
X38878570Y-36950000D01*
X39021428Y-36878571D01*
X39307142Y-36878571D01*
X39449999Y-36950000D01*
X40164285Y-37878571D02*
X40164285Y-36878571D01*
X40164285Y-36378571D02*
X40092856Y-36450000D01*
X40164285Y-36521429D01*
X40235713Y-36450000D01*
X40164285Y-36378571D01*
X40164285Y-36521429D01*
X40664285Y-36878571D02*
X41235714Y-36878571D01*
X40878571Y-36378571D02*
X40878571Y-37664286D01*
X40949999Y-37807143D01*
X41092857Y-37878571D01*
X41235714Y-37878571D01*
X41735714Y-37878571D02*
X41735714Y-36378571D01*
X42378571Y-37878571D02*
X42378571Y-37092857D01*
X42307142Y-36950000D01*
X42164285Y-36878571D01*
X41950000Y-36878571D01*
X41807142Y-36950000D01*
X41735714Y-37021429D01*
X43735714Y-36878571D02*
X43735714Y-37878571D01*
X43092857Y-36878571D02*
X43092857Y-37664286D01*
X43164285Y-37807143D01*
X43307143Y-37878571D01*
X43521428Y-37878571D01*
X43664285Y-37807143D01*
X43735714Y-37735714D01*
X44450000Y-37878571D02*
X44450000Y-36378571D01*
X44450000Y-36950000D02*
X44592857Y-36878571D01*
X44878571Y-36878571D01*
X45021428Y-36950000D01*
X45092857Y-37021429D01*
X45164286Y-37164286D01*
X45164286Y-37592857D01*
X45092857Y-37735714D01*
X45021428Y-37807143D01*
X44878571Y-37878571D01*
X44592857Y-37878571D01*
X44450000Y-37807143D01*
X45807143Y-37735714D02*
X45878571Y-37807143D01*
X45807143Y-37878571D01*
X45735714Y-37807143D01*
X45807143Y-37735714D01*
X45807143Y-37878571D01*
X47164286Y-37807143D02*
X47021429Y-37878571D01*
X46735715Y-37878571D01*
X46592857Y-37807143D01*
X46521429Y-37735714D01*
X46450000Y-37592857D01*
X46450000Y-37164286D01*
X46521429Y-37021429D01*
X46592857Y-36950000D01*
X46735715Y-36878571D01*
X47021429Y-36878571D01*
X47164286Y-36950000D01*
X48021429Y-37878571D02*
X47878571Y-37807143D01*
X47807143Y-37735714D01*
X47735714Y-37592857D01*
X47735714Y-37164286D01*
X47807143Y-37021429D01*
X47878571Y-36950000D01*
X48021429Y-36878571D01*
X48235714Y-36878571D01*
X48378571Y-36950000D01*
X48450000Y-37021429D01*
X48521429Y-37164286D01*
X48521429Y-37592857D01*
X48450000Y-37735714D01*
X48378571Y-37807143D01*
X48235714Y-37878571D01*
X48021429Y-37878571D01*
X49164286Y-37878571D02*
X49164286Y-36878571D01*
X49164286Y-37021429D02*
X49235714Y-36950000D01*
X49378572Y-36878571D01*
X49592857Y-36878571D01*
X49735714Y-36950000D01*
X49807143Y-37092857D01*
X49807143Y-37878571D01*
X49807143Y-37092857D02*
X49878572Y-36950000D01*
X50021429Y-36878571D01*
X50235714Y-36878571D01*
X50378572Y-36950000D01*
X50450000Y-37092857D01*
X50450000Y-37878571D01*
X52235714Y-36307143D02*
X50950000Y-38235714D01*
X52735715Y-37878571D02*
X52735715Y-36378571D01*
X52878572Y-37307143D02*
X53307143Y-37878571D01*
X53307143Y-36878571D02*
X52735715Y-37450000D01*
X53950001Y-36878571D02*
X53950001Y-38164286D01*
X53878572Y-38307143D01*
X53735715Y-38378571D01*
X53664287Y-38378571D01*
X53950001Y-36378571D02*
X53878572Y-36450000D01*
X53950001Y-36521429D01*
X54021429Y-36450000D01*
X53950001Y-36378571D01*
X53950001Y-36521429D01*
X55307144Y-37878571D02*
X55307144Y-37092857D01*
X55235715Y-36950000D01*
X55092858Y-36878571D01*
X54807144Y-36878571D01*
X54664287Y-36950000D01*
X55307144Y-37807143D02*
X55164287Y-37878571D01*
X54807144Y-37878571D01*
X54664287Y-37807143D01*
X54592858Y-37664286D01*
X54592858Y-37521429D01*
X54664287Y-37378571D01*
X54807144Y-37307143D01*
X55164287Y-37307143D01*
X55307144Y-37235714D01*
X56592858Y-37807143D02*
X56450001Y-37878571D01*
X56164287Y-37878571D01*
X56021430Y-37807143D01*
X55950001Y-37664286D01*
X55950001Y-37092857D01*
X56021430Y-36950000D01*
X56164287Y-36878571D01*
X56450001Y-36878571D01*
X56592858Y-36950000D01*
X56664287Y-37092857D01*
X56664287Y-37235714D01*
X55950001Y-37378571D01*
X57307144Y-37878571D02*
X57307144Y-36878571D01*
X57307144Y-37164286D02*
X57378572Y-37021429D01*
X57450001Y-36950000D01*
X57592858Y-36878571D01*
X57735715Y-36878571D01*
X58878572Y-36878571D02*
X58878572Y-38092857D01*
X58807143Y-38235714D01*
X58735715Y-38307143D01*
X58592858Y-38378571D01*
X58378572Y-38378571D01*
X58235715Y-38307143D01*
X58878572Y-37807143D02*
X58735715Y-37878571D01*
X58450001Y-37878571D01*
X58307143Y-37807143D01*
X58235715Y-37735714D01*
X58164286Y-37592857D01*
X58164286Y-37164286D01*
X58235715Y-37021429D01*
X58307143Y-36950000D01*
X58450001Y-36878571D01*
X58735715Y-36878571D01*
X58878572Y-36950000D01*
X60235715Y-37878571D02*
X60235715Y-37092857D01*
X60164286Y-36950000D01*
X60021429Y-36878571D01*
X59735715Y-36878571D01*
X59592858Y-36950000D01*
X60235715Y-37807143D02*
X60092858Y-37878571D01*
X59735715Y-37878571D01*
X59592858Y-37807143D01*
X59521429Y-37664286D01*
X59521429Y-37521429D01*
X59592858Y-37378571D01*
X59735715Y-37307143D01*
X60092858Y-37307143D01*
X60235715Y-37235714D01*
X61592858Y-37878571D02*
X61592858Y-37092857D01*
X61521429Y-36950000D01*
X61378572Y-36878571D01*
X61092858Y-36878571D01*
X60950001Y-36950000D01*
X61592858Y-37807143D02*
X61450001Y-37878571D01*
X61092858Y-37878571D01*
X60950001Y-37807143D01*
X60878572Y-37664286D01*
X60878572Y-37521429D01*
X60950001Y-37378571D01*
X61092858Y-37307143D01*
X61450001Y-37307143D01*
X61592858Y-37235714D01*
X62307144Y-37878571D02*
X62307144Y-36878571D01*
X62307144Y-37164286D02*
X62378572Y-37021429D01*
X62450001Y-36950000D01*
X62592858Y-36878571D01*
X62735715Y-36878571D01*
X63878572Y-37878571D02*
X63878572Y-36378571D01*
X63878572Y-37807143D02*
X63735715Y-37878571D01*
X63450001Y-37878571D01*
X63307143Y-37807143D01*
X63235715Y-37735714D01*
X63164286Y-37592857D01*
X63164286Y-37164286D01*
X63235715Y-37021429D01*
X63307143Y-36950000D01*
X63450001Y-36878571D01*
X63735715Y-36878571D01*
X63878572Y-36950000D01*
X64592858Y-37307143D02*
X65735715Y-37307143D01*
X66664287Y-37878571D02*
X66521429Y-37807143D01*
X66450001Y-37664286D01*
X66450001Y-36378571D01*
X67878572Y-37878571D02*
X67878572Y-37092857D01*
X67807143Y-36950000D01*
X67664286Y-36878571D01*
X67378572Y-36878571D01*
X67235715Y-36950000D01*
X67878572Y-37807143D02*
X67735715Y-37878571D01*
X67378572Y-37878571D01*
X67235715Y-37807143D01*
X67164286Y-37664286D01*
X67164286Y-37521429D01*
X67235715Y-37378571D01*
X67378572Y-37307143D01*
X67735715Y-37307143D01*
X67878572Y-37235714D01*
X68592858Y-37878571D02*
X68592858Y-36378571D01*
X68592858Y-36950000D02*
X68735715Y-36878571D01*
X69021429Y-36878571D01*
X69164286Y-36950000D01*
X69235715Y-37021429D01*
X69307144Y-37164286D01*
X69307144Y-37592857D01*
X69235715Y-37735714D01*
X69164286Y-37807143D01*
X69021429Y-37878571D01*
X68735715Y-37878571D01*
X68592858Y-37807143D01*
X71021429Y-36307143D02*
X69735715Y-38235714D01*
X71521430Y-37878571D02*
X71521430Y-36378571D01*
X72164287Y-37878571D02*
X72164287Y-37092857D01*
X72092858Y-36950000D01*
X71950001Y-36878571D01*
X71735716Y-36878571D01*
X71592858Y-36950000D01*
X71521430Y-37021429D01*
X73450001Y-37807143D02*
X73307144Y-37878571D01*
X73021430Y-37878571D01*
X72878573Y-37807143D01*
X72807144Y-37664286D01*
X72807144Y-37092857D01*
X72878573Y-36950000D01*
X73021430Y-36878571D01*
X73307144Y-36878571D01*
X73450001Y-36950000D01*
X73521430Y-37092857D01*
X73521430Y-37235714D01*
X72807144Y-37378571D01*
X74378573Y-37878571D02*
X74235715Y-37807143D01*
X74164287Y-37664286D01*
X74164287Y-36378571D01*
X74950001Y-37878571D02*
X74950001Y-36878571D01*
X74950001Y-37021429D02*
X75021429Y-36950000D01*
X75164287Y-36878571D01*
X75378572Y-36878571D01*
X75521429Y-36950000D01*
X75592858Y-37092857D01*
X75592858Y-37878571D01*
X75592858Y-37092857D02*
X75664287Y-36950000D01*
X75807144Y-36878571D01*
X76021429Y-36878571D01*
X76164287Y-36950000D01*
X76235715Y-37092857D01*
X76235715Y-37878571D01*
X76950001Y-37878571D02*
X76950001Y-36378571D01*
X77592858Y-37878571D02*
X77592858Y-37092857D01*
X77521429Y-36950000D01*
X77378572Y-36878571D01*
X77164287Y-36878571D01*
X77021429Y-36950000D01*
X76950001Y-37021429D01*
X78521430Y-37878571D02*
X78378572Y-37807143D01*
X78307144Y-37735714D01*
X78235715Y-37592857D01*
X78235715Y-37164286D01*
X78307144Y-37021429D01*
X78378572Y-36950000D01*
X78521430Y-36878571D01*
X78735715Y-36878571D01*
X78878572Y-36950000D01*
X78950001Y-37021429D01*
X79021430Y-37164286D01*
X79021430Y-37592857D01*
X78950001Y-37735714D01*
X78878572Y-37807143D01*
X78735715Y-37878571D01*
X78521430Y-37878571D01*
X79878573Y-37878571D02*
X79735715Y-37807143D01*
X79664287Y-37664286D01*
X79664287Y-36378571D01*
X80235715Y-36878571D02*
X80807144Y-36878571D01*
X80450001Y-36378571D02*
X80450001Y-37664286D01*
X80521429Y-37807143D01*
X80664287Y-37878571D01*
X80807144Y-37878571D01*
X81164287Y-36878571D02*
X81950001Y-36878571D01*
X81164287Y-37878571D01*
X81950001Y-37878571D01*
X82521430Y-37307143D02*
X83664287Y-37307143D01*
X84307144Y-37807143D02*
X84450001Y-37878571D01*
X84735716Y-37878571D01*
X84878573Y-37807143D01*
X84950001Y-37664286D01*
X84950001Y-37592857D01*
X84878573Y-37450000D01*
X84735716Y-37378571D01*
X84521430Y-37378571D01*
X84378573Y-37307143D01*
X84307144Y-37164286D01*
X84307144Y-37092857D01*
X84378573Y-36950000D01*
X84521430Y-36878571D01*
X84735716Y-36878571D01*
X84878573Y-36950000D01*
X86164287Y-37807143D02*
X86021430Y-37878571D01*
X85735716Y-37878571D01*
X85592859Y-37807143D01*
X85521430Y-37664286D01*
X85521430Y-37092857D01*
X85592859Y-36950000D01*
X85735716Y-36878571D01*
X86021430Y-36878571D01*
X86164287Y-36950000D01*
X86235716Y-37092857D01*
X86235716Y-37235714D01*
X85521430Y-37378571D01*
X86878573Y-37878571D02*
X86878573Y-36878571D01*
X86878573Y-37164286D02*
X86950001Y-37021429D01*
X87021430Y-36950000D01*
X87164287Y-36878571D01*
X87307144Y-36878571D01*
X87664287Y-36878571D02*
X88021430Y-37878571D01*
X88378572Y-36878571D01*
X89164287Y-37878571D02*
X89021429Y-37807143D01*
X88950001Y-37735714D01*
X88878572Y-37592857D01*
X88878572Y-37164286D01*
X88950001Y-37021429D01*
X89021429Y-36950000D01*
X89164287Y-36878571D01*
X89378572Y-36878571D01*
X89521429Y-36950000D01*
X89592858Y-37021429D01*
X89664287Y-37164286D01*
X89664287Y-37592857D01*
X89592858Y-37735714D01*
X89521429Y-37807143D01*
X89378572Y-37878571D01*
X89164287Y-37878571D01*
X26903571Y-12835714D02*
X25403571Y-12835714D01*
X26117857Y-12835714D02*
X26117857Y-11978571D01*
X26903571Y-11978571D02*
X25403571Y-11978571D01*
X26903571Y-11264285D02*
X25403571Y-11264285D01*
X26117857Y-11264285D02*
X26117857Y-10407142D01*
X26903571Y-10407142D02*
X25403571Y-10407142D01*
X27046429Y-10049999D02*
X27046429Y-8907142D01*
X25403571Y-8764285D02*
X25403571Y-7907142D01*
X26903571Y-8335713D02*
X25403571Y-8335713D01*
X25403571Y-7621428D02*
X25403571Y-6764285D01*
X26903571Y-7192856D02*
X25403571Y-7192856D01*
X26903571Y-5549999D02*
X26903571Y-6264285D01*
X25403571Y-6264285D01*
D12*
X104845238Y-81452381D02*
X104369047Y-81452381D01*
X104369047Y-80452381D01*
X105321428Y-81452381D02*
X105226190Y-81404762D01*
X105178571Y-81357143D01*
X105130952Y-81261905D01*
X105130952Y-80976190D01*
X105178571Y-80880952D01*
X105226190Y-80833333D01*
X105321428Y-80785714D01*
X105464286Y-80785714D01*
X105559524Y-80833333D01*
X105607143Y-80880952D01*
X105654762Y-80976190D01*
X105654762Y-81261905D01*
X105607143Y-81357143D01*
X105559524Y-81404762D01*
X105464286Y-81452381D01*
X105321428Y-81452381D01*
X105988095Y-80785714D02*
X106178571Y-81452381D01*
X106369048Y-80976190D01*
X106559524Y-81452381D01*
X106750000Y-80785714D01*
X107511905Y-81404762D02*
X107416667Y-81452381D01*
X107226190Y-81452381D01*
X107130952Y-81404762D01*
X107083333Y-81309524D01*
X107083333Y-80928571D01*
X107130952Y-80833333D01*
X107226190Y-80785714D01*
X107416667Y-80785714D01*
X107511905Y-80833333D01*
X107559524Y-80928571D01*
X107559524Y-81023810D01*
X107083333Y-81119048D01*
X107988095Y-81452381D02*
X107988095Y-80785714D01*
X107988095Y-80976190D02*
X108035714Y-80880952D01*
X108083333Y-80833333D01*
X108178571Y-80785714D01*
X108273810Y-80785714D01*
X97821428Y-80352381D02*
X97821428Y-81161905D01*
X97869047Y-81257143D01*
X97916666Y-81304762D01*
X98011904Y-81352381D01*
X98202381Y-81352381D01*
X98297619Y-81304762D01*
X98345238Y-81257143D01*
X98392857Y-81161905D01*
X98392857Y-80352381D01*
X98869047Y-80685714D02*
X98869047Y-81685714D01*
X98869047Y-80733333D02*
X98964285Y-80685714D01*
X99154762Y-80685714D01*
X99250000Y-80733333D01*
X99297619Y-80780952D01*
X99345238Y-80876190D01*
X99345238Y-81161905D01*
X99297619Y-81257143D01*
X99250000Y-81304762D01*
X99154762Y-81352381D01*
X98964285Y-81352381D01*
X98869047Y-81304762D01*
X99773809Y-80685714D02*
X99773809Y-81685714D01*
X99773809Y-80733333D02*
X99869047Y-80685714D01*
X100059524Y-80685714D01*
X100154762Y-80733333D01*
X100202381Y-80780952D01*
X100250000Y-80876190D01*
X100250000Y-81161905D01*
X100202381Y-81257143D01*
X100154762Y-81304762D01*
X100059524Y-81352381D01*
X99869047Y-81352381D01*
X99773809Y-81304762D01*
X101059524Y-81304762D02*
X100964286Y-81352381D01*
X100773809Y-81352381D01*
X100678571Y-81304762D01*
X100630952Y-81209524D01*
X100630952Y-80828571D01*
X100678571Y-80733333D01*
X100773809Y-80685714D01*
X100964286Y-80685714D01*
X101059524Y-80733333D01*
X101107143Y-80828571D01*
X101107143Y-80923810D01*
X100630952Y-81019048D01*
X101535714Y-81352381D02*
X101535714Y-80685714D01*
X101535714Y-80876190D02*
X101583333Y-80780952D01*
X101630952Y-80733333D01*
X101726190Y-80685714D01*
X101821429Y-80685714D01*
D11*
X88000000Y-15203571D02*
X88285714Y-15203571D01*
X88428572Y-15275000D01*
X88571429Y-15417857D01*
X88642857Y-15703571D01*
X88642857Y-16203571D01*
X88571429Y-16489286D01*
X88428572Y-16632143D01*
X88285714Y-16703571D01*
X88000000Y-16703571D01*
X87857143Y-16632143D01*
X87714286Y-16489286D01*
X87642857Y-16203571D01*
X87642857Y-15703571D01*
X87714286Y-15417857D01*
X87857143Y-15275000D01*
X88000000Y-15203571D01*
X89285715Y-15203571D02*
X89285715Y-16417857D01*
X89357143Y-16560714D01*
X89428572Y-16632143D01*
X89571429Y-16703571D01*
X89857143Y-16703571D01*
X90000001Y-16632143D01*
X90071429Y-16560714D01*
X90142858Y-16417857D01*
X90142858Y-15203571D01*
X90642858Y-15203571D02*
X91500001Y-15203571D01*
X91071430Y-16703571D02*
X91071430Y-15203571D01*
X69389286Y-16482143D02*
X69603572Y-16553571D01*
X69960715Y-16553571D01*
X70103572Y-16482143D01*
X70175001Y-16410714D01*
X70246429Y-16267857D01*
X70246429Y-16125000D01*
X70175001Y-15982143D01*
X70103572Y-15910714D01*
X69960715Y-15839286D01*
X69675001Y-15767857D01*
X69532143Y-15696429D01*
X69460715Y-15625000D01*
X69389286Y-15482143D01*
X69389286Y-15339286D01*
X69460715Y-15196429D01*
X69532143Y-15125000D01*
X69675001Y-15053571D01*
X70032143Y-15053571D01*
X70246429Y-15125000D01*
X70889286Y-15767857D02*
X71389286Y-15767857D01*
X71603572Y-16553571D02*
X70889286Y-16553571D01*
X70889286Y-15053571D01*
X71603572Y-15053571D01*
X72246429Y-16553571D02*
X72246429Y-15053571D01*
X73103572Y-16553571D01*
X73103572Y-15053571D01*
X73746429Y-16482143D02*
X73960715Y-16553571D01*
X74317858Y-16553571D01*
X74460715Y-16482143D01*
X74532144Y-16410714D01*
X74603572Y-16267857D01*
X74603572Y-16125000D01*
X74532144Y-15982143D01*
X74460715Y-15910714D01*
X74317858Y-15839286D01*
X74032144Y-15767857D01*
X73889286Y-15696429D01*
X73817858Y-15625000D01*
X73746429Y-15482143D01*
X73746429Y-15339286D01*
X73817858Y-15196429D01*
X73889286Y-15125000D01*
X74032144Y-15053571D01*
X74389286Y-15053571D01*
X74603572Y-15125000D01*
X75246429Y-15767857D02*
X75746429Y-15767857D01*
X75960715Y-16553571D02*
X75246429Y-16553571D01*
X75246429Y-15053571D01*
X75960715Y-15053571D01*
X56210715Y-15053571D02*
X56710715Y-16553571D01*
X57210715Y-15053571D01*
X57353572Y-16696429D02*
X58496429Y-16696429D01*
X58853572Y-16553571D02*
X58853572Y-15053571D01*
X59210715Y-15053571D01*
X59425000Y-15125000D01*
X59567858Y-15267857D01*
X59639286Y-15410714D01*
X59710715Y-15696429D01*
X59710715Y-15910714D01*
X59639286Y-16196429D01*
X59567858Y-16339286D01*
X59425000Y-16482143D01*
X59210715Y-16553571D01*
X58853572Y-16553571D01*
X60282143Y-16125000D02*
X60996429Y-16125000D01*
X60139286Y-16553571D02*
X60639286Y-15053571D01*
X61139286Y-16553571D01*
X62496429Y-16410714D02*
X62425000Y-16482143D01*
X62210714Y-16553571D01*
X62067857Y-16553571D01*
X61853572Y-16482143D01*
X61710714Y-16339286D01*
X61639286Y-16196429D01*
X61567857Y-15910714D01*
X61567857Y-15696429D01*
X61639286Y-15410714D01*
X61710714Y-15267857D01*
X61853572Y-15125000D01*
X62067857Y-15053571D01*
X62210714Y-15053571D01*
X62425000Y-15125000D01*
X62496429Y-15196429D01*
X41457143Y-15228571D02*
X41957143Y-16728571D01*
X42457143Y-15228571D01*
X42600000Y-16871429D02*
X43742857Y-16871429D01*
X44957143Y-16728571D02*
X44457143Y-16014286D01*
X44100000Y-16728571D02*
X44100000Y-15228571D01*
X44671428Y-15228571D01*
X44814286Y-15300000D01*
X44885714Y-15371429D01*
X44957143Y-15514286D01*
X44957143Y-15728571D01*
X44885714Y-15871429D01*
X44814286Y-15942857D01*
X44671428Y-16014286D01*
X44100000Y-16014286D01*
X45600000Y-15942857D02*
X46100000Y-15942857D01*
X46314286Y-16728571D02*
X45600000Y-16728571D01*
X45600000Y-15228571D01*
X46314286Y-15228571D01*
X47457143Y-15942857D02*
X46957143Y-15942857D01*
X46957143Y-16728571D02*
X46957143Y-15228571D01*
X47671429Y-15228571D01*
X16857143Y-81178571D02*
X16857143Y-79678571D01*
X17714286Y-81178571D02*
X17071429Y-80321429D01*
X17714286Y-79678571D02*
X16857143Y-80535714D01*
X18357143Y-80178571D02*
X18357143Y-81464286D01*
X18285714Y-81607143D01*
X18142857Y-81678571D01*
X18071429Y-81678571D01*
X18357143Y-79678571D02*
X18285714Y-79750000D01*
X18357143Y-79821429D01*
X18428571Y-79750000D01*
X18357143Y-79678571D01*
X18357143Y-79821429D01*
X19714286Y-81178571D02*
X19714286Y-80392857D01*
X19642857Y-80250000D01*
X19500000Y-80178571D01*
X19214286Y-80178571D01*
X19071429Y-80250000D01*
X19714286Y-81107143D02*
X19571429Y-81178571D01*
X19214286Y-81178571D01*
X19071429Y-81107143D01*
X19000000Y-80964286D01*
X19000000Y-80821429D01*
X19071429Y-80678571D01*
X19214286Y-80607143D01*
X19571429Y-80607143D01*
X19714286Y-80535714D01*
X21000000Y-81107143D02*
X20857143Y-81178571D01*
X20571429Y-81178571D01*
X20428572Y-81107143D01*
X20357143Y-80964286D01*
X20357143Y-80392857D01*
X20428572Y-80250000D01*
X20571429Y-80178571D01*
X20857143Y-80178571D01*
X21000000Y-80250000D01*
X21071429Y-80392857D01*
X21071429Y-80535714D01*
X20357143Y-80678571D01*
X21714286Y-81178571D02*
X21714286Y-80178571D01*
X21714286Y-80464286D02*
X21785714Y-80321429D01*
X21857143Y-80250000D01*
X22000000Y-80178571D01*
X22142857Y-80178571D01*
X23285714Y-80178571D02*
X23285714Y-81392857D01*
X23214285Y-81535714D01*
X23142857Y-81607143D01*
X23000000Y-81678571D01*
X22785714Y-81678571D01*
X22642857Y-81607143D01*
X23285714Y-81107143D02*
X23142857Y-81178571D01*
X22857143Y-81178571D01*
X22714285Y-81107143D01*
X22642857Y-81035714D01*
X22571428Y-80892857D01*
X22571428Y-80464286D01*
X22642857Y-80321429D01*
X22714285Y-80250000D01*
X22857143Y-80178571D01*
X23142857Y-80178571D01*
X23285714Y-80250000D01*
X24642857Y-81178571D02*
X24642857Y-80392857D01*
X24571428Y-80250000D01*
X24428571Y-80178571D01*
X24142857Y-80178571D01*
X24000000Y-80250000D01*
X24642857Y-81107143D02*
X24500000Y-81178571D01*
X24142857Y-81178571D01*
X24000000Y-81107143D01*
X23928571Y-80964286D01*
X23928571Y-80821429D01*
X24000000Y-80678571D01*
X24142857Y-80607143D01*
X24500000Y-80607143D01*
X24642857Y-80535714D01*
X26000000Y-81178571D02*
X26000000Y-80392857D01*
X25928571Y-80250000D01*
X25785714Y-80178571D01*
X25500000Y-80178571D01*
X25357143Y-80250000D01*
X26000000Y-81107143D02*
X25857143Y-81178571D01*
X25500000Y-81178571D01*
X25357143Y-81107143D01*
X25285714Y-80964286D01*
X25285714Y-80821429D01*
X25357143Y-80678571D01*
X25500000Y-80607143D01*
X25857143Y-80607143D01*
X26000000Y-80535714D01*
X26714286Y-81178571D02*
X26714286Y-80178571D01*
X26714286Y-80464286D02*
X26785714Y-80321429D01*
X26857143Y-80250000D01*
X27000000Y-80178571D01*
X27142857Y-80178571D01*
X28285714Y-81178571D02*
X28285714Y-79678571D01*
X28285714Y-81107143D02*
X28142857Y-81178571D01*
X27857143Y-81178571D01*
X27714285Y-81107143D01*
X27642857Y-81035714D01*
X27571428Y-80892857D01*
X27571428Y-80464286D01*
X27642857Y-80321429D01*
X27714285Y-80250000D01*
X27857143Y-80178571D01*
X28142857Y-80178571D01*
X28285714Y-80250000D01*
X30857143Y-81178571D02*
X30142857Y-81178571D01*
X30142857Y-79678571D01*
X32000000Y-81178571D02*
X32000000Y-80392857D01*
X31928571Y-80250000D01*
X31785714Y-80178571D01*
X31500000Y-80178571D01*
X31357143Y-80250000D01*
X32000000Y-81107143D02*
X31857143Y-81178571D01*
X31500000Y-81178571D01*
X31357143Y-81107143D01*
X31285714Y-80964286D01*
X31285714Y-80821429D01*
X31357143Y-80678571D01*
X31500000Y-80607143D01*
X31857143Y-80607143D01*
X32000000Y-80535714D01*
X32714286Y-81178571D02*
X32714286Y-79678571D01*
X32714286Y-80250000D02*
X32857143Y-80178571D01*
X33142857Y-80178571D01*
X33285714Y-80250000D01*
X33357143Y-80321429D01*
X33428572Y-80464286D01*
X33428572Y-80892857D01*
X33357143Y-81035714D01*
X33285714Y-81107143D01*
X33142857Y-81178571D01*
X32857143Y-81178571D01*
X32714286Y-81107143D01*
D13*
X15049904Y-71598762D02*
X15049904Y-69598762D01*
X15049904Y-70551143D02*
X16192762Y-70551143D01*
X16192762Y-71598762D02*
X16192762Y-69598762D01*
X17907047Y-71503524D02*
X17716571Y-71598762D01*
X17335619Y-71598762D01*
X17145142Y-71503524D01*
X17049904Y-71313048D01*
X17049904Y-70551143D01*
X17145142Y-70360667D01*
X17335619Y-70265429D01*
X17716571Y-70265429D01*
X17907047Y-70360667D01*
X18002285Y-70551143D01*
X18002285Y-70741619D01*
X17049904Y-70932095D01*
X19145143Y-71598762D02*
X18954667Y-71503524D01*
X18859428Y-71313048D01*
X18859428Y-69598762D01*
X19907047Y-71598762D02*
X19907047Y-70265429D01*
X19907047Y-70455905D02*
X20002286Y-70360667D01*
X20192762Y-70265429D01*
X20478476Y-70265429D01*
X20668952Y-70360667D01*
X20764190Y-70551143D01*
X20764190Y-71598762D01*
X20764190Y-70551143D02*
X20859428Y-70360667D01*
X21049905Y-70265429D01*
X21335619Y-70265429D01*
X21526095Y-70360667D01*
X21621333Y-70551143D01*
X21621333Y-71598762D01*
X22573714Y-71598762D02*
X22573714Y-69598762D01*
X23430857Y-71598762D02*
X23430857Y-70551143D01*
X23335619Y-70360667D01*
X23145143Y-70265429D01*
X22859429Y-70265429D01*
X22668953Y-70360667D01*
X22573714Y-70455905D01*
X24668953Y-71598762D02*
X24478477Y-71503524D01*
X24383238Y-71408286D01*
X24288000Y-71217810D01*
X24288000Y-70646381D01*
X24383238Y-70455905D01*
X24478477Y-70360667D01*
X24668953Y-70265429D01*
X24954667Y-70265429D01*
X25145143Y-70360667D01*
X25240381Y-70455905D01*
X25335619Y-70646381D01*
X25335619Y-71217810D01*
X25240381Y-71408286D01*
X25145143Y-71503524D01*
X24954667Y-71598762D01*
X24668953Y-71598762D01*
X26478477Y-71598762D02*
X26288001Y-71503524D01*
X26192762Y-71313048D01*
X26192762Y-69598762D01*
X26954667Y-70265429D02*
X27716572Y-70265429D01*
X27240381Y-69598762D02*
X27240381Y-71313048D01*
X27335620Y-71503524D01*
X27526096Y-71598762D01*
X27716572Y-71598762D01*
X28192762Y-70265429D02*
X29240381Y-70265429D01*
X28192762Y-71598762D01*
X29240381Y-71598762D01*
X31526096Y-71598762D02*
X31526096Y-69598762D01*
X32288001Y-69598762D01*
X32478477Y-69694000D01*
X32573716Y-69789238D01*
X32668954Y-69979714D01*
X32668954Y-70265429D01*
X32573716Y-70455905D01*
X32478477Y-70551143D01*
X32288001Y-70646381D01*
X31526096Y-70646381D01*
X33526096Y-71598762D02*
X33526096Y-69598762D01*
X34478477Y-71598762D02*
X34478477Y-69598762D01*
X34954668Y-69598762D01*
X35240382Y-69694000D01*
X35430858Y-69884476D01*
X35526097Y-70074952D01*
X35621335Y-70455905D01*
X35621335Y-70741619D01*
X35526097Y-71122571D01*
X35430858Y-71313048D01*
X35240382Y-71503524D01*
X34954668Y-71598762D01*
X34478477Y-71598762D01*
X16573714Y-74608286D02*
X16478476Y-74703524D01*
X16192761Y-74798762D01*
X16002285Y-74798762D01*
X15716571Y-74703524D01*
X15526095Y-74513048D01*
X15430856Y-74322571D01*
X15335618Y-73941619D01*
X15335618Y-73655905D01*
X15430856Y-73274952D01*
X15526095Y-73084476D01*
X15716571Y-72894000D01*
X16002285Y-72798762D01*
X16192761Y-72798762D01*
X16478476Y-72894000D01*
X16573714Y-72989238D01*
X18287999Y-73465429D02*
X18287999Y-74798762D01*
X17430856Y-73465429D02*
X17430856Y-74513048D01*
X17526095Y-74703524D01*
X17716571Y-74798762D01*
X18002285Y-74798762D01*
X18192761Y-74703524D01*
X18287999Y-74608286D01*
X19240380Y-74798762D02*
X19240380Y-73465429D01*
X19240380Y-73846381D02*
X19335619Y-73655905D01*
X19430857Y-73560667D01*
X19621333Y-73465429D01*
X19811809Y-73465429D01*
X20478475Y-74798762D02*
X20478475Y-73465429D01*
X20478475Y-73846381D02*
X20573714Y-73655905D01*
X20668952Y-73560667D01*
X20859428Y-73465429D01*
X21049904Y-73465429D01*
X22478475Y-74703524D02*
X22287999Y-74798762D01*
X21907047Y-74798762D01*
X21716570Y-74703524D01*
X21621332Y-74513048D01*
X21621332Y-73751143D01*
X21716570Y-73560667D01*
X21907047Y-73465429D01*
X22287999Y-73465429D01*
X22478475Y-73560667D01*
X22573713Y-73751143D01*
X22573713Y-73941619D01*
X21621332Y-74132095D01*
X23430856Y-73465429D02*
X23430856Y-74798762D01*
X23430856Y-73655905D02*
X23526095Y-73560667D01*
X23716571Y-73465429D01*
X24002285Y-73465429D01*
X24192761Y-73560667D01*
X24287999Y-73751143D01*
X24287999Y-74798762D01*
X24954666Y-73465429D02*
X25716571Y-73465429D01*
X25240380Y-72798762D02*
X25240380Y-74513048D01*
X25335619Y-74703524D01*
X25526095Y-74798762D01*
X25716571Y-74798762D01*
X27811809Y-74703524D02*
X28097524Y-74798762D01*
X28573714Y-74798762D01*
X28764190Y-74703524D01*
X28859428Y-74608286D01*
X28954667Y-74417810D01*
X28954667Y-74227333D01*
X28859428Y-74036857D01*
X28764190Y-73941619D01*
X28573714Y-73846381D01*
X28192762Y-73751143D01*
X28002286Y-73655905D01*
X27907047Y-73560667D01*
X27811809Y-73370190D01*
X27811809Y-73179714D01*
X27907047Y-72989238D01*
X28002286Y-72894000D01*
X28192762Y-72798762D01*
X28668952Y-72798762D01*
X28954667Y-72894000D01*
X30573714Y-74703524D02*
X30383238Y-74798762D01*
X30002286Y-74798762D01*
X29811809Y-74703524D01*
X29716571Y-74513048D01*
X29716571Y-73751143D01*
X29811809Y-73560667D01*
X30002286Y-73465429D01*
X30383238Y-73465429D01*
X30573714Y-73560667D01*
X30668952Y-73751143D01*
X30668952Y-73941619D01*
X29716571Y-74132095D01*
X31526095Y-74798762D02*
X31526095Y-73465429D01*
X31526095Y-73846381D02*
X31621334Y-73655905D01*
X31716572Y-73560667D01*
X31907048Y-73465429D01*
X32097524Y-73465429D01*
X32573714Y-73465429D02*
X33049905Y-74798762D01*
X33526095Y-73465429D01*
X34573715Y-74798762D02*
X34383239Y-74703524D01*
X34288000Y-74608286D01*
X34192762Y-74417810D01*
X34192762Y-73846381D01*
X34288000Y-73655905D01*
X34383239Y-73560667D01*
X34573715Y-73465429D01*
X34859429Y-73465429D01*
X35049905Y-73560667D01*
X35145143Y-73655905D01*
X35240381Y-73846381D01*
X35240381Y-74417810D01*
X35145143Y-74608286D01*
X35049905Y-74703524D01*
X34859429Y-74798762D01*
X34573715Y-74798762D01*
D14*
X6380096Y-58997000D02*
X6284858Y-58949381D01*
X6142001Y-58949381D01*
X5999143Y-58997000D01*
X5903905Y-59092238D01*
X5856286Y-59187476D01*
X5808667Y-59377952D01*
X5808667Y-59520810D01*
X5856286Y-59711286D01*
X5903905Y-59806524D01*
X5999143Y-59901762D01*
X6142001Y-59949381D01*
X6237239Y-59949381D01*
X6380096Y-59901762D01*
X6427715Y-59854143D01*
X6427715Y-59520810D01*
X6237239Y-59520810D01*
X6856286Y-59949381D02*
X6856286Y-58949381D01*
X7427715Y-59949381D01*
X7427715Y-58949381D01*
X7903905Y-59949381D02*
X7903905Y-58949381D01*
X8142000Y-58949381D01*
X8284858Y-58997000D01*
X8380096Y-59092238D01*
X8427715Y-59187476D01*
X8475334Y-59377952D01*
X8475334Y-59520810D01*
X8427715Y-59711286D01*
X8380096Y-59806524D01*
X8284858Y-59901762D01*
X8142000Y-59949381D01*
X7903905Y-59949381D01*
X5712667Y-63263429D02*
X6474572Y-63263429D01*
X7474572Y-63644381D02*
X6903143Y-63644381D01*
X7188857Y-63644381D02*
X7188857Y-62644381D01*
X7093619Y-62787238D01*
X6998381Y-62882476D01*
X6903143Y-62930095D01*
X8379334Y-62644381D02*
X7903143Y-62644381D01*
X7855524Y-63120571D01*
X7903143Y-63072952D01*
X7998381Y-63025333D01*
X8236477Y-63025333D01*
X8331715Y-63072952D01*
X8379334Y-63120571D01*
X8426953Y-63215810D01*
X8426953Y-63453905D01*
X8379334Y-63549143D01*
X8331715Y-63596762D01*
X8236477Y-63644381D01*
X7998381Y-63644381D01*
X7903143Y-63596762D01*
X7855524Y-63549143D01*
X5617667Y-55841429D02*
X6379572Y-55841429D01*
X5998620Y-56222381D02*
X5998620Y-55460476D01*
X7379572Y-56222381D02*
X6808143Y-56222381D01*
X7093857Y-56222381D02*
X7093857Y-55222381D01*
X6998619Y-55365238D01*
X6903381Y-55460476D01*
X6808143Y-55508095D01*
X8284334Y-55222381D02*
X7808143Y-55222381D01*
X7760524Y-55698571D01*
X7808143Y-55650952D01*
X7903381Y-55603333D01*
X8141477Y-55603333D01*
X8236715Y-55650952D01*
X8284334Y-55698571D01*
X8331953Y-55793810D01*
X8331953Y-56031905D01*
X8284334Y-56127143D01*
X8236715Y-56174762D01*
X8141477Y-56222381D01*
X7903381Y-56222381D01*
X7808143Y-56174762D01*
X7760524Y-56127143D01*
D11*
X7178571Y-75964286D02*
X5678571Y-75964286D01*
X5678571Y-75392858D01*
X5750000Y-75250000D01*
X5821429Y-75178572D01*
X5964286Y-75107143D01*
X6178571Y-75107143D01*
X6321429Y-75178572D01*
X6392857Y-75250000D01*
X6464286Y-75392858D01*
X6464286Y-75964286D01*
X5678571Y-74178572D02*
X5678571Y-73892858D01*
X5750000Y-73750000D01*
X5892857Y-73607143D01*
X6178571Y-73535715D01*
X6678571Y-73535715D01*
X6964286Y-73607143D01*
X7107143Y-73750000D01*
X7178571Y-73892858D01*
X7178571Y-74178572D01*
X7107143Y-74321429D01*
X6964286Y-74464286D01*
X6678571Y-74535715D01*
X6178571Y-74535715D01*
X5892857Y-74464286D01*
X5750000Y-74321429D01*
X5678571Y-74178572D01*
X5678571Y-73035714D02*
X7178571Y-72678571D01*
X6107143Y-72392857D01*
X7178571Y-72107143D01*
X5678571Y-71750000D01*
X6392857Y-71178571D02*
X6392857Y-70678571D01*
X7178571Y-70464285D02*
X7178571Y-71178571D01*
X5678571Y-71178571D01*
X5678571Y-70464285D01*
X7178571Y-68964285D02*
X6464286Y-69464285D01*
X7178571Y-69821428D02*
X5678571Y-69821428D01*
X5678571Y-69250000D01*
X5750000Y-69107142D01*
X5821429Y-69035714D01*
X5964286Y-68964285D01*
X6178571Y-68964285D01*
X6321429Y-69035714D01*
X6392857Y-69107142D01*
X6464286Y-69250000D01*
X6464286Y-69821428D01*
X38731857Y-79211143D02*
X38731857Y-78711143D01*
X39517571Y-78496857D02*
X39517571Y-79211143D01*
X38017571Y-79211143D01*
X38017571Y-78496857D01*
X39517571Y-76996857D02*
X38803286Y-77496857D01*
X39517571Y-77854000D02*
X38017571Y-77854000D01*
X38017571Y-77282572D01*
X38089000Y-77139714D01*
X38160429Y-77068286D01*
X38303286Y-76996857D01*
X38517571Y-76996857D01*
X38660429Y-77068286D01*
X38731857Y-77139714D01*
X38803286Y-77282572D01*
X38803286Y-77854000D01*
X39517571Y-75496857D02*
X38803286Y-75996857D01*
X39517571Y-76354000D02*
X38017571Y-76354000D01*
X38017571Y-75782572D01*
X38089000Y-75639714D01*
X38160429Y-75568286D01*
X38303286Y-75496857D01*
X38517571Y-75496857D01*
X38660429Y-75568286D01*
X38731857Y-75639714D01*
X38803286Y-75782572D01*
X38803286Y-76354000D01*
X38017571Y-74568286D02*
X38017571Y-74282572D01*
X38089000Y-74139714D01*
X38231857Y-73996857D01*
X38517571Y-73925429D01*
X39017571Y-73925429D01*
X39303286Y-73996857D01*
X39446143Y-74139714D01*
X39517571Y-74282572D01*
X39517571Y-74568286D01*
X39446143Y-74711143D01*
X39303286Y-74854000D01*
X39017571Y-74925429D01*
X38517571Y-74925429D01*
X38231857Y-74854000D01*
X38089000Y-74711143D01*
X38017571Y-74568286D01*
X39517571Y-72425428D02*
X38803286Y-72925428D01*
X39517571Y-73282571D02*
X38017571Y-73282571D01*
X38017571Y-72711143D01*
X38089000Y-72568285D01*
X38160429Y-72496857D01*
X38303286Y-72425428D01*
X38517571Y-72425428D01*
X38660429Y-72496857D01*
X38731857Y-72568285D01*
X38803286Y-72711143D01*
X38803286Y-73282571D01*
X72478571Y-80385714D02*
X70978571Y-80385714D01*
X72478571Y-79671428D02*
X70978571Y-79671428D01*
X72478571Y-78814285D01*
X70978571Y-78814285D01*
X70978571Y-78314285D02*
X70978571Y-77457142D01*
X72478571Y-77885713D02*
X70978571Y-77885713D01*
X71692857Y-76957142D02*
X71692857Y-76457142D01*
X72478571Y-76242856D02*
X72478571Y-76957142D01*
X70978571Y-76957142D01*
X70978571Y-76242856D01*
X71050000Y-74814285D02*
X70978571Y-74957142D01*
X70978571Y-75171428D01*
X71050000Y-75385713D01*
X71192857Y-75528571D01*
X71335714Y-75599999D01*
X71621429Y-75671428D01*
X71835714Y-75671428D01*
X72121429Y-75599999D01*
X72264286Y-75528571D01*
X72407143Y-75385713D01*
X72478571Y-75171428D01*
X72478571Y-75028571D01*
X72407143Y-74814285D01*
X72335714Y-74742856D01*
X71835714Y-74742856D01*
X71835714Y-75028571D01*
X72478571Y-73242856D02*
X71764286Y-73742856D01*
X72478571Y-74099999D02*
X70978571Y-74099999D01*
X70978571Y-73528571D01*
X71050000Y-73385713D01*
X71121429Y-73314285D01*
X71264286Y-73242856D01*
X71478571Y-73242856D01*
X71621429Y-73314285D01*
X71692857Y-73385713D01*
X71764286Y-73528571D01*
X71764286Y-74099999D01*
X72050000Y-72671428D02*
X72050000Y-71957142D01*
X72478571Y-72814285D02*
X70978571Y-72314285D01*
X72478571Y-71814285D01*
X72478571Y-70599999D02*
X72478571Y-71314285D01*
X70978571Y-71314285D01*
X61078571Y-81314285D02*
X59578571Y-81314285D01*
X59578571Y-80957142D01*
X59650000Y-80742857D01*
X59792857Y-80599999D01*
X59935714Y-80528571D01*
X60221429Y-80457142D01*
X60435714Y-80457142D01*
X60721429Y-80528571D01*
X60864286Y-80599999D01*
X61007143Y-80742857D01*
X61078571Y-80957142D01*
X61078571Y-81314285D01*
X60292857Y-79814285D02*
X60292857Y-79314285D01*
X61078571Y-79099999D02*
X61078571Y-79814285D01*
X59578571Y-79814285D01*
X59578571Y-79099999D01*
X61078571Y-77599999D02*
X60364286Y-78099999D01*
X61078571Y-78457142D02*
X59578571Y-78457142D01*
X59578571Y-77885714D01*
X59650000Y-77742856D01*
X59721429Y-77671428D01*
X59864286Y-77599999D01*
X60078571Y-77599999D01*
X60221429Y-77671428D01*
X60292857Y-77742856D01*
X60364286Y-77885714D01*
X60364286Y-78457142D01*
X61078571Y-76957142D02*
X59578571Y-76957142D01*
X59578571Y-76457142D02*
X61078571Y-75957142D01*
X59578571Y-75457142D01*
X60650000Y-75028571D02*
X60650000Y-74314285D01*
X61078571Y-75171428D02*
X59578571Y-74671428D01*
X61078571Y-74171428D01*
X59578571Y-73885714D02*
X59578571Y-73028571D01*
X61078571Y-73457142D02*
X59578571Y-73457142D01*
X61078571Y-72528571D02*
X59578571Y-72528571D01*
X59578571Y-72028571D02*
X61078571Y-71528571D01*
X59578571Y-71028571D01*
X60292857Y-70528571D02*
X60292857Y-70028571D01*
X61078571Y-69814285D02*
X61078571Y-70528571D01*
X59578571Y-70528571D01*
X59578571Y-69814285D01*
X49278571Y-83764286D02*
X47778571Y-83764286D01*
X47778571Y-83192858D01*
X47850000Y-83050000D01*
X47921429Y-82978572D01*
X48064286Y-82907143D01*
X48278571Y-82907143D01*
X48421429Y-82978572D01*
X48492857Y-83050000D01*
X48564286Y-83192858D01*
X48564286Y-83764286D01*
X49278571Y-81407143D02*
X48564286Y-81907143D01*
X49278571Y-82264286D02*
X47778571Y-82264286D01*
X47778571Y-81692858D01*
X47850000Y-81550000D01*
X47921429Y-81478572D01*
X48064286Y-81407143D01*
X48278571Y-81407143D01*
X48421429Y-81478572D01*
X48492857Y-81550000D01*
X48564286Y-81692858D01*
X48564286Y-82264286D01*
X47778571Y-80478572D02*
X47778571Y-80192858D01*
X47850000Y-80050000D01*
X47992857Y-79907143D01*
X48278571Y-79835715D01*
X48778571Y-79835715D01*
X49064286Y-79907143D01*
X49207143Y-80050000D01*
X49278571Y-80192858D01*
X49278571Y-80478572D01*
X49207143Y-80621429D01*
X49064286Y-80764286D01*
X48778571Y-80835715D01*
X48278571Y-80835715D01*
X47992857Y-80764286D01*
X47850000Y-80621429D01*
X47778571Y-80478572D01*
X49278571Y-79192857D02*
X47778571Y-79192857D01*
X47778571Y-78621429D01*
X47850000Y-78478571D01*
X47921429Y-78407143D01*
X48064286Y-78335714D01*
X48278571Y-78335714D01*
X48421429Y-78407143D01*
X48492857Y-78478571D01*
X48564286Y-78621429D01*
X48564286Y-79192857D01*
X47778571Y-77407143D02*
X47778571Y-77121429D01*
X47850000Y-76978571D01*
X47992857Y-76835714D01*
X48278571Y-76764286D01*
X48778571Y-76764286D01*
X49064286Y-76835714D01*
X49207143Y-76978571D01*
X49278571Y-77121429D01*
X49278571Y-77407143D01*
X49207143Y-77550000D01*
X49064286Y-77692857D01*
X48778571Y-77764286D01*
X48278571Y-77764286D01*
X47992857Y-77692857D01*
X47850000Y-77550000D01*
X47778571Y-77407143D01*
X49278571Y-75264285D02*
X48564286Y-75764285D01*
X49278571Y-76121428D02*
X47778571Y-76121428D01*
X47778571Y-75550000D01*
X47850000Y-75407142D01*
X47921429Y-75335714D01*
X48064286Y-75264285D01*
X48278571Y-75264285D01*
X48421429Y-75335714D01*
X48492857Y-75407142D01*
X48564286Y-75550000D01*
X48564286Y-76121428D01*
X47778571Y-74835714D02*
X47778571Y-73978571D01*
X49278571Y-74407142D02*
X47778571Y-74407142D01*
X49278571Y-73478571D02*
X47778571Y-73478571D01*
X47778571Y-72478571D02*
X47778571Y-72192857D01*
X47850000Y-72049999D01*
X47992857Y-71907142D01*
X48278571Y-71835714D01*
X48778571Y-71835714D01*
X49064286Y-71907142D01*
X49207143Y-72049999D01*
X49278571Y-72192857D01*
X49278571Y-72478571D01*
X49207143Y-72621428D01*
X49064286Y-72764285D01*
X48778571Y-72835714D01*
X48278571Y-72835714D01*
X47992857Y-72764285D01*
X47850000Y-72621428D01*
X47778571Y-72478571D01*
X49278571Y-71192856D02*
X47778571Y-71192856D01*
X49278571Y-70335713D01*
X47778571Y-70335713D01*
X48850000Y-69692856D02*
X48850000Y-68978570D01*
X49278571Y-69835713D02*
X47778571Y-69335713D01*
X49278571Y-68835713D01*
X49278571Y-67621427D02*
X49278571Y-68335713D01*
X47778571Y-68335713D01*
X80750000Y-82892857D02*
X80250000Y-82892857D01*
X80250000Y-83678571D02*
X80250000Y-82178571D01*
X80964286Y-82178571D01*
X81535714Y-83678571D02*
X81535714Y-82178571D01*
X82964286Y-83678571D02*
X82250000Y-83678571D01*
X82250000Y-82178571D01*
X83250000Y-82178571D02*
X84107143Y-82178571D01*
X83678572Y-83678571D02*
X83678572Y-82178571D01*
X84607143Y-82892857D02*
X85107143Y-82892857D01*
X85321429Y-83678571D02*
X84607143Y-83678571D01*
X84607143Y-82178571D01*
X85321429Y-82178571D01*
X86821429Y-83678571D02*
X86321429Y-82964286D01*
X85964286Y-83678571D02*
X85964286Y-82178571D01*
X86535714Y-82178571D01*
X86678572Y-82250000D01*
X86750000Y-82321429D01*
X86821429Y-82464286D01*
X86821429Y-82678571D01*
X86750000Y-82821429D01*
X86678572Y-82892857D01*
X86535714Y-82964286D01*
X85964286Y-82964286D01*
X90107143Y-82250000D02*
X89964286Y-82178571D01*
X89750000Y-82178571D01*
X89535715Y-82250000D01*
X89392857Y-82392857D01*
X89321429Y-82535714D01*
X89250000Y-82821429D01*
X89250000Y-83035714D01*
X89321429Y-83321429D01*
X89392857Y-83464286D01*
X89535715Y-83607143D01*
X89750000Y-83678571D01*
X89892857Y-83678571D01*
X90107143Y-83607143D01*
X90178572Y-83535714D01*
X90178572Y-83035714D01*
X89892857Y-83035714D01*
X90750000Y-83250000D02*
X91464286Y-83250000D01*
X90607143Y-83678571D02*
X91107143Y-82178571D01*
X91607143Y-83678571D01*
X92107143Y-83678571D02*
X92107143Y-82178571D01*
X92821429Y-83678571D02*
X92821429Y-82178571D01*
X93678572Y-83678571D01*
X93678572Y-82178571D01*
X101746429Y-83603571D02*
X101032143Y-83603571D01*
X101032143Y-82103571D01*
X102246429Y-83603571D02*
X102246429Y-82103571D01*
X102960715Y-83603571D02*
X102960715Y-82103571D01*
X103460715Y-83175000D01*
X103960715Y-82103571D01*
X103960715Y-83603571D01*
X104675001Y-83603571D02*
X104675001Y-82103571D01*
X105175001Y-82103571D02*
X106032144Y-82103571D01*
X105603573Y-83603571D02*
X105603573Y-82103571D01*
X112285714Y-83503571D02*
X112285714Y-82003571D01*
X112785714Y-83075000D01*
X113285714Y-82003571D01*
X113285714Y-83503571D01*
X113928571Y-83075000D02*
X114642857Y-83075000D01*
X113785714Y-83503571D02*
X114285714Y-82003571D01*
X114785714Y-83503571D01*
X115285714Y-83503571D02*
X115285714Y-82003571D01*
X116142857Y-83503571D01*
X116142857Y-82003571D01*
X116857143Y-82003571D02*
X116857143Y-83217857D01*
X116928571Y-83360714D01*
X117000000Y-83432143D01*
X117142857Y-83503571D01*
X117428571Y-83503571D01*
X117571429Y-83432143D01*
X117642857Y-83360714D01*
X117714286Y-83217857D01*
X117714286Y-82003571D01*
X118357143Y-83075000D02*
X119071429Y-83075000D01*
X118214286Y-83503571D02*
X118714286Y-82003571D01*
X119214286Y-83503571D01*
X120428572Y-83503571D02*
X119714286Y-83503571D01*
X119714286Y-82003571D01*
D15*
X98358000Y-78951000D02*
X99628000Y-78951000D01*
X99107300Y-78163600D02*
X98853300Y-78201700D01*
X98853300Y-78201700D02*
X98573900Y-78379500D01*
X98573900Y-78379500D02*
X98358000Y-78697000D01*
X98358000Y-78697000D02*
X98345300Y-79141500D01*
X98345300Y-79141500D02*
X98548500Y-79497100D01*
X98548500Y-79497100D02*
X98840600Y-79674900D01*
X98840600Y-79674900D02*
X99158100Y-79725700D01*
X99158100Y-79725700D02*
X99564500Y-79624100D01*
X99564500Y-79624100D02*
X99818500Y-79281200D01*
X99818500Y-79281200D02*
X99907400Y-79103400D01*
X102168000Y-70569000D02*
X102168000Y-80221000D01*
X99120000Y-80221000D02*
X97850000Y-80221000D01*
X97850000Y-80221000D02*
X97850000Y-70569000D01*
X97850000Y-70569000D02*
X102930000Y-70569000D01*
X102930000Y-80221000D02*
X100390000Y-80221000D01*
X100390000Y-80221000D02*
X99120000Y-80221000D01*
X63170000Y-25385000D02*
X63170000Y-20305000D01*
X63170000Y-20305000D02*
X60630000Y-20305000D01*
X60630000Y-20305000D02*
X60630000Y-25385000D01*
X60350000Y-28205000D02*
X60350000Y-26655000D01*
X60630000Y-25385000D02*
X63170000Y-25385000D01*
X63450000Y-26655000D02*
X63450000Y-28205000D01*
X63450000Y-28205000D02*
X60350000Y-28205000D01*
X72182000Y-32416000D02*
X72182000Y-31146000D01*
X64832000Y-32416000D02*
X64832000Y-31146000D01*
X64832000Y-20206000D02*
X64832000Y-21476000D01*
X72182000Y-20206000D02*
X72182000Y-21476000D01*
X72182000Y-32416000D02*
X64832000Y-32416000D01*
X72182000Y-20206000D02*
X64832000Y-20206000D01*
X72182000Y-31146000D02*
X73117000Y-31146000D01*
X106164000Y-13570000D02*
X106164000Y-8490000D01*
X106164000Y-8490000D02*
X110736000Y-8490000D01*
X110736000Y-8490000D02*
X110736000Y-13570000D01*
X110736000Y-13570000D02*
X106164000Y-13570000D01*
X107688000Y-13570000D02*
X107688000Y-13062000D01*
X107688000Y-13062000D02*
X108958000Y-13062000D01*
X108958000Y-13062000D02*
X108958000Y-13570000D01*
X70125000Y-19516000D02*
X71125000Y-19516000D01*
X71125000Y-17816000D02*
X70125000Y-17816000D01*
X20590000Y-41725000D02*
X21590000Y-41725000D01*
X21590000Y-40025000D02*
X20590000Y-40025000D01*
X61721000Y-30219000D02*
X61721000Y-31219000D01*
X63421000Y-31219000D02*
X63421000Y-30219000D01*
X28670000Y-40025000D02*
X27670000Y-40025000D01*
X27670000Y-41725000D02*
X28670000Y-41725000D01*
X53875000Y-17675000D02*
X52875000Y-17675000D01*
X52875000Y-19375000D02*
X53875000Y-19375000D01*
X41370000Y-31770000D02*
X40370000Y-31770000D01*
X40370000Y-33470000D02*
X41370000Y-33470000D01*
X49000000Y-32550000D02*
X48000000Y-32550000D01*
X48000000Y-34250000D02*
X49000000Y-34250000D01*
X38370000Y-20230000D02*
X39370000Y-20230000D01*
X39370000Y-18530000D02*
X38370000Y-18530000D01*
X38370000Y-16960000D02*
X39370000Y-16960000D01*
X39370000Y-15260000D02*
X38370000Y-15260000D01*
X20400000Y-29310000D02*
X20400000Y-28310000D01*
X18700000Y-28310000D02*
X18700000Y-29310000D01*
X35290000Y-61410000D02*
X36290000Y-61410000D01*
X36290000Y-59710000D02*
X35290000Y-59710000D01*
X40640000Y-46170000D02*
X41640000Y-46170000D01*
X41640000Y-44470000D02*
X40640000Y-44470000D01*
X36290000Y-44470000D02*
X35290000Y-44470000D01*
X35290000Y-46170000D02*
X36290000Y-46170000D01*
X45800000Y-49900000D02*
X45800000Y-48900000D01*
X44100000Y-48900000D02*
X44100000Y-49900000D01*
X80658785Y-50068415D02*
X80658785Y-49068415D01*
X78958785Y-49068415D02*
X78958785Y-50068415D01*
X65690000Y-57250000D02*
X65690000Y-58250000D01*
X67390000Y-58250000D02*
X67390000Y-57250000D01*
X75228785Y-45068415D02*
X76228785Y-45068415D01*
X76228785Y-43368415D02*
X75228785Y-43368415D01*
X71688785Y-43368415D02*
X70688785Y-43368415D01*
X70688785Y-45068415D02*
X71688785Y-45068415D01*
X50700000Y-49375000D02*
X50700000Y-50375000D01*
X52400000Y-50375000D02*
X52400000Y-49375000D01*
X64850000Y-51170000D02*
X64850000Y-50170000D01*
X63150000Y-50170000D02*
X63150000Y-51170000D01*
X50450000Y-57520000D02*
X50450000Y-58520000D01*
X52150000Y-58520000D02*
X52150000Y-57520000D01*
X58690000Y-46170000D02*
X59690000Y-46170000D01*
X59690000Y-44470000D02*
X58690000Y-44470000D01*
X55880000Y-44470000D02*
X54880000Y-44470000D01*
X54880000Y-46170000D02*
X55880000Y-46170000D01*
X103470000Y-50225000D02*
X103470000Y-49225000D01*
X101770000Y-49225000D02*
X101770000Y-50225000D01*
X90925000Y-57350000D02*
X90925000Y-56350000D01*
X89225000Y-56350000D02*
X89225000Y-57350000D01*
X98040000Y-45765000D02*
X99040000Y-45765000D01*
X99040000Y-44065000D02*
X98040000Y-44065000D01*
X94500000Y-44065000D02*
X93500000Y-44065000D01*
X93500000Y-45765000D02*
X94500000Y-45765000D01*
X119980000Y-52765000D02*
X119980000Y-51765000D01*
X118280000Y-51765000D02*
X118280000Y-52765000D01*
X106010000Y-58115000D02*
X106010000Y-57115000D01*
X104310000Y-57115000D02*
X104310000Y-58115000D01*
X113280000Y-48305000D02*
X114280000Y-48305000D01*
X114280000Y-46605000D02*
X113280000Y-46605000D01*
X109470000Y-46605000D02*
X108470000Y-46605000D01*
X108470000Y-48305000D02*
X109470000Y-48305000D01*
X106680000Y-28390000D02*
X107680000Y-28390000D01*
X107680000Y-26690000D02*
X106680000Y-26690000D01*
X106950000Y-37280000D02*
X107950000Y-37280000D01*
X107950000Y-35580000D02*
X106950000Y-35580000D01*
X97520000Y-30500000D02*
X96520000Y-30500000D01*
X96520000Y-32200000D02*
X97520000Y-32200000D01*
X86440000Y-22690000D02*
X86440000Y-21690000D01*
X84740000Y-21690000D02*
X84740000Y-22690000D01*
X84740000Y-27310000D02*
X84740000Y-28310000D01*
X86440000Y-28310000D02*
X86440000Y-27310000D01*
X90900000Y-17800000D02*
X89900000Y-17800000D01*
X89900000Y-19500000D02*
X90900000Y-19500000D01*
X11581000Y-78943000D02*
X11381000Y-78943000D01*
X8987000Y-78943000D02*
X9167000Y-78943000D01*
X9297357Y-75715256D02*
G75*
G03X8981000Y-78943000I1003643J-1727744D01*
G01*
X9167932Y-76390994D02*
G75*
G03X9167000Y-78494000I1133068J-1052006D01*
G01*
X11607726Y-78930220D02*
G75*
G03X11261000Y-75693000I-1306726J1497220D01*
G01*
X11380253Y-78456889D02*
G75*
G03X11361000Y-76409000I-1079253J1013889D01*
G01*
X113528117Y-33522817D02*
X114925117Y-33522817D01*
X109083117Y-33522817D02*
X107559117Y-33522817D01*
X109464117Y-32760817D02*
X109464117Y-34284817D01*
X109210117Y-32760817D02*
X109210117Y-34284817D01*
X108956117Y-33522817D02*
X108956117Y-34284817D01*
X108956117Y-34284817D02*
X113528117Y-34284817D01*
X113528117Y-34284817D02*
X113528117Y-32760817D01*
X113528117Y-32760817D02*
X108956117Y-32760817D01*
X108956117Y-32760817D02*
X108956117Y-33522817D01*
X108955597Y-29715357D02*
X107558597Y-29715357D01*
X113400597Y-29715357D02*
X114924597Y-29715357D01*
X113019597Y-30477357D02*
X113019597Y-28953357D01*
X113273597Y-30477357D02*
X113273597Y-28953357D01*
X113527597Y-29715357D02*
X113527597Y-28953357D01*
X113527597Y-28953357D02*
X108955597Y-28953357D01*
X108955597Y-28953357D02*
X108955597Y-30477357D01*
X108955597Y-30477357D02*
X113527597Y-30477357D01*
X113527597Y-30477357D02*
X113527597Y-29715357D01*
X9100000Y-57490000D02*
X8700000Y-57490000D01*
X9100000Y-61090000D02*
X8700000Y-61090000D01*
X10200000Y-53990000D02*
X10200000Y-64590000D01*
X9100000Y-53990000D02*
X9100000Y-64590000D01*
X16300000Y-53990000D02*
X8700000Y-53990000D01*
X8700000Y-64590000D02*
X16300000Y-64590000D01*
X16300000Y-64590000D02*
X16300000Y-53990000D01*
X68660900Y4502100D02*
X79659100Y5302200D01*
X68660900Y3702000D02*
X79659100Y4502100D01*
X68660900Y2901900D02*
X79659100Y3702000D01*
X68660900Y2101800D02*
X79659100Y2901900D01*
X68660900Y1301700D02*
X79659100Y2101800D01*
X68660900Y501600D02*
X79659100Y1301700D01*
X75160760Y15401240D02*
G75*
G03X75160760Y15401240I-1000760J0D01*
G01*
X78960600Y7400240D02*
X78960600Y19401740D01*
X78960600Y19401740D02*
X69359400Y19401740D01*
X69359400Y19401740D02*
X69359400Y7400240D01*
X79659100Y-97840D02*
X79659100Y7400240D01*
X79659100Y7400240D02*
X68660900Y7400240D01*
X68660900Y7400240D02*
X68660900Y-97840D01*
X66359660Y-14499640D02*
X81960340Y-14499640D01*
X81960340Y-14499640D02*
X81960340Y-97840D01*
X81960340Y-97840D02*
X66359660Y-97840D01*
X66359660Y-97840D02*
X66359660Y-14499640D01*
X50898680Y4580840D02*
X61896880Y5380940D01*
X50898680Y3780740D02*
X61896880Y4580840D01*
X50898680Y2980640D02*
X61896880Y3780740D01*
X50898680Y2180540D02*
X61896880Y2980640D01*
X50898680Y1380440D02*
X61896880Y2180540D01*
X50898680Y580340D02*
X61896880Y1380440D01*
X57398540Y15479980D02*
G75*
G03X57398540Y15479980I-1000760J0D01*
G01*
X61198380Y7478980D02*
X61198380Y19480480D01*
X61198380Y19480480D02*
X51597180Y19480480D01*
X51597180Y19480480D02*
X51597180Y7478980D01*
X61896880Y-19100D02*
X61896880Y7478980D01*
X61896880Y7478980D02*
X50898680Y7478980D01*
X50898680Y7478980D02*
X50898680Y-19100D01*
X48597440Y-14420900D02*
X64198120Y-14420900D01*
X64198120Y-14420900D02*
X64198120Y-19100D01*
X64198120Y-19100D02*
X48597440Y-19100D01*
X48597440Y-19100D02*
X48597440Y-14420900D01*
X34701293Y4572335D02*
X45699493Y5372435D01*
X34701293Y3772235D02*
X45699493Y4572335D01*
X34701293Y2972135D02*
X45699493Y3772235D01*
X34701293Y2172035D02*
X45699493Y2972135D01*
X34701293Y1371935D02*
X45699493Y2172035D01*
X34701293Y571835D02*
X45699493Y1371935D01*
X41201153Y15471475D02*
G75*
G03X41201153Y15471475I-1000760J0D01*
G01*
X45000993Y7470475D02*
X45000993Y19471975D01*
X45000993Y19471975D02*
X35399793Y19471975D01*
X35399793Y19471975D02*
X35399793Y7470475D01*
X45699493Y-27605D02*
X45699493Y7470475D01*
X45699493Y7470475D02*
X34701293Y7470475D01*
X34701293Y7470475D02*
X34701293Y-27605D01*
X32400053Y-14429405D02*
X48000733Y-14429405D01*
X48000733Y-14429405D02*
X48000733Y-27605D01*
X48000733Y-27605D02*
X32400053Y-27605D01*
X32400053Y-27605D02*
X32400053Y-14429405D01*
X14050900Y4600840D02*
X25049100Y5400940D01*
X14050900Y3800740D02*
X25049100Y4600840D01*
X14050900Y3000640D02*
X25049100Y3800740D01*
X14050900Y2200540D02*
X25049100Y3000640D01*
X14050900Y1400440D02*
X25049100Y2200540D01*
X14050900Y600340D02*
X25049100Y1400440D01*
X20550760Y15499980D02*
G75*
G03X20550760Y15499980I-1000760J0D01*
G01*
X24350600Y7498980D02*
X24350600Y19500480D01*
X24350600Y19500480D02*
X14749400Y19500480D01*
X14749400Y19500480D02*
X14749400Y7498980D01*
X25049100Y900D02*
X25049100Y7498980D01*
X25049100Y7498980D02*
X14050900Y7498980D01*
X14050900Y7498980D02*
X14050900Y900D01*
X11749660Y-14400900D02*
X27350340Y-14400900D01*
X27350340Y-14400900D02*
X27350340Y900D01*
X27350340Y900D02*
X11749660Y900D01*
X11749660Y900D02*
X11749660Y-14400900D01*
X86440900Y4580840D02*
X97439100Y5380940D01*
X86440900Y3780740D02*
X97439100Y4580840D01*
X86440900Y2980640D02*
X97439100Y3780740D01*
X86440900Y2180540D02*
X97439100Y2980640D01*
X86440900Y1380440D02*
X97439100Y2180540D01*
X86440900Y580340D02*
X97439100Y1380440D01*
X92940760Y15479980D02*
G75*
G03X92940760Y15479980I-1000760J0D01*
G01*
X96740600Y7478980D02*
X96740600Y19480480D01*
X96740600Y19480480D02*
X87139400Y19480480D01*
X87139400Y19480480D02*
X87139400Y7478980D01*
X97439100Y-19100D02*
X97439100Y7478980D01*
X97439100Y7478980D02*
X86440900Y7478980D01*
X86440900Y7478980D02*
X86440900Y-19100D01*
X84139660Y-14420900D02*
X99740340Y-14420900D01*
X99740340Y-14420900D02*
X99740340Y-19100D01*
X99740340Y-19100D02*
X84139660Y-19100D01*
X84139660Y-19100D02*
X84139660Y-14420900D01*
X81110000Y-18255000D02*
X79910000Y-18255000D01*
X79910000Y-16505000D02*
X81110000Y-16505000D01*
X9192000Y-72871000D02*
X9192000Y-70871000D01*
X11342000Y-70871000D02*
X11342000Y-72871000D01*
X21300000Y-17825000D02*
X19300000Y-17825000D01*
X19300000Y-15675000D02*
X21300000Y-15675000D01*
X47505000Y-43960000D02*
X47505000Y-41960000D01*
X49655000Y-41960000D02*
X49655000Y-43960000D01*
X86665000Y-57020000D02*
X86665000Y-59020000D01*
X84515000Y-59020000D02*
X84515000Y-57020000D01*
X82855000Y-57020000D02*
X82855000Y-59020000D01*
X80705000Y-59020000D02*
X80705000Y-57020000D01*
X64195000Y-43960000D02*
X64195000Y-41960000D01*
X66345000Y-41960000D02*
X66345000Y-43960000D01*
X118935000Y-60245000D02*
X118935000Y-62245000D01*
X116785000Y-62245000D02*
X116785000Y-60245000D01*
X113725000Y-18560000D02*
X113725000Y-16560000D01*
X115875000Y-16560000D02*
X115875000Y-18560000D01*
X106105000Y-18560000D02*
X106105000Y-16560000D01*
X108255000Y-16560000D02*
X108255000Y-18560000D01*
X102930000Y-18560000D02*
X102930000Y-16560000D01*
X105080000Y-16560000D02*
X105080000Y-18560000D01*
X110550000Y-18560000D02*
X110550000Y-16560000D01*
X112700000Y-16560000D02*
X112700000Y-18560000D01*
X42918000Y-79356000D02*
X44188000Y-79356000D01*
X43667300Y-78568600D02*
X43413300Y-78606700D01*
X43413300Y-78606700D02*
X43133900Y-78784500D01*
X43133900Y-78784500D02*
X42918000Y-79102000D01*
X42918000Y-79102000D02*
X42905300Y-79546500D01*
X42905300Y-79546500D02*
X43108500Y-79902100D01*
X43108500Y-79902100D02*
X43400600Y-80079900D01*
X43400600Y-80079900D02*
X43718100Y-80130700D01*
X43718100Y-80130700D02*
X44124500Y-80029100D01*
X44124500Y-80029100D02*
X44378500Y-79686200D01*
X44378500Y-79686200D02*
X44467400Y-79508400D01*
X46728000Y-70974000D02*
X46728000Y-80626000D01*
X43680000Y-80626000D02*
X42410000Y-80626000D01*
X42410000Y-80626000D02*
X42410000Y-70974000D01*
X42410000Y-70974000D02*
X47490000Y-70974000D01*
X47490000Y-80626000D02*
X44950000Y-80626000D01*
X44950000Y-80626000D02*
X43680000Y-80626000D01*
X65778000Y-79356000D02*
X67048000Y-79356000D01*
X66527300Y-78568600D02*
X66273300Y-78606700D01*
X66273300Y-78606700D02*
X65993900Y-78784500D01*
X65993900Y-78784500D02*
X65778000Y-79102000D01*
X65778000Y-79102000D02*
X65765300Y-79546500D01*
X65765300Y-79546500D02*
X65968500Y-79902100D01*
X65968500Y-79902100D02*
X66260600Y-80079900D01*
X66260600Y-80079900D02*
X66578100Y-80130700D01*
X66578100Y-80130700D02*
X66984500Y-80029100D01*
X66984500Y-80029100D02*
X67238500Y-79686200D01*
X67238500Y-79686200D02*
X67327400Y-79508400D01*
X69588000Y-70974000D02*
X69588000Y-80626000D01*
X66540000Y-80626000D02*
X65270000Y-80626000D01*
X65270000Y-80626000D02*
X65270000Y-70974000D01*
X65270000Y-70974000D02*
X70350000Y-70974000D01*
X70350000Y-80626000D02*
X67810000Y-80626000D01*
X67810000Y-80626000D02*
X66540000Y-80626000D01*
X54348000Y-79356000D02*
X55618000Y-79356000D01*
X55097300Y-78568600D02*
X54843300Y-78606700D01*
X54843300Y-78606700D02*
X54563900Y-78784500D01*
X54563900Y-78784500D02*
X54348000Y-79102000D01*
X54348000Y-79102000D02*
X54335300Y-79546500D01*
X54335300Y-79546500D02*
X54538500Y-79902100D01*
X54538500Y-79902100D02*
X54830600Y-80079900D01*
X54830600Y-80079900D02*
X55148100Y-80130700D01*
X55148100Y-80130700D02*
X55554500Y-80029100D01*
X55554500Y-80029100D02*
X55808500Y-79686200D01*
X55808500Y-79686200D02*
X55897400Y-79508400D01*
X58158000Y-70974000D02*
X58158000Y-80626000D01*
X55110000Y-80626000D02*
X53840000Y-80626000D01*
X53840000Y-80626000D02*
X53840000Y-70974000D01*
X53840000Y-70974000D02*
X58920000Y-70974000D01*
X58920000Y-80626000D02*
X56380000Y-80626000D01*
X56380000Y-80626000D02*
X55110000Y-80626000D01*
X81468000Y-79231000D02*
X82738000Y-79231000D01*
X82217300Y-78443600D02*
X81963300Y-78481700D01*
X81963300Y-78481700D02*
X81683900Y-78659500D01*
X81683900Y-78659500D02*
X81468000Y-78977000D01*
X81468000Y-78977000D02*
X81455300Y-79421500D01*
X81455300Y-79421500D02*
X81658500Y-79777100D01*
X81658500Y-79777100D02*
X81950600Y-79954900D01*
X81950600Y-79954900D02*
X82268100Y-80005700D01*
X82268100Y-80005700D02*
X82674500Y-79904100D01*
X82674500Y-79904100D02*
X82928500Y-79561200D01*
X82928500Y-79561200D02*
X83017400Y-79383400D01*
X85278000Y-70849000D02*
X85278000Y-80501000D01*
X82230000Y-80501000D02*
X80960000Y-80501000D01*
X80960000Y-80501000D02*
X80960000Y-70849000D01*
X80960000Y-70849000D02*
X86040000Y-70849000D01*
X86040000Y-80501000D02*
X83500000Y-80501000D01*
X83500000Y-80501000D02*
X82230000Y-80501000D01*
X89468000Y-78951000D02*
X90738000Y-78951000D01*
X90217300Y-78163600D02*
X89963300Y-78201700D01*
X89963300Y-78201700D02*
X89683900Y-78379500D01*
X89683900Y-78379500D02*
X89468000Y-78697000D01*
X89468000Y-78697000D02*
X89455300Y-79141500D01*
X89455300Y-79141500D02*
X89658500Y-79497100D01*
X89658500Y-79497100D02*
X89950600Y-79674900D01*
X89950600Y-79674900D02*
X90268100Y-79725700D01*
X90268100Y-79725700D02*
X90674500Y-79624100D01*
X90674500Y-79624100D02*
X90928500Y-79281200D01*
X90928500Y-79281200D02*
X91017400Y-79103400D01*
X93278000Y-70569000D02*
X93278000Y-80221000D01*
X90230000Y-80221000D02*
X88960000Y-80221000D01*
X88960000Y-80221000D02*
X88960000Y-70569000D01*
X88960000Y-70569000D02*
X94040000Y-70569000D01*
X94040000Y-80221000D02*
X91500000Y-80221000D01*
X91500000Y-80221000D02*
X90230000Y-80221000D01*
X104468000Y-78951000D02*
X105738000Y-78951000D01*
X105217300Y-78163600D02*
X104963300Y-78201700D01*
X104963300Y-78201700D02*
X104683900Y-78379500D01*
X104683900Y-78379500D02*
X104468000Y-78697000D01*
X104468000Y-78697000D02*
X104455300Y-79141500D01*
X104455300Y-79141500D02*
X104658500Y-79497100D01*
X104658500Y-79497100D02*
X104950600Y-79674900D01*
X104950600Y-79674900D02*
X105268100Y-79725700D01*
X105268100Y-79725700D02*
X105674500Y-79624100D01*
X105674500Y-79624100D02*
X105928500Y-79281200D01*
X105928500Y-79281200D02*
X106017400Y-79103400D01*
X108278000Y-70569000D02*
X108278000Y-80221000D01*
X105230000Y-80221000D02*
X103960000Y-80221000D01*
X103960000Y-80221000D02*
X103960000Y-70569000D01*
X103960000Y-70569000D02*
X109040000Y-70569000D01*
X109040000Y-80221000D02*
X106500000Y-80221000D01*
X106500000Y-80221000D02*
X105230000Y-80221000D01*
X116968000Y-78951000D02*
X118238000Y-78951000D01*
X117717300Y-78163600D02*
X117463300Y-78201700D01*
X117463300Y-78201700D02*
X117183900Y-78379500D01*
X117183900Y-78379500D02*
X116968000Y-78697000D01*
X116968000Y-78697000D02*
X116955300Y-79141500D01*
X116955300Y-79141500D02*
X117158500Y-79497100D01*
X117158500Y-79497100D02*
X117450600Y-79674900D01*
X117450600Y-79674900D02*
X117768100Y-79725700D01*
X117768100Y-79725700D02*
X118174500Y-79624100D01*
X118174500Y-79624100D02*
X118428500Y-79281200D01*
X118428500Y-79281200D02*
X118517400Y-79103400D01*
X120778000Y-70569000D02*
X120778000Y-80221000D01*
X117730000Y-80221000D02*
X116460000Y-80221000D01*
X116460000Y-80221000D02*
X116460000Y-70569000D01*
X116460000Y-70569000D02*
X121540000Y-70569000D01*
X121540000Y-80221000D02*
X119000000Y-80221000D01*
X119000000Y-80221000D02*
X117730000Y-80221000D01*
X23106000Y-34652000D02*
X23106000Y-35795000D01*
X26154000Y-34652000D02*
X26154000Y-35795000D01*
X29964000Y-35795000D02*
X29964000Y-39478000D01*
X29964000Y-39478000D02*
X19296000Y-39478000D01*
X19296000Y-39478000D02*
X19296000Y-35795000D01*
X29964000Y-34652000D02*
X29964000Y-35795000D01*
X29964000Y-35795000D02*
X19296000Y-35795000D01*
X19296000Y-35795000D02*
X19296000Y-34652000D01*
X24630000Y-34652000D02*
X19296000Y-34652000D01*
X24630000Y-34652000D02*
X29964000Y-34652000D01*
X55365000Y-32045000D02*
X55365000Y-30775000D01*
X48015000Y-32045000D02*
X48015000Y-30775000D01*
X48015000Y-19835000D02*
X48015000Y-21105000D01*
X55365000Y-19835000D02*
X55365000Y-21105000D01*
X55365000Y-32045000D02*
X48015000Y-32045000D01*
X55365000Y-19835000D02*
X48015000Y-19835000D01*
X55365000Y-30775000D02*
X56300000Y-30775000D01*
X34925000Y-46835000D02*
X34925000Y-48105000D01*
X42275000Y-46835000D02*
X42275000Y-48105000D01*
X42275000Y-59045000D02*
X42275000Y-57775000D01*
X34925000Y-59045000D02*
X34925000Y-57775000D01*
X34925000Y-46835000D02*
X42275000Y-46835000D01*
X34925000Y-59045000D02*
X42275000Y-59045000D01*
X34925000Y-48105000D02*
X33990000Y-48105000D01*
X83939000Y-52305000D02*
X83939000Y-47225000D01*
X83939000Y-47225000D02*
X88511000Y-47225000D01*
X88511000Y-47225000D02*
X88511000Y-52305000D01*
X88511000Y-52305000D02*
X83939000Y-52305000D01*
X85463000Y-52305000D02*
X85463000Y-51797000D01*
X85463000Y-51797000D02*
X86733000Y-51797000D01*
X86733000Y-51797000D02*
X86733000Y-52305000D01*
X69783785Y-45733415D02*
X69783785Y-47003415D01*
X77133785Y-45733415D02*
X77133785Y-47003415D01*
X77133785Y-57943415D02*
X77133785Y-56673415D01*
X69783785Y-57943415D02*
X69783785Y-56673415D01*
X69783785Y-45733415D02*
X77133785Y-45733415D01*
X69783785Y-57943415D02*
X77133785Y-57943415D01*
X69783785Y-47003415D02*
X68848785Y-47003415D01*
X53975000Y-46835000D02*
X53975000Y-48105000D01*
X61325000Y-46835000D02*
X61325000Y-48105000D01*
X61325000Y-59045000D02*
X61325000Y-57775000D01*
X53975000Y-59045000D02*
X53975000Y-57775000D01*
X53975000Y-46835000D02*
X61325000Y-46835000D01*
X53975000Y-59045000D02*
X61325000Y-59045000D01*
X53975000Y-48105000D02*
X53040000Y-48105000D01*
X92595000Y-46430000D02*
X92595000Y-47700000D01*
X99945000Y-46430000D02*
X99945000Y-47700000D01*
X99945000Y-58640000D02*
X99945000Y-57370000D01*
X92595000Y-58640000D02*
X92595000Y-57370000D01*
X92595000Y-46430000D02*
X99945000Y-46430000D01*
X92595000Y-58640000D02*
X99945000Y-58640000D01*
X92595000Y-47700000D02*
X91660000Y-47700000D01*
X107835000Y-48970000D02*
X107835000Y-50240000D01*
X115185000Y-48970000D02*
X115185000Y-50240000D01*
X115185000Y-61180000D02*
X115185000Y-59910000D01*
X107835000Y-61180000D02*
X107835000Y-59910000D01*
X107835000Y-48970000D02*
X115185000Y-48970000D01*
X107835000Y-61180000D02*
X115185000Y-61180000D01*
X107835000Y-50240000D02*
X106900000Y-50240000D01*
X87105000Y-28675000D02*
X88375000Y-28675000D01*
X87105000Y-21325000D02*
X88375000Y-21325000D01*
X99315000Y-21325000D02*
X98045000Y-21325000D01*
X99315000Y-28675000D02*
X98045000Y-28675000D01*
X87105000Y-28675000D02*
X87105000Y-21325000D01*
X99315000Y-28675000D02*
X99315000Y-21325000D01*
X88375000Y-28675000D02*
X88375000Y-29610000D01*
X39518219Y-68230000D02*
G75*
G03X39518219Y-68230000I-803219J0D01*
G01*
X45753219Y-68180000D02*
G75*
G03X45753219Y-68180000I-803219J0D01*
G01*
X68613219Y-68180000D02*
G75*
G03X68613219Y-68180000I-803219J0D01*
G01*
X57183219Y-68180000D02*
G75*
G03X57183219Y-68180000I-803219J0D01*
G01*
X84163219Y-68000000D02*
G75*
G03X84163219Y-68000000I-803219J0D01*
G01*
X101193219Y-67775000D02*
G75*
G03X101193219Y-67775000I-803219J0D01*
G01*
X107543219Y-67775000D02*
G75*
G03X107543219Y-67775000I-803219J0D01*
G01*
X33765000Y-29420105D02*
X35035000Y-29420105D01*
X33765000Y-22070105D02*
X35035000Y-22070105D01*
X45975000Y-22070105D02*
X44705000Y-22070105D01*
X45975000Y-29420105D02*
X44705000Y-29420105D01*
X33765000Y-29420105D02*
X33765000Y-22070105D01*
X45975000Y-29420105D02*
X45975000Y-22070105D01*
X35035000Y-29420105D02*
X35035000Y-30355105D01*
X79435000Y-43960000D02*
X79435000Y-41960000D01*
X81585000Y-41960000D02*
X81585000Y-43960000D01*
X28359000Y-47895000D02*
X18361000Y-47895000D01*
X28355000Y-48035000D02*
X18365000Y-48035000D01*
X28347000Y-48175000D02*
X18373000Y-48175000D01*
X28335000Y-48315000D02*
X18385000Y-48315000D01*
X28320000Y-48455000D02*
X18400000Y-48455000D01*
X28300000Y-48595000D02*
X18420000Y-48595000D01*
X28276000Y-48735000D02*
X18444000Y-48735000D01*
X28247000Y-48875000D02*
X18473000Y-48875000D01*
X28215000Y-49015000D02*
X18505000Y-49015000D01*
X28178000Y-49155000D02*
X18542000Y-49155000D01*
X28137000Y-49295000D02*
X18583000Y-49295000D01*
X28092000Y-49435000D02*
X23826000Y-49435000D01*
X22894000Y-49435000D02*
X18628000Y-49435000D01*
X28042000Y-49575000D02*
X24027000Y-49575000D01*
X22693000Y-49575000D02*
X18678000Y-49575000D01*
X27987000Y-49715000D02*
X24156000Y-49715000D01*
X22564000Y-49715000D02*
X18733000Y-49715000D01*
X27927000Y-49855000D02*
X24245000Y-49855000D01*
X22475000Y-49855000D02*
X18793000Y-49855000D01*
X27862000Y-49995000D02*
X24306000Y-49995000D01*
X22414000Y-49995000D02*
X18858000Y-49995000D01*
X27792000Y-50135000D02*
X24343000Y-50135000D01*
X22377000Y-50135000D02*
X18928000Y-50135000D01*
X27716000Y-50275000D02*
X24359000Y-50275000D01*
X22361000Y-50275000D02*
X19004000Y-50275000D01*
X27634000Y-50415000D02*
X24355000Y-50415000D01*
X22365000Y-50415000D02*
X19086000Y-50415000D01*
X27546000Y-50555000D02*
X24332000Y-50555000D01*
X22388000Y-50555000D02*
X19174000Y-50555000D01*
X27451000Y-50695000D02*
X24287000Y-50695000D01*
X22433000Y-50695000D02*
X19269000Y-50695000D01*
X27349000Y-50835000D02*
X24217000Y-50835000D01*
X22503000Y-50835000D02*
X19371000Y-50835000D01*
X27239000Y-50975000D02*
X24116000Y-50975000D01*
X22604000Y-50975000D02*
X19481000Y-50975000D01*
X27121000Y-51115000D02*
X23967000Y-51115000D01*
X22753000Y-51115000D02*
X19599000Y-51115000D01*
X26993000Y-51255000D02*
X23715000Y-51255000D01*
X23005000Y-51255000D02*
X19727000Y-51255000D01*
X26856000Y-51395000D02*
X19864000Y-51395000D01*
X26706000Y-51535000D02*
X20014000Y-51535000D01*
X26544000Y-51675000D02*
X20176000Y-51675000D01*
X26367000Y-51815000D02*
X20353000Y-51815000D01*
X26171000Y-51955000D02*
X20549000Y-51955000D01*
X25953000Y-52095000D02*
X20767000Y-52095000D01*
X25707000Y-52235000D02*
X21013000Y-52235000D01*
X25422000Y-52375000D02*
X21298000Y-52375000D01*
X25080000Y-52515000D02*
X21640000Y-52515000D01*
X24634000Y-52655000D02*
X22086000Y-52655000D01*
X23859000Y-52795000D02*
X22861000Y-52795000D01*
X24360000Y-50320000D02*
G75*
G03X24360000Y-50320000I-1000000J0D01*
G01*
X28397500Y-47820000D02*
G75*
G03X28397500Y-47820000I-5037500J0D01*
G01*
X28359000Y-59325000D02*
X18361000Y-59325000D01*
X28355000Y-59465000D02*
X18365000Y-59465000D01*
X28347000Y-59605000D02*
X18373000Y-59605000D01*
X28335000Y-59745000D02*
X18385000Y-59745000D01*
X28320000Y-59885000D02*
X18400000Y-59885000D01*
X28300000Y-60025000D02*
X18420000Y-60025000D01*
X28276000Y-60165000D02*
X18444000Y-60165000D01*
X28247000Y-60305000D02*
X18473000Y-60305000D01*
X28215000Y-60445000D02*
X18505000Y-60445000D01*
X28178000Y-60585000D02*
X18542000Y-60585000D01*
X28137000Y-60725000D02*
X18583000Y-60725000D01*
X28092000Y-60865000D02*
X23826000Y-60865000D01*
X22894000Y-60865000D02*
X18628000Y-60865000D01*
X28042000Y-61005000D02*
X24027000Y-61005000D01*
X22693000Y-61005000D02*
X18678000Y-61005000D01*
X27987000Y-61145000D02*
X24156000Y-61145000D01*
X22564000Y-61145000D02*
X18733000Y-61145000D01*
X27927000Y-61285000D02*
X24245000Y-61285000D01*
X22475000Y-61285000D02*
X18793000Y-61285000D01*
X27862000Y-61425000D02*
X24306000Y-61425000D01*
X22414000Y-61425000D02*
X18858000Y-61425000D01*
X27792000Y-61565000D02*
X24343000Y-61565000D01*
X22377000Y-61565000D02*
X18928000Y-61565000D01*
X27716000Y-61705000D02*
X24359000Y-61705000D01*
X22361000Y-61705000D02*
X19004000Y-61705000D01*
X27634000Y-61845000D02*
X24355000Y-61845000D01*
X22365000Y-61845000D02*
X19086000Y-61845000D01*
X27546000Y-61985000D02*
X24332000Y-61985000D01*
X22388000Y-61985000D02*
X19174000Y-61985000D01*
X27451000Y-62125000D02*
X24287000Y-62125000D01*
X22433000Y-62125000D02*
X19269000Y-62125000D01*
X27349000Y-62265000D02*
X24217000Y-62265000D01*
X22503000Y-62265000D02*
X19371000Y-62265000D01*
X27239000Y-62405000D02*
X24116000Y-62405000D01*
X22604000Y-62405000D02*
X19481000Y-62405000D01*
X27121000Y-62545000D02*
X23967000Y-62545000D01*
X22753000Y-62545000D02*
X19599000Y-62545000D01*
X26993000Y-62685000D02*
X23715000Y-62685000D01*
X23005000Y-62685000D02*
X19727000Y-62685000D01*
X26856000Y-62825000D02*
X19864000Y-62825000D01*
X26706000Y-62965000D02*
X20014000Y-62965000D01*
X26544000Y-63105000D02*
X20176000Y-63105000D01*
X26367000Y-63245000D02*
X20353000Y-63245000D01*
X26171000Y-63385000D02*
X20549000Y-63385000D01*
X25953000Y-63525000D02*
X20767000Y-63525000D01*
X25707000Y-63665000D02*
X21013000Y-63665000D01*
X25422000Y-63805000D02*
X21298000Y-63805000D01*
X25080000Y-63945000D02*
X21640000Y-63945000D01*
X24634000Y-64085000D02*
X22086000Y-64085000D01*
X23859000Y-64225000D02*
X22861000Y-64225000D01*
X24360000Y-61750000D02*
G75*
G03X24360000Y-61750000I-1000000J0D01*
G01*
X28397500Y-59250000D02*
G75*
G03X28397500Y-59250000I-5037500J0D01*
G01*
X70223000Y-62299900D02*
X70022340Y-62299900D01*
X70223000Y-62299900D02*
X70423660Y-62299900D01*
X70322060Y-63900100D02*
X70423660Y-63900100D01*
X70423660Y-63900100D02*
X70022340Y-63900100D01*
X13085000Y-47779000D02*
X13085000Y-37781000D01*
X12945000Y-47775000D02*
X12945000Y-37785000D01*
X12805000Y-47767000D02*
X12805000Y-37793000D01*
X12665000Y-47755000D02*
X12665000Y-37805000D01*
X12525000Y-47740000D02*
X12525000Y-37820000D01*
X12385000Y-47720000D02*
X12385000Y-37840000D01*
X12245000Y-47696000D02*
X12245000Y-37864000D01*
X12105000Y-47667000D02*
X12105000Y-37893000D01*
X11965000Y-47635000D02*
X11965000Y-37925000D01*
X11825000Y-47598000D02*
X11825000Y-37962000D01*
X11685000Y-47557000D02*
X11685000Y-38003000D01*
X11545000Y-47512000D02*
X11545000Y-43246000D01*
X11545000Y-42314000D02*
X11545000Y-38048000D01*
X11405000Y-47462000D02*
X11405000Y-43447000D01*
X11405000Y-42113000D02*
X11405000Y-38098000D01*
X11265000Y-47407000D02*
X11265000Y-43576000D01*
X11265000Y-41984000D02*
X11265000Y-38153000D01*
X11125000Y-47347000D02*
X11125000Y-43665000D01*
X11125000Y-41895000D02*
X11125000Y-38213000D01*
X10985000Y-47282000D02*
X10985000Y-43726000D01*
X10985000Y-41834000D02*
X10985000Y-38278000D01*
X10845000Y-47212000D02*
X10845000Y-43763000D01*
X10845000Y-41797000D02*
X10845000Y-38348000D01*
X10705000Y-47136000D02*
X10705000Y-43779000D01*
X10705000Y-41781000D02*
X10705000Y-38424000D01*
X10565000Y-47054000D02*
X10565000Y-43775000D01*
X10565000Y-41785000D02*
X10565000Y-38506000D01*
X10425000Y-46966000D02*
X10425000Y-43752000D01*
X10425000Y-41808000D02*
X10425000Y-38594000D01*
X10285000Y-46871000D02*
X10285000Y-43707000D01*
X10285000Y-41853000D02*
X10285000Y-38689000D01*
X10145000Y-46769000D02*
X10145000Y-43637000D01*
X10145000Y-41923000D02*
X10145000Y-38791000D01*
X10005000Y-46659000D02*
X10005000Y-43536000D01*
X10005000Y-42024000D02*
X10005000Y-38901000D01*
X9865000Y-46541000D02*
X9865000Y-43387000D01*
X9865000Y-42173000D02*
X9865000Y-39019000D01*
X9725000Y-46413000D02*
X9725000Y-43135000D01*
X9725000Y-42425000D02*
X9725000Y-39147000D01*
X9585000Y-46276000D02*
X9585000Y-39284000D01*
X9445000Y-46126000D02*
X9445000Y-39434000D01*
X9305000Y-45964000D02*
X9305000Y-39596000D01*
X9165000Y-45787000D02*
X9165000Y-39773000D01*
X9025000Y-45591000D02*
X9025000Y-39969000D01*
X8885000Y-45373000D02*
X8885000Y-40187000D01*
X8745000Y-45127000D02*
X8745000Y-40433000D01*
X8605000Y-44842000D02*
X8605000Y-40718000D01*
X8465000Y-44500000D02*
X8465000Y-41060000D01*
X8325000Y-44054000D02*
X8325000Y-41506000D01*
X8185000Y-43279000D02*
X8185000Y-42281000D01*
X11660000Y-42780000D02*
G75*
G03X11660000Y-42780000I-1000000J0D01*
G01*
X18197500Y-42780000D02*
G75*
G03X18197500Y-42780000I-5037500J0D01*
G01*
X93083000Y-63569900D02*
X92882340Y-63569900D01*
X93083000Y-63569900D02*
X93283660Y-63569900D01*
X93182060Y-65170100D02*
X93283660Y-65170100D01*
X93283660Y-65170100D02*
X92882340Y-65170100D01*
X57080000Y-22815000D02*
X57080000Y-27895000D01*
X57080000Y-27895000D02*
X59620000Y-27895000D01*
X59620000Y-27895000D02*
X59620000Y-22815000D01*
X59900000Y-19995000D02*
X59900000Y-21545000D01*
X59620000Y-22815000D02*
X57080000Y-22815000D01*
X56800000Y-21545000D02*
X56800000Y-19995000D01*
X56800000Y-19995000D02*
X59900000Y-19995000D01*
X119803219Y-68250000D02*
G75*
G03X119803219Y-68250000I-803219J0D01*
G01*
X116050000Y-67650000D02*
X116050000Y-74000000D01*
X109450000Y-67650000D02*
X116050000Y-67650000D01*
X109450000Y-80350000D02*
X109450000Y-67650000D01*
X116050000Y-80350000D02*
X109450000Y-80350000D01*
X116050000Y-74000000D02*
X116050000Y-80350000D01*
X15787617Y-20881260D02*
G75*
G03X15787617Y-20881260I-292617J0D01*
G01*
X12620000Y-24656260D02*
X16320000Y-24656260D01*
X16320000Y-20106260D02*
X16320000Y-24656260D01*
X12620000Y-20106260D02*
X12620000Y-24656260D01*
X12620000Y-20106260D02*
X16320000Y-20106260D01*
X98529762Y-70302381D02*
X98196428Y-69826190D01*
X97958333Y-70302381D02*
X97958333Y-69302381D01*
X98339286Y-69302381D01*
X98434524Y-69350000D01*
X98482143Y-69397619D01*
X98529762Y-69492857D01*
X98529762Y-69635714D01*
X98482143Y-69730952D01*
X98434524Y-69778571D01*
X98339286Y-69826190D01*
X97958333Y-69826190D01*
X98815476Y-69302381D02*
X99148809Y-70302381D01*
X99482143Y-69302381D01*
X99720238Y-69302381D02*
X100386905Y-69302381D01*
X99958333Y-70302381D01*
X60666667Y-18452381D02*
X60666667Y-19166667D01*
X60619047Y-19309524D01*
X60523809Y-19404762D01*
X60380952Y-19452381D01*
X60285714Y-19452381D01*
X61142857Y-19452381D02*
X61142857Y-18452381D01*
X61523810Y-18452381D01*
X61619048Y-18500000D01*
X61666667Y-18547619D01*
X61714286Y-18642857D01*
X61714286Y-18785714D01*
X61666667Y-18880952D01*
X61619048Y-18928571D01*
X61523810Y-18976190D01*
X61142857Y-18976190D01*
X62666667Y-19452381D02*
X62095238Y-19452381D01*
X62380952Y-19452381D02*
X62380952Y-18452381D01*
X62285714Y-18595238D01*
X62190476Y-18690476D01*
X62095238Y-18738095D01*
X72938095Y-31552381D02*
X72938095Y-32361905D01*
X72985714Y-32457143D01*
X73033333Y-32504762D01*
X73128571Y-32552381D01*
X73319048Y-32552381D01*
X73414286Y-32504762D01*
X73461905Y-32457143D01*
X73509524Y-32361905D01*
X73509524Y-31552381D01*
X73938095Y-31647619D02*
X73985714Y-31600000D01*
X74080952Y-31552381D01*
X74319048Y-31552381D01*
X74414286Y-31600000D01*
X74461905Y-31647619D01*
X74509524Y-31742857D01*
X74509524Y-31838095D01*
X74461905Y-31980952D01*
X73890476Y-32552381D01*
X74509524Y-32552381D01*
X107461905Y-13752381D02*
X107461905Y-14561905D01*
X107509524Y-14657143D01*
X107557143Y-14704762D01*
X107652381Y-14752381D01*
X107842858Y-14752381D01*
X107938096Y-14704762D01*
X107985715Y-14657143D01*
X108033334Y-14561905D01*
X108033334Y-13752381D01*
X109033334Y-14752381D02*
X108461905Y-14752381D01*
X108747619Y-14752381D02*
X108747619Y-13752381D01*
X108652381Y-13895238D01*
X108557143Y-13990476D01*
X108461905Y-14038095D01*
X109366667Y-13752381D02*
X109985715Y-13752381D01*
X109652381Y-14133333D01*
X109795239Y-14133333D01*
X109890477Y-14180952D01*
X109938096Y-14228571D01*
X109985715Y-14323810D01*
X109985715Y-14561905D01*
X109938096Y-14657143D01*
X109890477Y-14704762D01*
X109795239Y-14752381D01*
X109509524Y-14752381D01*
X109414286Y-14704762D01*
X109366667Y-14657143D01*
X67558334Y-18907143D02*
X67510715Y-18954762D01*
X67367858Y-19002381D01*
X67272620Y-19002381D01*
X67129762Y-18954762D01*
X67034524Y-18859524D01*
X66986905Y-18764286D01*
X66939286Y-18573810D01*
X66939286Y-18430952D01*
X66986905Y-18240476D01*
X67034524Y-18145238D01*
X67129762Y-18050000D01*
X67272620Y-18002381D01*
X67367858Y-18002381D01*
X67510715Y-18050000D01*
X67558334Y-18097619D01*
X68415477Y-18335714D02*
X68415477Y-19002381D01*
X68177381Y-17954762D02*
X67939286Y-18669048D01*
X68558334Y-18669048D01*
X23858334Y-41357143D02*
X23810715Y-41404762D01*
X23667858Y-41452381D01*
X23572620Y-41452381D01*
X23429762Y-41404762D01*
X23334524Y-41309524D01*
X23286905Y-41214286D01*
X23239286Y-41023810D01*
X23239286Y-40880952D01*
X23286905Y-40690476D01*
X23334524Y-40595238D01*
X23429762Y-40500000D01*
X23572620Y-40452381D01*
X23667858Y-40452381D01*
X23810715Y-40500000D01*
X23858334Y-40547619D01*
X24763096Y-40452381D02*
X24286905Y-40452381D01*
X24239286Y-40928571D01*
X24286905Y-40880952D01*
X24382143Y-40833333D01*
X24620239Y-40833333D01*
X24715477Y-40880952D01*
X24763096Y-40928571D01*
X24810715Y-41023810D01*
X24810715Y-41261905D01*
X24763096Y-41357143D01*
X24715477Y-41404762D01*
X24620239Y-41452381D01*
X24382143Y-41452381D01*
X24286905Y-41404762D01*
X24239286Y-41357143D01*
X63082143Y-33891666D02*
X63129762Y-33939285D01*
X63177381Y-34082142D01*
X63177381Y-34177380D01*
X63129762Y-34320238D01*
X63034524Y-34415476D01*
X62939286Y-34463095D01*
X62748810Y-34510714D01*
X62605952Y-34510714D01*
X62415476Y-34463095D01*
X62320238Y-34415476D01*
X62225000Y-34320238D01*
X62177381Y-34177380D01*
X62177381Y-34082142D01*
X62225000Y-33939285D01*
X62272619Y-33891666D01*
X62177381Y-33034523D02*
X62177381Y-33225000D01*
X62225000Y-33320238D01*
X62272619Y-33367857D01*
X62415476Y-33463095D01*
X62605952Y-33510714D01*
X62986905Y-33510714D01*
X63082143Y-33463095D01*
X63129762Y-33415476D01*
X63177381Y-33320238D01*
X63177381Y-33129761D01*
X63129762Y-33034523D01*
X63082143Y-32986904D01*
X62986905Y-32939285D01*
X62748810Y-32939285D01*
X62653571Y-32986904D01*
X62605952Y-33034523D01*
X62558333Y-33129761D01*
X62558333Y-33320238D01*
X62605952Y-33415476D01*
X62653571Y-33463095D01*
X62748810Y-33510714D01*
X30783334Y-41532143D02*
X30735715Y-41579762D01*
X30592858Y-41627381D01*
X30497620Y-41627381D01*
X30354762Y-41579762D01*
X30259524Y-41484524D01*
X30211905Y-41389286D01*
X30164286Y-41198810D01*
X30164286Y-41055952D01*
X30211905Y-40865476D01*
X30259524Y-40770238D01*
X30354762Y-40675000D01*
X30497620Y-40627381D01*
X30592858Y-40627381D01*
X30735715Y-40675000D01*
X30783334Y-40722619D01*
X31116667Y-40627381D02*
X31783334Y-40627381D01*
X31354762Y-41627381D01*
X50308334Y-18977143D02*
X50260715Y-19024762D01*
X50117858Y-19072381D01*
X50022620Y-19072381D01*
X49879762Y-19024762D01*
X49784524Y-18929524D01*
X49736905Y-18834286D01*
X49689286Y-18643810D01*
X49689286Y-18500952D01*
X49736905Y-18310476D01*
X49784524Y-18215238D01*
X49879762Y-18120000D01*
X50022620Y-18072381D01*
X50117858Y-18072381D01*
X50260715Y-18120000D01*
X50308334Y-18167619D01*
X50879762Y-18500952D02*
X50784524Y-18453333D01*
X50736905Y-18405714D01*
X50689286Y-18310476D01*
X50689286Y-18262857D01*
X50736905Y-18167619D01*
X50784524Y-18120000D01*
X50879762Y-18072381D01*
X51070239Y-18072381D01*
X51165477Y-18120000D01*
X51213096Y-18167619D01*
X51260715Y-18262857D01*
X51260715Y-18310476D01*
X51213096Y-18405714D01*
X51165477Y-18453333D01*
X51070239Y-18500952D01*
X50879762Y-18500952D01*
X50784524Y-18548571D01*
X50736905Y-18596190D01*
X50689286Y-18691429D01*
X50689286Y-18881905D01*
X50736905Y-18977143D01*
X50784524Y-19024762D01*
X50879762Y-19072381D01*
X51070239Y-19072381D01*
X51165477Y-19024762D01*
X51213096Y-18977143D01*
X51260715Y-18881905D01*
X51260715Y-18691429D01*
X51213096Y-18596190D01*
X51165477Y-18548571D01*
X51070239Y-18500952D01*
X43683334Y-33082143D02*
X43635715Y-33129762D01*
X43492858Y-33177381D01*
X43397620Y-33177381D01*
X43254762Y-33129762D01*
X43159524Y-33034524D01*
X43111905Y-32939286D01*
X43064286Y-32748810D01*
X43064286Y-32605952D01*
X43111905Y-32415476D01*
X43159524Y-32320238D01*
X43254762Y-32225000D01*
X43397620Y-32177381D01*
X43492858Y-32177381D01*
X43635715Y-32225000D01*
X43683334Y-32272619D01*
X44159524Y-33177381D02*
X44350000Y-33177381D01*
X44445239Y-33129762D01*
X44492858Y-33082143D01*
X44588096Y-32939286D01*
X44635715Y-32748810D01*
X44635715Y-32367857D01*
X44588096Y-32272619D01*
X44540477Y-32225000D01*
X44445239Y-32177381D01*
X44254762Y-32177381D01*
X44159524Y-32225000D01*
X44111905Y-32272619D01*
X44064286Y-32367857D01*
X44064286Y-32605952D01*
X44111905Y-32701190D01*
X44159524Y-32748810D01*
X44254762Y-32796429D01*
X44445239Y-32796429D01*
X44540477Y-32748810D01*
X44588096Y-32701190D01*
X44635715Y-32605952D01*
X47320143Y-31954143D02*
X47272524Y-32001762D01*
X47129667Y-32049381D01*
X47034429Y-32049381D01*
X46891571Y-32001762D01*
X46796333Y-31906524D01*
X46748714Y-31811286D01*
X46701095Y-31620810D01*
X46701095Y-31477952D01*
X46748714Y-31287476D01*
X46796333Y-31192238D01*
X46891571Y-31097000D01*
X47034429Y-31049381D01*
X47129667Y-31049381D01*
X47272524Y-31097000D01*
X47320143Y-31144619D01*
X48272524Y-32049381D02*
X47701095Y-32049381D01*
X47986809Y-32049381D02*
X47986809Y-31049381D01*
X47891571Y-31192238D01*
X47796333Y-31287476D01*
X47701095Y-31335095D01*
X48891571Y-31049381D02*
X48986810Y-31049381D01*
X49082048Y-31097000D01*
X49129667Y-31144619D01*
X49177286Y-31239857D01*
X49224905Y-31430333D01*
X49224905Y-31668429D01*
X49177286Y-31858905D01*
X49129667Y-31954143D01*
X49082048Y-32001762D01*
X48986810Y-32049381D01*
X48891571Y-32049381D01*
X48796333Y-32001762D01*
X48748714Y-31954143D01*
X48701095Y-31858905D01*
X48653476Y-31668429D01*
X48653476Y-31430333D01*
X48701095Y-31239857D01*
X48748714Y-31144619D01*
X48796333Y-31097000D01*
X48891571Y-31049381D01*
X35032143Y-19607143D02*
X34984524Y-19654762D01*
X34841667Y-19702381D01*
X34746429Y-19702381D01*
X34603571Y-19654762D01*
X34508333Y-19559524D01*
X34460714Y-19464286D01*
X34413095Y-19273810D01*
X34413095Y-19130952D01*
X34460714Y-18940476D01*
X34508333Y-18845238D01*
X34603571Y-18750000D01*
X34746429Y-18702381D01*
X34841667Y-18702381D01*
X34984524Y-18750000D01*
X35032143Y-18797619D01*
X35984524Y-19702381D02*
X35413095Y-19702381D01*
X35698809Y-19702381D02*
X35698809Y-18702381D01*
X35603571Y-18845238D01*
X35508333Y-18940476D01*
X35413095Y-18988095D01*
X36936905Y-19702381D02*
X36365476Y-19702381D01*
X36651190Y-19702381D02*
X36651190Y-18702381D01*
X36555952Y-18845238D01*
X36460714Y-18940476D01*
X36365476Y-18988095D01*
X34882143Y-16607143D02*
X34834524Y-16654762D01*
X34691667Y-16702381D01*
X34596429Y-16702381D01*
X34453571Y-16654762D01*
X34358333Y-16559524D01*
X34310714Y-16464286D01*
X34263095Y-16273810D01*
X34263095Y-16130952D01*
X34310714Y-15940476D01*
X34358333Y-15845238D01*
X34453571Y-15750000D01*
X34596429Y-15702381D01*
X34691667Y-15702381D01*
X34834524Y-15750000D01*
X34882143Y-15797619D01*
X35834524Y-16702381D02*
X35263095Y-16702381D01*
X35548809Y-16702381D02*
X35548809Y-15702381D01*
X35453571Y-15845238D01*
X35358333Y-15940476D01*
X35263095Y-15988095D01*
X36215476Y-15797619D02*
X36263095Y-15750000D01*
X36358333Y-15702381D01*
X36596429Y-15702381D01*
X36691667Y-15750000D01*
X36739286Y-15797619D01*
X36786905Y-15892857D01*
X36786905Y-15988095D01*
X36739286Y-16130952D01*
X36167857Y-16702381D01*
X36786905Y-16702381D01*
X20782143Y-32867857D02*
X20829762Y-32915476D01*
X20877381Y-33058333D01*
X20877381Y-33153571D01*
X20829762Y-33296429D01*
X20734524Y-33391667D01*
X20639286Y-33439286D01*
X20448810Y-33486905D01*
X20305952Y-33486905D01*
X20115476Y-33439286D01*
X20020238Y-33391667D01*
X19925000Y-33296429D01*
X19877381Y-33153571D01*
X19877381Y-33058333D01*
X19925000Y-32915476D01*
X19972619Y-32867857D01*
X20877381Y-31915476D02*
X20877381Y-32486905D01*
X20877381Y-32201191D02*
X19877381Y-32201191D01*
X20020238Y-32296429D01*
X20115476Y-32391667D01*
X20163095Y-32486905D01*
X19877381Y-31582143D02*
X19877381Y-30963095D01*
X20258333Y-31296429D01*
X20258333Y-31153571D01*
X20305952Y-31058333D01*
X20353571Y-31010714D01*
X20448810Y-30963095D01*
X20686905Y-30963095D01*
X20782143Y-31010714D01*
X20829762Y-31058333D01*
X20877381Y-31153571D01*
X20877381Y-31439286D01*
X20829762Y-31534524D01*
X20782143Y-31582143D01*
X35147143Y-63017143D02*
X35099524Y-63064762D01*
X34956667Y-63112381D01*
X34861429Y-63112381D01*
X34718571Y-63064762D01*
X34623333Y-62969524D01*
X34575714Y-62874286D01*
X34528095Y-62683810D01*
X34528095Y-62540952D01*
X34575714Y-62350476D01*
X34623333Y-62255238D01*
X34718571Y-62160000D01*
X34861429Y-62112381D01*
X34956667Y-62112381D01*
X35099524Y-62160000D01*
X35147143Y-62207619D01*
X36099524Y-63112381D02*
X35528095Y-63112381D01*
X35813809Y-63112381D02*
X35813809Y-62112381D01*
X35718571Y-62255238D01*
X35623333Y-62350476D01*
X35528095Y-62398095D01*
X36956667Y-62445714D02*
X36956667Y-63112381D01*
X36718571Y-62064762D02*
X36480476Y-62779048D01*
X37099524Y-62779048D01*
X40332143Y-43707143D02*
X40284524Y-43754762D01*
X40141667Y-43802381D01*
X40046429Y-43802381D01*
X39903571Y-43754762D01*
X39808333Y-43659524D01*
X39760714Y-43564286D01*
X39713095Y-43373810D01*
X39713095Y-43230952D01*
X39760714Y-43040476D01*
X39808333Y-42945238D01*
X39903571Y-42850000D01*
X40046429Y-42802381D01*
X40141667Y-42802381D01*
X40284524Y-42850000D01*
X40332143Y-42897619D01*
X41284524Y-43802381D02*
X40713095Y-43802381D01*
X40998809Y-43802381D02*
X40998809Y-42802381D01*
X40903571Y-42945238D01*
X40808333Y-43040476D01*
X40713095Y-43088095D01*
X42189286Y-42802381D02*
X41713095Y-42802381D01*
X41665476Y-43278571D01*
X41713095Y-43230952D01*
X41808333Y-43183333D01*
X42046429Y-43183333D01*
X42141667Y-43230952D01*
X42189286Y-43278571D01*
X42236905Y-43373810D01*
X42236905Y-43611905D01*
X42189286Y-43707143D01*
X42141667Y-43754762D01*
X42046429Y-43802381D01*
X41808333Y-43802381D01*
X41713095Y-43754762D01*
X41665476Y-43707143D01*
X35147143Y-43577143D02*
X35099524Y-43624762D01*
X34956667Y-43672381D01*
X34861429Y-43672381D01*
X34718571Y-43624762D01*
X34623333Y-43529524D01*
X34575714Y-43434286D01*
X34528095Y-43243810D01*
X34528095Y-43100952D01*
X34575714Y-42910476D01*
X34623333Y-42815238D01*
X34718571Y-42720000D01*
X34861429Y-42672381D01*
X34956667Y-42672381D01*
X35099524Y-42720000D01*
X35147143Y-42767619D01*
X36099524Y-43672381D02*
X35528095Y-43672381D01*
X35813809Y-43672381D02*
X35813809Y-42672381D01*
X35718571Y-42815238D01*
X35623333Y-42910476D01*
X35528095Y-42958095D01*
X36956667Y-42672381D02*
X36766190Y-42672381D01*
X36670952Y-42720000D01*
X36623333Y-42767619D01*
X36528095Y-42910476D01*
X36480476Y-43100952D01*
X36480476Y-43481905D01*
X36528095Y-43577143D01*
X36575714Y-43624762D01*
X36670952Y-43672381D01*
X36861429Y-43672381D01*
X36956667Y-43624762D01*
X37004286Y-43577143D01*
X37051905Y-43481905D01*
X37051905Y-43243810D01*
X37004286Y-43148571D01*
X36956667Y-43100952D01*
X36861429Y-43053333D01*
X36670952Y-43053333D01*
X36575714Y-43100952D01*
X36528095Y-43148571D01*
X36480476Y-43243810D01*
X47407143Y-50042857D02*
X47454762Y-50090476D01*
X47502381Y-50233333D01*
X47502381Y-50328571D01*
X47454762Y-50471429D01*
X47359524Y-50566667D01*
X47264286Y-50614286D01*
X47073810Y-50661905D01*
X46930952Y-50661905D01*
X46740476Y-50614286D01*
X46645238Y-50566667D01*
X46550000Y-50471429D01*
X46502381Y-50328571D01*
X46502381Y-50233333D01*
X46550000Y-50090476D01*
X46597619Y-50042857D01*
X47502381Y-49090476D02*
X47502381Y-49661905D01*
X47502381Y-49376191D02*
X46502381Y-49376191D01*
X46645238Y-49471429D01*
X46740476Y-49566667D01*
X46788095Y-49661905D01*
X46502381Y-48757143D02*
X46502381Y-48090476D01*
X47502381Y-48519048D01*
X79932143Y-53492857D02*
X79979762Y-53540476D01*
X80027381Y-53683333D01*
X80027381Y-53778571D01*
X79979762Y-53921429D01*
X79884524Y-54016667D01*
X79789286Y-54064286D01*
X79598810Y-54111905D01*
X79455952Y-54111905D01*
X79265476Y-54064286D01*
X79170238Y-54016667D01*
X79075000Y-53921429D01*
X79027381Y-53778571D01*
X79027381Y-53683333D01*
X79075000Y-53540476D01*
X79122619Y-53492857D01*
X80027381Y-52540476D02*
X80027381Y-53111905D01*
X80027381Y-52826191D02*
X79027381Y-52826191D01*
X79170238Y-52921429D01*
X79265476Y-53016667D01*
X79313095Y-53111905D01*
X79455952Y-51969048D02*
X79408333Y-52064286D01*
X79360714Y-52111905D01*
X79265476Y-52159524D01*
X79217857Y-52159524D01*
X79122619Y-52111905D01*
X79075000Y-52064286D01*
X79027381Y-51969048D01*
X79027381Y-51778571D01*
X79075000Y-51683333D01*
X79122619Y-51635714D01*
X79217857Y-51588095D01*
X79265476Y-51588095D01*
X79360714Y-51635714D01*
X79408333Y-51683333D01*
X79455952Y-51778571D01*
X79455952Y-51969048D01*
X79503571Y-52064286D01*
X79551190Y-52111905D01*
X79646429Y-52159524D01*
X79836905Y-52159524D01*
X79932143Y-52111905D01*
X79979762Y-52064286D01*
X80027381Y-51969048D01*
X80027381Y-51778571D01*
X79979762Y-51683333D01*
X79932143Y-51635714D01*
X79836905Y-51588095D01*
X79646429Y-51588095D01*
X79551190Y-51635714D01*
X79503571Y-51683333D01*
X79455952Y-51778571D01*
X64797143Y-58392857D02*
X64844762Y-58440476D01*
X64892381Y-58583333D01*
X64892381Y-58678571D01*
X64844762Y-58821429D01*
X64749524Y-58916667D01*
X64654286Y-58964286D01*
X64463810Y-59011905D01*
X64320952Y-59011905D01*
X64130476Y-58964286D01*
X64035238Y-58916667D01*
X63940000Y-58821429D01*
X63892381Y-58678571D01*
X63892381Y-58583333D01*
X63940000Y-58440476D01*
X63987619Y-58392857D01*
X64892381Y-57440476D02*
X64892381Y-58011905D01*
X64892381Y-57726191D02*
X63892381Y-57726191D01*
X64035238Y-57821429D01*
X64130476Y-57916667D01*
X64178095Y-58011905D01*
X64892381Y-56964286D02*
X64892381Y-56773810D01*
X64844762Y-56678571D01*
X64797143Y-56630952D01*
X64654286Y-56535714D01*
X64463810Y-56488095D01*
X64082857Y-56488095D01*
X63987619Y-56535714D01*
X63940000Y-56583333D01*
X63892381Y-56678571D01*
X63892381Y-56869048D01*
X63940000Y-56964286D01*
X63987619Y-57011905D01*
X64082857Y-57059524D01*
X64320952Y-57059524D01*
X64416190Y-57011905D01*
X64463810Y-56964286D01*
X64511429Y-56869048D01*
X64511429Y-56678571D01*
X64463810Y-56583333D01*
X64416190Y-56535714D01*
X64320952Y-56488095D01*
X74857143Y-42507143D02*
X74809524Y-42554762D01*
X74666667Y-42602381D01*
X74571429Y-42602381D01*
X74428571Y-42554762D01*
X74333333Y-42459524D01*
X74285714Y-42364286D01*
X74238095Y-42173810D01*
X74238095Y-42030952D01*
X74285714Y-41840476D01*
X74333333Y-41745238D01*
X74428571Y-41650000D01*
X74571429Y-41602381D01*
X74666667Y-41602381D01*
X74809524Y-41650000D01*
X74857143Y-41697619D01*
X75238095Y-41697619D02*
X75285714Y-41650000D01*
X75380952Y-41602381D01*
X75619048Y-41602381D01*
X75714286Y-41650000D01*
X75761905Y-41697619D01*
X75809524Y-41792857D01*
X75809524Y-41888095D01*
X75761905Y-42030952D01*
X75190476Y-42602381D01*
X75809524Y-42602381D01*
X76761905Y-42602381D02*
X76190476Y-42602381D01*
X76476190Y-42602381D02*
X76476190Y-41602381D01*
X76380952Y-41745238D01*
X76285714Y-41840476D01*
X76190476Y-41888095D01*
X70545928Y-42475558D02*
X70498309Y-42523177D01*
X70355452Y-42570796D01*
X70260214Y-42570796D01*
X70117356Y-42523177D01*
X70022118Y-42427939D01*
X69974499Y-42332701D01*
X69926880Y-42142225D01*
X69926880Y-41999367D01*
X69974499Y-41808891D01*
X70022118Y-41713653D01*
X70117356Y-41618415D01*
X70260214Y-41570796D01*
X70355452Y-41570796D01*
X70498309Y-41618415D01*
X70545928Y-41666034D01*
X70926880Y-41666034D02*
X70974499Y-41618415D01*
X71069737Y-41570796D01*
X71307833Y-41570796D01*
X71403071Y-41618415D01*
X71450690Y-41666034D01*
X71498309Y-41761272D01*
X71498309Y-41856510D01*
X71450690Y-41999367D01*
X70879261Y-42570796D01*
X71498309Y-42570796D01*
X71879261Y-41666034D02*
X71926880Y-41618415D01*
X72022118Y-41570796D01*
X72260214Y-41570796D01*
X72355452Y-41618415D01*
X72403071Y-41666034D01*
X72450690Y-41761272D01*
X72450690Y-41856510D01*
X72403071Y-41999367D01*
X71831642Y-42570796D01*
X72450690Y-42570796D01*
X52157143Y-53892857D02*
X52204762Y-53940476D01*
X52252381Y-54083333D01*
X52252381Y-54178571D01*
X52204762Y-54321429D01*
X52109524Y-54416667D01*
X52014286Y-54464286D01*
X51823810Y-54511905D01*
X51680952Y-54511905D01*
X51490476Y-54464286D01*
X51395238Y-54416667D01*
X51300000Y-54321429D01*
X51252381Y-54178571D01*
X51252381Y-54083333D01*
X51300000Y-53940476D01*
X51347619Y-53892857D01*
X51347619Y-53511905D02*
X51300000Y-53464286D01*
X51252381Y-53369048D01*
X51252381Y-53130952D01*
X51300000Y-53035714D01*
X51347619Y-52988095D01*
X51442857Y-52940476D01*
X51538095Y-52940476D01*
X51680952Y-52988095D01*
X52252381Y-53559524D01*
X52252381Y-52940476D01*
X51252381Y-52607143D02*
X51252381Y-51988095D01*
X51633333Y-52321429D01*
X51633333Y-52178571D01*
X51680952Y-52083333D01*
X51728571Y-52035714D01*
X51823810Y-51988095D01*
X52061905Y-51988095D01*
X52157143Y-52035714D01*
X52204762Y-52083333D01*
X52252381Y-52178571D01*
X52252381Y-52464286D01*
X52204762Y-52559524D01*
X52157143Y-52607143D01*
X66457143Y-51312857D02*
X66504762Y-51360476D01*
X66552381Y-51503333D01*
X66552381Y-51598571D01*
X66504762Y-51741429D01*
X66409524Y-51836667D01*
X66314286Y-51884286D01*
X66123810Y-51931905D01*
X65980952Y-51931905D01*
X65790476Y-51884286D01*
X65695238Y-51836667D01*
X65600000Y-51741429D01*
X65552381Y-51598571D01*
X65552381Y-51503333D01*
X65600000Y-51360476D01*
X65647619Y-51312857D01*
X65647619Y-50931905D02*
X65600000Y-50884286D01*
X65552381Y-50789048D01*
X65552381Y-50550952D01*
X65600000Y-50455714D01*
X65647619Y-50408095D01*
X65742857Y-50360476D01*
X65838095Y-50360476D01*
X65980952Y-50408095D01*
X66552381Y-50979524D01*
X66552381Y-50360476D01*
X65885714Y-49503333D02*
X66552381Y-49503333D01*
X65504762Y-49741429D02*
X66219048Y-49979524D01*
X66219048Y-49360476D01*
X49557143Y-58662857D02*
X49604762Y-58710476D01*
X49652381Y-58853333D01*
X49652381Y-58948571D01*
X49604762Y-59091429D01*
X49509524Y-59186667D01*
X49414286Y-59234286D01*
X49223810Y-59281905D01*
X49080952Y-59281905D01*
X48890476Y-59234286D01*
X48795238Y-59186667D01*
X48700000Y-59091429D01*
X48652381Y-58948571D01*
X48652381Y-58853333D01*
X48700000Y-58710476D01*
X48747619Y-58662857D01*
X48747619Y-58281905D02*
X48700000Y-58234286D01*
X48652381Y-58139048D01*
X48652381Y-57900952D01*
X48700000Y-57805714D01*
X48747619Y-57758095D01*
X48842857Y-57710476D01*
X48938095Y-57710476D01*
X49080952Y-57758095D01*
X49652381Y-58329524D01*
X49652381Y-57710476D01*
X48652381Y-56805714D02*
X48652381Y-57281905D01*
X49128571Y-57329524D01*
X49080952Y-57281905D01*
X49033333Y-57186667D01*
X49033333Y-56948571D01*
X49080952Y-56853333D01*
X49128571Y-56805714D01*
X49223810Y-56758095D01*
X49461905Y-56758095D01*
X49557143Y-56805714D01*
X49604762Y-56853333D01*
X49652381Y-56948571D01*
X49652381Y-57186667D01*
X49604762Y-57281905D01*
X49557143Y-57329524D01*
X58507143Y-43732143D02*
X58459524Y-43779762D01*
X58316667Y-43827381D01*
X58221429Y-43827381D01*
X58078571Y-43779762D01*
X57983333Y-43684524D01*
X57935714Y-43589286D01*
X57888095Y-43398810D01*
X57888095Y-43255952D01*
X57935714Y-43065476D01*
X57983333Y-42970238D01*
X58078571Y-42875000D01*
X58221429Y-42827381D01*
X58316667Y-42827381D01*
X58459524Y-42875000D01*
X58507143Y-42922619D01*
X58888095Y-42922619D02*
X58935714Y-42875000D01*
X59030952Y-42827381D01*
X59269048Y-42827381D01*
X59364286Y-42875000D01*
X59411905Y-42922619D01*
X59459524Y-43017857D01*
X59459524Y-43113095D01*
X59411905Y-43255952D01*
X58840476Y-43827381D01*
X59459524Y-43827381D01*
X60316667Y-42827381D02*
X60126190Y-42827381D01*
X60030952Y-42875000D01*
X59983333Y-42922619D01*
X59888095Y-43065476D01*
X59840476Y-43255952D01*
X59840476Y-43636905D01*
X59888095Y-43732143D01*
X59935714Y-43779762D01*
X60030952Y-43827381D01*
X60221429Y-43827381D01*
X60316667Y-43779762D01*
X60364286Y-43732143D01*
X60411905Y-43636905D01*
X60411905Y-43398810D01*
X60364286Y-43303571D01*
X60316667Y-43255952D01*
X60221429Y-43208333D01*
X60030952Y-43208333D01*
X59935714Y-43255952D01*
X59888095Y-43303571D01*
X59840476Y-43398810D01*
X54737143Y-43577143D02*
X54689524Y-43624762D01*
X54546667Y-43672381D01*
X54451429Y-43672381D01*
X54308571Y-43624762D01*
X54213333Y-43529524D01*
X54165714Y-43434286D01*
X54118095Y-43243810D01*
X54118095Y-43100952D01*
X54165714Y-42910476D01*
X54213333Y-42815238D01*
X54308571Y-42720000D01*
X54451429Y-42672381D01*
X54546667Y-42672381D01*
X54689524Y-42720000D01*
X54737143Y-42767619D01*
X55118095Y-42767619D02*
X55165714Y-42720000D01*
X55260952Y-42672381D01*
X55499048Y-42672381D01*
X55594286Y-42720000D01*
X55641905Y-42767619D01*
X55689524Y-42862857D01*
X55689524Y-42958095D01*
X55641905Y-43100952D01*
X55070476Y-43672381D01*
X55689524Y-43672381D01*
X56022857Y-42672381D02*
X56689524Y-42672381D01*
X56260952Y-43672381D01*
X103107143Y-46792857D02*
X103154762Y-46840476D01*
X103202381Y-46983333D01*
X103202381Y-47078571D01*
X103154762Y-47221429D01*
X103059524Y-47316667D01*
X102964286Y-47364286D01*
X102773810Y-47411905D01*
X102630952Y-47411905D01*
X102440476Y-47364286D01*
X102345238Y-47316667D01*
X102250000Y-47221429D01*
X102202381Y-47078571D01*
X102202381Y-46983333D01*
X102250000Y-46840476D01*
X102297619Y-46792857D01*
X102297619Y-46411905D02*
X102250000Y-46364286D01*
X102202381Y-46269048D01*
X102202381Y-46030952D01*
X102250000Y-45935714D01*
X102297619Y-45888095D01*
X102392857Y-45840476D01*
X102488095Y-45840476D01*
X102630952Y-45888095D01*
X103202381Y-46459524D01*
X103202381Y-45840476D01*
X102630952Y-45269048D02*
X102583333Y-45364286D01*
X102535714Y-45411905D01*
X102440476Y-45459524D01*
X102392857Y-45459524D01*
X102297619Y-45411905D01*
X102250000Y-45364286D01*
X102202381Y-45269048D01*
X102202381Y-45078571D01*
X102250000Y-44983333D01*
X102297619Y-44935714D01*
X102392857Y-44888095D01*
X102440476Y-44888095D01*
X102535714Y-44935714D01*
X102583333Y-44983333D01*
X102630952Y-45078571D01*
X102630952Y-45269048D01*
X102678571Y-45364286D01*
X102726190Y-45411905D01*
X102821429Y-45459524D01*
X103011905Y-45459524D01*
X103107143Y-45411905D01*
X103154762Y-45364286D01*
X103202381Y-45269048D01*
X103202381Y-45078571D01*
X103154762Y-44983333D01*
X103107143Y-44935714D01*
X103011905Y-44888095D01*
X102821429Y-44888095D01*
X102726190Y-44935714D01*
X102678571Y-44983333D01*
X102630952Y-45078571D01*
X90487143Y-60872857D02*
X90534762Y-60920476D01*
X90582381Y-61063333D01*
X90582381Y-61158571D01*
X90534762Y-61301429D01*
X90439524Y-61396667D01*
X90344286Y-61444286D01*
X90153810Y-61491905D01*
X90010952Y-61491905D01*
X89820476Y-61444286D01*
X89725238Y-61396667D01*
X89630000Y-61301429D01*
X89582381Y-61158571D01*
X89582381Y-61063333D01*
X89630000Y-60920476D01*
X89677619Y-60872857D01*
X89677619Y-60491905D02*
X89630000Y-60444286D01*
X89582381Y-60349048D01*
X89582381Y-60110952D01*
X89630000Y-60015714D01*
X89677619Y-59968095D01*
X89772857Y-59920476D01*
X89868095Y-59920476D01*
X90010952Y-59968095D01*
X90582381Y-60539524D01*
X90582381Y-59920476D01*
X90582381Y-59444286D02*
X90582381Y-59253810D01*
X90534762Y-59158571D01*
X90487143Y-59110952D01*
X90344286Y-59015714D01*
X90153810Y-58968095D01*
X89772857Y-58968095D01*
X89677619Y-59015714D01*
X89630000Y-59063333D01*
X89582381Y-59158571D01*
X89582381Y-59349048D01*
X89630000Y-59444286D01*
X89677619Y-59491905D01*
X89772857Y-59539524D01*
X90010952Y-59539524D01*
X90106190Y-59491905D01*
X90153810Y-59444286D01*
X90201429Y-59349048D01*
X90201429Y-59158571D01*
X90153810Y-59063333D01*
X90106190Y-59015714D01*
X90010952Y-58968095D01*
X98107143Y-42857143D02*
X98059524Y-42904762D01*
X97916667Y-42952381D01*
X97821429Y-42952381D01*
X97678571Y-42904762D01*
X97583333Y-42809524D01*
X97535714Y-42714286D01*
X97488095Y-42523810D01*
X97488095Y-42380952D01*
X97535714Y-42190476D01*
X97583333Y-42095238D01*
X97678571Y-42000000D01*
X97821429Y-41952381D01*
X97916667Y-41952381D01*
X98059524Y-42000000D01*
X98107143Y-42047619D01*
X98440476Y-41952381D02*
X99059524Y-41952381D01*
X98726190Y-42333333D01*
X98869048Y-42333333D01*
X98964286Y-42380952D01*
X99011905Y-42428571D01*
X99059524Y-42523810D01*
X99059524Y-42761905D01*
X99011905Y-42857143D01*
X98964286Y-42904762D01*
X98869048Y-42952381D01*
X98583333Y-42952381D01*
X98488095Y-42904762D01*
X98440476Y-42857143D01*
X100011905Y-42952381D02*
X99440476Y-42952381D01*
X99726190Y-42952381D02*
X99726190Y-41952381D01*
X99630952Y-42095238D01*
X99535714Y-42190476D01*
X99440476Y-42238095D01*
X93357143Y-43172143D02*
X93309524Y-43219762D01*
X93166667Y-43267381D01*
X93071429Y-43267381D01*
X92928571Y-43219762D01*
X92833333Y-43124524D01*
X92785714Y-43029286D01*
X92738095Y-42838810D01*
X92738095Y-42695952D01*
X92785714Y-42505476D01*
X92833333Y-42410238D01*
X92928571Y-42315000D01*
X93071429Y-42267381D01*
X93166667Y-42267381D01*
X93309524Y-42315000D01*
X93357143Y-42362619D01*
X93690476Y-42267381D02*
X94309524Y-42267381D01*
X93976190Y-42648333D01*
X94119048Y-42648333D01*
X94214286Y-42695952D01*
X94261905Y-42743571D01*
X94309524Y-42838810D01*
X94309524Y-43076905D01*
X94261905Y-43172143D01*
X94214286Y-43219762D01*
X94119048Y-43267381D01*
X93833333Y-43267381D01*
X93738095Y-43219762D01*
X93690476Y-43172143D01*
X94690476Y-42362619D02*
X94738095Y-42315000D01*
X94833333Y-42267381D01*
X95071429Y-42267381D01*
X95166667Y-42315000D01*
X95214286Y-42362619D01*
X95261905Y-42457857D01*
X95261905Y-42553095D01*
X95214286Y-42695952D01*
X94642857Y-43267381D01*
X95261905Y-43267381D01*
X121587143Y-52907857D02*
X121634762Y-52955476D01*
X121682381Y-53098333D01*
X121682381Y-53193571D01*
X121634762Y-53336429D01*
X121539524Y-53431667D01*
X121444286Y-53479286D01*
X121253810Y-53526905D01*
X121110952Y-53526905D01*
X120920476Y-53479286D01*
X120825238Y-53431667D01*
X120730000Y-53336429D01*
X120682381Y-53193571D01*
X120682381Y-53098333D01*
X120730000Y-52955476D01*
X120777619Y-52907857D01*
X120682381Y-52574524D02*
X120682381Y-51955476D01*
X121063333Y-52288810D01*
X121063333Y-52145952D01*
X121110952Y-52050714D01*
X121158571Y-52003095D01*
X121253810Y-51955476D01*
X121491905Y-51955476D01*
X121587143Y-52003095D01*
X121634762Y-52050714D01*
X121682381Y-52145952D01*
X121682381Y-52431667D01*
X121634762Y-52526905D01*
X121587143Y-52574524D01*
X120682381Y-51622143D02*
X120682381Y-51003095D01*
X121063333Y-51336429D01*
X121063333Y-51193571D01*
X121110952Y-51098333D01*
X121158571Y-51050714D01*
X121253810Y-51003095D01*
X121491905Y-51003095D01*
X121587143Y-51050714D01*
X121634762Y-51098333D01*
X121682381Y-51193571D01*
X121682381Y-51479286D01*
X121634762Y-51574524D01*
X121587143Y-51622143D01*
X105582143Y-61542857D02*
X105629762Y-61590476D01*
X105677381Y-61733333D01*
X105677381Y-61828571D01*
X105629762Y-61971429D01*
X105534524Y-62066667D01*
X105439286Y-62114286D01*
X105248810Y-62161905D01*
X105105952Y-62161905D01*
X104915476Y-62114286D01*
X104820238Y-62066667D01*
X104725000Y-61971429D01*
X104677381Y-61828571D01*
X104677381Y-61733333D01*
X104725000Y-61590476D01*
X104772619Y-61542857D01*
X104677381Y-61209524D02*
X104677381Y-60590476D01*
X105058333Y-60923810D01*
X105058333Y-60780952D01*
X105105952Y-60685714D01*
X105153571Y-60638095D01*
X105248810Y-60590476D01*
X105486905Y-60590476D01*
X105582143Y-60638095D01*
X105629762Y-60685714D01*
X105677381Y-60780952D01*
X105677381Y-61066667D01*
X105629762Y-61161905D01*
X105582143Y-61209524D01*
X105010714Y-59733333D02*
X105677381Y-59733333D01*
X104629762Y-59971429D02*
X105344048Y-60209524D01*
X105344048Y-59590476D01*
X113057143Y-46007143D02*
X113009524Y-46054762D01*
X112866667Y-46102381D01*
X112771429Y-46102381D01*
X112628571Y-46054762D01*
X112533333Y-45959524D01*
X112485714Y-45864286D01*
X112438095Y-45673810D01*
X112438095Y-45530952D01*
X112485714Y-45340476D01*
X112533333Y-45245238D01*
X112628571Y-45150000D01*
X112771429Y-45102381D01*
X112866667Y-45102381D01*
X113009524Y-45150000D01*
X113057143Y-45197619D01*
X113390476Y-45102381D02*
X114009524Y-45102381D01*
X113676190Y-45483333D01*
X113819048Y-45483333D01*
X113914286Y-45530952D01*
X113961905Y-45578571D01*
X114009524Y-45673810D01*
X114009524Y-45911905D01*
X113961905Y-46007143D01*
X113914286Y-46054762D01*
X113819048Y-46102381D01*
X113533333Y-46102381D01*
X113438095Y-46054762D01*
X113390476Y-46007143D01*
X114914286Y-45102381D02*
X114438095Y-45102381D01*
X114390476Y-45578571D01*
X114438095Y-45530952D01*
X114533333Y-45483333D01*
X114771429Y-45483333D01*
X114866667Y-45530952D01*
X114914286Y-45578571D01*
X114961905Y-45673810D01*
X114961905Y-45911905D01*
X114914286Y-46007143D01*
X114866667Y-46054762D01*
X114771429Y-46102381D01*
X114533333Y-46102381D01*
X114438095Y-46054762D01*
X114390476Y-46007143D01*
X108357143Y-46157143D02*
X108309524Y-46204762D01*
X108166667Y-46252381D01*
X108071429Y-46252381D01*
X107928571Y-46204762D01*
X107833333Y-46109524D01*
X107785714Y-46014286D01*
X107738095Y-45823810D01*
X107738095Y-45680952D01*
X107785714Y-45490476D01*
X107833333Y-45395238D01*
X107928571Y-45300000D01*
X108071429Y-45252381D01*
X108166667Y-45252381D01*
X108309524Y-45300000D01*
X108357143Y-45347619D01*
X108690476Y-45252381D02*
X109309524Y-45252381D01*
X108976190Y-45633333D01*
X109119048Y-45633333D01*
X109214286Y-45680952D01*
X109261905Y-45728571D01*
X109309524Y-45823810D01*
X109309524Y-46061905D01*
X109261905Y-46157143D01*
X109214286Y-46204762D01*
X109119048Y-46252381D01*
X108833333Y-46252381D01*
X108738095Y-46204762D01*
X108690476Y-46157143D01*
X110166667Y-45252381D02*
X109976190Y-45252381D01*
X109880952Y-45300000D01*
X109833333Y-45347619D01*
X109738095Y-45490476D01*
X109690476Y-45680952D01*
X109690476Y-46061905D01*
X109738095Y-46157143D01*
X109785714Y-46204762D01*
X109880952Y-46252381D01*
X110071429Y-46252381D01*
X110166667Y-46204762D01*
X110214286Y-46157143D01*
X110261905Y-46061905D01*
X110261905Y-45823810D01*
X110214286Y-45728571D01*
X110166667Y-45680952D01*
X110071429Y-45633333D01*
X109880952Y-45633333D01*
X109785714Y-45680952D01*
X109738095Y-45728571D01*
X109690476Y-45823810D01*
X106537143Y-29997143D02*
X106489524Y-30044762D01*
X106346667Y-30092381D01*
X106251429Y-30092381D01*
X106108571Y-30044762D01*
X106013333Y-29949524D01*
X105965714Y-29854286D01*
X105918095Y-29663810D01*
X105918095Y-29520952D01*
X105965714Y-29330476D01*
X106013333Y-29235238D01*
X106108571Y-29140000D01*
X106251429Y-29092381D01*
X106346667Y-29092381D01*
X106489524Y-29140000D01*
X106537143Y-29187619D01*
X106870476Y-29092381D02*
X107489524Y-29092381D01*
X107156190Y-29473333D01*
X107299048Y-29473333D01*
X107394286Y-29520952D01*
X107441905Y-29568571D01*
X107489524Y-29663810D01*
X107489524Y-29901905D01*
X107441905Y-29997143D01*
X107394286Y-30044762D01*
X107299048Y-30092381D01*
X107013333Y-30092381D01*
X106918095Y-30044762D01*
X106870476Y-29997143D01*
X107822857Y-29092381D02*
X108489524Y-29092381D01*
X108060952Y-30092381D01*
X106807143Y-39327143D02*
X106759524Y-39374762D01*
X106616667Y-39422381D01*
X106521429Y-39422381D01*
X106378571Y-39374762D01*
X106283333Y-39279524D01*
X106235714Y-39184286D01*
X106188095Y-38993810D01*
X106188095Y-38850952D01*
X106235714Y-38660476D01*
X106283333Y-38565238D01*
X106378571Y-38470000D01*
X106521429Y-38422381D01*
X106616667Y-38422381D01*
X106759524Y-38470000D01*
X106807143Y-38517619D01*
X107140476Y-38422381D02*
X107759524Y-38422381D01*
X107426190Y-38803333D01*
X107569048Y-38803333D01*
X107664286Y-38850952D01*
X107711905Y-38898571D01*
X107759524Y-38993810D01*
X107759524Y-39231905D01*
X107711905Y-39327143D01*
X107664286Y-39374762D01*
X107569048Y-39422381D01*
X107283333Y-39422381D01*
X107188095Y-39374762D01*
X107140476Y-39327143D01*
X108330952Y-38850952D02*
X108235714Y-38803333D01*
X108188095Y-38755714D01*
X108140476Y-38660476D01*
X108140476Y-38612857D01*
X108188095Y-38517619D01*
X108235714Y-38470000D01*
X108330952Y-38422381D01*
X108521429Y-38422381D01*
X108616667Y-38470000D01*
X108664286Y-38517619D01*
X108711905Y-38612857D01*
X108711905Y-38660476D01*
X108664286Y-38755714D01*
X108616667Y-38803333D01*
X108521429Y-38850952D01*
X108330952Y-38850952D01*
X108235714Y-38898571D01*
X108188095Y-38946190D01*
X108140476Y-39041429D01*
X108140476Y-39231905D01*
X108188095Y-39327143D01*
X108235714Y-39374762D01*
X108330952Y-39422381D01*
X108521429Y-39422381D01*
X108616667Y-39374762D01*
X108664286Y-39327143D01*
X108711905Y-39231905D01*
X108711905Y-39041429D01*
X108664286Y-38946190D01*
X108616667Y-38898571D01*
X108521429Y-38850952D01*
X92857143Y-31932143D02*
X92809524Y-31979762D01*
X92666667Y-32027381D01*
X92571429Y-32027381D01*
X92428571Y-31979762D01*
X92333333Y-31884524D01*
X92285714Y-31789286D01*
X92238095Y-31598810D01*
X92238095Y-31455952D01*
X92285714Y-31265476D01*
X92333333Y-31170238D01*
X92428571Y-31075000D01*
X92571429Y-31027381D01*
X92666667Y-31027381D01*
X92809524Y-31075000D01*
X92857143Y-31122619D01*
X93190476Y-31027381D02*
X93809524Y-31027381D01*
X93476190Y-31408333D01*
X93619048Y-31408333D01*
X93714286Y-31455952D01*
X93761905Y-31503571D01*
X93809524Y-31598810D01*
X93809524Y-31836905D01*
X93761905Y-31932143D01*
X93714286Y-31979762D01*
X93619048Y-32027381D01*
X93333333Y-32027381D01*
X93238095Y-31979762D01*
X93190476Y-31932143D01*
X94285714Y-32027381D02*
X94476190Y-32027381D01*
X94571429Y-31979762D01*
X94619048Y-31932143D01*
X94714286Y-31789286D01*
X94761905Y-31598810D01*
X94761905Y-31217857D01*
X94714286Y-31122619D01*
X94666667Y-31075000D01*
X94571429Y-31027381D01*
X94380952Y-31027381D01*
X94285714Y-31075000D01*
X94238095Y-31122619D01*
X94190476Y-31217857D01*
X94190476Y-31455952D01*
X94238095Y-31551190D01*
X94285714Y-31598810D01*
X94380952Y-31646429D01*
X94571429Y-31646429D01*
X94666667Y-31598810D01*
X94714286Y-31551190D01*
X94761905Y-31455952D01*
X86107143Y-19367857D02*
X86154762Y-19415476D01*
X86202381Y-19558333D01*
X86202381Y-19653571D01*
X86154762Y-19796429D01*
X86059524Y-19891667D01*
X85964286Y-19939286D01*
X85773810Y-19986905D01*
X85630952Y-19986905D01*
X85440476Y-19939286D01*
X85345238Y-19891667D01*
X85250000Y-19796429D01*
X85202381Y-19653571D01*
X85202381Y-19558333D01*
X85250000Y-19415476D01*
X85297619Y-19367857D01*
X85535714Y-18510714D02*
X86202381Y-18510714D01*
X85154762Y-18748810D02*
X85869048Y-18986905D01*
X85869048Y-18367857D01*
X85202381Y-17796429D02*
X85202381Y-17701190D01*
X85250000Y-17605952D01*
X85297619Y-17558333D01*
X85392857Y-17510714D01*
X85583333Y-17463095D01*
X85821429Y-17463095D01*
X86011905Y-17510714D01*
X86107143Y-17558333D01*
X86154762Y-17605952D01*
X86202381Y-17701190D01*
X86202381Y-17796429D01*
X86154762Y-17891667D01*
X86107143Y-17939286D01*
X86011905Y-17986905D01*
X85821429Y-18034524D01*
X85583333Y-18034524D01*
X85392857Y-17986905D01*
X85297619Y-17939286D01*
X85250000Y-17891667D01*
X85202381Y-17796429D01*
X86007143Y-32192857D02*
X86054762Y-32240476D01*
X86102381Y-32383333D01*
X86102381Y-32478571D01*
X86054762Y-32621429D01*
X85959524Y-32716667D01*
X85864286Y-32764286D01*
X85673810Y-32811905D01*
X85530952Y-32811905D01*
X85340476Y-32764286D01*
X85245238Y-32716667D01*
X85150000Y-32621429D01*
X85102381Y-32478571D01*
X85102381Y-32383333D01*
X85150000Y-32240476D01*
X85197619Y-32192857D01*
X85435714Y-31335714D02*
X86102381Y-31335714D01*
X85054762Y-31573810D02*
X85769048Y-31811905D01*
X85769048Y-31192857D01*
X86102381Y-30288095D02*
X86102381Y-30859524D01*
X86102381Y-30573810D02*
X85102381Y-30573810D01*
X85245238Y-30669048D01*
X85340476Y-30764286D01*
X85388095Y-30859524D01*
X93382143Y-19257143D02*
X93334524Y-19304762D01*
X93191667Y-19352381D01*
X93096429Y-19352381D01*
X92953571Y-19304762D01*
X92858333Y-19209524D01*
X92810714Y-19114286D01*
X92763095Y-18923810D01*
X92763095Y-18780952D01*
X92810714Y-18590476D01*
X92858333Y-18495238D01*
X92953571Y-18400000D01*
X93096429Y-18352381D01*
X93191667Y-18352381D01*
X93334524Y-18400000D01*
X93382143Y-18447619D01*
X94239286Y-18685714D02*
X94239286Y-19352381D01*
X94001190Y-18304762D02*
X93763095Y-19019048D01*
X94382143Y-19019048D01*
X94715476Y-18447619D02*
X94763095Y-18400000D01*
X94858333Y-18352381D01*
X95096429Y-18352381D01*
X95191667Y-18400000D01*
X95239286Y-18447619D01*
X95286905Y-18542857D01*
X95286905Y-18638095D01*
X95239286Y-18780952D01*
X94667857Y-19352381D01*
X95286905Y-19352381D01*
X13779381Y-77572095D02*
X12779381Y-77572095D01*
X12779381Y-77334000D01*
X12827000Y-77191142D01*
X12922238Y-77095904D01*
X13017476Y-77048285D01*
X13207952Y-77000666D01*
X13350810Y-77000666D01*
X13541286Y-77048285D01*
X13636524Y-77095904D01*
X13731762Y-77191142D01*
X13779381Y-77334000D01*
X13779381Y-77572095D01*
X13779381Y-76048285D02*
X13779381Y-76619714D01*
X13779381Y-76334000D02*
X12779381Y-76334000D01*
X12922238Y-76429238D01*
X13017476Y-76524476D01*
X13065095Y-76619714D01*
X12602381Y-79711905D02*
X11602381Y-79711905D01*
X12602381Y-79140476D02*
X12030952Y-79569048D01*
X11602381Y-79140476D02*
X12173810Y-79711905D01*
X112561905Y-32552381D02*
X112561905Y-31552381D01*
X112800000Y-31552381D01*
X112942858Y-31600000D01*
X113038096Y-31695238D01*
X113085715Y-31790476D01*
X113133334Y-31980952D01*
X113133334Y-32123810D01*
X113085715Y-32314286D01*
X113038096Y-32409524D01*
X112942858Y-32504762D01*
X112800000Y-32552381D01*
X112561905Y-32552381D01*
X113514286Y-31647619D02*
X113561905Y-31600000D01*
X113657143Y-31552381D01*
X113895239Y-31552381D01*
X113990477Y-31600000D01*
X114038096Y-31647619D01*
X114085715Y-31742857D01*
X114085715Y-31838095D01*
X114038096Y-31980952D01*
X113466667Y-32552381D01*
X114085715Y-32552381D01*
X112661905Y-28552381D02*
X112661905Y-27552381D01*
X112900000Y-27552381D01*
X113042858Y-27600000D01*
X113138096Y-27695238D01*
X113185715Y-27790476D01*
X113233334Y-27980952D01*
X113233334Y-28123810D01*
X113185715Y-28314286D01*
X113138096Y-28409524D01*
X113042858Y-28504762D01*
X112900000Y-28552381D01*
X112661905Y-28552381D01*
X113566667Y-27552381D02*
X114185715Y-27552381D01*
X113852381Y-27933333D01*
X113995239Y-27933333D01*
X114090477Y-27980952D01*
X114138096Y-28028571D01*
X114185715Y-28123810D01*
X114185715Y-28361905D01*
X114138096Y-28457143D01*
X114090477Y-28504762D01*
X113995239Y-28552381D01*
X113709524Y-28552381D01*
X113614286Y-28504762D01*
X113566667Y-28457143D01*
X9636905Y-55552381D02*
X9636905Y-54552381D01*
X10017858Y-54552381D01*
X10113096Y-54600000D01*
X10160715Y-54647619D01*
X10208334Y-54742857D01*
X10208334Y-54885714D01*
X10160715Y-54980952D01*
X10113096Y-55028571D01*
X10017858Y-55076190D01*
X9636905Y-55076190D01*
X11160715Y-55552381D02*
X10589286Y-55552381D01*
X10875000Y-55552381D02*
X10875000Y-54552381D01*
X10779762Y-54695238D01*
X10684524Y-54790476D01*
X10589286Y-54838095D01*
X66911905Y-14102381D02*
X66911905Y-13102381D01*
X67292858Y-13102381D01*
X67388096Y-13150000D01*
X67435715Y-13197619D01*
X67483334Y-13292857D01*
X67483334Y-13435714D01*
X67435715Y-13530952D01*
X67388096Y-13578571D01*
X67292858Y-13626190D01*
X66911905Y-13626190D01*
X67864286Y-13197619D02*
X67911905Y-13150000D01*
X68007143Y-13102381D01*
X68245239Y-13102381D01*
X68340477Y-13150000D01*
X68388096Y-13197619D01*
X68435715Y-13292857D01*
X68435715Y-13388095D01*
X68388096Y-13530952D01*
X67816667Y-14102381D01*
X68435715Y-14102381D01*
X49261905Y-14002381D02*
X49261905Y-13002381D01*
X49642858Y-13002381D01*
X49738096Y-13050000D01*
X49785715Y-13097619D01*
X49833334Y-13192857D01*
X49833334Y-13335714D01*
X49785715Y-13430952D01*
X49738096Y-13478571D01*
X49642858Y-13526190D01*
X49261905Y-13526190D01*
X50166667Y-13002381D02*
X50785715Y-13002381D01*
X50452381Y-13383333D01*
X50595239Y-13383333D01*
X50690477Y-13430952D01*
X50738096Y-13478571D01*
X50785715Y-13573810D01*
X50785715Y-13811905D01*
X50738096Y-13907143D01*
X50690477Y-13954762D01*
X50595239Y-14002381D01*
X50309524Y-14002381D01*
X50214286Y-13954762D01*
X50166667Y-13907143D01*
X32986905Y-14077381D02*
X32986905Y-13077381D01*
X33367858Y-13077381D01*
X33463096Y-13125000D01*
X33510715Y-13172619D01*
X33558334Y-13267857D01*
X33558334Y-13410714D01*
X33510715Y-13505952D01*
X33463096Y-13553571D01*
X33367858Y-13601190D01*
X32986905Y-13601190D01*
X34415477Y-13410714D02*
X34415477Y-14077381D01*
X34177381Y-13029762D02*
X33939286Y-13744048D01*
X34558334Y-13744048D01*
X12226905Y-13932381D02*
X12226905Y-12932381D01*
X12607858Y-12932381D01*
X12703096Y-12980000D01*
X12750715Y-13027619D01*
X12798334Y-13122857D01*
X12798334Y-13265714D01*
X12750715Y-13360952D01*
X12703096Y-13408571D01*
X12607858Y-13456190D01*
X12226905Y-13456190D01*
X13703096Y-12932381D02*
X13226905Y-12932381D01*
X13179286Y-13408571D01*
X13226905Y-13360952D01*
X13322143Y-13313333D01*
X13560239Y-13313333D01*
X13655477Y-13360952D01*
X13703096Y-13408571D01*
X13750715Y-13503810D01*
X13750715Y-13741905D01*
X13703096Y-13837143D01*
X13655477Y-13884762D01*
X13560239Y-13932381D01*
X13322143Y-13932381D01*
X13226905Y-13884762D01*
X13179286Y-13837143D01*
X84586905Y-14227381D02*
X84586905Y-13227381D01*
X84967858Y-13227381D01*
X85063096Y-13275000D01*
X85110715Y-13322619D01*
X85158334Y-13417857D01*
X85158334Y-13560714D01*
X85110715Y-13655952D01*
X85063096Y-13703571D01*
X84967858Y-13751190D01*
X84586905Y-13751190D01*
X86015477Y-13227381D02*
X85825000Y-13227381D01*
X85729762Y-13275000D01*
X85682143Y-13322619D01*
X85586905Y-13465476D01*
X85539286Y-13655952D01*
X85539286Y-14036905D01*
X85586905Y-14132143D01*
X85634524Y-14179762D01*
X85729762Y-14227381D01*
X85920239Y-14227381D01*
X86015477Y-14179762D01*
X86063096Y-14132143D01*
X86110715Y-14036905D01*
X86110715Y-13798810D01*
X86063096Y-13703571D01*
X86015477Y-13655952D01*
X85920239Y-13608333D01*
X85729762Y-13608333D01*
X85634524Y-13655952D01*
X85586905Y-13703571D01*
X85539286Y-13798810D01*
X80408334Y-16002381D02*
X80075000Y-15526190D01*
X79836905Y-16002381D02*
X79836905Y-15002381D01*
X80217858Y-15002381D01*
X80313096Y-15050000D01*
X80360715Y-15097619D01*
X80408334Y-15192857D01*
X80408334Y-15335714D01*
X80360715Y-15430952D01*
X80313096Y-15478571D01*
X80217858Y-15526190D01*
X79836905Y-15526190D01*
X81360715Y-16002381D02*
X80789286Y-16002381D01*
X81075000Y-16002381D02*
X81075000Y-15002381D01*
X80979762Y-15145238D01*
X80884524Y-15240476D01*
X80789286Y-15288095D01*
X13019381Y-72037666D02*
X12543190Y-72371000D01*
X13019381Y-72609095D02*
X12019381Y-72609095D01*
X12019381Y-72228142D01*
X12067000Y-72132904D01*
X12114619Y-72085285D01*
X12209857Y-72037666D01*
X12352714Y-72037666D01*
X12447952Y-72085285D01*
X12495571Y-72132904D01*
X12543190Y-72228142D01*
X12543190Y-72609095D01*
X12114619Y-71656714D02*
X12067000Y-71609095D01*
X12019381Y-71513857D01*
X12019381Y-71275761D01*
X12067000Y-71180523D01*
X12114619Y-71132904D01*
X12209857Y-71085285D01*
X12305095Y-71085285D01*
X12447952Y-71132904D01*
X13019381Y-71704333D01*
X13019381Y-71085285D01*
X23808334Y-17447381D02*
X23475000Y-16971190D01*
X23236905Y-17447381D02*
X23236905Y-16447381D01*
X23617858Y-16447381D01*
X23713096Y-16495000D01*
X23760715Y-16542619D01*
X23808334Y-16637857D01*
X23808334Y-16780714D01*
X23760715Y-16875952D01*
X23713096Y-16923571D01*
X23617858Y-16971190D01*
X23236905Y-16971190D01*
X24141667Y-16447381D02*
X24760715Y-16447381D01*
X24427381Y-16828333D01*
X24570239Y-16828333D01*
X24665477Y-16875952D01*
X24713096Y-16923571D01*
X24760715Y-17018810D01*
X24760715Y-17256905D01*
X24713096Y-17352143D01*
X24665477Y-17399762D01*
X24570239Y-17447381D01*
X24284524Y-17447381D01*
X24189286Y-17399762D01*
X24141667Y-17352143D01*
X51332381Y-43126666D02*
X50856190Y-43460000D01*
X51332381Y-43698095D02*
X50332381Y-43698095D01*
X50332381Y-43317142D01*
X50380000Y-43221904D01*
X50427619Y-43174285D01*
X50522857Y-43126666D01*
X50665714Y-43126666D01*
X50760952Y-43174285D01*
X50808571Y-43221904D01*
X50856190Y-43317142D01*
X50856190Y-43698095D01*
X50665714Y-42269523D02*
X51332381Y-42269523D01*
X50284762Y-42507619D02*
X50999048Y-42745714D01*
X50999048Y-42126666D01*
X86077381Y-61566666D02*
X85601190Y-61900000D01*
X86077381Y-62138095D02*
X85077381Y-62138095D01*
X85077381Y-61757142D01*
X85125000Y-61661904D01*
X85172619Y-61614285D01*
X85267857Y-61566666D01*
X85410714Y-61566666D01*
X85505952Y-61614285D01*
X85553571Y-61661904D01*
X85601190Y-61757142D01*
X85601190Y-62138095D01*
X85077381Y-60661904D02*
X85077381Y-61138095D01*
X85553571Y-61185714D01*
X85505952Y-61138095D01*
X85458333Y-61042857D01*
X85458333Y-60804761D01*
X85505952Y-60709523D01*
X85553571Y-60661904D01*
X85648810Y-60614285D01*
X85886905Y-60614285D01*
X85982143Y-60661904D01*
X86029762Y-60709523D01*
X86077381Y-60804761D01*
X86077381Y-61042857D01*
X86029762Y-61138095D01*
X85982143Y-61185714D01*
X81952381Y-61791666D02*
X81476190Y-62125000D01*
X81952381Y-62363095D02*
X80952381Y-62363095D01*
X80952381Y-61982142D01*
X81000000Y-61886904D01*
X81047619Y-61839285D01*
X81142857Y-61791666D01*
X81285714Y-61791666D01*
X81380952Y-61839285D01*
X81428571Y-61886904D01*
X81476190Y-61982142D01*
X81476190Y-62363095D01*
X80952381Y-60934523D02*
X80952381Y-61125000D01*
X81000000Y-61220238D01*
X81047619Y-61267857D01*
X81190476Y-61363095D01*
X81380952Y-61410714D01*
X81761905Y-61410714D01*
X81857143Y-61363095D01*
X81904762Y-61315476D01*
X81952381Y-61220238D01*
X81952381Y-61029761D01*
X81904762Y-60934523D01*
X81857143Y-60886904D01*
X81761905Y-60839285D01*
X81523810Y-60839285D01*
X81428571Y-60886904D01*
X81380952Y-60934523D01*
X81333333Y-61029761D01*
X81333333Y-61220238D01*
X81380952Y-61315476D01*
X81428571Y-61363095D01*
X81523810Y-61410714D01*
X68022381Y-43126666D02*
X67546190Y-43460000D01*
X68022381Y-43698095D02*
X67022381Y-43698095D01*
X67022381Y-43317142D01*
X67070000Y-43221904D01*
X67117619Y-43174285D01*
X67212857Y-43126666D01*
X67355714Y-43126666D01*
X67450952Y-43174285D01*
X67498571Y-43221904D01*
X67546190Y-43317142D01*
X67546190Y-43698095D01*
X67022381Y-42793333D02*
X67022381Y-42126666D01*
X68022381Y-42555238D01*
X118327381Y-65116666D02*
X117851190Y-65450000D01*
X118327381Y-65688095D02*
X117327381Y-65688095D01*
X117327381Y-65307142D01*
X117375000Y-65211904D01*
X117422619Y-65164285D01*
X117517857Y-65116666D01*
X117660714Y-65116666D01*
X117755952Y-65164285D01*
X117803571Y-65211904D01*
X117851190Y-65307142D01*
X117851190Y-65688095D01*
X117755952Y-64545238D02*
X117708333Y-64640476D01*
X117660714Y-64688095D01*
X117565476Y-64735714D01*
X117517857Y-64735714D01*
X117422619Y-64688095D01*
X117375000Y-64640476D01*
X117327381Y-64545238D01*
X117327381Y-64354761D01*
X117375000Y-64259523D01*
X117422619Y-64211904D01*
X117517857Y-64164285D01*
X117565476Y-64164285D01*
X117660714Y-64211904D01*
X117708333Y-64259523D01*
X117755952Y-64354761D01*
X117755952Y-64545238D01*
X117803571Y-64640476D01*
X117851190Y-64688095D01*
X117946429Y-64735714D01*
X118136905Y-64735714D01*
X118232143Y-64688095D01*
X118279762Y-64640476D01*
X118327381Y-64545238D01*
X118327381Y-64354761D01*
X118279762Y-64259523D01*
X118232143Y-64211904D01*
X118136905Y-64164285D01*
X117946429Y-64164285D01*
X117851190Y-64211904D01*
X117803571Y-64259523D01*
X117755952Y-64354761D01*
X115077381Y-21841666D02*
X114601190Y-22175000D01*
X115077381Y-22413095D02*
X114077381Y-22413095D01*
X114077381Y-22032142D01*
X114125000Y-21936904D01*
X114172619Y-21889285D01*
X114267857Y-21841666D01*
X114410714Y-21841666D01*
X114505952Y-21889285D01*
X114553571Y-21936904D01*
X114601190Y-22032142D01*
X114601190Y-22413095D01*
X115077381Y-21365476D02*
X115077381Y-21175000D01*
X115029762Y-21079761D01*
X114982143Y-21032142D01*
X114839286Y-20936904D01*
X114648810Y-20889285D01*
X114267857Y-20889285D01*
X114172619Y-20936904D01*
X114125000Y-20984523D01*
X114077381Y-21079761D01*
X114077381Y-21270238D01*
X114125000Y-21365476D01*
X114172619Y-21413095D01*
X114267857Y-21460714D01*
X114505952Y-21460714D01*
X114601190Y-21413095D01*
X114648810Y-21365476D01*
X114696429Y-21270238D01*
X114696429Y-21079761D01*
X114648810Y-20984523D01*
X114601190Y-20936904D01*
X114505952Y-20889285D01*
X107852381Y-22342857D02*
X107376190Y-22676191D01*
X107852381Y-22914286D02*
X106852381Y-22914286D01*
X106852381Y-22533333D01*
X106900000Y-22438095D01*
X106947619Y-22390476D01*
X107042857Y-22342857D01*
X107185714Y-22342857D01*
X107280952Y-22390476D01*
X107328571Y-22438095D01*
X107376190Y-22533333D01*
X107376190Y-22914286D01*
X107852381Y-21390476D02*
X107852381Y-21961905D01*
X107852381Y-21676191D02*
X106852381Y-21676191D01*
X106995238Y-21771429D01*
X107090476Y-21866667D01*
X107138095Y-21961905D01*
X106852381Y-20771429D02*
X106852381Y-20676190D01*
X106900000Y-20580952D01*
X106947619Y-20533333D01*
X107042857Y-20485714D01*
X107233333Y-20438095D01*
X107471429Y-20438095D01*
X107661905Y-20485714D01*
X107757143Y-20533333D01*
X107804762Y-20580952D01*
X107852381Y-20676190D01*
X107852381Y-20771429D01*
X107804762Y-20866667D01*
X107757143Y-20914286D01*
X107661905Y-20961905D01*
X107471429Y-21009524D01*
X107233333Y-21009524D01*
X107042857Y-20961905D01*
X106947619Y-20914286D01*
X106900000Y-20866667D01*
X106852381Y-20771429D01*
X103977381Y-22217857D02*
X103501190Y-22551191D01*
X103977381Y-22789286D02*
X102977381Y-22789286D01*
X102977381Y-22408333D01*
X103025000Y-22313095D01*
X103072619Y-22265476D01*
X103167857Y-22217857D01*
X103310714Y-22217857D01*
X103405952Y-22265476D01*
X103453571Y-22313095D01*
X103501190Y-22408333D01*
X103501190Y-22789286D01*
X103977381Y-21265476D02*
X103977381Y-21836905D01*
X103977381Y-21551191D02*
X102977381Y-21551191D01*
X103120238Y-21646429D01*
X103215476Y-21741667D01*
X103263095Y-21836905D01*
X103977381Y-20313095D02*
X103977381Y-20884524D01*
X103977381Y-20598810D02*
X102977381Y-20598810D01*
X103120238Y-20694048D01*
X103215476Y-20789286D01*
X103263095Y-20884524D01*
X111927381Y-22992857D02*
X111451190Y-23326191D01*
X111927381Y-23564286D02*
X110927381Y-23564286D01*
X110927381Y-23183333D01*
X110975000Y-23088095D01*
X111022619Y-23040476D01*
X111117857Y-22992857D01*
X111260714Y-22992857D01*
X111355952Y-23040476D01*
X111403571Y-23088095D01*
X111451190Y-23183333D01*
X111451190Y-23564286D01*
X111927381Y-22040476D02*
X111927381Y-22611905D01*
X111927381Y-22326191D02*
X110927381Y-22326191D01*
X111070238Y-22421429D01*
X111165476Y-22516667D01*
X111213095Y-22611905D01*
X111022619Y-21659524D02*
X110975000Y-21611905D01*
X110927381Y-21516667D01*
X110927381Y-21278571D01*
X110975000Y-21183333D01*
X111022619Y-21135714D01*
X111117857Y-21088095D01*
X111213095Y-21088095D01*
X111355952Y-21135714D01*
X111927381Y-21707143D01*
X111927381Y-21088095D01*
X43204762Y-70702381D02*
X42871428Y-70226190D01*
X42633333Y-70702381D02*
X42633333Y-69702381D01*
X43014286Y-69702381D01*
X43109524Y-69750000D01*
X43157143Y-69797619D01*
X43204762Y-69892857D01*
X43204762Y-70035714D01*
X43157143Y-70130952D01*
X43109524Y-70178571D01*
X43014286Y-70226190D01*
X42633333Y-70226190D01*
X43490476Y-69702381D02*
X43823809Y-70702381D01*
X44157143Y-69702381D01*
X45014286Y-70702381D02*
X44442857Y-70702381D01*
X44728571Y-70702381D02*
X44728571Y-69702381D01*
X44633333Y-69845238D01*
X44538095Y-69940476D01*
X44442857Y-69988095D01*
X65779762Y-70627381D02*
X65446428Y-70151190D01*
X65208333Y-70627381D02*
X65208333Y-69627381D01*
X65589286Y-69627381D01*
X65684524Y-69675000D01*
X65732143Y-69722619D01*
X65779762Y-69817857D01*
X65779762Y-69960714D01*
X65732143Y-70055952D01*
X65684524Y-70103571D01*
X65589286Y-70151190D01*
X65208333Y-70151190D01*
X66065476Y-69627381D02*
X66398809Y-70627381D01*
X66732143Y-69627381D01*
X67017857Y-69722619D02*
X67065476Y-69675000D01*
X67160714Y-69627381D01*
X67398810Y-69627381D01*
X67494048Y-69675000D01*
X67541667Y-69722619D01*
X67589286Y-69817857D01*
X67589286Y-69913095D01*
X67541667Y-70055952D01*
X66970238Y-70627381D01*
X67589286Y-70627381D01*
X54504762Y-70752381D02*
X54171428Y-70276190D01*
X53933333Y-70752381D02*
X53933333Y-69752381D01*
X54314286Y-69752381D01*
X54409524Y-69800000D01*
X54457143Y-69847619D01*
X54504762Y-69942857D01*
X54504762Y-70085714D01*
X54457143Y-70180952D01*
X54409524Y-70228571D01*
X54314286Y-70276190D01*
X53933333Y-70276190D01*
X54790476Y-69752381D02*
X55123809Y-70752381D01*
X55457143Y-69752381D01*
X56219048Y-70085714D02*
X56219048Y-70752381D01*
X55980952Y-69704762D02*
X55742857Y-70419048D01*
X56361905Y-70419048D01*
X81619762Y-70632381D02*
X81286428Y-70156190D01*
X81048333Y-70632381D02*
X81048333Y-69632381D01*
X81429286Y-69632381D01*
X81524524Y-69680000D01*
X81572143Y-69727619D01*
X81619762Y-69822857D01*
X81619762Y-69965714D01*
X81572143Y-70060952D01*
X81524524Y-70108571D01*
X81429286Y-70156190D01*
X81048333Y-70156190D01*
X81905476Y-69632381D02*
X82238809Y-70632381D01*
X82572143Y-69632381D01*
X83381667Y-69632381D02*
X82905476Y-69632381D01*
X82857857Y-70108571D01*
X82905476Y-70060952D01*
X83000714Y-70013333D01*
X83238810Y-70013333D01*
X83334048Y-70060952D01*
X83381667Y-70108571D01*
X83429286Y-70203810D01*
X83429286Y-70441905D01*
X83381667Y-70537143D01*
X83334048Y-70584762D01*
X83238810Y-70632381D01*
X83000714Y-70632381D01*
X82905476Y-70584762D01*
X82857857Y-70537143D01*
X89504762Y-70427381D02*
X89171428Y-69951190D01*
X88933333Y-70427381D02*
X88933333Y-69427381D01*
X89314286Y-69427381D01*
X89409524Y-69475000D01*
X89457143Y-69522619D01*
X89504762Y-69617857D01*
X89504762Y-69760714D01*
X89457143Y-69855952D01*
X89409524Y-69903571D01*
X89314286Y-69951190D01*
X88933333Y-69951190D01*
X89790476Y-69427381D02*
X90123809Y-70427381D01*
X90457143Y-69427381D01*
X91219048Y-69427381D02*
X91028571Y-69427381D01*
X90933333Y-69475000D01*
X90885714Y-69522619D01*
X90790476Y-69665476D01*
X90742857Y-69855952D01*
X90742857Y-70236905D01*
X90790476Y-70332143D01*
X90838095Y-70379762D01*
X90933333Y-70427381D01*
X91123810Y-70427381D01*
X91219048Y-70379762D01*
X91266667Y-70332143D01*
X91314286Y-70236905D01*
X91314286Y-69998810D01*
X91266667Y-69903571D01*
X91219048Y-69855952D01*
X91123810Y-69808333D01*
X90933333Y-69808333D01*
X90838095Y-69855952D01*
X90790476Y-69903571D01*
X90742857Y-69998810D01*
X104564762Y-70302381D02*
X104231428Y-69826190D01*
X103993333Y-70302381D02*
X103993333Y-69302381D01*
X104374286Y-69302381D01*
X104469524Y-69350000D01*
X104517143Y-69397619D01*
X104564762Y-69492857D01*
X104564762Y-69635714D01*
X104517143Y-69730952D01*
X104469524Y-69778571D01*
X104374286Y-69826190D01*
X103993333Y-69826190D01*
X104850476Y-69302381D02*
X105183809Y-70302381D01*
X105517143Y-69302381D01*
X105993333Y-69730952D02*
X105898095Y-69683333D01*
X105850476Y-69635714D01*
X105802857Y-69540476D01*
X105802857Y-69492857D01*
X105850476Y-69397619D01*
X105898095Y-69350000D01*
X105993333Y-69302381D01*
X106183810Y-69302381D01*
X106279048Y-69350000D01*
X106326667Y-69397619D01*
X106374286Y-69492857D01*
X106374286Y-69540476D01*
X106326667Y-69635714D01*
X106279048Y-69683333D01*
X106183810Y-69730952D01*
X105993333Y-69730952D01*
X105898095Y-69778571D01*
X105850476Y-69826190D01*
X105802857Y-69921429D01*
X105802857Y-70111905D01*
X105850476Y-70207143D01*
X105898095Y-70254762D01*
X105993333Y-70302381D01*
X106183810Y-70302381D01*
X106279048Y-70254762D01*
X106326667Y-70207143D01*
X106374286Y-70111905D01*
X106374286Y-69921429D01*
X106326667Y-69826190D01*
X106279048Y-69778571D01*
X106183810Y-69730952D01*
X117209762Y-70302381D02*
X116876428Y-69826190D01*
X116638333Y-70302381D02*
X116638333Y-69302381D01*
X117019286Y-69302381D01*
X117114524Y-69350000D01*
X117162143Y-69397619D01*
X117209762Y-69492857D01*
X117209762Y-69635714D01*
X117162143Y-69730952D01*
X117114524Y-69778571D01*
X117019286Y-69826190D01*
X116638333Y-69826190D01*
X117495476Y-69302381D02*
X117828809Y-70302381D01*
X118162143Y-69302381D01*
X118543095Y-70302381D02*
X118733571Y-70302381D01*
X118828810Y-70254762D01*
X118876429Y-70207143D01*
X118971667Y-70064286D01*
X119019286Y-69873810D01*
X119019286Y-69492857D01*
X118971667Y-69397619D01*
X118924048Y-69350000D01*
X118828810Y-69302381D01*
X118638333Y-69302381D01*
X118543095Y-69350000D01*
X118495476Y-69397619D01*
X118447857Y-69492857D01*
X118447857Y-69730952D01*
X118495476Y-69826190D01*
X118543095Y-69873810D01*
X118638333Y-69921429D01*
X118828810Y-69921429D01*
X118924048Y-69873810D01*
X118971667Y-69826190D01*
X119019286Y-69730952D01*
X27838095Y-33377381D02*
X27838095Y-34186905D01*
X27885714Y-34282143D01*
X27933333Y-34329762D01*
X28028571Y-34377381D01*
X28219048Y-34377381D01*
X28314286Y-34329762D01*
X28361905Y-34282143D01*
X28409524Y-34186905D01*
X28409524Y-33377381D01*
X28790476Y-33377381D02*
X29409524Y-33377381D01*
X29076190Y-33758333D01*
X29219048Y-33758333D01*
X29314286Y-33805952D01*
X29361905Y-33853571D01*
X29409524Y-33948810D01*
X29409524Y-34186905D01*
X29361905Y-34282143D01*
X29314286Y-34329762D01*
X29219048Y-34377381D01*
X28933333Y-34377381D01*
X28838095Y-34329762D01*
X28790476Y-34282143D01*
X55772381Y-32921905D02*
X56581905Y-32921905D01*
X56677143Y-32874286D01*
X56724762Y-32826667D01*
X56772381Y-32731429D01*
X56772381Y-32540952D01*
X56724762Y-32445714D01*
X56677143Y-32398095D01*
X56581905Y-32350476D01*
X55772381Y-32350476D01*
X56105714Y-31445714D02*
X56772381Y-31445714D01*
X55724762Y-31683810D02*
X56439048Y-31921905D01*
X56439048Y-31302857D01*
X32738095Y-46702381D02*
X32738095Y-47511905D01*
X32785714Y-47607143D01*
X32833333Y-47654762D01*
X32928571Y-47702381D01*
X33119048Y-47702381D01*
X33214286Y-47654762D01*
X33261905Y-47607143D01*
X33309524Y-47511905D01*
X33309524Y-46702381D01*
X33690476Y-46702381D02*
X34357143Y-46702381D01*
X33928571Y-47702381D01*
X86713095Y-52652381D02*
X86713095Y-53461905D01*
X86760714Y-53557143D01*
X86808333Y-53604762D01*
X86903571Y-53652381D01*
X87094048Y-53652381D01*
X87189286Y-53604762D01*
X87236905Y-53557143D01*
X87284524Y-53461905D01*
X87284524Y-52652381D01*
X87903571Y-53080952D02*
X87808333Y-53033333D01*
X87760714Y-52985714D01*
X87713095Y-52890476D01*
X87713095Y-52842857D01*
X87760714Y-52747619D01*
X87808333Y-52700000D01*
X87903571Y-52652381D01*
X88094048Y-52652381D01*
X88189286Y-52700000D01*
X88236905Y-52747619D01*
X88284524Y-52842857D01*
X88284524Y-52890476D01*
X88236905Y-52985714D01*
X88189286Y-53033333D01*
X88094048Y-53080952D01*
X87903571Y-53080952D01*
X87808333Y-53128571D01*
X87760714Y-53176190D01*
X87713095Y-53271429D01*
X87713095Y-53461905D01*
X87760714Y-53557143D01*
X87808333Y-53604762D01*
X87903571Y-53652381D01*
X88094048Y-53652381D01*
X88189286Y-53604762D01*
X88236905Y-53557143D01*
X88284524Y-53461905D01*
X88284524Y-53271429D01*
X88236905Y-53176190D01*
X88189286Y-53128571D01*
X88094048Y-53080952D01*
X67463095Y-45602381D02*
X67463095Y-46411905D01*
X67510714Y-46507143D01*
X67558333Y-46554762D01*
X67653571Y-46602381D01*
X67844048Y-46602381D01*
X67939286Y-46554762D01*
X67986905Y-46507143D01*
X68034524Y-46411905D01*
X68034524Y-45602381D01*
X68558333Y-46602381D02*
X68748809Y-46602381D01*
X68844048Y-46554762D01*
X68891667Y-46507143D01*
X68986905Y-46364286D01*
X69034524Y-46173810D01*
X69034524Y-45792857D01*
X68986905Y-45697619D01*
X68939286Y-45650000D01*
X68844048Y-45602381D01*
X68653571Y-45602381D01*
X68558333Y-45650000D01*
X68510714Y-45697619D01*
X68463095Y-45792857D01*
X68463095Y-46030952D01*
X68510714Y-46126190D01*
X68558333Y-46173810D01*
X68653571Y-46221429D01*
X68844048Y-46221429D01*
X68939286Y-46173810D01*
X68986905Y-46126190D01*
X69034524Y-46030952D01*
X50811905Y-46677381D02*
X50811905Y-47486905D01*
X50859524Y-47582143D01*
X50907143Y-47629762D01*
X51002381Y-47677381D01*
X51192858Y-47677381D01*
X51288096Y-47629762D01*
X51335715Y-47582143D01*
X51383334Y-47486905D01*
X51383334Y-46677381D01*
X52383334Y-47677381D02*
X51811905Y-47677381D01*
X52097619Y-47677381D02*
X52097619Y-46677381D01*
X52002381Y-46820238D01*
X51907143Y-46915476D01*
X51811905Y-46963095D01*
X53002381Y-46677381D02*
X53097620Y-46677381D01*
X53192858Y-46725000D01*
X53240477Y-46772619D01*
X53288096Y-46867857D01*
X53335715Y-47058333D01*
X53335715Y-47296429D01*
X53288096Y-47486905D01*
X53240477Y-47582143D01*
X53192858Y-47629762D01*
X53097620Y-47677381D01*
X53002381Y-47677381D01*
X52907143Y-47629762D01*
X52859524Y-47582143D01*
X52811905Y-47486905D01*
X52764286Y-47296429D01*
X52764286Y-47058333D01*
X52811905Y-46867857D01*
X52859524Y-46772619D01*
X52907143Y-46725000D01*
X53002381Y-46677381D01*
X89786905Y-46252381D02*
X89786905Y-47061905D01*
X89834524Y-47157143D01*
X89882143Y-47204762D01*
X89977381Y-47252381D01*
X90167858Y-47252381D01*
X90263096Y-47204762D01*
X90310715Y-47157143D01*
X90358334Y-47061905D01*
X90358334Y-46252381D01*
X91358334Y-47252381D02*
X90786905Y-47252381D01*
X91072619Y-47252381D02*
X91072619Y-46252381D01*
X90977381Y-46395238D01*
X90882143Y-46490476D01*
X90786905Y-46538095D01*
X92310715Y-47252381D02*
X91739286Y-47252381D01*
X92025000Y-47252381D02*
X92025000Y-46252381D01*
X91929762Y-46395238D01*
X91834524Y-46490476D01*
X91739286Y-46538095D01*
X105111905Y-48852381D02*
X105111905Y-49661905D01*
X105159524Y-49757143D01*
X105207143Y-49804762D01*
X105302381Y-49852381D01*
X105492858Y-49852381D01*
X105588096Y-49804762D01*
X105635715Y-49757143D01*
X105683334Y-49661905D01*
X105683334Y-48852381D01*
X106683334Y-49852381D02*
X106111905Y-49852381D01*
X106397619Y-49852381D02*
X106397619Y-48852381D01*
X106302381Y-48995238D01*
X106207143Y-49090476D01*
X106111905Y-49138095D01*
X107064286Y-48947619D02*
X107111905Y-48900000D01*
X107207143Y-48852381D01*
X107445239Y-48852381D01*
X107540477Y-48900000D01*
X107588096Y-48947619D01*
X107635715Y-49042857D01*
X107635715Y-49138095D01*
X107588096Y-49280952D01*
X107016667Y-49852381D01*
X107635715Y-49852381D01*
X87127381Y-32188095D02*
X87936905Y-32188095D01*
X88032143Y-32140476D01*
X88079762Y-32092857D01*
X88127381Y-31997619D01*
X88127381Y-31807142D01*
X88079762Y-31711904D01*
X88032143Y-31664285D01*
X87936905Y-31616666D01*
X87127381Y-31616666D01*
X88127381Y-30616666D02*
X88127381Y-31188095D01*
X88127381Y-30902381D02*
X87127381Y-30902381D01*
X87270238Y-30997619D01*
X87365476Y-31092857D01*
X87413095Y-31188095D01*
X87460714Y-29759523D02*
X88127381Y-29759523D01*
X87079762Y-29997619D02*
X87794048Y-30235714D01*
X87794048Y-29616666D01*
X37810238Y-66414921D02*
X38048333Y-67414921D01*
X38238810Y-66700635D01*
X38429286Y-67414921D01*
X38667381Y-66414921D01*
X39572143Y-67414921D02*
X39000714Y-67414921D01*
X39286428Y-67414921D02*
X39286428Y-66414921D01*
X39191190Y-66557778D01*
X39095952Y-66653016D01*
X39000714Y-66700635D01*
X44045238Y-66364921D02*
X44283333Y-67364921D01*
X44473810Y-66650635D01*
X44664286Y-67364921D01*
X44902381Y-66364921D01*
X45235714Y-66460159D02*
X45283333Y-66412540D01*
X45378571Y-66364921D01*
X45616667Y-66364921D01*
X45711905Y-66412540D01*
X45759524Y-66460159D01*
X45807143Y-66555397D01*
X45807143Y-66650635D01*
X45759524Y-66793492D01*
X45188095Y-67364921D01*
X45807143Y-67364921D01*
X66905238Y-66364921D02*
X67143333Y-67364921D01*
X67333810Y-66650635D01*
X67524286Y-67364921D01*
X67762381Y-66364921D01*
X68048095Y-66364921D02*
X68667143Y-66364921D01*
X68333809Y-66745873D01*
X68476667Y-66745873D01*
X68571905Y-66793492D01*
X68619524Y-66841111D01*
X68667143Y-66936350D01*
X68667143Y-67174445D01*
X68619524Y-67269683D01*
X68571905Y-67317302D01*
X68476667Y-67364921D01*
X68190952Y-67364921D01*
X68095714Y-67317302D01*
X68048095Y-67269683D01*
X55475238Y-66364921D02*
X55713333Y-67364921D01*
X55903810Y-66650635D01*
X56094286Y-67364921D01*
X56332381Y-66364921D01*
X57141905Y-66698254D02*
X57141905Y-67364921D01*
X56903809Y-66317302D02*
X56665714Y-67031588D01*
X57284762Y-67031588D01*
X82455238Y-66184921D02*
X82693333Y-67184921D01*
X82883810Y-66470635D01*
X83074286Y-67184921D01*
X83312381Y-66184921D01*
X84169524Y-66184921D02*
X83693333Y-66184921D01*
X83645714Y-66661111D01*
X83693333Y-66613492D01*
X83788571Y-66565873D01*
X84026667Y-66565873D01*
X84121905Y-66613492D01*
X84169524Y-66661111D01*
X84217143Y-66756350D01*
X84217143Y-66994445D01*
X84169524Y-67089683D01*
X84121905Y-67137302D01*
X84026667Y-67184921D01*
X83788571Y-67184921D01*
X83693333Y-67137302D01*
X83645714Y-67089683D01*
X99485238Y-65959921D02*
X99723333Y-66959921D01*
X99913810Y-66245635D01*
X100104286Y-66959921D01*
X100342381Y-65959921D01*
X101151905Y-65959921D02*
X100961428Y-65959921D01*
X100866190Y-66007540D01*
X100818571Y-66055159D01*
X100723333Y-66198016D01*
X100675714Y-66388492D01*
X100675714Y-66769445D01*
X100723333Y-66864683D01*
X100770952Y-66912302D01*
X100866190Y-66959921D01*
X101056667Y-66959921D01*
X101151905Y-66912302D01*
X101199524Y-66864683D01*
X101247143Y-66769445D01*
X101247143Y-66531350D01*
X101199524Y-66436111D01*
X101151905Y-66388492D01*
X101056667Y-66340873D01*
X100866190Y-66340873D01*
X100770952Y-66388492D01*
X100723333Y-66436111D01*
X100675714Y-66531350D01*
X105835238Y-65959921D02*
X106073333Y-66959921D01*
X106263810Y-66245635D01*
X106454286Y-66959921D01*
X106692381Y-65959921D01*
X106978095Y-65959921D02*
X107644762Y-65959921D01*
X107216190Y-66959921D01*
X32077381Y-30136905D02*
X32886905Y-30136905D01*
X32982143Y-30089286D01*
X33029762Y-30041667D01*
X33077381Y-29946429D01*
X33077381Y-29755952D01*
X33029762Y-29660714D01*
X32982143Y-29613095D01*
X32886905Y-29565476D01*
X32077381Y-29565476D01*
X32077381Y-28613095D02*
X32077381Y-29089286D01*
X32553571Y-29136905D01*
X32505952Y-29089286D01*
X32458333Y-28994048D01*
X32458333Y-28755952D01*
X32505952Y-28660714D01*
X32553571Y-28613095D01*
X32648810Y-28565476D01*
X32886905Y-28565476D01*
X32982143Y-28613095D01*
X33029762Y-28660714D01*
X33077381Y-28755952D01*
X33077381Y-28994048D01*
X33029762Y-29089286D01*
X32982143Y-29136905D01*
X83262381Y-43602857D02*
X82786190Y-43936191D01*
X83262381Y-44174286D02*
X82262381Y-44174286D01*
X82262381Y-43793333D01*
X82310000Y-43698095D01*
X82357619Y-43650476D01*
X82452857Y-43602857D01*
X82595714Y-43602857D01*
X82690952Y-43650476D01*
X82738571Y-43698095D01*
X82786190Y-43793333D01*
X82786190Y-44174286D01*
X83262381Y-42650476D02*
X83262381Y-43221905D01*
X83262381Y-42936191D02*
X82262381Y-42936191D01*
X82405238Y-43031429D01*
X82500476Y-43126667D01*
X82548095Y-43221905D01*
X82262381Y-42317143D02*
X82262381Y-41698095D01*
X82643333Y-42031429D01*
X82643333Y-41888571D01*
X82690952Y-41793333D01*
X82738571Y-41745714D01*
X82833810Y-41698095D01*
X83071905Y-41698095D01*
X83167143Y-41745714D01*
X83214762Y-41793333D01*
X83262381Y-41888571D01*
X83262381Y-42174286D01*
X83214762Y-42269524D01*
X83167143Y-42317143D01*
X30017143Y-47986666D02*
X30064762Y-48034285D01*
X30112381Y-48177142D01*
X30112381Y-48272380D01*
X30064762Y-48415238D01*
X29969524Y-48510476D01*
X29874286Y-48558095D01*
X29683810Y-48605714D01*
X29540952Y-48605714D01*
X29350476Y-48558095D01*
X29255238Y-48510476D01*
X29160000Y-48415238D01*
X29112381Y-48272380D01*
X29112381Y-48177142D01*
X29160000Y-48034285D01*
X29207619Y-47986666D01*
X29207619Y-47605714D02*
X29160000Y-47558095D01*
X29112381Y-47462857D01*
X29112381Y-47224761D01*
X29160000Y-47129523D01*
X29207619Y-47081904D01*
X29302857Y-47034285D01*
X29398095Y-47034285D01*
X29540952Y-47081904D01*
X30112381Y-47653333D01*
X30112381Y-47034285D01*
X30017143Y-59416666D02*
X30064762Y-59464285D01*
X30112381Y-59607142D01*
X30112381Y-59702380D01*
X30064762Y-59845238D01*
X29969524Y-59940476D01*
X29874286Y-59988095D01*
X29683810Y-60035714D01*
X29540952Y-60035714D01*
X29350476Y-59988095D01*
X29255238Y-59940476D01*
X29160000Y-59845238D01*
X29112381Y-59702380D01*
X29112381Y-59607142D01*
X29160000Y-59464285D01*
X29207619Y-59416666D01*
X29112381Y-59083333D02*
X29112381Y-58464285D01*
X29493333Y-58797619D01*
X29493333Y-58654761D01*
X29540952Y-58559523D01*
X29588571Y-58511904D01*
X29683810Y-58464285D01*
X29921905Y-58464285D01*
X30017143Y-58511904D01*
X30064762Y-58559523D01*
X30112381Y-58654761D01*
X30112381Y-58940476D01*
X30064762Y-59035714D01*
X30017143Y-59083333D01*
X69432143Y-66032143D02*
X69384524Y-66079762D01*
X69241667Y-66127381D01*
X69146429Y-66127381D01*
X69003571Y-66079762D01*
X68908333Y-65984524D01*
X68860714Y-65889286D01*
X68813095Y-65698810D01*
X68813095Y-65555952D01*
X68860714Y-65365476D01*
X68908333Y-65270238D01*
X69003571Y-65175000D01*
X69146429Y-65127381D01*
X69241667Y-65127381D01*
X69384524Y-65175000D01*
X69432143Y-65222619D01*
X69813095Y-65222619D02*
X69860714Y-65175000D01*
X69955952Y-65127381D01*
X70194048Y-65127381D01*
X70289286Y-65175000D01*
X70336905Y-65222619D01*
X70384524Y-65317857D01*
X70384524Y-65413095D01*
X70336905Y-65555952D01*
X69765476Y-66127381D01*
X70384524Y-66127381D01*
X71003571Y-65127381D02*
X71098810Y-65127381D01*
X71194048Y-65175000D01*
X71241667Y-65222619D01*
X71289286Y-65317857D01*
X71336905Y-65508333D01*
X71336905Y-65746429D01*
X71289286Y-65936905D01*
X71241667Y-66032143D01*
X71194048Y-66079762D01*
X71098810Y-66127381D01*
X71003571Y-66127381D01*
X70908333Y-66079762D01*
X70860714Y-66032143D01*
X70813095Y-65936905D01*
X70765476Y-65746429D01*
X70765476Y-65508333D01*
X70813095Y-65317857D01*
X70860714Y-65222619D01*
X70908333Y-65175000D01*
X71003571Y-65127381D01*
X12993334Y-49437143D02*
X12945715Y-49484762D01*
X12802858Y-49532381D01*
X12707620Y-49532381D01*
X12564762Y-49484762D01*
X12469524Y-49389524D01*
X12421905Y-49294286D01*
X12374286Y-49103810D01*
X12374286Y-48960952D01*
X12421905Y-48770476D01*
X12469524Y-48675238D01*
X12564762Y-48580000D01*
X12707620Y-48532381D01*
X12802858Y-48532381D01*
X12945715Y-48580000D01*
X12993334Y-48627619D01*
X13945715Y-49532381D02*
X13374286Y-49532381D01*
X13660000Y-49532381D02*
X13660000Y-48532381D01*
X13564762Y-48675238D01*
X13469524Y-48770476D01*
X13374286Y-48818095D01*
X92307143Y-67382143D02*
X92259524Y-67429762D01*
X92116667Y-67477381D01*
X92021429Y-67477381D01*
X91878571Y-67429762D01*
X91783333Y-67334524D01*
X91735714Y-67239286D01*
X91688095Y-67048810D01*
X91688095Y-66905952D01*
X91735714Y-66715476D01*
X91783333Y-66620238D01*
X91878571Y-66525000D01*
X92021429Y-66477381D01*
X92116667Y-66477381D01*
X92259524Y-66525000D01*
X92307143Y-66572619D01*
X92640476Y-66477381D02*
X93259524Y-66477381D01*
X92926190Y-66858333D01*
X93069048Y-66858333D01*
X93164286Y-66905952D01*
X93211905Y-66953571D01*
X93259524Y-67048810D01*
X93259524Y-67286905D01*
X93211905Y-67382143D01*
X93164286Y-67429762D01*
X93069048Y-67477381D01*
X92783333Y-67477381D01*
X92688095Y-67429762D01*
X92640476Y-67382143D01*
X93878571Y-66477381D02*
X93973810Y-66477381D01*
X94069048Y-66525000D01*
X94116667Y-66572619D01*
X94164286Y-66667857D01*
X94211905Y-66858333D01*
X94211905Y-67096429D01*
X94164286Y-67286905D01*
X94116667Y-67382143D01*
X94069048Y-67429762D01*
X93973810Y-67477381D01*
X93878571Y-67477381D01*
X93783333Y-67429762D01*
X93735714Y-67382143D01*
X93688095Y-67286905D01*
X93640476Y-67096429D01*
X93640476Y-66858333D01*
X93688095Y-66667857D01*
X93735714Y-66572619D01*
X93783333Y-66525000D01*
X93878571Y-66477381D01*
X57366667Y-18552381D02*
X57366667Y-19266667D01*
X57319047Y-19409524D01*
X57223809Y-19504762D01*
X57080952Y-19552381D01*
X56985714Y-19552381D01*
X57842857Y-19552381D02*
X57842857Y-18552381D01*
X58223810Y-18552381D01*
X58319048Y-18600000D01*
X58366667Y-18647619D01*
X58414286Y-18742857D01*
X58414286Y-18885714D01*
X58366667Y-18980952D01*
X58319048Y-19028571D01*
X58223810Y-19076190D01*
X57842857Y-19076190D01*
X58795238Y-18647619D02*
X58842857Y-18600000D01*
X58938095Y-18552381D01*
X59176191Y-18552381D01*
X59271429Y-18600000D01*
X59319048Y-18647619D01*
X59366667Y-18742857D01*
X59366667Y-18838095D01*
X59319048Y-18980952D01*
X58747619Y-19552381D01*
X59366667Y-19552381D01*
X118095238Y-66434921D02*
X118333333Y-67434921D01*
X118523810Y-66720635D01*
X118714286Y-67434921D01*
X118952381Y-66434921D01*
X119476190Y-66863492D02*
X119380952Y-66815873D01*
X119333333Y-66768254D01*
X119285714Y-66673016D01*
X119285714Y-66625397D01*
X119333333Y-66530159D01*
X119380952Y-66482540D01*
X119476190Y-66434921D01*
X119666667Y-66434921D01*
X119761905Y-66482540D01*
X119809524Y-66530159D01*
X119857143Y-66625397D01*
X119857143Y-66673016D01*
X119809524Y-66768254D01*
X119761905Y-66815873D01*
X119666667Y-66863492D01*
X119476190Y-66863492D01*
X119380952Y-66911111D01*
X119333333Y-66958730D01*
X119285714Y-67053969D01*
X119285714Y-67244445D01*
X119333333Y-67339683D01*
X119380952Y-67387302D01*
X119476190Y-67434921D01*
X119666667Y-67434921D01*
X119761905Y-67387302D01*
X119809524Y-67339683D01*
X119857143Y-67244445D01*
X119857143Y-67053969D01*
X119809524Y-66958730D01*
X119761905Y-66911111D01*
X119666667Y-66863492D01*
X111416667Y-66904762D02*
X111559524Y-66952381D01*
X111797620Y-66952381D01*
X111892858Y-66904762D01*
X111940477Y-66857143D01*
X111988096Y-66761905D01*
X111988096Y-66666667D01*
X111940477Y-66571429D01*
X111892858Y-66523810D01*
X111797620Y-66476190D01*
X111607143Y-66428571D01*
X111511905Y-66380952D01*
X111464286Y-66333333D01*
X111416667Y-66238095D01*
X111416667Y-66142857D01*
X111464286Y-66047619D01*
X111511905Y-66000000D01*
X111607143Y-65952381D01*
X111845239Y-65952381D01*
X111988096Y-66000000D01*
X112321429Y-65952381D02*
X112559524Y-66952381D01*
X112750001Y-66238095D01*
X112940477Y-66952381D01*
X113178572Y-65952381D01*
X114083334Y-66952381D02*
X113511905Y-66952381D01*
X113797619Y-66952381D02*
X113797619Y-65952381D01*
X113702381Y-66095238D01*
X113607143Y-66190476D01*
X113511905Y-66238095D01*
X10952381Y-23293165D02*
X11761905Y-23293165D01*
X11857143Y-23245546D01*
X11904762Y-23197927D01*
X11952381Y-23102689D01*
X11952381Y-22912212D01*
X11904762Y-22816974D01*
X11857143Y-22769355D01*
X11761905Y-22721736D01*
X10952381Y-22721736D01*
X10952381Y-21816974D02*
X10952381Y-22007451D01*
X11000000Y-22102689D01*
X11047619Y-22150308D01*
X11190476Y-22245546D01*
X11380952Y-22293165D01*
X11761905Y-22293165D01*
X11857143Y-22245546D01*
X11904762Y-22197927D01*
X11952381Y-22102689D01*
X11952381Y-21912212D01*
X11904762Y-21816974D01*
X11857143Y-21769355D01*
X11761905Y-21721736D01*
X11523810Y-21721736D01*
X11428571Y-21769355D01*
X11380952Y-21816974D01*
X11333333Y-21912212D01*
X11333333Y-22102689D01*
X11380952Y-22197927D01*
X11428571Y-22245546D01*
X11523810Y-22293165D01*
M02*
