%FSLAX45Y45*%
G04 Gerber Fmt 4.5, Leading zero omitted, Abs format (unit mm)*
G04 Created by KiCad (PCBNEW 4.0.2+dfsg1-stable) date Fri 11 Nov 2016 12:38:11 NZDT*
%MOMM*%
G01*
G04 APERTURE LIST*
%ADD10C,0.127000*%
%ADD11C,0.150000*%
%ADD12C,0.200000*%
%ADD13C,0.300000*%
G04 APERTURE END LIST*
D10*
D11*
X17453898Y-5675348D02*
X16953898Y-5675348D01*
X17453898Y-14175348D02*
X17453898Y-5675348D01*
X16953898Y-14175348D02*
X17453898Y-14175348D01*
X4453898Y-14175348D02*
X4953898Y-14175348D01*
X4453898Y-5675348D02*
X4453898Y-14175348D01*
X4453898Y-5675348D02*
X4953898Y-5675348D01*
X4953898Y-14175348D02*
X16953898Y-14175348D01*
X16953898Y-5675348D02*
X4953898Y-5675348D01*
D12*
X5453898Y-11935348D02*
X5493898Y-11975348D01*
X5493898Y-11935348D02*
X5453898Y-11975348D01*
X6313898Y-9655348D02*
X6353898Y-9695348D01*
X6353898Y-9655348D02*
X6313898Y-9695348D01*
X6373898Y-8795348D02*
X6413898Y-8835348D01*
X6413898Y-8795348D02*
X6373898Y-8835348D01*
X6579398Y-8472848D02*
X6619398Y-8512848D01*
X6619398Y-8472848D02*
X6579398Y-8512848D01*
X6896898Y-8917348D02*
X6936898Y-8957348D01*
X6936898Y-8917348D02*
X6896898Y-8957348D01*
X7513898Y-9875348D02*
X7553898Y-9915348D01*
X7553898Y-9875348D02*
X7513898Y-9915348D01*
X7535129Y-9672115D02*
X7575129Y-9712115D01*
X7575129Y-9672115D02*
X7535129Y-9712115D01*
X7658898Y-9742848D02*
X7698898Y-9782848D01*
X7698898Y-9742848D02*
X7658898Y-9782848D01*
X8173898Y-10595348D02*
X8213898Y-10635348D01*
X8213898Y-10595348D02*
X8173898Y-10635348D01*
X8293898Y-11695348D02*
X8333898Y-11735348D01*
X8333898Y-11695348D02*
X8293898Y-11735348D01*
X8313898Y-10875348D02*
X8353898Y-10915348D01*
X8353898Y-10875348D02*
X8313898Y-10915348D01*
X9133898Y-10395348D02*
X9173898Y-10435348D01*
X9173898Y-10395348D02*
X9133898Y-10435348D01*
X9143898Y-8802848D02*
X9183898Y-8842848D01*
X9183898Y-8802848D02*
X9143898Y-8842848D01*
X9353898Y-9182848D02*
X9393898Y-9222848D01*
X9393898Y-9182848D02*
X9353898Y-9222848D01*
X9518898Y-7455348D02*
X9558898Y-7495348D01*
X9558898Y-7455348D02*
X9518898Y-7495348D01*
X10073898Y-10955348D02*
X10113898Y-10995348D01*
X10113898Y-10955348D02*
X10073898Y-10995348D01*
X11221398Y-7490348D02*
X11261398Y-7530348D01*
X11261398Y-7490348D02*
X11221398Y-7530348D01*
X11713898Y-10735348D02*
X11753898Y-10775348D01*
X11753898Y-10735348D02*
X11713898Y-10775348D01*
X12484898Y-10949348D02*
X12524898Y-10989348D01*
X12524898Y-10949348D02*
X12484898Y-10989348D01*
X12644248Y-10027998D02*
X12684248Y-10067998D01*
X12684248Y-10027998D02*
X12644248Y-10067998D01*
X12742900Y-9996848D02*
X12782900Y-10036848D01*
X12782900Y-9996848D02*
X12742900Y-10036848D01*
X12802398Y-7964848D02*
X12842398Y-8004848D01*
X12842398Y-7964848D02*
X12802398Y-8004848D01*
X12802398Y-8282348D02*
X12842398Y-8322348D01*
X12842398Y-8282348D02*
X12802398Y-8322348D01*
X13373898Y-10314348D02*
X13413898Y-10354348D01*
X13413898Y-10314348D02*
X13373898Y-10354348D01*
X13382398Y-8297448D02*
X13422398Y-8337448D01*
X13422398Y-8297448D02*
X13382398Y-8337448D01*
X13536398Y-10752848D02*
X13576398Y-10792848D01*
X13576398Y-10752848D02*
X13536398Y-10792848D01*
X13998898Y-10727848D02*
X14038898Y-10767848D01*
X14038898Y-10727848D02*
X13998898Y-10767848D01*
X14441898Y-11895401D02*
X14481898Y-11935401D01*
X14481898Y-11895401D02*
X14441898Y-11935401D01*
X14774900Y-6694848D02*
X14814900Y-6734848D01*
X14814900Y-6694848D02*
X14774900Y-6734848D01*
X14802667Y-6962850D02*
X14842667Y-7002850D01*
X14842667Y-6962850D02*
X14802667Y-7002850D01*
X14829987Y-6812222D02*
X14869987Y-6852222D01*
X14869987Y-6812222D02*
X14829987Y-6852222D01*
X14834398Y-7734848D02*
X14874398Y-7774848D01*
X14874398Y-7734848D02*
X14834398Y-7774848D01*
X14938898Y-11207848D02*
X14978898Y-11247848D01*
X14978898Y-11207848D02*
X14938898Y-11247848D01*
X15353898Y-6615348D02*
X15393898Y-6655348D01*
X15393898Y-6615348D02*
X15353898Y-6655348D01*
X15430898Y-9375348D02*
X15470898Y-9415348D01*
X15470898Y-9375348D02*
X15430898Y-9415348D01*
X15433898Y-8375348D02*
X15473898Y-8415348D01*
X15473898Y-8375348D02*
X15433898Y-8415348D01*
X15546398Y-11015348D02*
X15586398Y-11055348D01*
X15586398Y-11015348D02*
X15546398Y-11055348D01*
X15596398Y-7712848D02*
X15636398Y-7752848D01*
X15636398Y-7712848D02*
X15596398Y-7752848D01*
X15840998Y-5931148D02*
X15880998Y-5971148D01*
X15880998Y-5931148D02*
X15840998Y-5971148D01*
X16358898Y-10587848D02*
X16398898Y-10627848D01*
X16398898Y-10587848D02*
X16358898Y-10627848D01*
X16413898Y-6357848D02*
X16453898Y-6397848D01*
X16453898Y-6357848D02*
X16413898Y-6397848D01*
X8357148Y-12498348D02*
G75*
G03X8357148Y-12498348I-31750J0D01*
G01*
X8980648Y-12493348D02*
G75*
G03X8980648Y-12493348I-31750J0D01*
G01*
X10123648Y-12493348D02*
G75*
G03X10123648Y-12493348I-31750J0D01*
G01*
X11266648Y-12493348D02*
G75*
G03X11266648Y-12493348I-31750J0D01*
G01*
X12821648Y-12475348D02*
G75*
G03X12821648Y-12475348I-31750J0D01*
G01*
X14524648Y-12452848D02*
G75*
G03X14524648Y-12452848I-31750J0D01*
G01*
X15159648Y-12452848D02*
G75*
G03X15159648Y-12452848I-31750J0D01*
G01*
X16385648Y-12500348D02*
G75*
G03X16385648Y-12500348I-31750J0D01*
G01*
X15070058Y-8611831D02*
X15070058Y-8681935D01*
X15035006Y-8646883D02*
X15105110Y-8646883D01*
X15070110Y-8992577D02*
X15070110Y-9062681D01*
X15035058Y-9027629D02*
X15105162Y-9027629D01*
X16086058Y-8611831D02*
X16086058Y-8681935D01*
X16051006Y-8646883D02*
X16121110Y-8646883D01*
X16086110Y-8992577D02*
X16086110Y-9062681D01*
X16051058Y-9027629D02*
X16121162Y-9027629D01*
X5548183Y-9981632D02*
X5548183Y-9925063D01*
X5491614Y-9925063D01*
X5491614Y-9981632D01*
X5548183Y-9981632D01*
X6048183Y-9981632D02*
X6048183Y-9925063D01*
X5991614Y-9925063D01*
X5991614Y-9981632D01*
X6048183Y-9981632D01*
X6818183Y-10235632D02*
X6818183Y-10179063D01*
X6761614Y-10179063D01*
X6761614Y-10235632D01*
X6818183Y-10235632D01*
X6818183Y-10735632D02*
X6818183Y-10679063D01*
X6761614Y-10679063D01*
X6761614Y-10735632D01*
X6818183Y-10735632D01*
X6818183Y-11378632D02*
X6818183Y-11322063D01*
X6761614Y-11322063D01*
X6761614Y-11378632D01*
X6818183Y-11378632D01*
X6818183Y-11878632D02*
X6818183Y-11822063D01*
X6761614Y-11822063D01*
X6761614Y-11878632D01*
X6818183Y-11878632D01*
X7961183Y-10616632D02*
X7961183Y-10560063D01*
X7904614Y-10560063D01*
X7904614Y-10616632D01*
X7961183Y-10616632D01*
X7961183Y-10870632D02*
X7961183Y-10814063D01*
X7904614Y-10814063D01*
X7904614Y-10870632D01*
X7961183Y-10870632D01*
X7961183Y-11124632D02*
X7961183Y-11068063D01*
X7904614Y-11068063D01*
X7904614Y-11124632D01*
X7961183Y-11124632D01*
X7961183Y-11378632D02*
X7961183Y-11322063D01*
X7904614Y-11322063D01*
X7904614Y-11378632D01*
X7961183Y-11378632D01*
X8088183Y-7897143D02*
X8088183Y-7840574D01*
X8031614Y-7840574D01*
X8031614Y-7897143D01*
X8088183Y-7897143D01*
X8088183Y-8659143D02*
X8088183Y-8602574D01*
X8031614Y-8602574D01*
X8031614Y-8659143D01*
X8088183Y-8659143D01*
X8342183Y-7897143D02*
X8342183Y-7840574D01*
X8285614Y-7840574D01*
X8285614Y-7897143D01*
X8342183Y-7897143D01*
X8342183Y-8659143D02*
X8342183Y-8602574D01*
X8285614Y-8602574D01*
X8285614Y-8659143D01*
X8342183Y-8659143D01*
X8596183Y-7897143D02*
X8596183Y-7840574D01*
X8539614Y-7840574D01*
X8539614Y-7897143D01*
X8596183Y-7897143D01*
X8596183Y-8659143D02*
X8596183Y-8602574D01*
X8539614Y-8602574D01*
X8539614Y-8659143D01*
X8596183Y-8659143D01*
X8723183Y-10616632D02*
X8723183Y-10560063D01*
X8666614Y-10560063D01*
X8666614Y-10616632D01*
X8723183Y-10616632D01*
X8723183Y-10870632D02*
X8723183Y-10814063D01*
X8666614Y-10814063D01*
X8666614Y-10870632D01*
X8723183Y-10870632D01*
X8723183Y-11124632D02*
X8723183Y-11068063D01*
X8666614Y-11068063D01*
X8666614Y-11124632D01*
X8723183Y-11124632D01*
X8723183Y-11378632D02*
X8723183Y-11322063D01*
X8666614Y-11322063D01*
X8666614Y-11378632D01*
X8723183Y-11378632D01*
X8850183Y-7897143D02*
X8850183Y-7840574D01*
X8793614Y-7840574D01*
X8793614Y-7897143D01*
X8850183Y-7897143D01*
X8850183Y-8659143D02*
X8850183Y-8602574D01*
X8793614Y-8602574D01*
X8793614Y-8659143D01*
X8850183Y-8659143D01*
X9270183Y-7916632D02*
X9270183Y-7860063D01*
X9213614Y-7860063D01*
X9213614Y-7916632D01*
X9270183Y-7916632D01*
X9270183Y-8170632D02*
X9270183Y-8114063D01*
X9213614Y-8114063D01*
X9213614Y-8170632D01*
X9270183Y-8170632D01*
X9270183Y-8424632D02*
X9270183Y-8368063D01*
X9213614Y-8368063D01*
X9213614Y-8424632D01*
X9270183Y-8424632D01*
X9270183Y-8678632D02*
X9270183Y-8622063D01*
X9213614Y-8622063D01*
X9213614Y-8678632D01*
X9270183Y-8678632D01*
X9866183Y-10616632D02*
X9866183Y-10560063D01*
X9809614Y-10560063D01*
X9809614Y-10616632D01*
X9866183Y-10616632D01*
X9866183Y-10870632D02*
X9866183Y-10814063D01*
X9809614Y-10814063D01*
X9809614Y-10870632D01*
X9866183Y-10870632D01*
X9866183Y-11124632D02*
X9866183Y-11068063D01*
X9809614Y-11068063D01*
X9809614Y-11124632D01*
X9866183Y-11124632D01*
X9866183Y-11378632D02*
X9866183Y-11322063D01*
X9809614Y-11322063D01*
X9809614Y-11378632D01*
X9866183Y-11378632D01*
X10032183Y-7916632D02*
X10032183Y-7860063D01*
X9975614Y-7860063D01*
X9975614Y-7916632D01*
X10032183Y-7916632D01*
X10032183Y-8170632D02*
X10032183Y-8114063D01*
X9975614Y-8114063D01*
X9975614Y-8170632D01*
X10032183Y-8170632D01*
X10032183Y-8424632D02*
X10032183Y-8368063D01*
X9975614Y-8368063D01*
X9975614Y-8424632D01*
X10032183Y-8424632D01*
X10032183Y-8678632D02*
X10032183Y-8622063D01*
X9975614Y-8622063D01*
X9975614Y-8678632D01*
X10032183Y-8678632D01*
X10628183Y-10616632D02*
X10628183Y-10560063D01*
X10571614Y-10560063D01*
X10571614Y-10616632D01*
X10628183Y-10616632D01*
X10628183Y-10870632D02*
X10628183Y-10814063D01*
X10571614Y-10814063D01*
X10571614Y-10870632D01*
X10628183Y-10870632D01*
X10628183Y-11124632D02*
X10628183Y-11068063D01*
X10571614Y-11068063D01*
X10571614Y-11124632D01*
X10628183Y-11124632D01*
X10628183Y-11378632D02*
X10628183Y-11322063D01*
X10571614Y-11322063D01*
X10571614Y-11378632D01*
X10628183Y-11378632D01*
X10951883Y-7953732D02*
X10951883Y-7897163D01*
X10895314Y-7897163D01*
X10895314Y-7953732D01*
X10951883Y-7953732D01*
X10951883Y-8207732D02*
X10951883Y-8151163D01*
X10895314Y-8151163D01*
X10895314Y-8207732D01*
X10951883Y-8207732D01*
X10951883Y-8461732D02*
X10951883Y-8405163D01*
X10895314Y-8405163D01*
X10895314Y-8461732D01*
X10951883Y-8461732D01*
X10951883Y-8715732D02*
X10951883Y-8659163D01*
X10895314Y-8659163D01*
X10895314Y-8715732D01*
X10951883Y-8715732D01*
X11447061Y-10506474D02*
X11447061Y-10449905D01*
X11390492Y-10449905D01*
X11390492Y-10506474D01*
X11447061Y-10506474D01*
X11447061Y-10760474D02*
X11447061Y-10703905D01*
X11390492Y-10703905D01*
X11390492Y-10760474D01*
X11447061Y-10760474D01*
X11447061Y-11014474D02*
X11447061Y-10957905D01*
X11390492Y-10957905D01*
X11390492Y-11014474D01*
X11447061Y-11014474D01*
X11447061Y-11268474D02*
X11447061Y-11211905D01*
X11390492Y-11211905D01*
X11390492Y-11268474D01*
X11447061Y-11268474D01*
X11713883Y-7953732D02*
X11713883Y-7897163D01*
X11657314Y-7897163D01*
X11657314Y-7953732D01*
X11713883Y-7953732D01*
X11713883Y-8207732D02*
X11713883Y-8151163D01*
X11657314Y-8151163D01*
X11657314Y-8207732D01*
X11713883Y-8207732D01*
X11713883Y-8461732D02*
X11713883Y-8405163D01*
X11657314Y-8405163D01*
X11657314Y-8461732D01*
X11713883Y-8461732D01*
X11713883Y-8715732D02*
X11713883Y-8659163D01*
X11657314Y-8659163D01*
X11657314Y-8715732D01*
X11713883Y-8715732D01*
X12209061Y-10506474D02*
X12209061Y-10449905D01*
X12152492Y-10449905D01*
X12152492Y-10506474D01*
X12209061Y-10506474D01*
X12209061Y-10760474D02*
X12209061Y-10703905D01*
X12152492Y-10703905D01*
X12152492Y-10760474D01*
X12209061Y-10760474D01*
X12209061Y-11014474D02*
X12209061Y-10957905D01*
X12152492Y-10957905D01*
X12152492Y-11014474D01*
X12209061Y-11014474D01*
X12209061Y-11268474D02*
X12209061Y-11211905D01*
X12152492Y-11211905D01*
X12152492Y-11268474D01*
X12209061Y-11268474D01*
X13422183Y-7822632D02*
X13422183Y-7766063D01*
X13365614Y-7766063D01*
X13365614Y-7822632D01*
X13422183Y-7822632D01*
X13422183Y-8584632D02*
X13422183Y-8528063D01*
X13365614Y-8528063D01*
X13365614Y-8584632D01*
X13422183Y-8584632D01*
X13676183Y-7822632D02*
X13676183Y-7766063D01*
X13619614Y-7766063D01*
X13619614Y-7822632D01*
X13676183Y-7822632D01*
X13676183Y-8584632D02*
X13676183Y-8528063D01*
X13619614Y-8528063D01*
X13619614Y-8584632D01*
X13676183Y-8584632D01*
X13728183Y-10576132D02*
X13728183Y-10519563D01*
X13671614Y-10519563D01*
X13671614Y-10576132D01*
X13728183Y-10576132D01*
X13728183Y-10830132D02*
X13728183Y-10773563D01*
X13671614Y-10773563D01*
X13671614Y-10830132D01*
X13728183Y-10830132D01*
X13728183Y-11084132D02*
X13728183Y-11027563D01*
X13671614Y-11027563D01*
X13671614Y-11084132D01*
X13728183Y-11084132D01*
X13728183Y-11338132D02*
X13728183Y-11281563D01*
X13671614Y-11281563D01*
X13671614Y-11338132D01*
X13728183Y-11338132D01*
X13930183Y-7822632D02*
X13930183Y-7766063D01*
X13873614Y-7766063D01*
X13873614Y-7822632D01*
X13930183Y-7822632D01*
X13930183Y-8584632D02*
X13930183Y-8528063D01*
X13873614Y-8528063D01*
X13873614Y-8584632D01*
X13930183Y-8584632D01*
X14184183Y-7822632D02*
X14184183Y-7766063D01*
X14127614Y-7766063D01*
X14127614Y-7822632D01*
X14184183Y-7822632D01*
X14184183Y-8584632D02*
X14184183Y-8528063D01*
X14127614Y-8528063D01*
X14127614Y-8584632D01*
X14184183Y-8584632D01*
X14490183Y-10576132D02*
X14490183Y-10519563D01*
X14433614Y-10519563D01*
X14433614Y-10576132D01*
X14490183Y-10576132D01*
X14490183Y-10830132D02*
X14490183Y-10773563D01*
X14433614Y-10773563D01*
X14433614Y-10830132D01*
X14490183Y-10830132D01*
X14490183Y-11084132D02*
X14490183Y-11027563D01*
X14433614Y-11027563D01*
X14433614Y-11084132D01*
X14490183Y-11084132D01*
X14490183Y-11338132D02*
X14490183Y-11281563D01*
X14433614Y-11281563D01*
X14433614Y-11338132D01*
X14490183Y-11338132D01*
X15252183Y-10830132D02*
X15252183Y-10773563D01*
X15195614Y-10773563D01*
X15195614Y-10830132D01*
X15252183Y-10830132D01*
X15252183Y-11084132D02*
X15252183Y-11027563D01*
X15195614Y-11027563D01*
X15195614Y-11084132D01*
X15252183Y-11084132D01*
X15252183Y-11338132D02*
X15252183Y-11281563D01*
X15195614Y-11281563D01*
X15195614Y-11338132D01*
X15252183Y-11338132D01*
X15252183Y-11592132D02*
X15252183Y-11535563D01*
X15195614Y-11535563D01*
X15195614Y-11592132D01*
X15252183Y-11592132D01*
X16014183Y-10830132D02*
X16014183Y-10773563D01*
X15957614Y-10773563D01*
X15957614Y-10830132D01*
X16014183Y-10830132D01*
X16014183Y-11084132D02*
X16014183Y-11027563D01*
X15957614Y-11027563D01*
X15957614Y-11084132D01*
X16014183Y-11084132D01*
X16014183Y-11338132D02*
X16014183Y-11281563D01*
X15957614Y-11281563D01*
X15957614Y-11338132D01*
X16014183Y-11338132D01*
X16014183Y-11592132D02*
X16014183Y-11535563D01*
X15957614Y-11535563D01*
X15957614Y-11592132D01*
X16014183Y-11592132D01*
X5646898Y-7453353D02*
X5686903Y-7413348D01*
X5646898Y-7373343D01*
X5606893Y-7413348D01*
X5646898Y-7453353D01*
X5646898Y-8453351D02*
X5686903Y-8413346D01*
X5646898Y-8373341D01*
X5606893Y-8413346D01*
X5646898Y-8453351D01*
X5900898Y-7453353D02*
X5940903Y-7413348D01*
X5900898Y-7373343D01*
X5860893Y-7413348D01*
X5900898Y-7453353D01*
X5900898Y-8453351D02*
X5940903Y-8413346D01*
X5900898Y-8373341D01*
X5860893Y-8413346D01*
X5900898Y-8453351D01*
X6154898Y-7453353D02*
X6194903Y-7413348D01*
X6154898Y-7373343D01*
X6114893Y-7413348D01*
X6154898Y-7453353D01*
X6154898Y-8453351D02*
X6194903Y-8413346D01*
X6154898Y-8373341D01*
X6114893Y-8413346D01*
X6154898Y-8453351D01*
X8908258Y-12960708D02*
X8989538Y-13041988D01*
X8989538Y-12960708D02*
X8908258Y-13041988D01*
X8989538Y-13001348D02*
G75*
G03X8989538Y-13001348I-40640J0D01*
G01*
X8908258Y-13214708D02*
X8989538Y-13295988D01*
X8989538Y-13214708D02*
X8908258Y-13295988D01*
X8989538Y-13255348D02*
G75*
G03X8989538Y-13255348I-40640J0D01*
G01*
X8908258Y-13468708D02*
X8989538Y-13549988D01*
X8989538Y-13468708D02*
X8908258Y-13549988D01*
X8989538Y-13509348D02*
G75*
G03X8989538Y-13509348I-40640J0D01*
G01*
X10051258Y-12960708D02*
X10132538Y-13041988D01*
X10132538Y-12960708D02*
X10051258Y-13041988D01*
X10132538Y-13001348D02*
G75*
G03X10132538Y-13001348I-40640J0D01*
G01*
X10051258Y-13214708D02*
X10132538Y-13295988D01*
X10132538Y-13214708D02*
X10051258Y-13295988D01*
X10132538Y-13255348D02*
G75*
G03X10132538Y-13255348I-40640J0D01*
G01*
X10051258Y-13468708D02*
X10132538Y-13549988D01*
X10132538Y-13468708D02*
X10051258Y-13549988D01*
X10132538Y-13509348D02*
G75*
G03X10132538Y-13509348I-40640J0D01*
G01*
X11194258Y-12960708D02*
X11275538Y-13041988D01*
X11275538Y-12960708D02*
X11194258Y-13041988D01*
X11275538Y-13001348D02*
G75*
G03X11275538Y-13001348I-40640J0D01*
G01*
X11194258Y-13214708D02*
X11275538Y-13295988D01*
X11275538Y-13214708D02*
X11194258Y-13295988D01*
X11275538Y-13255348D02*
G75*
G03X11275538Y-13255348I-40640J0D01*
G01*
X11194258Y-13468708D02*
X11275538Y-13549988D01*
X11275538Y-13468708D02*
X11194258Y-13549988D01*
X11275538Y-13509348D02*
G75*
G03X11275538Y-13509348I-40640J0D01*
G01*
X12763258Y-12948208D02*
X12844538Y-13029488D01*
X12844538Y-12948208D02*
X12763258Y-13029488D01*
X12844538Y-12988848D02*
G75*
G03X12844538Y-12988848I-40640J0D01*
G01*
X12763258Y-13202208D02*
X12844538Y-13283488D01*
X12844538Y-13202208D02*
X12763258Y-13283488D01*
X12844538Y-13242848D02*
G75*
G03X12844538Y-13242848I-40640J0D01*
G01*
X12763258Y-13456208D02*
X12844538Y-13537488D01*
X12844538Y-13456208D02*
X12763258Y-13537488D01*
X12844538Y-13496848D02*
G75*
G03X12844538Y-13496848I-40640J0D01*
G01*
X13563258Y-12920208D02*
X13644538Y-13001488D01*
X13644538Y-12920208D02*
X13563258Y-13001488D01*
X13644538Y-12960848D02*
G75*
G03X13644538Y-12960848I-40640J0D01*
G01*
X13563258Y-13174208D02*
X13644538Y-13255488D01*
X13644538Y-13174208D02*
X13563258Y-13255488D01*
X13644538Y-13214848D02*
G75*
G03X13644538Y-13214848I-40640J0D01*
G01*
X13563258Y-13428208D02*
X13644538Y-13509488D01*
X13644538Y-13428208D02*
X13563258Y-13509488D01*
X13644538Y-13468848D02*
G75*
G03X13644538Y-13468848I-40640J0D01*
G01*
X14452258Y-12920208D02*
X14533538Y-13001488D01*
X14533538Y-12920208D02*
X14452258Y-13001488D01*
X14533538Y-12960848D02*
G75*
G03X14533538Y-12960848I-40640J0D01*
G01*
X14452258Y-13174208D02*
X14533538Y-13255488D01*
X14533538Y-13174208D02*
X14452258Y-13255488D01*
X14533538Y-13214848D02*
G75*
G03X14533538Y-13214848I-40640J0D01*
G01*
X14452258Y-13428208D02*
X14533538Y-13509488D01*
X14533538Y-13428208D02*
X14452258Y-13509488D01*
X14533538Y-13468848D02*
G75*
G03X14533538Y-13468848I-40640J0D01*
G01*
X15063258Y-12920208D02*
X15144538Y-13001488D01*
X15144538Y-12920208D02*
X15063258Y-13001488D01*
X15144538Y-12960848D02*
G75*
G03X15144538Y-12960848I-40640J0D01*
G01*
X15063258Y-13174208D02*
X15144538Y-13255488D01*
X15144538Y-13174208D02*
X15063258Y-13255488D01*
X15144538Y-13214848D02*
G75*
G03X15144538Y-13214848I-40640J0D01*
G01*
X15063258Y-13428208D02*
X15144538Y-13509488D01*
X15144538Y-13428208D02*
X15063258Y-13509488D01*
X15144538Y-13468848D02*
G75*
G03X15144538Y-13468848I-40640J0D01*
G01*
X16313258Y-12920208D02*
X16394538Y-13001488D01*
X16394538Y-12920208D02*
X16313258Y-13001488D01*
X16394538Y-12960848D02*
G75*
G03X16394538Y-12960848I-40640J0D01*
G01*
X16313258Y-13174208D02*
X16394538Y-13255488D01*
X16394538Y-13174208D02*
X16313258Y-13255488D01*
X16394538Y-13214848D02*
G75*
G03X16394538Y-13214848I-40640J0D01*
G01*
X16313258Y-13428208D02*
X16394538Y-13509488D01*
X16394538Y-13428208D02*
X16313258Y-13509488D01*
X16394538Y-13468848D02*
G75*
G03X16394538Y-13468848I-40640J0D01*
G01*
X5430560Y-13245710D02*
X5530636Y-13345786D01*
X5530636Y-13245710D02*
X5430560Y-13345786D01*
X5480598Y-13245710D02*
X5480598Y-13345786D01*
X5430560Y-13295748D02*
X5530636Y-13295748D01*
X5430560Y-13499710D02*
X5530636Y-13599786D01*
X5530636Y-13499710D02*
X5430560Y-13599786D01*
X5480598Y-13499710D02*
X5480598Y-13599786D01*
X5430560Y-13549748D02*
X5530636Y-13549748D01*
X5854924Y-6847436D02*
X5955000Y-6947512D01*
X5955000Y-6847436D02*
X5854924Y-6947512D01*
X5904962Y-6847436D02*
X5904962Y-6947512D01*
X5854924Y-6897474D02*
X5955000Y-6897474D01*
X6104860Y-6847436D02*
X6204936Y-6947512D01*
X6204936Y-6847436D02*
X6104860Y-6947512D01*
X6154898Y-6847436D02*
X6154898Y-6947512D01*
X6104860Y-6897474D02*
X6204936Y-6897474D01*
X6612860Y-9395310D02*
X6712936Y-9495386D01*
X6712936Y-9395310D02*
X6612860Y-9495386D01*
X6662898Y-9395310D02*
X6662898Y-9495386D01*
X6612860Y-9445348D02*
X6712936Y-9445348D01*
X6866860Y-9395310D02*
X6966936Y-9495386D01*
X6966936Y-9395310D02*
X6866860Y-9495386D01*
X6916898Y-9395310D02*
X6916898Y-9495386D01*
X6866860Y-9445348D02*
X6966936Y-9445348D01*
X7120860Y-9395310D02*
X7220936Y-9495386D01*
X7220936Y-9395310D02*
X7120860Y-9495386D01*
X7170898Y-9395310D02*
X7170898Y-9495386D01*
X7120860Y-9445348D02*
X7220936Y-9445348D01*
X8173963Y-6848286D02*
X8274039Y-6948362D01*
X8274039Y-6848286D02*
X8173963Y-6948362D01*
X8224001Y-6848286D02*
X8224001Y-6948362D01*
X8173963Y-6898324D02*
X8274039Y-6898324D01*
X8423899Y-6848286D02*
X8523975Y-6948362D01*
X8523975Y-6848286D02*
X8423899Y-6948362D01*
X8473937Y-6848286D02*
X8473937Y-6948362D01*
X8423899Y-6898324D02*
X8523975Y-6898324D01*
X9793702Y-6847436D02*
X9893778Y-6947512D01*
X9893778Y-6847436D02*
X9793702Y-6947512D01*
X9843740Y-6847436D02*
X9843740Y-6947512D01*
X9793702Y-6897474D02*
X9893778Y-6897474D01*
X10043638Y-6847436D02*
X10143714Y-6947512D01*
X10143714Y-6847436D02*
X10043638Y-6947512D01*
X10093676Y-6847436D02*
X10093676Y-6947512D01*
X10043638Y-6897474D02*
X10143714Y-6897474D01*
X10926034Y-11935310D02*
X11026110Y-12035386D01*
X11026110Y-11935310D02*
X10926034Y-12035386D01*
X10976072Y-11935310D02*
X10976072Y-12035386D01*
X10926034Y-11985348D02*
X11026110Y-11985348D01*
X11569924Y-6855310D02*
X11670000Y-6955386D01*
X11670000Y-6855310D02*
X11569924Y-6955386D01*
X11619962Y-6855310D02*
X11619962Y-6955386D01*
X11569924Y-6905348D02*
X11670000Y-6905348D01*
X11819860Y-6855310D02*
X11919936Y-6955386D01*
X11919936Y-6855310D02*
X11819860Y-6955386D01*
X11869898Y-6855310D02*
X11869898Y-6955386D01*
X11819860Y-6905348D02*
X11919936Y-6905348D01*
X11926286Y-11935310D02*
X12026362Y-12035386D01*
X12026362Y-11935310D02*
X11926286Y-12035386D01*
X11976324Y-11935310D02*
X11976324Y-12035386D01*
X11926286Y-11985348D02*
X12026362Y-11985348D01*
X13212034Y-12062310D02*
X13312110Y-12162386D01*
X13312110Y-12062310D02*
X13212034Y-12162386D01*
X13262072Y-12062310D02*
X13262072Y-12162386D01*
X13212034Y-12112348D02*
X13312110Y-12112348D01*
X13347924Y-6847436D02*
X13448000Y-6947512D01*
X13448000Y-6847436D02*
X13347924Y-6947512D01*
X13397962Y-6847436D02*
X13397962Y-6947512D01*
X13347924Y-6897474D02*
X13448000Y-6897474D01*
X13597860Y-6847436D02*
X13697936Y-6947512D01*
X13697936Y-6847436D02*
X13597860Y-6947512D01*
X13647898Y-6847436D02*
X13647898Y-6947512D01*
X13597860Y-6897474D02*
X13697936Y-6897474D01*
X14212286Y-12062310D02*
X14312362Y-12162386D01*
X14312362Y-12062310D02*
X14212286Y-12162386D01*
X14262324Y-12062310D02*
X14262324Y-12162386D01*
X14212286Y-12112348D02*
X14312362Y-12112348D01*
X10238098Y-7779048D02*
X10339698Y-7880648D01*
X10339698Y-7779048D02*
X10238098Y-7880648D01*
X10324820Y-7865769D02*
X10324820Y-7793926D01*
X10252977Y-7793926D01*
X10252977Y-7865769D01*
X10324820Y-7865769D01*
X10238098Y-8033048D02*
X10339698Y-8134648D01*
X10339698Y-8033048D02*
X10238098Y-8134648D01*
X10324820Y-8119769D02*
X10324820Y-8047926D01*
X10252977Y-8047926D01*
X10252977Y-8119769D01*
X10324820Y-8119769D01*
X10238098Y-8287048D02*
X10339698Y-8388648D01*
X10339698Y-8287048D02*
X10238098Y-8388648D01*
X10324820Y-8373769D02*
X10324820Y-8301926D01*
X10252977Y-8301926D01*
X10252977Y-8373769D01*
X10324820Y-8373769D01*
X10593098Y-7782048D02*
X10694698Y-7883648D01*
X10694698Y-7782048D02*
X10593098Y-7883648D01*
X10679820Y-7868769D02*
X10679820Y-7796926D01*
X10607977Y-7796926D01*
X10607977Y-7868769D01*
X10679820Y-7868769D01*
X10593098Y-8036048D02*
X10694698Y-8137648D01*
X10694698Y-8036048D02*
X10593098Y-8137648D01*
X10679820Y-8122769D02*
X10679820Y-8050926D01*
X10607977Y-8050926D01*
X10607977Y-8122769D01*
X10679820Y-8122769D01*
X10593098Y-8290048D02*
X10694698Y-8391648D01*
X10694698Y-8290048D02*
X10593098Y-8391648D01*
X10679820Y-8376769D02*
X10679820Y-8304926D01*
X10607977Y-8304926D01*
X10607977Y-8376769D01*
X10679820Y-8376769D01*
X5713898Y-11194348D02*
X5833898Y-11314348D01*
X5833898Y-11194348D02*
X5713898Y-11314348D01*
X5773898Y-11314348D02*
X5833898Y-11254348D01*
X5773898Y-11194348D01*
X5713898Y-11254348D01*
X5773898Y-11314348D01*
X5713898Y-11544348D02*
X5833898Y-11664348D01*
X5833898Y-11544348D02*
X5713898Y-11664348D01*
X5773898Y-11664348D02*
X5833898Y-11604348D01*
X5773898Y-11544348D01*
X5713898Y-11604348D01*
X5773898Y-11664348D01*
X5713898Y-11894348D02*
X5833898Y-12014348D01*
X5833898Y-11894348D02*
X5713898Y-12014348D01*
X5773898Y-12014348D02*
X5833898Y-11954348D01*
X5773898Y-11894348D01*
X5713898Y-11954348D01*
X5773898Y-12014348D01*
X12105898Y-7919808D02*
X12105898Y-8051888D01*
X12039858Y-7985848D02*
X12171938Y-7985848D01*
X12171938Y-7985848D02*
G75*
G03X12171938Y-7985848I-66040J0D01*
G01*
X12105898Y-8935808D02*
X12105898Y-9067888D01*
X12039858Y-9001848D02*
X12171938Y-9001848D01*
X12171938Y-9001848D02*
G75*
G03X12171938Y-9001848I-66040J0D01*
G01*
X12613898Y-7919808D02*
X12613898Y-8051888D01*
X12547858Y-7985848D02*
X12679938Y-7985848D01*
X12679938Y-7985848D02*
G75*
G03X12679938Y-7985848I-66040J0D01*
G01*
X12613898Y-8935808D02*
X12613898Y-9067888D01*
X12547858Y-9001848D02*
X12679938Y-9001848D01*
X12679938Y-9001848D02*
G75*
G03X12679938Y-9001848I-66040J0D01*
G01*
X15781932Y-12658381D02*
X15781932Y-12552314D01*
X15675865Y-12552314D01*
X15675865Y-12658381D01*
X15781932Y-12658381D01*
X15803898Y-12605348D02*
G75*
G03X15803898Y-12605348I-75000J0D01*
G01*
X15781932Y-13128381D02*
X15781932Y-13022314D01*
X15675865Y-13022314D01*
X15675865Y-13128381D01*
X15781932Y-13128381D01*
X15803898Y-13075348D02*
G75*
G03X15803898Y-13075348I-75000J0D01*
G01*
X15781932Y-13598381D02*
X15781932Y-13492314D01*
X15675865Y-13492314D01*
X15675865Y-13598381D01*
X15781932Y-13598381D01*
X15803898Y-13545348D02*
G75*
G03X15803898Y-13545348I-75000J0D01*
G01*
X5645120Y-6580990D02*
X5755102Y-6471008D01*
X5645120Y-6361026D01*
X5535138Y-6471008D01*
X5645120Y-6580990D01*
X5755102Y-6471008D02*
G75*
G03X5755102Y-6471008I-109982J0D01*
G01*
X6664930Y-6580990D02*
X6774912Y-6471008D01*
X6664930Y-6361026D01*
X6554948Y-6471008D01*
X6664930Y-6580990D01*
X6774912Y-6471008D02*
G75*
G03X6774912Y-6471008I-109982J0D01*
G01*
X7964159Y-6581840D02*
X8074141Y-6471858D01*
X7964159Y-6361876D01*
X7854177Y-6471858D01*
X7964159Y-6581840D01*
X8074141Y-6471858D02*
G75*
G03X8074141Y-6471858I-109982J0D01*
G01*
X8983969Y-6581840D02*
X9093951Y-6471858D01*
X8983969Y-6361876D01*
X8873987Y-6471858D01*
X8983969Y-6581840D01*
X9093951Y-6471858D02*
G75*
G03X9093951Y-6471858I-109982J0D01*
G01*
X9583898Y-6580990D02*
X9693880Y-6471008D01*
X9583898Y-6361026D01*
X9473916Y-6471008D01*
X9583898Y-6580990D01*
X9693880Y-6471008D02*
G75*
G03X9693880Y-6471008I-109982J0D01*
G01*
X10603708Y-6580990D02*
X10713690Y-6471008D01*
X10603708Y-6361026D01*
X10493726Y-6471008D01*
X10603708Y-6580990D01*
X10713690Y-6471008D02*
G75*
G03X10713690Y-6471008I-109982J0D01*
G01*
X11360120Y-6588864D02*
X11470102Y-6478882D01*
X11360120Y-6368900D01*
X11250138Y-6478882D01*
X11360120Y-6588864D01*
X11470102Y-6478882D02*
G75*
G03X11470102Y-6478882I-109982J0D01*
G01*
X12379930Y-6588864D02*
X12489912Y-6478882D01*
X12379930Y-6368900D01*
X12269948Y-6478882D01*
X12379930Y-6588864D01*
X12489912Y-6478882D02*
G75*
G03X12489912Y-6478882I-109982J0D01*
G01*
X13138120Y-6580990D02*
X13248102Y-6471008D01*
X13138120Y-6361026D01*
X13028138Y-6471008D01*
X13138120Y-6580990D01*
X13248102Y-6471008D02*
G75*
G03X13248102Y-6471008I-109982J0D01*
G01*
X14157930Y-6580990D02*
X14267912Y-6471008D01*
X14157930Y-6361026D01*
X14047948Y-6471008D01*
X14157930Y-6580990D01*
X14267912Y-6471008D02*
G75*
G03X14267912Y-6471008I-109982J0D01*
G01*
X4953898Y-6025348D02*
X4953898Y-6325348D01*
X4803898Y-6175348D02*
X5103898Y-6175348D01*
X5059965Y-6281415D02*
X5059965Y-6069281D01*
X4847831Y-6069281D01*
X4847831Y-6281415D01*
X5059965Y-6281415D01*
X4953898Y-13525348D02*
X4953898Y-13825348D01*
X4803898Y-13675348D02*
X5103898Y-13675348D01*
X5059965Y-13781415D02*
X5059965Y-13569281D01*
X4847831Y-13569281D01*
X4847831Y-13781415D01*
X5059965Y-13781415D01*
X16953898Y-6025348D02*
X16953898Y-6325348D01*
X16803898Y-6175348D02*
X17103898Y-6175348D01*
X17059965Y-6281415D02*
X17059965Y-6069281D01*
X16847831Y-6069281D01*
X16847831Y-6281415D01*
X17059965Y-6281415D01*
X16953898Y-13525348D02*
X16953898Y-13825348D01*
X16803898Y-13675348D02*
X17103898Y-13675348D01*
X17059965Y-13781415D02*
X17059965Y-13569281D01*
X16847831Y-13569281D01*
X16847831Y-13781415D01*
X17059965Y-13781415D01*
D13*
X4717827Y-14648562D02*
X4717827Y-14348562D01*
X4789255Y-14348562D01*
X4832112Y-14362848D01*
X4860684Y-14391419D01*
X4874969Y-14419991D01*
X4889255Y-14477133D01*
X4889255Y-14519991D01*
X4874969Y-14577133D01*
X4860684Y-14605705D01*
X4832112Y-14634276D01*
X4789255Y-14648562D01*
X4717827Y-14648562D01*
X5017827Y-14648562D02*
X5017827Y-14448562D01*
X5017827Y-14505705D02*
X5032112Y-14477133D01*
X5046398Y-14462848D01*
X5074969Y-14448562D01*
X5103541Y-14448562D01*
X5203541Y-14648562D02*
X5203541Y-14448562D01*
X5203541Y-14348562D02*
X5189255Y-14362848D01*
X5203541Y-14377133D01*
X5217827Y-14362848D01*
X5203541Y-14348562D01*
X5203541Y-14377133D01*
X5389255Y-14648562D02*
X5360684Y-14634276D01*
X5346398Y-14605705D01*
X5346398Y-14348562D01*
X5546398Y-14648562D02*
X5517827Y-14634276D01*
X5503541Y-14605705D01*
X5503541Y-14348562D01*
X5889255Y-14648562D02*
X5889255Y-14348562D01*
X5989255Y-14562848D01*
X6089255Y-14348562D01*
X6089255Y-14648562D01*
X6360684Y-14648562D02*
X6360684Y-14491419D01*
X6346398Y-14462848D01*
X6317827Y-14448562D01*
X6260684Y-14448562D01*
X6232112Y-14462848D01*
X6360684Y-14634276D02*
X6332112Y-14648562D01*
X6260684Y-14648562D01*
X6232112Y-14634276D01*
X6217827Y-14605705D01*
X6217827Y-14577133D01*
X6232112Y-14548562D01*
X6260684Y-14534276D01*
X6332112Y-14534276D01*
X6360684Y-14519991D01*
X6503541Y-14448562D02*
X6503541Y-14748562D01*
X6503541Y-14462848D02*
X6532112Y-14448562D01*
X6589255Y-14448562D01*
X6617827Y-14462848D01*
X6632112Y-14477133D01*
X6646398Y-14505705D01*
X6646398Y-14591419D01*
X6632112Y-14619991D01*
X6617827Y-14634276D01*
X6589255Y-14648562D01*
X6532112Y-14648562D01*
X6503541Y-14634276D01*
X6774969Y-14619991D02*
X6789255Y-14634276D01*
X6774969Y-14648562D01*
X6760684Y-14634276D01*
X6774969Y-14619991D01*
X6774969Y-14648562D01*
X6774969Y-14462848D02*
X6789255Y-14477133D01*
X6774969Y-14491419D01*
X6760684Y-14477133D01*
X6774969Y-14462848D01*
X6774969Y-14491419D01*
X4406398Y-15122848D02*
X4446398Y-15162848D01*
X4446398Y-15122848D02*
X4406398Y-15162848D01*
X4774969Y-14978562D02*
X4803541Y-14978562D01*
X4832112Y-14992848D01*
X4846398Y-15007133D01*
X4860684Y-15035705D01*
X4874969Y-15092848D01*
X4874969Y-15164276D01*
X4860684Y-15221419D01*
X4846398Y-15249991D01*
X4832112Y-15264276D01*
X4803541Y-15278562D01*
X4774969Y-15278562D01*
X4746398Y-15264276D01*
X4732112Y-15249991D01*
X4717827Y-15221419D01*
X4703541Y-15164276D01*
X4703541Y-15092848D01*
X4717827Y-15035705D01*
X4732112Y-15007133D01*
X4746398Y-14992848D01*
X4774969Y-14978562D01*
X5003541Y-15249991D02*
X5017827Y-15264276D01*
X5003541Y-15278562D01*
X4989255Y-15264276D01*
X5003541Y-15249991D01*
X5003541Y-15278562D01*
X5274969Y-15078562D02*
X5274969Y-15278562D01*
X5203541Y-14964276D02*
X5132112Y-15178562D01*
X5317827Y-15178562D01*
X5489255Y-14978562D02*
X5517827Y-14978562D01*
X5546398Y-14992848D01*
X5560684Y-15007133D01*
X5574969Y-15035705D01*
X5589255Y-15092848D01*
X5589255Y-15164276D01*
X5574969Y-15221419D01*
X5560684Y-15249991D01*
X5546398Y-15264276D01*
X5517827Y-15278562D01*
X5489255Y-15278562D01*
X5460684Y-15264276D01*
X5446398Y-15249991D01*
X5432112Y-15221419D01*
X5417827Y-15164276D01*
X5417827Y-15092848D01*
X5432112Y-15035705D01*
X5446398Y-15007133D01*
X5460684Y-14992848D01*
X5489255Y-14978562D01*
X5717827Y-15278562D02*
X5717827Y-15078562D01*
X5717827Y-15107133D02*
X5732112Y-15092848D01*
X5760684Y-15078562D01*
X5803541Y-15078562D01*
X5832112Y-15092848D01*
X5846398Y-15121419D01*
X5846398Y-15278562D01*
X5846398Y-15121419D02*
X5860684Y-15092848D01*
X5889255Y-15078562D01*
X5932112Y-15078562D01*
X5960684Y-15092848D01*
X5974969Y-15121419D01*
X5974969Y-15278562D01*
X6117827Y-15278562D02*
X6117827Y-15078562D01*
X6117827Y-15107133D02*
X6132112Y-15092848D01*
X6160684Y-15078562D01*
X6203541Y-15078562D01*
X6232112Y-15092848D01*
X6246398Y-15121419D01*
X6246398Y-15278562D01*
X6246398Y-15121419D02*
X6260684Y-15092848D01*
X6289255Y-15078562D01*
X6332112Y-15078562D01*
X6360684Y-15092848D01*
X6374969Y-15121419D01*
X6374969Y-15278562D01*
X6960684Y-14964276D02*
X6703541Y-15349991D01*
X7346398Y-14978562D02*
X7374969Y-14978562D01*
X7403541Y-14992848D01*
X7417826Y-15007133D01*
X7432112Y-15035705D01*
X7446398Y-15092848D01*
X7446398Y-15164276D01*
X7432112Y-15221419D01*
X7417826Y-15249991D01*
X7403541Y-15264276D01*
X7374969Y-15278562D01*
X7346398Y-15278562D01*
X7317826Y-15264276D01*
X7303541Y-15249991D01*
X7289255Y-15221419D01*
X7274969Y-15164276D01*
X7274969Y-15092848D01*
X7289255Y-15035705D01*
X7303541Y-15007133D01*
X7317826Y-14992848D01*
X7346398Y-14978562D01*
X7574969Y-15249991D02*
X7589255Y-15264276D01*
X7574969Y-15278562D01*
X7560684Y-15264276D01*
X7574969Y-15249991D01*
X7574969Y-15278562D01*
X7774969Y-14978562D02*
X7803541Y-14978562D01*
X7832112Y-14992848D01*
X7846398Y-15007133D01*
X7860684Y-15035705D01*
X7874969Y-15092848D01*
X7874969Y-15164276D01*
X7860684Y-15221419D01*
X7846398Y-15249991D01*
X7832112Y-15264276D01*
X7803541Y-15278562D01*
X7774969Y-15278562D01*
X7746398Y-15264276D01*
X7732112Y-15249991D01*
X7717826Y-15221419D01*
X7703541Y-15164276D01*
X7703541Y-15092848D01*
X7717826Y-15035705D01*
X7732112Y-15007133D01*
X7746398Y-14992848D01*
X7774969Y-14978562D01*
X8160684Y-15278562D02*
X7989255Y-15278562D01*
X8074969Y-15278562D02*
X8074969Y-14978562D01*
X8046398Y-15021419D01*
X8017826Y-15049991D01*
X7989255Y-15064276D01*
X8417827Y-14978562D02*
X8360684Y-14978562D01*
X8332112Y-14992848D01*
X8317826Y-15007133D01*
X8289255Y-15049991D01*
X8274969Y-15107133D01*
X8274969Y-15221419D01*
X8289255Y-15249991D01*
X8303541Y-15264276D01*
X8332112Y-15278562D01*
X8389255Y-15278562D01*
X8417827Y-15264276D01*
X8432112Y-15249991D01*
X8446398Y-15221419D01*
X8446398Y-15149991D01*
X8432112Y-15121419D01*
X8417827Y-15107133D01*
X8389255Y-15092848D01*
X8332112Y-15092848D01*
X8303541Y-15107133D01*
X8289255Y-15121419D01*
X8274969Y-15149991D01*
X8560684Y-14978562D02*
X8560684Y-15035705D01*
X8674969Y-14978562D02*
X8674969Y-15035705D01*
X9117827Y-15392848D02*
X9103541Y-15378562D01*
X9074969Y-15335705D01*
X9060684Y-15307133D01*
X9046398Y-15264276D01*
X9032112Y-15192848D01*
X9032112Y-15135705D01*
X9046398Y-15064276D01*
X9060684Y-15021419D01*
X9074969Y-14992848D01*
X9103541Y-14949991D01*
X9117827Y-14935705D01*
X9360684Y-15078562D02*
X9360684Y-15278562D01*
X9289255Y-14964276D02*
X9217827Y-15178562D01*
X9403541Y-15178562D01*
X9674969Y-15278562D02*
X9503541Y-15278562D01*
X9589255Y-15278562D02*
X9589255Y-14978562D01*
X9560684Y-15021419D01*
X9532112Y-15049991D01*
X9503541Y-15064276D01*
X10032112Y-15278562D02*
X10032112Y-14978562D01*
X10160684Y-15278562D02*
X10160684Y-15121419D01*
X10146398Y-15092848D01*
X10117827Y-15078562D01*
X10074969Y-15078562D01*
X10046398Y-15092848D01*
X10032112Y-15107133D01*
X10346398Y-15278562D02*
X10317827Y-15264276D01*
X10303541Y-15249991D01*
X10289255Y-15221419D01*
X10289255Y-15135705D01*
X10303541Y-15107133D01*
X10317827Y-15092848D01*
X10346398Y-15078562D01*
X10389255Y-15078562D01*
X10417827Y-15092848D01*
X10432112Y-15107133D01*
X10446398Y-15135705D01*
X10446398Y-15221419D01*
X10432112Y-15249991D01*
X10417827Y-15264276D01*
X10389255Y-15278562D01*
X10346398Y-15278562D01*
X10617827Y-15278562D02*
X10589255Y-15264276D01*
X10574969Y-15235705D01*
X10574969Y-14978562D01*
X10846398Y-15264276D02*
X10817827Y-15278562D01*
X10760684Y-15278562D01*
X10732112Y-15264276D01*
X10717827Y-15235705D01*
X10717827Y-15121419D01*
X10732112Y-15092848D01*
X10760684Y-15078562D01*
X10817827Y-15078562D01*
X10846398Y-15092848D01*
X10860684Y-15121419D01*
X10860684Y-15149991D01*
X10717827Y-15178562D01*
X10974970Y-15264276D02*
X11003541Y-15278562D01*
X11060684Y-15278562D01*
X11089255Y-15264276D01*
X11103541Y-15235705D01*
X11103541Y-15221419D01*
X11089255Y-15192848D01*
X11060684Y-15178562D01*
X11017827Y-15178562D01*
X10989255Y-15164276D01*
X10974970Y-15135705D01*
X10974970Y-15121419D01*
X10989255Y-15092848D01*
X11017827Y-15078562D01*
X11060684Y-15078562D01*
X11089255Y-15092848D01*
X11203541Y-15392848D02*
X11217827Y-15378562D01*
X11246398Y-15335705D01*
X11260684Y-15307133D01*
X11274969Y-15264276D01*
X11289255Y-15192848D01*
X11289255Y-15135705D01*
X11274969Y-15064276D01*
X11260684Y-15021419D01*
X11246398Y-14992848D01*
X11217827Y-14949991D01*
X11203541Y-14935705D01*
X4446398Y-15538848D02*
G75*
G03X4446398Y-15538848I-31750J0D01*
G01*
X4774969Y-15374562D02*
X4803541Y-15374562D01*
X4832112Y-15388848D01*
X4846398Y-15403133D01*
X4860684Y-15431705D01*
X4874969Y-15488848D01*
X4874969Y-15560276D01*
X4860684Y-15617419D01*
X4846398Y-15645991D01*
X4832112Y-15660276D01*
X4803541Y-15674562D01*
X4774969Y-15674562D01*
X4746398Y-15660276D01*
X4732112Y-15645991D01*
X4717827Y-15617419D01*
X4703541Y-15560276D01*
X4703541Y-15488848D01*
X4717827Y-15431705D01*
X4732112Y-15403133D01*
X4746398Y-15388848D01*
X4774969Y-15374562D01*
X5003541Y-15645991D02*
X5017827Y-15660276D01*
X5003541Y-15674562D01*
X4989255Y-15660276D01*
X5003541Y-15645991D01*
X5003541Y-15674562D01*
X5274969Y-15374562D02*
X5217827Y-15374562D01*
X5189255Y-15388848D01*
X5174969Y-15403133D01*
X5146398Y-15445991D01*
X5132112Y-15503133D01*
X5132112Y-15617419D01*
X5146398Y-15645991D01*
X5160684Y-15660276D01*
X5189255Y-15674562D01*
X5246398Y-15674562D01*
X5274969Y-15660276D01*
X5289255Y-15645991D01*
X5303541Y-15617419D01*
X5303541Y-15545991D01*
X5289255Y-15517419D01*
X5274969Y-15503133D01*
X5246398Y-15488848D01*
X5189255Y-15488848D01*
X5160684Y-15503133D01*
X5146398Y-15517419D01*
X5132112Y-15545991D01*
X5560684Y-15474562D02*
X5560684Y-15674562D01*
X5489255Y-15360276D02*
X5417827Y-15574562D01*
X5603541Y-15574562D01*
X5717827Y-15674562D02*
X5717827Y-15474562D01*
X5717827Y-15503133D02*
X5732112Y-15488848D01*
X5760684Y-15474562D01*
X5803541Y-15474562D01*
X5832112Y-15488848D01*
X5846398Y-15517419D01*
X5846398Y-15674562D01*
X5846398Y-15517419D02*
X5860684Y-15488848D01*
X5889255Y-15474562D01*
X5932112Y-15474562D01*
X5960684Y-15488848D01*
X5974969Y-15517419D01*
X5974969Y-15674562D01*
X6117827Y-15674562D02*
X6117827Y-15474562D01*
X6117827Y-15503133D02*
X6132112Y-15488848D01*
X6160684Y-15474562D01*
X6203541Y-15474562D01*
X6232112Y-15488848D01*
X6246398Y-15517419D01*
X6246398Y-15674562D01*
X6246398Y-15517419D02*
X6260684Y-15488848D01*
X6289255Y-15474562D01*
X6332112Y-15474562D01*
X6360684Y-15488848D01*
X6374969Y-15517419D01*
X6374969Y-15674562D01*
X6960684Y-15360276D02*
X6703541Y-15745991D01*
X7346398Y-15374562D02*
X7374969Y-15374562D01*
X7403541Y-15388848D01*
X7417826Y-15403133D01*
X7432112Y-15431705D01*
X7446398Y-15488848D01*
X7446398Y-15560276D01*
X7432112Y-15617419D01*
X7417826Y-15645991D01*
X7403541Y-15660276D01*
X7374969Y-15674562D01*
X7346398Y-15674562D01*
X7317826Y-15660276D01*
X7303541Y-15645991D01*
X7289255Y-15617419D01*
X7274969Y-15560276D01*
X7274969Y-15488848D01*
X7289255Y-15431705D01*
X7303541Y-15403133D01*
X7317826Y-15388848D01*
X7346398Y-15374562D01*
X7574969Y-15645991D02*
X7589255Y-15660276D01*
X7574969Y-15674562D01*
X7560684Y-15660276D01*
X7574969Y-15645991D01*
X7574969Y-15674562D01*
X7774969Y-15374562D02*
X7803541Y-15374562D01*
X7832112Y-15388848D01*
X7846398Y-15403133D01*
X7860684Y-15431705D01*
X7874969Y-15488848D01*
X7874969Y-15560276D01*
X7860684Y-15617419D01*
X7846398Y-15645991D01*
X7832112Y-15660276D01*
X7803541Y-15674562D01*
X7774969Y-15674562D01*
X7746398Y-15660276D01*
X7732112Y-15645991D01*
X7717826Y-15617419D01*
X7703541Y-15560276D01*
X7703541Y-15488848D01*
X7717826Y-15431705D01*
X7732112Y-15403133D01*
X7746398Y-15388848D01*
X7774969Y-15374562D01*
X7989255Y-15403133D02*
X8003541Y-15388848D01*
X8032112Y-15374562D01*
X8103541Y-15374562D01*
X8132112Y-15388848D01*
X8146398Y-15403133D01*
X8160684Y-15431705D01*
X8160684Y-15460276D01*
X8146398Y-15503133D01*
X7974969Y-15674562D01*
X8160684Y-15674562D01*
X8432112Y-15374562D02*
X8289255Y-15374562D01*
X8274969Y-15517419D01*
X8289255Y-15503133D01*
X8317826Y-15488848D01*
X8389255Y-15488848D01*
X8417827Y-15503133D01*
X8432112Y-15517419D01*
X8446398Y-15545991D01*
X8446398Y-15617419D01*
X8432112Y-15645991D01*
X8417827Y-15660276D01*
X8389255Y-15674562D01*
X8317826Y-15674562D01*
X8289255Y-15660276D01*
X8274969Y-15645991D01*
X8560684Y-15374562D02*
X8560684Y-15431705D01*
X8674969Y-15374562D02*
X8674969Y-15431705D01*
X9117827Y-15788848D02*
X9103541Y-15774562D01*
X9074969Y-15731705D01*
X9060684Y-15703133D01*
X9046398Y-15660276D01*
X9032112Y-15588848D01*
X9032112Y-15531705D01*
X9046398Y-15460276D01*
X9060684Y-15417419D01*
X9074969Y-15388848D01*
X9103541Y-15345991D01*
X9117827Y-15331705D01*
X9274969Y-15503133D02*
X9246398Y-15488848D01*
X9232112Y-15474562D01*
X9217827Y-15445991D01*
X9217827Y-15431705D01*
X9232112Y-15403133D01*
X9246398Y-15388848D01*
X9274969Y-15374562D01*
X9332112Y-15374562D01*
X9360684Y-15388848D01*
X9374969Y-15403133D01*
X9389255Y-15431705D01*
X9389255Y-15445991D01*
X9374969Y-15474562D01*
X9360684Y-15488848D01*
X9332112Y-15503133D01*
X9274969Y-15503133D01*
X9246398Y-15517419D01*
X9232112Y-15531705D01*
X9217827Y-15560276D01*
X9217827Y-15617419D01*
X9232112Y-15645991D01*
X9246398Y-15660276D01*
X9274969Y-15674562D01*
X9332112Y-15674562D01*
X9360684Y-15660276D01*
X9374969Y-15645991D01*
X9389255Y-15617419D01*
X9389255Y-15560276D01*
X9374969Y-15531705D01*
X9360684Y-15517419D01*
X9332112Y-15503133D01*
X9746398Y-15674562D02*
X9746398Y-15374562D01*
X9874969Y-15674562D02*
X9874969Y-15517419D01*
X9860684Y-15488848D01*
X9832112Y-15474562D01*
X9789255Y-15474562D01*
X9760684Y-15488848D01*
X9746398Y-15503133D01*
X10060684Y-15674562D02*
X10032112Y-15660276D01*
X10017827Y-15645991D01*
X10003541Y-15617419D01*
X10003541Y-15531705D01*
X10017827Y-15503133D01*
X10032112Y-15488848D01*
X10060684Y-15474562D01*
X10103541Y-15474562D01*
X10132112Y-15488848D01*
X10146398Y-15503133D01*
X10160684Y-15531705D01*
X10160684Y-15617419D01*
X10146398Y-15645991D01*
X10132112Y-15660276D01*
X10103541Y-15674562D01*
X10060684Y-15674562D01*
X10332112Y-15674562D02*
X10303541Y-15660276D01*
X10289255Y-15631705D01*
X10289255Y-15374562D01*
X10560684Y-15660276D02*
X10532112Y-15674562D01*
X10474969Y-15674562D01*
X10446398Y-15660276D01*
X10432112Y-15631705D01*
X10432112Y-15517419D01*
X10446398Y-15488848D01*
X10474969Y-15474562D01*
X10532112Y-15474562D01*
X10560684Y-15488848D01*
X10574969Y-15517419D01*
X10574969Y-15545991D01*
X10432112Y-15574562D01*
X10689255Y-15660276D02*
X10717827Y-15674562D01*
X10774969Y-15674562D01*
X10803541Y-15660276D01*
X10817827Y-15631705D01*
X10817827Y-15617419D01*
X10803541Y-15588848D01*
X10774969Y-15574562D01*
X10732112Y-15574562D01*
X10703541Y-15560276D01*
X10689255Y-15531705D01*
X10689255Y-15517419D01*
X10703541Y-15488848D01*
X10732112Y-15474562D01*
X10774969Y-15474562D01*
X10803541Y-15488848D01*
X10917827Y-15788848D02*
X10932112Y-15774562D01*
X10960684Y-15731705D01*
X10974969Y-15703133D01*
X10989255Y-15660276D01*
X11003541Y-15588848D01*
X11003541Y-15531705D01*
X10989255Y-15460276D01*
X10974969Y-15417419D01*
X10960684Y-15388848D01*
X10932112Y-15345991D01*
X10917827Y-15331705D01*
X4411346Y-15899796D02*
X4411346Y-15969900D01*
X4376294Y-15934848D02*
X4446398Y-15934848D01*
X4774969Y-15770562D02*
X4803541Y-15770562D01*
X4832112Y-15784848D01*
X4846398Y-15799133D01*
X4860684Y-15827705D01*
X4874969Y-15884848D01*
X4874969Y-15956276D01*
X4860684Y-16013419D01*
X4846398Y-16041991D01*
X4832112Y-16056276D01*
X4803541Y-16070562D01*
X4774969Y-16070562D01*
X4746398Y-16056276D01*
X4732112Y-16041991D01*
X4717827Y-16013419D01*
X4703541Y-15956276D01*
X4703541Y-15884848D01*
X4717827Y-15827705D01*
X4732112Y-15799133D01*
X4746398Y-15784848D01*
X4774969Y-15770562D01*
X5003541Y-16041991D02*
X5017827Y-16056276D01*
X5003541Y-16070562D01*
X4989255Y-16056276D01*
X5003541Y-16041991D01*
X5003541Y-16070562D01*
X5117827Y-15770562D02*
X5317827Y-15770562D01*
X5189255Y-16070562D01*
X5489255Y-15770562D02*
X5517827Y-15770562D01*
X5546398Y-15784848D01*
X5560684Y-15799133D01*
X5574969Y-15827705D01*
X5589255Y-15884848D01*
X5589255Y-15956276D01*
X5574969Y-16013419D01*
X5560684Y-16041991D01*
X5546398Y-16056276D01*
X5517827Y-16070562D01*
X5489255Y-16070562D01*
X5460684Y-16056276D01*
X5446398Y-16041991D01*
X5432112Y-16013419D01*
X5417827Y-15956276D01*
X5417827Y-15884848D01*
X5432112Y-15827705D01*
X5446398Y-15799133D01*
X5460684Y-15784848D01*
X5489255Y-15770562D01*
X5717827Y-16070562D02*
X5717827Y-15870562D01*
X5717827Y-15899133D02*
X5732112Y-15884848D01*
X5760684Y-15870562D01*
X5803541Y-15870562D01*
X5832112Y-15884848D01*
X5846398Y-15913419D01*
X5846398Y-16070562D01*
X5846398Y-15913419D02*
X5860684Y-15884848D01*
X5889255Y-15870562D01*
X5932112Y-15870562D01*
X5960684Y-15884848D01*
X5974969Y-15913419D01*
X5974969Y-16070562D01*
X6117827Y-16070562D02*
X6117827Y-15870562D01*
X6117827Y-15899133D02*
X6132112Y-15884848D01*
X6160684Y-15870562D01*
X6203541Y-15870562D01*
X6232112Y-15884848D01*
X6246398Y-15913419D01*
X6246398Y-16070562D01*
X6246398Y-15913419D02*
X6260684Y-15884848D01*
X6289255Y-15870562D01*
X6332112Y-15870562D01*
X6360684Y-15884848D01*
X6374969Y-15913419D01*
X6374969Y-16070562D01*
X6960684Y-15756276D02*
X6703541Y-16141991D01*
X7346398Y-15770562D02*
X7374969Y-15770562D01*
X7403541Y-15784848D01*
X7417826Y-15799133D01*
X7432112Y-15827705D01*
X7446398Y-15884848D01*
X7446398Y-15956276D01*
X7432112Y-16013419D01*
X7417826Y-16041991D01*
X7403541Y-16056276D01*
X7374969Y-16070562D01*
X7346398Y-16070562D01*
X7317826Y-16056276D01*
X7303541Y-16041991D01*
X7289255Y-16013419D01*
X7274969Y-15956276D01*
X7274969Y-15884848D01*
X7289255Y-15827705D01*
X7303541Y-15799133D01*
X7317826Y-15784848D01*
X7346398Y-15770562D01*
X7574969Y-16041991D02*
X7589255Y-16056276D01*
X7574969Y-16070562D01*
X7560684Y-16056276D01*
X7574969Y-16041991D01*
X7574969Y-16070562D01*
X7774969Y-15770562D02*
X7803541Y-15770562D01*
X7832112Y-15784848D01*
X7846398Y-15799133D01*
X7860684Y-15827705D01*
X7874969Y-15884848D01*
X7874969Y-15956276D01*
X7860684Y-16013419D01*
X7846398Y-16041991D01*
X7832112Y-16056276D01*
X7803541Y-16070562D01*
X7774969Y-16070562D01*
X7746398Y-16056276D01*
X7732112Y-16041991D01*
X7717826Y-16013419D01*
X7703541Y-15956276D01*
X7703541Y-15884848D01*
X7717826Y-15827705D01*
X7732112Y-15799133D01*
X7746398Y-15784848D01*
X7774969Y-15770562D01*
X7989255Y-15799133D02*
X8003541Y-15784848D01*
X8032112Y-15770562D01*
X8103541Y-15770562D01*
X8132112Y-15784848D01*
X8146398Y-15799133D01*
X8160684Y-15827705D01*
X8160684Y-15856276D01*
X8146398Y-15899133D01*
X7974969Y-16070562D01*
X8160684Y-16070562D01*
X8332112Y-15899133D02*
X8303541Y-15884848D01*
X8289255Y-15870562D01*
X8274969Y-15841991D01*
X8274969Y-15827705D01*
X8289255Y-15799133D01*
X8303541Y-15784848D01*
X8332112Y-15770562D01*
X8389255Y-15770562D01*
X8417827Y-15784848D01*
X8432112Y-15799133D01*
X8446398Y-15827705D01*
X8446398Y-15841991D01*
X8432112Y-15870562D01*
X8417827Y-15884848D01*
X8389255Y-15899133D01*
X8332112Y-15899133D01*
X8303541Y-15913419D01*
X8289255Y-15927705D01*
X8274969Y-15956276D01*
X8274969Y-16013419D01*
X8289255Y-16041991D01*
X8303541Y-16056276D01*
X8332112Y-16070562D01*
X8389255Y-16070562D01*
X8417827Y-16056276D01*
X8432112Y-16041991D01*
X8446398Y-16013419D01*
X8446398Y-15956276D01*
X8432112Y-15927705D01*
X8417827Y-15913419D01*
X8389255Y-15899133D01*
X8560684Y-15770562D02*
X8560684Y-15827705D01*
X8674969Y-15770562D02*
X8674969Y-15827705D01*
X9117827Y-16184848D02*
X9103541Y-16170562D01*
X9074969Y-16127705D01*
X9060684Y-16099133D01*
X9046398Y-16056276D01*
X9032112Y-15984848D01*
X9032112Y-15927705D01*
X9046398Y-15856276D01*
X9060684Y-15813419D01*
X9074969Y-15784848D01*
X9103541Y-15741991D01*
X9117827Y-15727705D01*
X9360684Y-15870562D02*
X9360684Y-16070562D01*
X9289255Y-15756276D02*
X9217827Y-15970562D01*
X9403541Y-15970562D01*
X9746398Y-16070562D02*
X9746398Y-15770562D01*
X9874969Y-16070562D02*
X9874969Y-15913419D01*
X9860684Y-15884848D01*
X9832112Y-15870562D01*
X9789255Y-15870562D01*
X9760684Y-15884848D01*
X9746398Y-15899133D01*
X10060684Y-16070562D02*
X10032112Y-16056276D01*
X10017827Y-16041991D01*
X10003541Y-16013419D01*
X10003541Y-15927705D01*
X10017827Y-15899133D01*
X10032112Y-15884848D01*
X10060684Y-15870562D01*
X10103541Y-15870562D01*
X10132112Y-15884848D01*
X10146398Y-15899133D01*
X10160684Y-15927705D01*
X10160684Y-16013419D01*
X10146398Y-16041991D01*
X10132112Y-16056276D01*
X10103541Y-16070562D01*
X10060684Y-16070562D01*
X10332112Y-16070562D02*
X10303541Y-16056276D01*
X10289255Y-16027705D01*
X10289255Y-15770562D01*
X10560684Y-16056276D02*
X10532112Y-16070562D01*
X10474969Y-16070562D01*
X10446398Y-16056276D01*
X10432112Y-16027705D01*
X10432112Y-15913419D01*
X10446398Y-15884848D01*
X10474969Y-15870562D01*
X10532112Y-15870562D01*
X10560684Y-15884848D01*
X10574969Y-15913419D01*
X10574969Y-15941991D01*
X10432112Y-15970562D01*
X10689255Y-16056276D02*
X10717827Y-16070562D01*
X10774969Y-16070562D01*
X10803541Y-16056276D01*
X10817827Y-16027705D01*
X10817827Y-16013419D01*
X10803541Y-15984848D01*
X10774969Y-15970562D01*
X10732112Y-15970562D01*
X10703541Y-15956276D01*
X10689255Y-15927705D01*
X10689255Y-15913419D01*
X10703541Y-15884848D01*
X10732112Y-15870562D01*
X10774969Y-15870562D01*
X10803541Y-15884848D01*
X10917827Y-16184848D02*
X10932112Y-16170562D01*
X10960684Y-16127705D01*
X10974969Y-16099133D01*
X10989255Y-16056276D01*
X11003541Y-15984848D01*
X11003541Y-15927705D01*
X10989255Y-15856276D01*
X10974969Y-15813419D01*
X10960684Y-15784848D01*
X10932112Y-15741991D01*
X10917827Y-15727705D01*
X4434683Y-16359132D02*
X4434683Y-16302563D01*
X4378114Y-16302563D01*
X4378114Y-16359132D01*
X4434683Y-16359132D01*
X4774969Y-16166562D02*
X4803541Y-16166562D01*
X4832112Y-16180848D01*
X4846398Y-16195133D01*
X4860684Y-16223705D01*
X4874969Y-16280848D01*
X4874969Y-16352276D01*
X4860684Y-16409419D01*
X4846398Y-16437991D01*
X4832112Y-16452276D01*
X4803541Y-16466562D01*
X4774969Y-16466562D01*
X4746398Y-16452276D01*
X4732112Y-16437991D01*
X4717827Y-16409419D01*
X4703541Y-16352276D01*
X4703541Y-16280848D01*
X4717827Y-16223705D01*
X4732112Y-16195133D01*
X4746398Y-16180848D01*
X4774969Y-16166562D01*
X5003541Y-16437991D02*
X5017827Y-16452276D01*
X5003541Y-16466562D01*
X4989255Y-16452276D01*
X5003541Y-16437991D01*
X5003541Y-16466562D01*
X5189255Y-16295133D02*
X5160684Y-16280848D01*
X5146398Y-16266562D01*
X5132112Y-16237991D01*
X5132112Y-16223705D01*
X5146398Y-16195133D01*
X5160684Y-16180848D01*
X5189255Y-16166562D01*
X5246398Y-16166562D01*
X5274969Y-16180848D01*
X5289255Y-16195133D01*
X5303541Y-16223705D01*
X5303541Y-16237991D01*
X5289255Y-16266562D01*
X5274969Y-16280848D01*
X5246398Y-16295133D01*
X5189255Y-16295133D01*
X5160684Y-16309419D01*
X5146398Y-16323705D01*
X5132112Y-16352276D01*
X5132112Y-16409419D01*
X5146398Y-16437991D01*
X5160684Y-16452276D01*
X5189255Y-16466562D01*
X5246398Y-16466562D01*
X5274969Y-16452276D01*
X5289255Y-16437991D01*
X5303541Y-16409419D01*
X5303541Y-16352276D01*
X5289255Y-16323705D01*
X5274969Y-16309419D01*
X5246398Y-16295133D01*
X5489255Y-16166562D02*
X5517827Y-16166562D01*
X5546398Y-16180848D01*
X5560684Y-16195133D01*
X5574969Y-16223705D01*
X5589255Y-16280848D01*
X5589255Y-16352276D01*
X5574969Y-16409419D01*
X5560684Y-16437991D01*
X5546398Y-16452276D01*
X5517827Y-16466562D01*
X5489255Y-16466562D01*
X5460684Y-16452276D01*
X5446398Y-16437991D01*
X5432112Y-16409419D01*
X5417827Y-16352276D01*
X5417827Y-16280848D01*
X5432112Y-16223705D01*
X5446398Y-16195133D01*
X5460684Y-16180848D01*
X5489255Y-16166562D01*
X5717827Y-16466562D02*
X5717827Y-16266562D01*
X5717827Y-16295133D02*
X5732112Y-16280848D01*
X5760684Y-16266562D01*
X5803541Y-16266562D01*
X5832112Y-16280848D01*
X5846398Y-16309419D01*
X5846398Y-16466562D01*
X5846398Y-16309419D02*
X5860684Y-16280848D01*
X5889255Y-16266562D01*
X5932112Y-16266562D01*
X5960684Y-16280848D01*
X5974969Y-16309419D01*
X5974969Y-16466562D01*
X6117827Y-16466562D02*
X6117827Y-16266562D01*
X6117827Y-16295133D02*
X6132112Y-16280848D01*
X6160684Y-16266562D01*
X6203541Y-16266562D01*
X6232112Y-16280848D01*
X6246398Y-16309419D01*
X6246398Y-16466562D01*
X6246398Y-16309419D02*
X6260684Y-16280848D01*
X6289255Y-16266562D01*
X6332112Y-16266562D01*
X6360684Y-16280848D01*
X6374969Y-16309419D01*
X6374969Y-16466562D01*
X6960684Y-16152276D02*
X6703541Y-16537991D01*
X7346398Y-16166562D02*
X7374969Y-16166562D01*
X7403541Y-16180848D01*
X7417826Y-16195133D01*
X7432112Y-16223705D01*
X7446398Y-16280848D01*
X7446398Y-16352276D01*
X7432112Y-16409419D01*
X7417826Y-16437991D01*
X7403541Y-16452276D01*
X7374969Y-16466562D01*
X7346398Y-16466562D01*
X7317826Y-16452276D01*
X7303541Y-16437991D01*
X7289255Y-16409419D01*
X7274969Y-16352276D01*
X7274969Y-16280848D01*
X7289255Y-16223705D01*
X7303541Y-16195133D01*
X7317826Y-16180848D01*
X7346398Y-16166562D01*
X7574969Y-16437991D02*
X7589255Y-16452276D01*
X7574969Y-16466562D01*
X7560684Y-16452276D01*
X7574969Y-16437991D01*
X7574969Y-16466562D01*
X7774969Y-16166562D02*
X7803541Y-16166562D01*
X7832112Y-16180848D01*
X7846398Y-16195133D01*
X7860684Y-16223705D01*
X7874969Y-16280848D01*
X7874969Y-16352276D01*
X7860684Y-16409419D01*
X7846398Y-16437991D01*
X7832112Y-16452276D01*
X7803541Y-16466562D01*
X7774969Y-16466562D01*
X7746398Y-16452276D01*
X7732112Y-16437991D01*
X7717826Y-16409419D01*
X7703541Y-16352276D01*
X7703541Y-16280848D01*
X7717826Y-16223705D01*
X7732112Y-16195133D01*
X7746398Y-16180848D01*
X7774969Y-16166562D01*
X7974969Y-16166562D02*
X8160684Y-16166562D01*
X8060684Y-16280848D01*
X8103541Y-16280848D01*
X8132112Y-16295133D01*
X8146398Y-16309419D01*
X8160684Y-16337991D01*
X8160684Y-16409419D01*
X8146398Y-16437991D01*
X8132112Y-16452276D01*
X8103541Y-16466562D01*
X8017826Y-16466562D01*
X7989255Y-16452276D01*
X7974969Y-16437991D01*
X8446398Y-16466562D02*
X8274969Y-16466562D01*
X8360684Y-16466562D02*
X8360684Y-16166562D01*
X8332112Y-16209419D01*
X8303541Y-16237991D01*
X8274969Y-16252276D01*
X8560684Y-16166562D02*
X8560684Y-16223705D01*
X8674969Y-16166562D02*
X8674969Y-16223705D01*
X9117827Y-16580848D02*
X9103541Y-16566562D01*
X9074969Y-16523705D01*
X9060684Y-16495133D01*
X9046398Y-16452276D01*
X9032112Y-16380848D01*
X9032112Y-16323705D01*
X9046398Y-16252276D01*
X9060684Y-16209419D01*
X9074969Y-16180848D01*
X9103541Y-16137991D01*
X9117827Y-16123705D01*
X9203541Y-16166562D02*
X9403541Y-16166562D01*
X9274969Y-16466562D01*
X9560684Y-16295133D02*
X9532112Y-16280848D01*
X9517827Y-16266562D01*
X9503541Y-16237991D01*
X9503541Y-16223705D01*
X9517827Y-16195133D01*
X9532112Y-16180848D01*
X9560684Y-16166562D01*
X9617827Y-16166562D01*
X9646398Y-16180848D01*
X9660684Y-16195133D01*
X9674969Y-16223705D01*
X9674969Y-16237991D01*
X9660684Y-16266562D01*
X9646398Y-16280848D01*
X9617827Y-16295133D01*
X9560684Y-16295133D01*
X9532112Y-16309419D01*
X9517827Y-16323705D01*
X9503541Y-16352276D01*
X9503541Y-16409419D01*
X9517827Y-16437991D01*
X9532112Y-16452276D01*
X9560684Y-16466562D01*
X9617827Y-16466562D01*
X9646398Y-16452276D01*
X9660684Y-16437991D01*
X9674969Y-16409419D01*
X9674969Y-16352276D01*
X9660684Y-16323705D01*
X9646398Y-16309419D01*
X9617827Y-16295133D01*
X10032112Y-16466562D02*
X10032112Y-16166562D01*
X10160684Y-16466562D02*
X10160684Y-16309419D01*
X10146398Y-16280848D01*
X10117827Y-16266562D01*
X10074969Y-16266562D01*
X10046398Y-16280848D01*
X10032112Y-16295133D01*
X10346398Y-16466562D02*
X10317827Y-16452276D01*
X10303541Y-16437991D01*
X10289255Y-16409419D01*
X10289255Y-16323705D01*
X10303541Y-16295133D01*
X10317827Y-16280848D01*
X10346398Y-16266562D01*
X10389255Y-16266562D01*
X10417827Y-16280848D01*
X10432112Y-16295133D01*
X10446398Y-16323705D01*
X10446398Y-16409419D01*
X10432112Y-16437991D01*
X10417827Y-16452276D01*
X10389255Y-16466562D01*
X10346398Y-16466562D01*
X10617827Y-16466562D02*
X10589255Y-16452276D01*
X10574969Y-16423705D01*
X10574969Y-16166562D01*
X10846398Y-16452276D02*
X10817827Y-16466562D01*
X10760684Y-16466562D01*
X10732112Y-16452276D01*
X10717827Y-16423705D01*
X10717827Y-16309419D01*
X10732112Y-16280848D01*
X10760684Y-16266562D01*
X10817827Y-16266562D01*
X10846398Y-16280848D01*
X10860684Y-16309419D01*
X10860684Y-16337991D01*
X10717827Y-16366562D01*
X10974970Y-16452276D02*
X11003541Y-16466562D01*
X11060684Y-16466562D01*
X11089255Y-16452276D01*
X11103541Y-16423705D01*
X11103541Y-16409419D01*
X11089255Y-16380848D01*
X11060684Y-16366562D01*
X11017827Y-16366562D01*
X10989255Y-16352276D01*
X10974970Y-16323705D01*
X10974970Y-16309419D01*
X10989255Y-16280848D01*
X11017827Y-16266562D01*
X11060684Y-16266562D01*
X11089255Y-16280848D01*
X11203541Y-16580848D02*
X11217827Y-16566562D01*
X11246398Y-16523705D01*
X11260684Y-16495133D01*
X11274969Y-16452276D01*
X11289255Y-16380848D01*
X11289255Y-16323705D01*
X11274969Y-16252276D01*
X11260684Y-16209419D01*
X11246398Y-16180848D01*
X11217827Y-16137991D01*
X11203541Y-16123705D01*
X4406393Y-16766853D02*
X4446398Y-16726848D01*
X4406393Y-16686843D01*
X4366388Y-16726848D01*
X4406393Y-16766853D01*
X4774969Y-16562562D02*
X4803541Y-16562562D01*
X4832112Y-16576848D01*
X4846398Y-16591133D01*
X4860684Y-16619705D01*
X4874969Y-16676848D01*
X4874969Y-16748276D01*
X4860684Y-16805419D01*
X4846398Y-16833991D01*
X4832112Y-16848276D01*
X4803541Y-16862562D01*
X4774969Y-16862562D01*
X4746398Y-16848276D01*
X4732112Y-16833991D01*
X4717827Y-16805419D01*
X4703541Y-16748276D01*
X4703541Y-16676848D01*
X4717827Y-16619705D01*
X4732112Y-16591133D01*
X4746398Y-16576848D01*
X4774969Y-16562562D01*
X5003541Y-16833991D02*
X5017827Y-16848276D01*
X5003541Y-16862562D01*
X4989255Y-16848276D01*
X5003541Y-16833991D01*
X5003541Y-16862562D01*
X5189255Y-16691133D02*
X5160684Y-16676848D01*
X5146398Y-16662562D01*
X5132112Y-16633991D01*
X5132112Y-16619705D01*
X5146398Y-16591133D01*
X5160684Y-16576848D01*
X5189255Y-16562562D01*
X5246398Y-16562562D01*
X5274969Y-16576848D01*
X5289255Y-16591133D01*
X5303541Y-16619705D01*
X5303541Y-16633991D01*
X5289255Y-16662562D01*
X5274969Y-16676848D01*
X5246398Y-16691133D01*
X5189255Y-16691133D01*
X5160684Y-16705419D01*
X5146398Y-16719705D01*
X5132112Y-16748276D01*
X5132112Y-16805419D01*
X5146398Y-16833991D01*
X5160684Y-16848276D01*
X5189255Y-16862562D01*
X5246398Y-16862562D01*
X5274969Y-16848276D01*
X5289255Y-16833991D01*
X5303541Y-16805419D01*
X5303541Y-16748276D01*
X5289255Y-16719705D01*
X5274969Y-16705419D01*
X5246398Y-16691133D01*
X5489255Y-16562562D02*
X5517827Y-16562562D01*
X5546398Y-16576848D01*
X5560684Y-16591133D01*
X5574969Y-16619705D01*
X5589255Y-16676848D01*
X5589255Y-16748276D01*
X5574969Y-16805419D01*
X5560684Y-16833991D01*
X5546398Y-16848276D01*
X5517827Y-16862562D01*
X5489255Y-16862562D01*
X5460684Y-16848276D01*
X5446398Y-16833991D01*
X5432112Y-16805419D01*
X5417827Y-16748276D01*
X5417827Y-16676848D01*
X5432112Y-16619705D01*
X5446398Y-16591133D01*
X5460684Y-16576848D01*
X5489255Y-16562562D01*
X5717827Y-16862562D02*
X5717827Y-16662562D01*
X5717827Y-16691133D02*
X5732112Y-16676848D01*
X5760684Y-16662562D01*
X5803541Y-16662562D01*
X5832112Y-16676848D01*
X5846398Y-16705419D01*
X5846398Y-16862562D01*
X5846398Y-16705419D02*
X5860684Y-16676848D01*
X5889255Y-16662562D01*
X5932112Y-16662562D01*
X5960684Y-16676848D01*
X5974969Y-16705419D01*
X5974969Y-16862562D01*
X6117827Y-16862562D02*
X6117827Y-16662562D01*
X6117827Y-16691133D02*
X6132112Y-16676848D01*
X6160684Y-16662562D01*
X6203541Y-16662562D01*
X6232112Y-16676848D01*
X6246398Y-16705419D01*
X6246398Y-16862562D01*
X6246398Y-16705419D02*
X6260684Y-16676848D01*
X6289255Y-16662562D01*
X6332112Y-16662562D01*
X6360684Y-16676848D01*
X6374969Y-16705419D01*
X6374969Y-16862562D01*
X6960684Y-16548276D02*
X6703541Y-16933991D01*
X7346398Y-16562562D02*
X7374969Y-16562562D01*
X7403541Y-16576848D01*
X7417826Y-16591133D01*
X7432112Y-16619705D01*
X7446398Y-16676848D01*
X7446398Y-16748276D01*
X7432112Y-16805419D01*
X7417826Y-16833991D01*
X7403541Y-16848276D01*
X7374969Y-16862562D01*
X7346398Y-16862562D01*
X7317826Y-16848276D01*
X7303541Y-16833991D01*
X7289255Y-16805419D01*
X7274969Y-16748276D01*
X7274969Y-16676848D01*
X7289255Y-16619705D01*
X7303541Y-16591133D01*
X7317826Y-16576848D01*
X7346398Y-16562562D01*
X7574969Y-16833991D02*
X7589255Y-16848276D01*
X7574969Y-16862562D01*
X7560684Y-16848276D01*
X7574969Y-16833991D01*
X7574969Y-16862562D01*
X7774969Y-16562562D02*
X7803541Y-16562562D01*
X7832112Y-16576848D01*
X7846398Y-16591133D01*
X7860684Y-16619705D01*
X7874969Y-16676848D01*
X7874969Y-16748276D01*
X7860684Y-16805419D01*
X7846398Y-16833991D01*
X7832112Y-16848276D01*
X7803541Y-16862562D01*
X7774969Y-16862562D01*
X7746398Y-16848276D01*
X7732112Y-16833991D01*
X7717826Y-16805419D01*
X7703541Y-16748276D01*
X7703541Y-16676848D01*
X7717826Y-16619705D01*
X7732112Y-16591133D01*
X7746398Y-16576848D01*
X7774969Y-16562562D01*
X7974969Y-16562562D02*
X8160684Y-16562562D01*
X8060684Y-16676848D01*
X8103541Y-16676848D01*
X8132112Y-16691133D01*
X8146398Y-16705419D01*
X8160684Y-16733991D01*
X8160684Y-16805419D01*
X8146398Y-16833991D01*
X8132112Y-16848276D01*
X8103541Y-16862562D01*
X8017826Y-16862562D01*
X7989255Y-16848276D01*
X7974969Y-16833991D01*
X8274969Y-16591133D02*
X8289255Y-16576848D01*
X8317826Y-16562562D01*
X8389255Y-16562562D01*
X8417827Y-16576848D01*
X8432112Y-16591133D01*
X8446398Y-16619705D01*
X8446398Y-16648276D01*
X8432112Y-16691133D01*
X8260684Y-16862562D01*
X8446398Y-16862562D01*
X8560684Y-16562562D02*
X8560684Y-16619705D01*
X8674969Y-16562562D02*
X8674969Y-16619705D01*
X9117827Y-16976848D02*
X9103541Y-16962562D01*
X9074969Y-16919705D01*
X9060684Y-16891134D01*
X9046398Y-16848276D01*
X9032112Y-16776848D01*
X9032112Y-16719705D01*
X9046398Y-16648276D01*
X9060684Y-16605419D01*
X9074969Y-16576848D01*
X9103541Y-16533991D01*
X9117827Y-16519705D01*
X9360684Y-16562562D02*
X9303541Y-16562562D01*
X9274969Y-16576848D01*
X9260684Y-16591133D01*
X9232112Y-16633991D01*
X9217827Y-16691133D01*
X9217827Y-16805419D01*
X9232112Y-16833991D01*
X9246398Y-16848276D01*
X9274969Y-16862562D01*
X9332112Y-16862562D01*
X9360684Y-16848276D01*
X9374969Y-16833991D01*
X9389255Y-16805419D01*
X9389255Y-16733991D01*
X9374969Y-16705419D01*
X9360684Y-16691133D01*
X9332112Y-16676848D01*
X9274969Y-16676848D01*
X9246398Y-16691133D01*
X9232112Y-16705419D01*
X9217827Y-16733991D01*
X9746398Y-16862562D02*
X9746398Y-16562562D01*
X9874969Y-16862562D02*
X9874969Y-16705419D01*
X9860684Y-16676848D01*
X9832112Y-16662562D01*
X9789255Y-16662562D01*
X9760684Y-16676848D01*
X9746398Y-16691133D01*
X10060684Y-16862562D02*
X10032112Y-16848276D01*
X10017827Y-16833991D01*
X10003541Y-16805419D01*
X10003541Y-16719705D01*
X10017827Y-16691133D01*
X10032112Y-16676848D01*
X10060684Y-16662562D01*
X10103541Y-16662562D01*
X10132112Y-16676848D01*
X10146398Y-16691133D01*
X10160684Y-16719705D01*
X10160684Y-16805419D01*
X10146398Y-16833991D01*
X10132112Y-16848276D01*
X10103541Y-16862562D01*
X10060684Y-16862562D01*
X10332112Y-16862562D02*
X10303541Y-16848276D01*
X10289255Y-16819705D01*
X10289255Y-16562562D01*
X10560684Y-16848276D02*
X10532112Y-16862562D01*
X10474969Y-16862562D01*
X10446398Y-16848276D01*
X10432112Y-16819705D01*
X10432112Y-16705419D01*
X10446398Y-16676848D01*
X10474969Y-16662562D01*
X10532112Y-16662562D01*
X10560684Y-16676848D01*
X10574969Y-16705419D01*
X10574969Y-16733991D01*
X10432112Y-16762562D01*
X10689255Y-16848276D02*
X10717827Y-16862562D01*
X10774969Y-16862562D01*
X10803541Y-16848276D01*
X10817827Y-16819705D01*
X10817827Y-16805419D01*
X10803541Y-16776848D01*
X10774969Y-16762562D01*
X10732112Y-16762562D01*
X10703541Y-16748276D01*
X10689255Y-16719705D01*
X10689255Y-16705419D01*
X10703541Y-16676848D01*
X10732112Y-16662562D01*
X10774969Y-16662562D01*
X10803541Y-16676848D01*
X10917827Y-16976848D02*
X10932112Y-16962562D01*
X10960684Y-16919705D01*
X10974969Y-16891134D01*
X10989255Y-16848276D01*
X11003541Y-16776848D01*
X11003541Y-16719705D01*
X10989255Y-16648276D01*
X10974969Y-16605419D01*
X10960684Y-16576848D01*
X10932112Y-16533991D01*
X10917827Y-16519705D01*
X4365118Y-17082208D02*
X4446398Y-17163488D01*
X4446398Y-17082208D02*
X4365118Y-17163488D01*
X4446398Y-17122848D02*
G75*
G03X4446398Y-17122848I-40640J0D01*
G01*
X4774969Y-16958562D02*
X4803541Y-16958562D01*
X4832112Y-16972848D01*
X4846398Y-16987134D01*
X4860684Y-17015705D01*
X4874969Y-17072848D01*
X4874969Y-17144276D01*
X4860684Y-17201419D01*
X4846398Y-17229991D01*
X4832112Y-17244276D01*
X4803541Y-17258562D01*
X4774969Y-17258562D01*
X4746398Y-17244276D01*
X4732112Y-17229991D01*
X4717827Y-17201419D01*
X4703541Y-17144276D01*
X4703541Y-17072848D01*
X4717827Y-17015705D01*
X4732112Y-16987134D01*
X4746398Y-16972848D01*
X4774969Y-16958562D01*
X5003541Y-17229991D02*
X5017827Y-17244276D01*
X5003541Y-17258562D01*
X4989255Y-17244276D01*
X5003541Y-17229991D01*
X5003541Y-17258562D01*
X5189255Y-17087134D02*
X5160684Y-17072848D01*
X5146398Y-17058562D01*
X5132112Y-17029991D01*
X5132112Y-17015705D01*
X5146398Y-16987134D01*
X5160684Y-16972848D01*
X5189255Y-16958562D01*
X5246398Y-16958562D01*
X5274969Y-16972848D01*
X5289255Y-16987134D01*
X5303541Y-17015705D01*
X5303541Y-17029991D01*
X5289255Y-17058562D01*
X5274969Y-17072848D01*
X5246398Y-17087134D01*
X5189255Y-17087134D01*
X5160684Y-17101419D01*
X5146398Y-17115705D01*
X5132112Y-17144276D01*
X5132112Y-17201419D01*
X5146398Y-17229991D01*
X5160684Y-17244276D01*
X5189255Y-17258562D01*
X5246398Y-17258562D01*
X5274969Y-17244276D01*
X5289255Y-17229991D01*
X5303541Y-17201419D01*
X5303541Y-17144276D01*
X5289255Y-17115705D01*
X5274969Y-17101419D01*
X5246398Y-17087134D01*
X5589255Y-17258562D02*
X5417827Y-17258562D01*
X5503541Y-17258562D02*
X5503541Y-16958562D01*
X5474969Y-17001419D01*
X5446398Y-17029991D01*
X5417827Y-17044276D01*
X5717827Y-17258562D02*
X5717827Y-17058562D01*
X5717827Y-17087134D02*
X5732112Y-17072848D01*
X5760684Y-17058562D01*
X5803541Y-17058562D01*
X5832112Y-17072848D01*
X5846398Y-17101419D01*
X5846398Y-17258562D01*
X5846398Y-17101419D02*
X5860684Y-17072848D01*
X5889255Y-17058562D01*
X5932112Y-17058562D01*
X5960684Y-17072848D01*
X5974969Y-17101419D01*
X5974969Y-17258562D01*
X6117827Y-17258562D02*
X6117827Y-17058562D01*
X6117827Y-17087134D02*
X6132112Y-17072848D01*
X6160684Y-17058562D01*
X6203541Y-17058562D01*
X6232112Y-17072848D01*
X6246398Y-17101419D01*
X6246398Y-17258562D01*
X6246398Y-17101419D02*
X6260684Y-17072848D01*
X6289255Y-17058562D01*
X6332112Y-17058562D01*
X6360684Y-17072848D01*
X6374969Y-17101419D01*
X6374969Y-17258562D01*
X6960684Y-16944276D02*
X6703541Y-17329991D01*
X7346398Y-16958562D02*
X7374969Y-16958562D01*
X7403541Y-16972848D01*
X7417826Y-16987134D01*
X7432112Y-17015705D01*
X7446398Y-17072848D01*
X7446398Y-17144276D01*
X7432112Y-17201419D01*
X7417826Y-17229991D01*
X7403541Y-17244276D01*
X7374969Y-17258562D01*
X7346398Y-17258562D01*
X7317826Y-17244276D01*
X7303541Y-17229991D01*
X7289255Y-17201419D01*
X7274969Y-17144276D01*
X7274969Y-17072848D01*
X7289255Y-17015705D01*
X7303541Y-16987134D01*
X7317826Y-16972848D01*
X7346398Y-16958562D01*
X7574969Y-17229991D02*
X7589255Y-17244276D01*
X7574969Y-17258562D01*
X7560684Y-17244276D01*
X7574969Y-17229991D01*
X7574969Y-17258562D01*
X7774969Y-16958562D02*
X7803541Y-16958562D01*
X7832112Y-16972848D01*
X7846398Y-16987134D01*
X7860684Y-17015705D01*
X7874969Y-17072848D01*
X7874969Y-17144276D01*
X7860684Y-17201419D01*
X7846398Y-17229991D01*
X7832112Y-17244276D01*
X7803541Y-17258562D01*
X7774969Y-17258562D01*
X7746398Y-17244276D01*
X7732112Y-17229991D01*
X7717826Y-17201419D01*
X7703541Y-17144276D01*
X7703541Y-17072848D01*
X7717826Y-17015705D01*
X7732112Y-16987134D01*
X7746398Y-16972848D01*
X7774969Y-16958562D01*
X7974969Y-16958562D02*
X8160684Y-16958562D01*
X8060684Y-17072848D01*
X8103541Y-17072848D01*
X8132112Y-17087134D01*
X8146398Y-17101419D01*
X8160684Y-17129991D01*
X8160684Y-17201419D01*
X8146398Y-17229991D01*
X8132112Y-17244276D01*
X8103541Y-17258562D01*
X8017826Y-17258562D01*
X7989255Y-17244276D01*
X7974969Y-17229991D01*
X8274969Y-16987134D02*
X8289255Y-16972848D01*
X8317826Y-16958562D01*
X8389255Y-16958562D01*
X8417827Y-16972848D01*
X8432112Y-16987134D01*
X8446398Y-17015705D01*
X8446398Y-17044276D01*
X8432112Y-17087134D01*
X8260684Y-17258562D01*
X8446398Y-17258562D01*
X8560684Y-16958562D02*
X8560684Y-17015705D01*
X8674969Y-16958562D02*
X8674969Y-17015705D01*
X9117827Y-17372848D02*
X9103541Y-17358562D01*
X9074969Y-17315705D01*
X9060684Y-17287134D01*
X9046398Y-17244276D01*
X9032112Y-17172848D01*
X9032112Y-17115705D01*
X9046398Y-17044276D01*
X9060684Y-17001419D01*
X9074969Y-16972848D01*
X9103541Y-16929991D01*
X9117827Y-16915705D01*
X9217827Y-16987134D02*
X9232112Y-16972848D01*
X9260684Y-16958562D01*
X9332112Y-16958562D01*
X9360684Y-16972848D01*
X9374969Y-16987134D01*
X9389255Y-17015705D01*
X9389255Y-17044276D01*
X9374969Y-17087134D01*
X9203541Y-17258562D01*
X9389255Y-17258562D01*
X9646398Y-17058562D02*
X9646398Y-17258562D01*
X9574969Y-16944276D02*
X9503541Y-17158562D01*
X9689255Y-17158562D01*
X10032112Y-17258562D02*
X10032112Y-16958562D01*
X10160684Y-17258562D02*
X10160684Y-17101419D01*
X10146398Y-17072848D01*
X10117827Y-17058562D01*
X10074969Y-17058562D01*
X10046398Y-17072848D01*
X10032112Y-17087134D01*
X10346398Y-17258562D02*
X10317827Y-17244276D01*
X10303541Y-17229991D01*
X10289255Y-17201419D01*
X10289255Y-17115705D01*
X10303541Y-17087134D01*
X10317827Y-17072848D01*
X10346398Y-17058562D01*
X10389255Y-17058562D01*
X10417827Y-17072848D01*
X10432112Y-17087134D01*
X10446398Y-17115705D01*
X10446398Y-17201419D01*
X10432112Y-17229991D01*
X10417827Y-17244276D01*
X10389255Y-17258562D01*
X10346398Y-17258562D01*
X10617827Y-17258562D02*
X10589255Y-17244276D01*
X10574969Y-17215705D01*
X10574969Y-16958562D01*
X10846398Y-17244276D02*
X10817827Y-17258562D01*
X10760684Y-17258562D01*
X10732112Y-17244276D01*
X10717827Y-17215705D01*
X10717827Y-17101419D01*
X10732112Y-17072848D01*
X10760684Y-17058562D01*
X10817827Y-17058562D01*
X10846398Y-17072848D01*
X10860684Y-17101419D01*
X10860684Y-17129991D01*
X10717827Y-17158562D01*
X10974970Y-17244276D02*
X11003541Y-17258562D01*
X11060684Y-17258562D01*
X11089255Y-17244276D01*
X11103541Y-17215705D01*
X11103541Y-17201419D01*
X11089255Y-17172848D01*
X11060684Y-17158562D01*
X11017827Y-17158562D01*
X10989255Y-17144276D01*
X10974970Y-17115705D01*
X10974970Y-17101419D01*
X10989255Y-17072848D01*
X11017827Y-17058562D01*
X11060684Y-17058562D01*
X11089255Y-17072848D01*
X11203541Y-17372848D02*
X11217827Y-17358562D01*
X11246398Y-17315705D01*
X11260684Y-17287134D01*
X11274969Y-17244276D01*
X11289255Y-17172848D01*
X11289255Y-17115705D01*
X11274969Y-17044276D01*
X11260684Y-17001419D01*
X11246398Y-16972848D01*
X11217827Y-16929991D01*
X11203541Y-16915705D01*
X4346322Y-17468810D02*
X4446398Y-17568886D01*
X4446398Y-17468810D02*
X4346322Y-17568886D01*
X4396360Y-17468810D02*
X4396360Y-17568886D01*
X4346322Y-17518848D02*
X4446398Y-17518848D01*
X4874969Y-17654562D02*
X4703541Y-17654562D01*
X4789255Y-17654562D02*
X4789255Y-17354562D01*
X4760684Y-17397419D01*
X4732112Y-17425991D01*
X4703541Y-17440276D01*
X5003541Y-17625991D02*
X5017827Y-17640276D01*
X5003541Y-17654562D01*
X4989255Y-17640276D01*
X5003541Y-17625991D01*
X5003541Y-17654562D01*
X5203541Y-17354562D02*
X5232112Y-17354562D01*
X5260684Y-17368848D01*
X5274969Y-17383134D01*
X5289255Y-17411705D01*
X5303541Y-17468848D01*
X5303541Y-17540276D01*
X5289255Y-17597419D01*
X5274969Y-17625991D01*
X5260684Y-17640276D01*
X5232112Y-17654562D01*
X5203541Y-17654562D01*
X5174969Y-17640276D01*
X5160684Y-17625991D01*
X5146398Y-17597419D01*
X5132112Y-17540276D01*
X5132112Y-17468848D01*
X5146398Y-17411705D01*
X5160684Y-17383134D01*
X5174969Y-17368848D01*
X5203541Y-17354562D01*
X5489255Y-17354562D02*
X5517827Y-17354562D01*
X5546398Y-17368848D01*
X5560684Y-17383134D01*
X5574969Y-17411705D01*
X5589255Y-17468848D01*
X5589255Y-17540276D01*
X5574969Y-17597419D01*
X5560684Y-17625991D01*
X5546398Y-17640276D01*
X5517827Y-17654562D01*
X5489255Y-17654562D01*
X5460684Y-17640276D01*
X5446398Y-17625991D01*
X5432112Y-17597419D01*
X5417827Y-17540276D01*
X5417827Y-17468848D01*
X5432112Y-17411705D01*
X5446398Y-17383134D01*
X5460684Y-17368848D01*
X5489255Y-17354562D01*
X5717827Y-17654562D02*
X5717827Y-17454562D01*
X5717827Y-17483134D02*
X5732112Y-17468848D01*
X5760684Y-17454562D01*
X5803541Y-17454562D01*
X5832112Y-17468848D01*
X5846398Y-17497419D01*
X5846398Y-17654562D01*
X5846398Y-17497419D02*
X5860684Y-17468848D01*
X5889255Y-17454562D01*
X5932112Y-17454562D01*
X5960684Y-17468848D01*
X5974969Y-17497419D01*
X5974969Y-17654562D01*
X6117827Y-17654562D02*
X6117827Y-17454562D01*
X6117827Y-17483134D02*
X6132112Y-17468848D01*
X6160684Y-17454562D01*
X6203541Y-17454562D01*
X6232112Y-17468848D01*
X6246398Y-17497419D01*
X6246398Y-17654562D01*
X6246398Y-17497419D02*
X6260684Y-17468848D01*
X6289255Y-17454562D01*
X6332112Y-17454562D01*
X6360684Y-17468848D01*
X6374969Y-17497419D01*
X6374969Y-17654562D01*
X6960684Y-17340276D02*
X6703541Y-17725991D01*
X7346398Y-17354562D02*
X7374969Y-17354562D01*
X7403541Y-17368848D01*
X7417826Y-17383134D01*
X7432112Y-17411705D01*
X7446398Y-17468848D01*
X7446398Y-17540276D01*
X7432112Y-17597419D01*
X7417826Y-17625991D01*
X7403541Y-17640276D01*
X7374969Y-17654562D01*
X7346398Y-17654562D01*
X7317826Y-17640276D01*
X7303541Y-17625991D01*
X7289255Y-17597419D01*
X7274969Y-17540276D01*
X7274969Y-17468848D01*
X7289255Y-17411705D01*
X7303541Y-17383134D01*
X7317826Y-17368848D01*
X7346398Y-17354562D01*
X7574969Y-17625991D02*
X7589255Y-17640276D01*
X7574969Y-17654562D01*
X7560684Y-17640276D01*
X7574969Y-17625991D01*
X7574969Y-17654562D01*
X7774969Y-17354562D02*
X7803541Y-17354562D01*
X7832112Y-17368848D01*
X7846398Y-17383134D01*
X7860684Y-17411705D01*
X7874969Y-17468848D01*
X7874969Y-17540276D01*
X7860684Y-17597419D01*
X7846398Y-17625991D01*
X7832112Y-17640276D01*
X7803541Y-17654562D01*
X7774969Y-17654562D01*
X7746398Y-17640276D01*
X7732112Y-17625991D01*
X7717826Y-17597419D01*
X7703541Y-17540276D01*
X7703541Y-17468848D01*
X7717826Y-17411705D01*
X7732112Y-17383134D01*
X7746398Y-17368848D01*
X7774969Y-17354562D01*
X7974969Y-17354562D02*
X8160684Y-17354562D01*
X8060684Y-17468848D01*
X8103541Y-17468848D01*
X8132112Y-17483134D01*
X8146398Y-17497419D01*
X8160684Y-17525991D01*
X8160684Y-17597419D01*
X8146398Y-17625991D01*
X8132112Y-17640276D01*
X8103541Y-17654562D01*
X8017826Y-17654562D01*
X7989255Y-17640276D01*
X7974969Y-17625991D01*
X8303541Y-17654562D02*
X8360684Y-17654562D01*
X8389255Y-17640276D01*
X8403541Y-17625991D01*
X8432112Y-17583134D01*
X8446398Y-17525991D01*
X8446398Y-17411705D01*
X8432112Y-17383134D01*
X8417827Y-17368848D01*
X8389255Y-17354562D01*
X8332112Y-17354562D01*
X8303541Y-17368848D01*
X8289255Y-17383134D01*
X8274969Y-17411705D01*
X8274969Y-17483134D01*
X8289255Y-17511705D01*
X8303541Y-17525991D01*
X8332112Y-17540276D01*
X8389255Y-17540276D01*
X8417827Y-17525991D01*
X8432112Y-17511705D01*
X8446398Y-17483134D01*
X8560684Y-17354562D02*
X8560684Y-17411705D01*
X8674969Y-17354562D02*
X8674969Y-17411705D01*
X9117827Y-17768848D02*
X9103541Y-17754562D01*
X9074969Y-17711705D01*
X9060684Y-17683134D01*
X9046398Y-17640276D01*
X9032112Y-17568848D01*
X9032112Y-17511705D01*
X9046398Y-17440276D01*
X9060684Y-17397419D01*
X9074969Y-17368848D01*
X9103541Y-17325991D01*
X9117827Y-17311705D01*
X9389255Y-17654562D02*
X9217827Y-17654562D01*
X9303541Y-17654562D02*
X9303541Y-17354562D01*
X9274969Y-17397419D01*
X9246398Y-17425991D01*
X9217827Y-17440276D01*
X9532112Y-17654562D02*
X9589255Y-17654562D01*
X9617827Y-17640276D01*
X9632112Y-17625991D01*
X9660684Y-17583134D01*
X9674969Y-17525991D01*
X9674969Y-17411705D01*
X9660684Y-17383134D01*
X9646398Y-17368848D01*
X9617827Y-17354562D01*
X9560684Y-17354562D01*
X9532112Y-17368848D01*
X9517827Y-17383134D01*
X9503541Y-17411705D01*
X9503541Y-17483134D01*
X9517827Y-17511705D01*
X9532112Y-17525991D01*
X9560684Y-17540276D01*
X9617827Y-17540276D01*
X9646398Y-17525991D01*
X9660684Y-17511705D01*
X9674969Y-17483134D01*
X10032112Y-17654562D02*
X10032112Y-17354562D01*
X10160684Y-17654562D02*
X10160684Y-17497419D01*
X10146398Y-17468848D01*
X10117827Y-17454562D01*
X10074969Y-17454562D01*
X10046398Y-17468848D01*
X10032112Y-17483134D01*
X10346398Y-17654562D02*
X10317827Y-17640276D01*
X10303541Y-17625991D01*
X10289255Y-17597419D01*
X10289255Y-17511705D01*
X10303541Y-17483134D01*
X10317827Y-17468848D01*
X10346398Y-17454562D01*
X10389255Y-17454562D01*
X10417827Y-17468848D01*
X10432112Y-17483134D01*
X10446398Y-17511705D01*
X10446398Y-17597419D01*
X10432112Y-17625991D01*
X10417827Y-17640276D01*
X10389255Y-17654562D01*
X10346398Y-17654562D01*
X10617827Y-17654562D02*
X10589255Y-17640276D01*
X10574969Y-17611705D01*
X10574969Y-17354562D01*
X10846398Y-17640276D02*
X10817827Y-17654562D01*
X10760684Y-17654562D01*
X10732112Y-17640276D01*
X10717827Y-17611705D01*
X10717827Y-17497419D01*
X10732112Y-17468848D01*
X10760684Y-17454562D01*
X10817827Y-17454562D01*
X10846398Y-17468848D01*
X10860684Y-17497419D01*
X10860684Y-17525991D01*
X10717827Y-17554562D01*
X10974970Y-17640276D02*
X11003541Y-17654562D01*
X11060684Y-17654562D01*
X11089255Y-17640276D01*
X11103541Y-17611705D01*
X11103541Y-17597419D01*
X11089255Y-17568848D01*
X11060684Y-17554562D01*
X11017827Y-17554562D01*
X10989255Y-17540276D01*
X10974970Y-17511705D01*
X10974970Y-17497419D01*
X10989255Y-17468848D01*
X11017827Y-17454562D01*
X11060684Y-17454562D01*
X11089255Y-17468848D01*
X11203541Y-17768848D02*
X11217827Y-17754562D01*
X11246398Y-17711705D01*
X11260684Y-17683134D01*
X11274969Y-17640276D01*
X11289255Y-17568848D01*
X11289255Y-17511705D01*
X11274969Y-17440276D01*
X11260684Y-17397419D01*
X11246398Y-17368848D01*
X11217827Y-17325991D01*
X11203541Y-17311705D01*
X4344798Y-17864048D02*
X4446398Y-17965648D01*
X4446398Y-17864048D02*
X4344798Y-17965648D01*
X4431519Y-17950769D02*
X4431519Y-17878926D01*
X4359677Y-17878926D01*
X4359677Y-17950769D01*
X4431519Y-17950769D01*
X4874969Y-18050562D02*
X4703541Y-18050562D01*
X4789255Y-18050562D02*
X4789255Y-17750562D01*
X4760684Y-17793419D01*
X4732112Y-17821991D01*
X4703541Y-17836276D01*
X5003541Y-18021991D02*
X5017827Y-18036276D01*
X5003541Y-18050562D01*
X4989255Y-18036276D01*
X5003541Y-18021991D01*
X5003541Y-18050562D01*
X5203541Y-17750562D02*
X5232112Y-17750562D01*
X5260684Y-17764848D01*
X5274969Y-17779134D01*
X5289255Y-17807705D01*
X5303541Y-17864848D01*
X5303541Y-17936276D01*
X5289255Y-17993419D01*
X5274969Y-18021991D01*
X5260684Y-18036276D01*
X5232112Y-18050562D01*
X5203541Y-18050562D01*
X5174969Y-18036276D01*
X5160684Y-18021991D01*
X5146398Y-17993419D01*
X5132112Y-17936276D01*
X5132112Y-17864848D01*
X5146398Y-17807705D01*
X5160684Y-17779134D01*
X5174969Y-17764848D01*
X5203541Y-17750562D01*
X5417827Y-17779134D02*
X5432112Y-17764848D01*
X5460684Y-17750562D01*
X5532112Y-17750562D01*
X5560684Y-17764848D01*
X5574969Y-17779134D01*
X5589255Y-17807705D01*
X5589255Y-17836276D01*
X5574969Y-17879134D01*
X5403541Y-18050562D01*
X5589255Y-18050562D01*
X5717827Y-18050562D02*
X5717827Y-17850562D01*
X5717827Y-17879134D02*
X5732112Y-17864848D01*
X5760684Y-17850562D01*
X5803541Y-17850562D01*
X5832112Y-17864848D01*
X5846398Y-17893419D01*
X5846398Y-18050562D01*
X5846398Y-17893419D02*
X5860684Y-17864848D01*
X5889255Y-17850562D01*
X5932112Y-17850562D01*
X5960684Y-17864848D01*
X5974969Y-17893419D01*
X5974969Y-18050562D01*
X6117827Y-18050562D02*
X6117827Y-17850562D01*
X6117827Y-17879134D02*
X6132112Y-17864848D01*
X6160684Y-17850562D01*
X6203541Y-17850562D01*
X6232112Y-17864848D01*
X6246398Y-17893419D01*
X6246398Y-18050562D01*
X6246398Y-17893419D02*
X6260684Y-17864848D01*
X6289255Y-17850562D01*
X6332112Y-17850562D01*
X6360684Y-17864848D01*
X6374969Y-17893419D01*
X6374969Y-18050562D01*
X6960684Y-17736276D02*
X6703541Y-18121991D01*
X7346398Y-17750562D02*
X7374969Y-17750562D01*
X7403541Y-17764848D01*
X7417826Y-17779134D01*
X7432112Y-17807705D01*
X7446398Y-17864848D01*
X7446398Y-17936276D01*
X7432112Y-17993419D01*
X7417826Y-18021991D01*
X7403541Y-18036276D01*
X7374969Y-18050562D01*
X7346398Y-18050562D01*
X7317826Y-18036276D01*
X7303541Y-18021991D01*
X7289255Y-17993419D01*
X7274969Y-17936276D01*
X7274969Y-17864848D01*
X7289255Y-17807705D01*
X7303541Y-17779134D01*
X7317826Y-17764848D01*
X7346398Y-17750562D01*
X7574969Y-18021991D02*
X7589255Y-18036276D01*
X7574969Y-18050562D01*
X7560684Y-18036276D01*
X7574969Y-18021991D01*
X7574969Y-18050562D01*
X7774969Y-17750562D02*
X7803541Y-17750562D01*
X7832112Y-17764848D01*
X7846398Y-17779134D01*
X7860684Y-17807705D01*
X7874969Y-17864848D01*
X7874969Y-17936276D01*
X7860684Y-17993419D01*
X7846398Y-18021991D01*
X7832112Y-18036276D01*
X7803541Y-18050562D01*
X7774969Y-18050562D01*
X7746398Y-18036276D01*
X7732112Y-18021991D01*
X7717826Y-17993419D01*
X7703541Y-17936276D01*
X7703541Y-17864848D01*
X7717826Y-17807705D01*
X7732112Y-17779134D01*
X7746398Y-17764848D01*
X7774969Y-17750562D01*
X8132112Y-17850562D02*
X8132112Y-18050562D01*
X8060684Y-17736276D02*
X7989255Y-17950562D01*
X8174969Y-17950562D01*
X8346398Y-17750562D02*
X8374969Y-17750562D01*
X8403541Y-17764848D01*
X8417827Y-17779134D01*
X8432112Y-17807705D01*
X8446398Y-17864848D01*
X8446398Y-17936276D01*
X8432112Y-17993419D01*
X8417827Y-18021991D01*
X8403541Y-18036276D01*
X8374969Y-18050562D01*
X8346398Y-18050562D01*
X8317826Y-18036276D01*
X8303541Y-18021991D01*
X8289255Y-17993419D01*
X8274969Y-17936276D01*
X8274969Y-17864848D01*
X8289255Y-17807705D01*
X8303541Y-17779134D01*
X8317826Y-17764848D01*
X8346398Y-17750562D01*
X8560684Y-17750562D02*
X8560684Y-17807705D01*
X8674969Y-17750562D02*
X8674969Y-17807705D01*
X9117827Y-18164848D02*
X9103541Y-18150562D01*
X9074969Y-18107705D01*
X9060684Y-18079134D01*
X9046398Y-18036276D01*
X9032112Y-17964848D01*
X9032112Y-17907705D01*
X9046398Y-17836276D01*
X9060684Y-17793419D01*
X9074969Y-17764848D01*
X9103541Y-17721991D01*
X9117827Y-17707705D01*
X9360684Y-17750562D02*
X9303541Y-17750562D01*
X9274969Y-17764848D01*
X9260684Y-17779134D01*
X9232112Y-17821991D01*
X9217827Y-17879134D01*
X9217827Y-17993419D01*
X9232112Y-18021991D01*
X9246398Y-18036276D01*
X9274969Y-18050562D01*
X9332112Y-18050562D01*
X9360684Y-18036276D01*
X9374969Y-18021991D01*
X9389255Y-17993419D01*
X9389255Y-17921991D01*
X9374969Y-17893419D01*
X9360684Y-17879134D01*
X9332112Y-17864848D01*
X9274969Y-17864848D01*
X9246398Y-17879134D01*
X9232112Y-17893419D01*
X9217827Y-17921991D01*
X9746398Y-18050562D02*
X9746398Y-17750562D01*
X9874969Y-18050562D02*
X9874969Y-17893419D01*
X9860684Y-17864848D01*
X9832112Y-17850562D01*
X9789255Y-17850562D01*
X9760684Y-17864848D01*
X9746398Y-17879134D01*
X10060684Y-18050562D02*
X10032112Y-18036276D01*
X10017827Y-18021991D01*
X10003541Y-17993419D01*
X10003541Y-17907705D01*
X10017827Y-17879134D01*
X10032112Y-17864848D01*
X10060684Y-17850562D01*
X10103541Y-17850562D01*
X10132112Y-17864848D01*
X10146398Y-17879134D01*
X10160684Y-17907705D01*
X10160684Y-17993419D01*
X10146398Y-18021991D01*
X10132112Y-18036276D01*
X10103541Y-18050562D01*
X10060684Y-18050562D01*
X10332112Y-18050562D02*
X10303541Y-18036276D01*
X10289255Y-18007705D01*
X10289255Y-17750562D01*
X10560684Y-18036276D02*
X10532112Y-18050562D01*
X10474969Y-18050562D01*
X10446398Y-18036276D01*
X10432112Y-18007705D01*
X10432112Y-17893419D01*
X10446398Y-17864848D01*
X10474969Y-17850562D01*
X10532112Y-17850562D01*
X10560684Y-17864848D01*
X10574969Y-17893419D01*
X10574969Y-17921991D01*
X10432112Y-17950562D01*
X10689255Y-18036276D02*
X10717827Y-18050562D01*
X10774969Y-18050562D01*
X10803541Y-18036276D01*
X10817827Y-18007705D01*
X10817827Y-17993419D01*
X10803541Y-17964848D01*
X10774969Y-17950562D01*
X10732112Y-17950562D01*
X10703541Y-17936276D01*
X10689255Y-17907705D01*
X10689255Y-17893419D01*
X10703541Y-17864848D01*
X10732112Y-17850562D01*
X10774969Y-17850562D01*
X10803541Y-17864848D01*
X10917827Y-18164848D02*
X10932112Y-18150562D01*
X10960684Y-18107705D01*
X10974969Y-18079134D01*
X10989255Y-18036276D01*
X11003541Y-17964848D01*
X11003541Y-17907705D01*
X10989255Y-17836276D01*
X10974969Y-17793419D01*
X10960684Y-17764848D01*
X10932112Y-17721991D01*
X10917827Y-17707705D01*
X4326398Y-18250848D02*
X4446398Y-18370848D01*
X4446398Y-18250848D02*
X4326398Y-18370848D01*
X4386398Y-18370848D02*
X4446398Y-18310848D01*
X4386398Y-18250848D01*
X4326398Y-18310848D01*
X4386398Y-18370848D01*
X4874969Y-18446562D02*
X4703541Y-18446562D01*
X4789255Y-18446562D02*
X4789255Y-18146562D01*
X4760684Y-18189419D01*
X4732112Y-18217991D01*
X4703541Y-18232276D01*
X5003541Y-18417991D02*
X5017827Y-18432276D01*
X5003541Y-18446562D01*
X4989255Y-18432276D01*
X5003541Y-18417991D01*
X5003541Y-18446562D01*
X5132112Y-18175134D02*
X5146398Y-18160848D01*
X5174969Y-18146562D01*
X5246398Y-18146562D01*
X5274969Y-18160848D01*
X5289255Y-18175134D01*
X5303541Y-18203705D01*
X5303541Y-18232276D01*
X5289255Y-18275134D01*
X5117827Y-18446562D01*
X5303541Y-18446562D01*
X5489255Y-18146562D02*
X5517827Y-18146562D01*
X5546398Y-18160848D01*
X5560684Y-18175134D01*
X5574969Y-18203705D01*
X5589255Y-18260848D01*
X5589255Y-18332276D01*
X5574969Y-18389419D01*
X5560684Y-18417991D01*
X5546398Y-18432276D01*
X5517827Y-18446562D01*
X5489255Y-18446562D01*
X5460684Y-18432276D01*
X5446398Y-18417991D01*
X5432112Y-18389419D01*
X5417827Y-18332276D01*
X5417827Y-18260848D01*
X5432112Y-18203705D01*
X5446398Y-18175134D01*
X5460684Y-18160848D01*
X5489255Y-18146562D01*
X5717827Y-18446562D02*
X5717827Y-18246562D01*
X5717827Y-18275134D02*
X5732112Y-18260848D01*
X5760684Y-18246562D01*
X5803541Y-18246562D01*
X5832112Y-18260848D01*
X5846398Y-18289419D01*
X5846398Y-18446562D01*
X5846398Y-18289419D02*
X5860684Y-18260848D01*
X5889255Y-18246562D01*
X5932112Y-18246562D01*
X5960684Y-18260848D01*
X5974969Y-18289419D01*
X5974969Y-18446562D01*
X6117827Y-18446562D02*
X6117827Y-18246562D01*
X6117827Y-18275134D02*
X6132112Y-18260848D01*
X6160684Y-18246562D01*
X6203541Y-18246562D01*
X6232112Y-18260848D01*
X6246398Y-18289419D01*
X6246398Y-18446562D01*
X6246398Y-18289419D02*
X6260684Y-18260848D01*
X6289255Y-18246562D01*
X6332112Y-18246562D01*
X6360684Y-18260848D01*
X6374969Y-18289419D01*
X6374969Y-18446562D01*
X6960684Y-18132276D02*
X6703541Y-18517991D01*
X7346398Y-18146562D02*
X7374969Y-18146562D01*
X7403541Y-18160848D01*
X7417826Y-18175134D01*
X7432112Y-18203705D01*
X7446398Y-18260848D01*
X7446398Y-18332276D01*
X7432112Y-18389419D01*
X7417826Y-18417991D01*
X7403541Y-18432276D01*
X7374969Y-18446562D01*
X7346398Y-18446562D01*
X7317826Y-18432276D01*
X7303541Y-18417991D01*
X7289255Y-18389419D01*
X7274969Y-18332276D01*
X7274969Y-18260848D01*
X7289255Y-18203705D01*
X7303541Y-18175134D01*
X7317826Y-18160848D01*
X7346398Y-18146562D01*
X7574969Y-18417991D02*
X7589255Y-18432276D01*
X7574969Y-18446562D01*
X7560684Y-18432276D01*
X7574969Y-18417991D01*
X7574969Y-18446562D01*
X7774969Y-18146562D02*
X7803541Y-18146562D01*
X7832112Y-18160848D01*
X7846398Y-18175134D01*
X7860684Y-18203705D01*
X7874969Y-18260848D01*
X7874969Y-18332276D01*
X7860684Y-18389419D01*
X7846398Y-18417991D01*
X7832112Y-18432276D01*
X7803541Y-18446562D01*
X7774969Y-18446562D01*
X7746398Y-18432276D01*
X7732112Y-18417991D01*
X7717826Y-18389419D01*
X7703541Y-18332276D01*
X7703541Y-18260848D01*
X7717826Y-18203705D01*
X7732112Y-18175134D01*
X7746398Y-18160848D01*
X7774969Y-18146562D01*
X8132112Y-18246562D02*
X8132112Y-18446562D01*
X8060684Y-18132276D02*
X7989255Y-18346562D01*
X8174969Y-18346562D01*
X8260684Y-18146562D02*
X8460684Y-18146562D01*
X8332112Y-18446562D01*
X8560684Y-18146562D02*
X8560684Y-18203705D01*
X8674969Y-18146562D02*
X8674969Y-18203705D01*
X9117827Y-18560848D02*
X9103541Y-18546562D01*
X9074969Y-18503705D01*
X9060684Y-18475134D01*
X9046398Y-18432276D01*
X9032112Y-18360848D01*
X9032112Y-18303705D01*
X9046398Y-18232276D01*
X9060684Y-18189419D01*
X9074969Y-18160848D01*
X9103541Y-18117991D01*
X9117827Y-18103705D01*
X9203541Y-18146562D02*
X9389255Y-18146562D01*
X9289255Y-18260848D01*
X9332112Y-18260848D01*
X9360684Y-18275134D01*
X9374969Y-18289419D01*
X9389255Y-18317991D01*
X9389255Y-18389419D01*
X9374969Y-18417991D01*
X9360684Y-18432276D01*
X9332112Y-18446562D01*
X9246398Y-18446562D01*
X9217827Y-18432276D01*
X9203541Y-18417991D01*
X9746398Y-18446562D02*
X9746398Y-18146562D01*
X9874969Y-18446562D02*
X9874969Y-18289419D01*
X9860684Y-18260848D01*
X9832112Y-18246562D01*
X9789255Y-18246562D01*
X9760684Y-18260848D01*
X9746398Y-18275134D01*
X10060684Y-18446562D02*
X10032112Y-18432276D01*
X10017827Y-18417991D01*
X10003541Y-18389419D01*
X10003541Y-18303705D01*
X10017827Y-18275134D01*
X10032112Y-18260848D01*
X10060684Y-18246562D01*
X10103541Y-18246562D01*
X10132112Y-18260848D01*
X10146398Y-18275134D01*
X10160684Y-18303705D01*
X10160684Y-18389419D01*
X10146398Y-18417991D01*
X10132112Y-18432276D01*
X10103541Y-18446562D01*
X10060684Y-18446562D01*
X10332112Y-18446562D02*
X10303541Y-18432276D01*
X10289255Y-18403705D01*
X10289255Y-18146562D01*
X10560684Y-18432276D02*
X10532112Y-18446562D01*
X10474969Y-18446562D01*
X10446398Y-18432276D01*
X10432112Y-18403705D01*
X10432112Y-18289419D01*
X10446398Y-18260848D01*
X10474969Y-18246562D01*
X10532112Y-18246562D01*
X10560684Y-18260848D01*
X10574969Y-18289419D01*
X10574969Y-18317991D01*
X10432112Y-18346562D01*
X10689255Y-18432276D02*
X10717827Y-18446562D01*
X10774969Y-18446562D01*
X10803541Y-18432276D01*
X10817827Y-18403705D01*
X10817827Y-18389419D01*
X10803541Y-18360848D01*
X10774969Y-18346562D01*
X10732112Y-18346562D01*
X10703541Y-18332276D01*
X10689255Y-18303705D01*
X10689255Y-18289419D01*
X10703541Y-18260848D01*
X10732112Y-18246562D01*
X10774969Y-18246562D01*
X10803541Y-18260848D01*
X10917827Y-18560848D02*
X10932112Y-18546562D01*
X10960684Y-18503705D01*
X10974969Y-18475134D01*
X10989255Y-18432276D01*
X11003541Y-18360848D01*
X11003541Y-18303705D01*
X10989255Y-18232276D01*
X10974969Y-18189419D01*
X10960684Y-18160848D01*
X10932112Y-18117991D01*
X10917827Y-18103705D01*
X4380358Y-18640808D02*
X4380358Y-18772888D01*
X4314318Y-18706848D02*
X4446398Y-18706848D01*
X4446398Y-18706848D02*
G75*
G03X4446398Y-18706848I-66040J0D01*
G01*
X4874969Y-18842562D02*
X4703541Y-18842562D01*
X4789255Y-18842562D02*
X4789255Y-18542562D01*
X4760684Y-18585419D01*
X4732112Y-18613991D01*
X4703541Y-18628276D01*
X5003541Y-18813991D02*
X5017827Y-18828276D01*
X5003541Y-18842562D01*
X4989255Y-18828276D01*
X5003541Y-18813991D01*
X5003541Y-18842562D01*
X5117827Y-18542562D02*
X5303541Y-18542562D01*
X5203541Y-18656848D01*
X5246398Y-18656848D01*
X5274969Y-18671134D01*
X5289255Y-18685419D01*
X5303541Y-18713991D01*
X5303541Y-18785419D01*
X5289255Y-18813991D01*
X5274969Y-18828276D01*
X5246398Y-18842562D01*
X5160684Y-18842562D01*
X5132112Y-18828276D01*
X5117827Y-18813991D01*
X5417827Y-18571134D02*
X5432112Y-18556848D01*
X5460684Y-18542562D01*
X5532112Y-18542562D01*
X5560684Y-18556848D01*
X5574969Y-18571134D01*
X5589255Y-18599705D01*
X5589255Y-18628276D01*
X5574969Y-18671134D01*
X5403541Y-18842562D01*
X5589255Y-18842562D01*
X5717827Y-18842562D02*
X5717827Y-18642562D01*
X5717827Y-18671134D02*
X5732112Y-18656848D01*
X5760684Y-18642562D01*
X5803541Y-18642562D01*
X5832112Y-18656848D01*
X5846398Y-18685419D01*
X5846398Y-18842562D01*
X5846398Y-18685419D02*
X5860684Y-18656848D01*
X5889255Y-18642562D01*
X5932112Y-18642562D01*
X5960684Y-18656848D01*
X5974969Y-18685419D01*
X5974969Y-18842562D01*
X6117827Y-18842562D02*
X6117827Y-18642562D01*
X6117827Y-18671134D02*
X6132112Y-18656848D01*
X6160684Y-18642562D01*
X6203541Y-18642562D01*
X6232112Y-18656848D01*
X6246398Y-18685419D01*
X6246398Y-18842562D01*
X6246398Y-18685419D02*
X6260684Y-18656848D01*
X6289255Y-18642562D01*
X6332112Y-18642562D01*
X6360684Y-18656848D01*
X6374969Y-18685419D01*
X6374969Y-18842562D01*
X6960684Y-18528276D02*
X6703541Y-18913991D01*
X7346398Y-18542562D02*
X7374969Y-18542562D01*
X7403541Y-18556848D01*
X7417826Y-18571134D01*
X7432112Y-18599705D01*
X7446398Y-18656848D01*
X7446398Y-18728276D01*
X7432112Y-18785419D01*
X7417826Y-18813991D01*
X7403541Y-18828276D01*
X7374969Y-18842562D01*
X7346398Y-18842562D01*
X7317826Y-18828276D01*
X7303541Y-18813991D01*
X7289255Y-18785419D01*
X7274969Y-18728276D01*
X7274969Y-18656848D01*
X7289255Y-18599705D01*
X7303541Y-18571134D01*
X7317826Y-18556848D01*
X7346398Y-18542562D01*
X7574969Y-18813991D02*
X7589255Y-18828276D01*
X7574969Y-18842562D01*
X7560684Y-18828276D01*
X7574969Y-18813991D01*
X7574969Y-18842562D01*
X7774969Y-18542562D02*
X7803541Y-18542562D01*
X7832112Y-18556848D01*
X7846398Y-18571134D01*
X7860684Y-18599705D01*
X7874969Y-18656848D01*
X7874969Y-18728276D01*
X7860684Y-18785419D01*
X7846398Y-18813991D01*
X7832112Y-18828276D01*
X7803541Y-18842562D01*
X7774969Y-18842562D01*
X7746398Y-18828276D01*
X7732112Y-18813991D01*
X7717826Y-18785419D01*
X7703541Y-18728276D01*
X7703541Y-18656848D01*
X7717826Y-18599705D01*
X7732112Y-18571134D01*
X7746398Y-18556848D01*
X7774969Y-18542562D01*
X8146398Y-18542562D02*
X8003541Y-18542562D01*
X7989255Y-18685419D01*
X8003541Y-18671134D01*
X8032112Y-18656848D01*
X8103541Y-18656848D01*
X8132112Y-18671134D01*
X8146398Y-18685419D01*
X8160684Y-18713991D01*
X8160684Y-18785419D01*
X8146398Y-18813991D01*
X8132112Y-18828276D01*
X8103541Y-18842562D01*
X8032112Y-18842562D01*
X8003541Y-18828276D01*
X7989255Y-18813991D01*
X8274969Y-18571134D02*
X8289255Y-18556848D01*
X8317826Y-18542562D01*
X8389255Y-18542562D01*
X8417827Y-18556848D01*
X8432112Y-18571134D01*
X8446398Y-18599705D01*
X8446398Y-18628276D01*
X8432112Y-18671134D01*
X8260684Y-18842562D01*
X8446398Y-18842562D01*
X8560684Y-18542562D02*
X8560684Y-18599705D01*
X8674969Y-18542562D02*
X8674969Y-18599705D01*
X9117827Y-18956848D02*
X9103541Y-18942562D01*
X9074969Y-18899705D01*
X9060684Y-18871134D01*
X9046398Y-18828276D01*
X9032112Y-18756848D01*
X9032112Y-18699705D01*
X9046398Y-18628276D01*
X9060684Y-18585419D01*
X9074969Y-18556848D01*
X9103541Y-18513991D01*
X9117827Y-18499705D01*
X9360684Y-18642562D02*
X9360684Y-18842562D01*
X9289255Y-18528276D02*
X9217827Y-18742562D01*
X9403541Y-18742562D01*
X9746398Y-18842562D02*
X9746398Y-18542562D01*
X9874969Y-18842562D02*
X9874969Y-18685419D01*
X9860684Y-18656848D01*
X9832112Y-18642562D01*
X9789255Y-18642562D01*
X9760684Y-18656848D01*
X9746398Y-18671134D01*
X10060684Y-18842562D02*
X10032112Y-18828276D01*
X10017827Y-18813991D01*
X10003541Y-18785419D01*
X10003541Y-18699705D01*
X10017827Y-18671134D01*
X10032112Y-18656848D01*
X10060684Y-18642562D01*
X10103541Y-18642562D01*
X10132112Y-18656848D01*
X10146398Y-18671134D01*
X10160684Y-18699705D01*
X10160684Y-18785419D01*
X10146398Y-18813991D01*
X10132112Y-18828276D01*
X10103541Y-18842562D01*
X10060684Y-18842562D01*
X10332112Y-18842562D02*
X10303541Y-18828276D01*
X10289255Y-18799705D01*
X10289255Y-18542562D01*
X10560684Y-18828276D02*
X10532112Y-18842562D01*
X10474969Y-18842562D01*
X10446398Y-18828276D01*
X10432112Y-18799705D01*
X10432112Y-18685419D01*
X10446398Y-18656848D01*
X10474969Y-18642562D01*
X10532112Y-18642562D01*
X10560684Y-18656848D01*
X10574969Y-18685419D01*
X10574969Y-18713991D01*
X10432112Y-18742562D01*
X10689255Y-18828276D02*
X10717827Y-18842562D01*
X10774969Y-18842562D01*
X10803541Y-18828276D01*
X10817827Y-18799705D01*
X10817827Y-18785419D01*
X10803541Y-18756848D01*
X10774969Y-18742562D01*
X10732112Y-18742562D01*
X10703541Y-18728276D01*
X10689255Y-18699705D01*
X10689255Y-18685419D01*
X10703541Y-18656848D01*
X10732112Y-18642562D01*
X10774969Y-18642562D01*
X10803541Y-18656848D01*
X10917827Y-18956848D02*
X10932112Y-18942562D01*
X10960684Y-18899705D01*
X10974969Y-18871134D01*
X10989255Y-18828276D01*
X11003541Y-18756848D01*
X11003541Y-18699705D01*
X10989255Y-18628276D01*
X10974969Y-18585419D01*
X10960684Y-18556848D01*
X10932112Y-18513991D01*
X10917827Y-18499705D01*
X4424432Y-19155881D02*
X4424432Y-19049814D01*
X4318365Y-19049814D01*
X4318365Y-19155881D01*
X4424432Y-19155881D01*
X4446398Y-19102848D02*
G75*
G03X4446398Y-19102848I-75000J0D01*
G01*
X4874969Y-19238562D02*
X4703541Y-19238562D01*
X4789255Y-19238562D02*
X4789255Y-18938562D01*
X4760684Y-18981419D01*
X4732112Y-19009991D01*
X4703541Y-19024276D01*
X5003541Y-19209991D02*
X5017827Y-19224276D01*
X5003541Y-19238562D01*
X4989255Y-19224276D01*
X5003541Y-19209991D01*
X5003541Y-19238562D01*
X5289255Y-18938562D02*
X5146398Y-18938562D01*
X5132112Y-19081419D01*
X5146398Y-19067134D01*
X5174969Y-19052848D01*
X5246398Y-19052848D01*
X5274969Y-19067134D01*
X5289255Y-19081419D01*
X5303541Y-19109991D01*
X5303541Y-19181419D01*
X5289255Y-19209991D01*
X5274969Y-19224276D01*
X5246398Y-19238562D01*
X5174969Y-19238562D01*
X5146398Y-19224276D01*
X5132112Y-19209991D01*
X5489255Y-18938562D02*
X5517827Y-18938562D01*
X5546398Y-18952848D01*
X5560684Y-18967134D01*
X5574969Y-18995705D01*
X5589255Y-19052848D01*
X5589255Y-19124276D01*
X5574969Y-19181419D01*
X5560684Y-19209991D01*
X5546398Y-19224276D01*
X5517827Y-19238562D01*
X5489255Y-19238562D01*
X5460684Y-19224276D01*
X5446398Y-19209991D01*
X5432112Y-19181419D01*
X5417827Y-19124276D01*
X5417827Y-19052848D01*
X5432112Y-18995705D01*
X5446398Y-18967134D01*
X5460684Y-18952848D01*
X5489255Y-18938562D01*
X5717827Y-19238562D02*
X5717827Y-19038562D01*
X5717827Y-19067134D02*
X5732112Y-19052848D01*
X5760684Y-19038562D01*
X5803541Y-19038562D01*
X5832112Y-19052848D01*
X5846398Y-19081419D01*
X5846398Y-19238562D01*
X5846398Y-19081419D02*
X5860684Y-19052848D01*
X5889255Y-19038562D01*
X5932112Y-19038562D01*
X5960684Y-19052848D01*
X5974969Y-19081419D01*
X5974969Y-19238562D01*
X6117827Y-19238562D02*
X6117827Y-19038562D01*
X6117827Y-19067134D02*
X6132112Y-19052848D01*
X6160684Y-19038562D01*
X6203541Y-19038562D01*
X6232112Y-19052848D01*
X6246398Y-19081419D01*
X6246398Y-19238562D01*
X6246398Y-19081419D02*
X6260684Y-19052848D01*
X6289255Y-19038562D01*
X6332112Y-19038562D01*
X6360684Y-19052848D01*
X6374969Y-19081419D01*
X6374969Y-19238562D01*
X6960684Y-18924276D02*
X6703541Y-19309991D01*
X7346398Y-18938562D02*
X7374969Y-18938562D01*
X7403541Y-18952848D01*
X7417826Y-18967134D01*
X7432112Y-18995705D01*
X7446398Y-19052848D01*
X7446398Y-19124276D01*
X7432112Y-19181419D01*
X7417826Y-19209991D01*
X7403541Y-19224276D01*
X7374969Y-19238562D01*
X7346398Y-19238562D01*
X7317826Y-19224276D01*
X7303541Y-19209991D01*
X7289255Y-19181419D01*
X7274969Y-19124276D01*
X7274969Y-19052848D01*
X7289255Y-18995705D01*
X7303541Y-18967134D01*
X7317826Y-18952848D01*
X7346398Y-18938562D01*
X7574969Y-19209991D02*
X7589255Y-19224276D01*
X7574969Y-19238562D01*
X7560684Y-19224276D01*
X7574969Y-19209991D01*
X7574969Y-19238562D01*
X7774969Y-18938562D02*
X7803541Y-18938562D01*
X7832112Y-18952848D01*
X7846398Y-18967134D01*
X7860684Y-18995705D01*
X7874969Y-19052848D01*
X7874969Y-19124276D01*
X7860684Y-19181419D01*
X7846398Y-19209991D01*
X7832112Y-19224276D01*
X7803541Y-19238562D01*
X7774969Y-19238562D01*
X7746398Y-19224276D01*
X7732112Y-19209991D01*
X7717826Y-19181419D01*
X7703541Y-19124276D01*
X7703541Y-19052848D01*
X7717826Y-18995705D01*
X7732112Y-18967134D01*
X7746398Y-18952848D01*
X7774969Y-18938562D01*
X8146398Y-18938562D02*
X8003541Y-18938562D01*
X7989255Y-19081419D01*
X8003541Y-19067134D01*
X8032112Y-19052848D01*
X8103541Y-19052848D01*
X8132112Y-19067134D01*
X8146398Y-19081419D01*
X8160684Y-19109991D01*
X8160684Y-19181419D01*
X8146398Y-19209991D01*
X8132112Y-19224276D01*
X8103541Y-19238562D01*
X8032112Y-19238562D01*
X8003541Y-19224276D01*
X7989255Y-19209991D01*
X8303541Y-19238562D02*
X8360684Y-19238562D01*
X8389255Y-19224276D01*
X8403541Y-19209991D01*
X8432112Y-19167134D01*
X8446398Y-19109991D01*
X8446398Y-18995705D01*
X8432112Y-18967134D01*
X8417827Y-18952848D01*
X8389255Y-18938562D01*
X8332112Y-18938562D01*
X8303541Y-18952848D01*
X8289255Y-18967134D01*
X8274969Y-18995705D01*
X8274969Y-19067134D01*
X8289255Y-19095705D01*
X8303541Y-19109991D01*
X8332112Y-19124276D01*
X8389255Y-19124276D01*
X8417827Y-19109991D01*
X8432112Y-19095705D01*
X8446398Y-19067134D01*
X8560684Y-18938562D02*
X8560684Y-18995705D01*
X8674969Y-18938562D02*
X8674969Y-18995705D01*
X9117827Y-19352848D02*
X9103541Y-19338562D01*
X9074969Y-19295705D01*
X9060684Y-19267134D01*
X9046398Y-19224276D01*
X9032112Y-19152848D01*
X9032112Y-19095705D01*
X9046398Y-19024276D01*
X9060684Y-18981419D01*
X9074969Y-18952848D01*
X9103541Y-18909991D01*
X9117827Y-18895705D01*
X9203541Y-18938562D02*
X9389255Y-18938562D01*
X9289255Y-19052848D01*
X9332112Y-19052848D01*
X9360684Y-19067134D01*
X9374969Y-19081419D01*
X9389255Y-19109991D01*
X9389255Y-19181419D01*
X9374969Y-19209991D01*
X9360684Y-19224276D01*
X9332112Y-19238562D01*
X9246398Y-19238562D01*
X9217827Y-19224276D01*
X9203541Y-19209991D01*
X9746398Y-19238562D02*
X9746398Y-18938562D01*
X9874969Y-19238562D02*
X9874969Y-19081419D01*
X9860684Y-19052848D01*
X9832112Y-19038562D01*
X9789255Y-19038562D01*
X9760684Y-19052848D01*
X9746398Y-19067134D01*
X10060684Y-19238562D02*
X10032112Y-19224276D01*
X10017827Y-19209991D01*
X10003541Y-19181419D01*
X10003541Y-19095705D01*
X10017827Y-19067134D01*
X10032112Y-19052848D01*
X10060684Y-19038562D01*
X10103541Y-19038562D01*
X10132112Y-19052848D01*
X10146398Y-19067134D01*
X10160684Y-19095705D01*
X10160684Y-19181419D01*
X10146398Y-19209991D01*
X10132112Y-19224276D01*
X10103541Y-19238562D01*
X10060684Y-19238562D01*
X10332112Y-19238562D02*
X10303541Y-19224276D01*
X10289255Y-19195705D01*
X10289255Y-18938562D01*
X10560684Y-19224276D02*
X10532112Y-19238562D01*
X10474969Y-19238562D01*
X10446398Y-19224276D01*
X10432112Y-19195705D01*
X10432112Y-19081419D01*
X10446398Y-19052848D01*
X10474969Y-19038562D01*
X10532112Y-19038562D01*
X10560684Y-19052848D01*
X10574969Y-19081419D01*
X10574969Y-19109991D01*
X10432112Y-19138562D01*
X10689255Y-19224276D02*
X10717827Y-19238562D01*
X10774969Y-19238562D01*
X10803541Y-19224276D01*
X10817827Y-19195705D01*
X10817827Y-19181419D01*
X10803541Y-19152848D01*
X10774969Y-19138562D01*
X10732112Y-19138562D01*
X10703541Y-19124276D01*
X10689255Y-19095705D01*
X10689255Y-19081419D01*
X10703541Y-19052848D01*
X10732112Y-19038562D01*
X10774969Y-19038562D01*
X10803541Y-19052848D01*
X10917827Y-19352848D02*
X10932112Y-19338562D01*
X10960684Y-19295705D01*
X10974969Y-19267134D01*
X10989255Y-19224276D01*
X11003541Y-19152848D01*
X11003541Y-19095705D01*
X10989255Y-19024276D01*
X10974969Y-18981419D01*
X10960684Y-18952848D01*
X10932112Y-18909991D01*
X10917827Y-18895705D01*
X4336416Y-19608830D02*
X4446398Y-19498848D01*
X4336416Y-19388866D01*
X4226434Y-19498848D01*
X4336416Y-19608830D01*
X4446398Y-19498848D02*
G75*
G03X4446398Y-19498848I-109982J0D01*
G01*
X4703541Y-19363134D02*
X4717827Y-19348848D01*
X4746398Y-19334562D01*
X4817827Y-19334562D01*
X4846398Y-19348848D01*
X4860684Y-19363134D01*
X4874969Y-19391705D01*
X4874969Y-19420276D01*
X4860684Y-19463134D01*
X4689255Y-19634562D01*
X4874969Y-19634562D01*
X5003541Y-19605991D02*
X5017827Y-19620276D01*
X5003541Y-19634562D01*
X4989255Y-19620276D01*
X5003541Y-19605991D01*
X5003541Y-19634562D01*
X5132112Y-19363134D02*
X5146398Y-19348848D01*
X5174969Y-19334562D01*
X5246398Y-19334562D01*
X5274969Y-19348848D01*
X5289255Y-19363134D01*
X5303541Y-19391705D01*
X5303541Y-19420276D01*
X5289255Y-19463134D01*
X5117827Y-19634562D01*
X5303541Y-19634562D01*
X5489255Y-19334562D02*
X5517827Y-19334562D01*
X5546398Y-19348848D01*
X5560684Y-19363134D01*
X5574969Y-19391705D01*
X5589255Y-19448848D01*
X5589255Y-19520276D01*
X5574969Y-19577419D01*
X5560684Y-19605991D01*
X5546398Y-19620276D01*
X5517827Y-19634562D01*
X5489255Y-19634562D01*
X5460684Y-19620276D01*
X5446398Y-19605991D01*
X5432112Y-19577419D01*
X5417827Y-19520276D01*
X5417827Y-19448848D01*
X5432112Y-19391705D01*
X5446398Y-19363134D01*
X5460684Y-19348848D01*
X5489255Y-19334562D01*
X5717827Y-19634562D02*
X5717827Y-19434562D01*
X5717827Y-19463134D02*
X5732112Y-19448848D01*
X5760684Y-19434562D01*
X5803541Y-19434562D01*
X5832112Y-19448848D01*
X5846398Y-19477419D01*
X5846398Y-19634562D01*
X5846398Y-19477419D02*
X5860684Y-19448848D01*
X5889255Y-19434562D01*
X5932112Y-19434562D01*
X5960684Y-19448848D01*
X5974969Y-19477419D01*
X5974969Y-19634562D01*
X6117827Y-19634562D02*
X6117827Y-19434562D01*
X6117827Y-19463134D02*
X6132112Y-19448848D01*
X6160684Y-19434562D01*
X6203541Y-19434562D01*
X6232112Y-19448848D01*
X6246398Y-19477419D01*
X6246398Y-19634562D01*
X6246398Y-19477419D02*
X6260684Y-19448848D01*
X6289255Y-19434562D01*
X6332112Y-19434562D01*
X6360684Y-19448848D01*
X6374969Y-19477419D01*
X6374969Y-19634562D01*
X6960684Y-19320276D02*
X6703541Y-19705991D01*
X7346398Y-19334562D02*
X7374969Y-19334562D01*
X7403541Y-19348848D01*
X7417826Y-19363134D01*
X7432112Y-19391705D01*
X7446398Y-19448848D01*
X7446398Y-19520276D01*
X7432112Y-19577419D01*
X7417826Y-19605991D01*
X7403541Y-19620276D01*
X7374969Y-19634562D01*
X7346398Y-19634562D01*
X7317826Y-19620276D01*
X7303541Y-19605991D01*
X7289255Y-19577419D01*
X7274969Y-19520276D01*
X7274969Y-19448848D01*
X7289255Y-19391705D01*
X7303541Y-19363134D01*
X7317826Y-19348848D01*
X7346398Y-19334562D01*
X7574969Y-19605991D02*
X7589255Y-19620276D01*
X7574969Y-19634562D01*
X7560684Y-19620276D01*
X7574969Y-19605991D01*
X7574969Y-19634562D01*
X7774969Y-19334562D02*
X7803541Y-19334562D01*
X7832112Y-19348848D01*
X7846398Y-19363134D01*
X7860684Y-19391705D01*
X7874969Y-19448848D01*
X7874969Y-19520276D01*
X7860684Y-19577419D01*
X7846398Y-19605991D01*
X7832112Y-19620276D01*
X7803541Y-19634562D01*
X7774969Y-19634562D01*
X7746398Y-19620276D01*
X7732112Y-19605991D01*
X7717826Y-19577419D01*
X7703541Y-19520276D01*
X7703541Y-19448848D01*
X7717826Y-19391705D01*
X7732112Y-19363134D01*
X7746398Y-19348848D01*
X7774969Y-19334562D01*
X8046398Y-19463134D02*
X8017826Y-19448848D01*
X8003541Y-19434562D01*
X7989255Y-19405991D01*
X7989255Y-19391705D01*
X8003541Y-19363134D01*
X8017826Y-19348848D01*
X8046398Y-19334562D01*
X8103541Y-19334562D01*
X8132112Y-19348848D01*
X8146398Y-19363134D01*
X8160684Y-19391705D01*
X8160684Y-19405991D01*
X8146398Y-19434562D01*
X8132112Y-19448848D01*
X8103541Y-19463134D01*
X8046398Y-19463134D01*
X8017826Y-19477419D01*
X8003541Y-19491705D01*
X7989255Y-19520276D01*
X7989255Y-19577419D01*
X8003541Y-19605991D01*
X8017826Y-19620276D01*
X8046398Y-19634562D01*
X8103541Y-19634562D01*
X8132112Y-19620276D01*
X8146398Y-19605991D01*
X8160684Y-19577419D01*
X8160684Y-19520276D01*
X8146398Y-19491705D01*
X8132112Y-19477419D01*
X8103541Y-19463134D01*
X8260684Y-19334562D02*
X8460684Y-19334562D01*
X8332112Y-19634562D01*
X8560684Y-19334562D02*
X8560684Y-19391705D01*
X8674969Y-19334562D02*
X8674969Y-19391705D01*
X9117827Y-19748848D02*
X9103541Y-19734562D01*
X9074969Y-19691705D01*
X9060684Y-19663134D01*
X9046398Y-19620276D01*
X9032112Y-19548848D01*
X9032112Y-19491705D01*
X9046398Y-19420276D01*
X9060684Y-19377419D01*
X9074969Y-19348848D01*
X9103541Y-19305991D01*
X9117827Y-19291705D01*
X9389255Y-19634562D02*
X9217827Y-19634562D01*
X9303541Y-19634562D02*
X9303541Y-19334562D01*
X9274969Y-19377419D01*
X9246398Y-19405991D01*
X9217827Y-19420276D01*
X9574969Y-19334562D02*
X9603541Y-19334562D01*
X9632112Y-19348848D01*
X9646398Y-19363134D01*
X9660684Y-19391705D01*
X9674969Y-19448848D01*
X9674969Y-19520276D01*
X9660684Y-19577419D01*
X9646398Y-19605991D01*
X9632112Y-19620276D01*
X9603541Y-19634562D01*
X9574969Y-19634562D01*
X9546398Y-19620276D01*
X9532112Y-19605991D01*
X9517827Y-19577419D01*
X9503541Y-19520276D01*
X9503541Y-19448848D01*
X9517827Y-19391705D01*
X9532112Y-19363134D01*
X9546398Y-19348848D01*
X9574969Y-19334562D01*
X10032112Y-19634562D02*
X10032112Y-19334562D01*
X10160684Y-19634562D02*
X10160684Y-19477419D01*
X10146398Y-19448848D01*
X10117827Y-19434562D01*
X10074969Y-19434562D01*
X10046398Y-19448848D01*
X10032112Y-19463134D01*
X10346398Y-19634562D02*
X10317827Y-19620276D01*
X10303541Y-19605991D01*
X10289255Y-19577419D01*
X10289255Y-19491705D01*
X10303541Y-19463134D01*
X10317827Y-19448848D01*
X10346398Y-19434562D01*
X10389255Y-19434562D01*
X10417827Y-19448848D01*
X10432112Y-19463134D01*
X10446398Y-19491705D01*
X10446398Y-19577419D01*
X10432112Y-19605991D01*
X10417827Y-19620276D01*
X10389255Y-19634562D01*
X10346398Y-19634562D01*
X10617827Y-19634562D02*
X10589255Y-19620276D01*
X10574969Y-19591705D01*
X10574969Y-19334562D01*
X10846398Y-19620276D02*
X10817827Y-19634562D01*
X10760684Y-19634562D01*
X10732112Y-19620276D01*
X10717827Y-19591705D01*
X10717827Y-19477419D01*
X10732112Y-19448848D01*
X10760684Y-19434562D01*
X10817827Y-19434562D01*
X10846398Y-19448848D01*
X10860684Y-19477419D01*
X10860684Y-19505991D01*
X10717827Y-19534562D01*
X10974970Y-19620276D02*
X11003541Y-19634562D01*
X11060684Y-19634562D01*
X11089255Y-19620276D01*
X11103541Y-19591705D01*
X11103541Y-19577419D01*
X11089255Y-19548848D01*
X11060684Y-19534562D01*
X11017827Y-19534562D01*
X10989255Y-19520276D01*
X10974970Y-19491705D01*
X10974970Y-19477419D01*
X10989255Y-19448848D01*
X11017827Y-19434562D01*
X11060684Y-19434562D01*
X11089255Y-19448848D01*
X11203541Y-19748848D02*
X11217827Y-19734562D01*
X11246398Y-19691705D01*
X11260684Y-19663134D01*
X11274969Y-19620276D01*
X11289255Y-19548848D01*
X11289255Y-19491705D01*
X11274969Y-19420276D01*
X11260684Y-19377419D01*
X11246398Y-19348848D01*
X11217827Y-19305991D01*
X11203541Y-19291705D01*
X4296398Y-19744848D02*
X4296398Y-20044848D01*
X4146398Y-19894848D02*
X4446398Y-19894848D01*
X4402465Y-20000915D02*
X4402465Y-19788781D01*
X4190331Y-19788781D01*
X4190331Y-20000915D01*
X4402465Y-20000915D01*
X4689255Y-19730562D02*
X4874969Y-19730562D01*
X4774969Y-19844848D01*
X4817827Y-19844848D01*
X4846398Y-19859134D01*
X4860684Y-19873419D01*
X4874969Y-19901991D01*
X4874969Y-19973419D01*
X4860684Y-20001991D01*
X4846398Y-20016276D01*
X4817827Y-20030562D01*
X4732112Y-20030562D01*
X4703541Y-20016276D01*
X4689255Y-20001991D01*
X5003541Y-20001991D02*
X5017827Y-20016276D01*
X5003541Y-20030562D01*
X4989255Y-20016276D01*
X5003541Y-20001991D01*
X5003541Y-20030562D01*
X5203541Y-19730562D02*
X5232112Y-19730562D01*
X5260684Y-19744848D01*
X5274969Y-19759134D01*
X5289255Y-19787705D01*
X5303541Y-19844848D01*
X5303541Y-19916276D01*
X5289255Y-19973419D01*
X5274969Y-20001991D01*
X5260684Y-20016276D01*
X5232112Y-20030562D01*
X5203541Y-20030562D01*
X5174969Y-20016276D01*
X5160684Y-20001991D01*
X5146398Y-19973419D01*
X5132112Y-19916276D01*
X5132112Y-19844848D01*
X5146398Y-19787705D01*
X5160684Y-19759134D01*
X5174969Y-19744848D01*
X5203541Y-19730562D01*
X5489255Y-19730562D02*
X5517827Y-19730562D01*
X5546398Y-19744848D01*
X5560684Y-19759134D01*
X5574969Y-19787705D01*
X5589255Y-19844848D01*
X5589255Y-19916276D01*
X5574969Y-19973419D01*
X5560684Y-20001991D01*
X5546398Y-20016276D01*
X5517827Y-20030562D01*
X5489255Y-20030562D01*
X5460684Y-20016276D01*
X5446398Y-20001991D01*
X5432112Y-19973419D01*
X5417827Y-19916276D01*
X5417827Y-19844848D01*
X5432112Y-19787705D01*
X5446398Y-19759134D01*
X5460684Y-19744848D01*
X5489255Y-19730562D01*
X5717827Y-20030562D02*
X5717827Y-19830562D01*
X5717827Y-19859134D02*
X5732112Y-19844848D01*
X5760684Y-19830562D01*
X5803541Y-19830562D01*
X5832112Y-19844848D01*
X5846398Y-19873419D01*
X5846398Y-20030562D01*
X5846398Y-19873419D02*
X5860684Y-19844848D01*
X5889255Y-19830562D01*
X5932112Y-19830562D01*
X5960684Y-19844848D01*
X5974969Y-19873419D01*
X5974969Y-20030562D01*
X6117827Y-20030562D02*
X6117827Y-19830562D01*
X6117827Y-19859134D02*
X6132112Y-19844848D01*
X6160684Y-19830562D01*
X6203541Y-19830562D01*
X6232112Y-19844848D01*
X6246398Y-19873419D01*
X6246398Y-20030562D01*
X6246398Y-19873419D02*
X6260684Y-19844848D01*
X6289255Y-19830562D01*
X6332112Y-19830562D01*
X6360684Y-19844848D01*
X6374969Y-19873419D01*
X6374969Y-20030562D01*
X6960684Y-19716276D02*
X6703541Y-20101991D01*
X7346398Y-19730562D02*
X7374969Y-19730562D01*
X7403541Y-19744848D01*
X7417826Y-19759134D01*
X7432112Y-19787705D01*
X7446398Y-19844848D01*
X7446398Y-19916276D01*
X7432112Y-19973419D01*
X7417826Y-20001991D01*
X7403541Y-20016276D01*
X7374969Y-20030562D01*
X7346398Y-20030562D01*
X7317826Y-20016276D01*
X7303541Y-20001991D01*
X7289255Y-19973419D01*
X7274969Y-19916276D01*
X7274969Y-19844848D01*
X7289255Y-19787705D01*
X7303541Y-19759134D01*
X7317826Y-19744848D01*
X7346398Y-19730562D01*
X7574969Y-20001991D02*
X7589255Y-20016276D01*
X7574969Y-20030562D01*
X7560684Y-20016276D01*
X7574969Y-20001991D01*
X7574969Y-20030562D01*
X7874969Y-20030562D02*
X7703541Y-20030562D01*
X7789255Y-20030562D02*
X7789255Y-19730562D01*
X7760684Y-19773419D01*
X7732112Y-19801991D01*
X7703541Y-19816276D01*
X8160684Y-20030562D02*
X7989255Y-20030562D01*
X8074969Y-20030562D02*
X8074969Y-19730562D01*
X8046398Y-19773419D01*
X8017826Y-19801991D01*
X7989255Y-19816276D01*
X8332112Y-19859134D02*
X8303541Y-19844848D01*
X8289255Y-19830562D01*
X8274969Y-19801991D01*
X8274969Y-19787705D01*
X8289255Y-19759134D01*
X8303541Y-19744848D01*
X8332112Y-19730562D01*
X8389255Y-19730562D01*
X8417827Y-19744848D01*
X8432112Y-19759134D01*
X8446398Y-19787705D01*
X8446398Y-19801991D01*
X8432112Y-19830562D01*
X8417827Y-19844848D01*
X8389255Y-19859134D01*
X8332112Y-19859134D01*
X8303541Y-19873419D01*
X8289255Y-19887705D01*
X8274969Y-19916276D01*
X8274969Y-19973419D01*
X8289255Y-20001991D01*
X8303541Y-20016276D01*
X8332112Y-20030562D01*
X8389255Y-20030562D01*
X8417827Y-20016276D01*
X8432112Y-20001991D01*
X8446398Y-19973419D01*
X8446398Y-19916276D01*
X8432112Y-19887705D01*
X8417827Y-19873419D01*
X8389255Y-19859134D01*
X8560684Y-19730562D02*
X8560684Y-19787705D01*
X8674969Y-19730562D02*
X8674969Y-19787705D01*
X9117827Y-20144848D02*
X9103541Y-20130562D01*
X9074969Y-20087705D01*
X9060684Y-20059134D01*
X9046398Y-20016276D01*
X9032112Y-19944848D01*
X9032112Y-19887705D01*
X9046398Y-19816276D01*
X9060684Y-19773419D01*
X9074969Y-19744848D01*
X9103541Y-19701991D01*
X9117827Y-19687705D01*
X9360684Y-19830562D02*
X9360684Y-20030562D01*
X9289255Y-19716276D02*
X9217827Y-19930562D01*
X9403541Y-19930562D01*
X9746398Y-20030562D02*
X9746398Y-19730562D01*
X9874969Y-20030562D02*
X9874969Y-19873419D01*
X9860684Y-19844848D01*
X9832112Y-19830562D01*
X9789255Y-19830562D01*
X9760684Y-19844848D01*
X9746398Y-19859134D01*
X10060684Y-20030562D02*
X10032112Y-20016276D01*
X10017827Y-20001991D01*
X10003541Y-19973419D01*
X10003541Y-19887705D01*
X10017827Y-19859134D01*
X10032112Y-19844848D01*
X10060684Y-19830562D01*
X10103541Y-19830562D01*
X10132112Y-19844848D01*
X10146398Y-19859134D01*
X10160684Y-19887705D01*
X10160684Y-19973419D01*
X10146398Y-20001991D01*
X10132112Y-20016276D01*
X10103541Y-20030562D01*
X10060684Y-20030562D01*
X10332112Y-20030562D02*
X10303541Y-20016276D01*
X10289255Y-19987705D01*
X10289255Y-19730562D01*
X10560684Y-20016276D02*
X10532112Y-20030562D01*
X10474969Y-20030562D01*
X10446398Y-20016276D01*
X10432112Y-19987705D01*
X10432112Y-19873419D01*
X10446398Y-19844848D01*
X10474969Y-19830562D01*
X10532112Y-19830562D01*
X10560684Y-19844848D01*
X10574969Y-19873419D01*
X10574969Y-19901991D01*
X10432112Y-19930562D01*
X10689255Y-20016276D02*
X10717827Y-20030562D01*
X10774969Y-20030562D01*
X10803541Y-20016276D01*
X10817827Y-19987705D01*
X10817827Y-19973419D01*
X10803541Y-19944848D01*
X10774969Y-19930562D01*
X10732112Y-19930562D01*
X10703541Y-19916276D01*
X10689255Y-19887705D01*
X10689255Y-19873419D01*
X10703541Y-19844848D01*
X10732112Y-19830562D01*
X10774969Y-19830562D01*
X10803541Y-19844848D01*
X10917827Y-20144848D02*
X10932112Y-20130562D01*
X10960684Y-20087705D01*
X10974969Y-20059134D01*
X10989255Y-20016276D01*
X11003541Y-19944848D01*
X11003541Y-19887705D01*
X10989255Y-19816276D01*
X10974969Y-19773419D01*
X10960684Y-19744848D01*
X10932112Y-19701991D01*
X10917827Y-19687705D01*
M02*
