G04 #@! TF.FileFunction,Copper,L2,Bot,Signal*
%FSLAX46Y46*%
G04 Gerber Fmt 4.6, Leading zero omitted, Abs format (unit mm)*
G04 Created by KiCad (PCBNEW 4.0.2+dfsg1-stable) date Mon 14 Nov 2016 14:02:26 NZDT*
%MOMM*%
G01*
G04 APERTURE LIST*
%ADD10C,0.100000*%
%ADD11C,1.524000*%
%ADD12C,2.540000*%
%ADD13R,2.032000X1.727200*%
%ADD14O,2.032000X1.727200*%
%ADD15O,1.600000X1.600000*%
%ADD16R,2.000000X2.000000*%
%ADD17C,2.000000*%
%ADD18C,1.699260*%
%ADD19R,1.699260X1.699260*%
%ADD20C,2.400000*%
%ADD21R,2.400000X2.400000*%
%ADD22O,3.500120X7.000240*%
%ADD23O,1.600200X2.499360*%
%ADD24O,1.501140X2.499360*%
%ADD25C,1.143000*%
%ADD26R,1.300000X1.300000*%
%ADD27C,1.300000*%
%ADD28R,1.998980X1.998980*%
%ADD29C,0.600000*%
%ADD30C,0.500000*%
%ADD31C,0.250000*%
%ADD32C,1.000000*%
%ADD33C,0.200000*%
G04 APERTURE END LIST*
D10*
D11*
X100390000Y-75395000D03*
X100390000Y-72855000D03*
X100390000Y-77935000D03*
D12*
X81600000Y-23105000D03*
X81600000Y-33265000D03*
X76520000Y-23105000D03*
X76520000Y-33265000D03*
D13*
X61900000Y-26655000D03*
D14*
X61900000Y-24115000D03*
X61900000Y-21575000D03*
D15*
X72317000Y-30121000D03*
X72317000Y-27581000D03*
X72317000Y-25041000D03*
X72317000Y-22501000D03*
X64697000Y-22501000D03*
X64697000Y-25041000D03*
X64697000Y-27581000D03*
X64697000Y-30121000D03*
D16*
X10267000Y-78744000D03*
D17*
X10267000Y-76204000D03*
D18*
X116322117Y-33522817D03*
D19*
X106162117Y-33522817D03*
D18*
X106161597Y-29715357D03*
D19*
X116321597Y-29715357D03*
D20*
X13200000Y-59290000D03*
X13200000Y-62790000D03*
D21*
X13200000Y-55790000D03*
D22*
X69062220Y-8035340D03*
X79260320Y-8035340D03*
D23*
X74160000Y-12300000D03*
X71660640Y-12300000D03*
D22*
X51300000Y-7956600D03*
X61498100Y-7956600D03*
D23*
X56397780Y-12221260D03*
X53898420Y-12221260D03*
D22*
X35102613Y-7965105D03*
X45300713Y-7965105D03*
D23*
X40200393Y-12229765D03*
X37701033Y-12229765D03*
D22*
X14452220Y-7936600D03*
X24650320Y-7936600D03*
D23*
X19550000Y-12201260D03*
X17050640Y-12201260D03*
D22*
X86842220Y-7956600D03*
X97040320Y-7956600D03*
D23*
X91940000Y-12221260D03*
X89440640Y-12221260D03*
D11*
X44950000Y-75800000D03*
X44950000Y-73260000D03*
X44950000Y-78340000D03*
X67810000Y-75800000D03*
X67810000Y-73260000D03*
X67810000Y-78340000D03*
X56380000Y-75800000D03*
X56380000Y-73260000D03*
X56380000Y-78340000D03*
X83500000Y-75675000D03*
X83500000Y-73135000D03*
X83500000Y-78215000D03*
X91500000Y-75395000D03*
X91500000Y-72855000D03*
X91500000Y-77935000D03*
X106500000Y-75395000D03*
X106500000Y-72855000D03*
X106500000Y-77935000D03*
X119000000Y-75395000D03*
X119000000Y-72855000D03*
X119000000Y-77935000D03*
D24*
X24630000Y-37700000D03*
X22090000Y-37700000D03*
X27170000Y-37700000D03*
D15*
X55500000Y-29750000D03*
X55500000Y-27210000D03*
X55500000Y-24670000D03*
X55500000Y-22130000D03*
X47880000Y-22130000D03*
X47880000Y-24670000D03*
X47880000Y-27210000D03*
X47880000Y-29750000D03*
X34790000Y-49130000D03*
X34790000Y-51670000D03*
X34790000Y-54210000D03*
X34790000Y-56750000D03*
X42410000Y-56750000D03*
X42410000Y-54210000D03*
X42410000Y-51670000D03*
X42410000Y-49130000D03*
X69648785Y-48028415D03*
X69648785Y-50568415D03*
X69648785Y-53108415D03*
X69648785Y-55648415D03*
X77268785Y-55648415D03*
X77268785Y-53108415D03*
X77268785Y-50568415D03*
X77268785Y-48028415D03*
X53840000Y-49130000D03*
X53840000Y-51670000D03*
X53840000Y-54210000D03*
X53840000Y-56750000D03*
X61460000Y-56750000D03*
X61460000Y-54210000D03*
X61460000Y-51670000D03*
X61460000Y-49130000D03*
X92460000Y-48725000D03*
X92460000Y-51265000D03*
X92460000Y-53805000D03*
X92460000Y-56345000D03*
X100080000Y-56345000D03*
X100080000Y-53805000D03*
X100080000Y-51265000D03*
X100080000Y-48725000D03*
X107700000Y-51265000D03*
X107700000Y-53805000D03*
X107700000Y-56345000D03*
X107700000Y-58885000D03*
X115320000Y-58885000D03*
X115320000Y-56345000D03*
X115320000Y-53805000D03*
X115320000Y-51265000D03*
X89400000Y-28810000D03*
X91940000Y-28810000D03*
X94480000Y-28810000D03*
X97020000Y-28810000D03*
X97020000Y-21190000D03*
X94480000Y-21190000D03*
X91940000Y-21190000D03*
X89400000Y-21190000D03*
D25*
X38715000Y-68230000D03*
X44950000Y-68180000D03*
X67810000Y-68180000D03*
X56380000Y-68180000D03*
X83360000Y-68000000D03*
X100390000Y-67775000D03*
X106740000Y-67775000D03*
D15*
X36060000Y-29555105D03*
X38600000Y-29555105D03*
X41140000Y-29555105D03*
X43680000Y-29555105D03*
X43680000Y-21935105D03*
X41140000Y-21935105D03*
X38600000Y-21935105D03*
X36060000Y-21935105D03*
D26*
X23360000Y-45320000D03*
D27*
X23360000Y-50320000D03*
D26*
X23360000Y-56750000D03*
D27*
X23360000Y-61750000D03*
D28*
X75224260Y-63100000D03*
X65221740Y-63100000D03*
D26*
X15660000Y-42780000D03*
D27*
X10660000Y-42780000D03*
D28*
X98084260Y-64370000D03*
X88081740Y-64370000D03*
D13*
X58350000Y-21545000D03*
D14*
X58350000Y-24085000D03*
X58350000Y-26625000D03*
D25*
X119000000Y-68250000D03*
D17*
X112750000Y-69300000D03*
X112750000Y-74000000D03*
X112750000Y-78700000D03*
D29*
X119800000Y-7025000D03*
X114071000Y-2758000D03*
X38800000Y-52200000D03*
X100080000Y-62400529D03*
X89485000Y-26421000D03*
X109200000Y-9600000D03*
X10200000Y-62800000D03*
X89400000Y-46590000D03*
X103687685Y-13075020D03*
X111125000Y-53600000D03*
X95650000Y-50725000D03*
X72800000Y-50800000D03*
X56400000Y-53000000D03*
X37400000Y-49400000D03*
X80510000Y-52940000D03*
X83685000Y-23095000D03*
X83685000Y-26270000D03*
X91025000Y-50975000D03*
X47100000Y-31475000D03*
X49200000Y-35275000D03*
X67875000Y-18350000D03*
X50850000Y-18000000D03*
X105050000Y-55525000D03*
X111625000Y-20575000D03*
X104005000Y-20795000D03*
X110000000Y-27200000D03*
X109970000Y-37200000D03*
X119250000Y-49325000D03*
X18800000Y-40000000D03*
X30800000Y-42200000D03*
X19400000Y-31400000D03*
X38600000Y-60400000D03*
X47000000Y-47400000D03*
X24630000Y-32620000D03*
X31012311Y-40167669D03*
X83090020Y-43415000D03*
X103410020Y-10395000D03*
X21455000Y-28175000D03*
X14470000Y-27379980D03*
X103960894Y-11568748D03*
X32250000Y-40875000D03*
X82103499Y-43726501D03*
D30*
X118175000Y-7025000D02*
X117575000Y-7025000D01*
X119800000Y-7025000D02*
X118175000Y-7025000D01*
X118125000Y-7000000D02*
X118125000Y-4925000D01*
X116625000Y-4900000D02*
X116625000Y-3900000D01*
X116625000Y-6075000D02*
X116625000Y-4900000D01*
X116625000Y-5325000D02*
X114100000Y-5325000D01*
X116625000Y-3900000D02*
X115483000Y-2758000D01*
X115483000Y-2758000D02*
X114071000Y-2758000D01*
X117575000Y-7025000D02*
X116625000Y-6075000D01*
X119800000Y-7025000D02*
X119800000Y-4950000D01*
D31*
X108880001Y-80075001D02*
X109000000Y-80075001D01*
X109000000Y-80075001D02*
X114952369Y-80075001D01*
X106500000Y-77935000D02*
X108640001Y-80075001D01*
X108640001Y-80075001D02*
X109000000Y-80075001D01*
X100390000Y-77935000D02*
X101467630Y-77935000D01*
X101467630Y-77935000D02*
X106500000Y-77935000D01*
X119000000Y-77935000D02*
X117092370Y-77935000D01*
X114952369Y-80075001D02*
X117092370Y-77935000D01*
X100080000Y-62400529D02*
X100080000Y-65977056D01*
X100080000Y-65977056D02*
X98500000Y-67557056D01*
X98500000Y-76045000D02*
X100390000Y-77935000D01*
X98500000Y-67557056D02*
X98500000Y-76045000D01*
D32*
X89400000Y-45320000D02*
X97700000Y-45320000D01*
X97700000Y-45320000D02*
X106835000Y-45320000D01*
X100080000Y-51265000D02*
X98948630Y-51265000D01*
X98948630Y-51265000D02*
X97700000Y-50016370D01*
X97700000Y-50016370D02*
X97700000Y-45320000D01*
X106835000Y-45320000D02*
X115320000Y-53805000D01*
X45345893Y-34000105D02*
X49400000Y-34000105D01*
X34155000Y-34000105D02*
X45345893Y-34000105D01*
X51189895Y-34000105D02*
X66475000Y-34000105D01*
X66475000Y-34000105D02*
X72779895Y-34000105D01*
X64697000Y-27581000D02*
X66475000Y-29359000D01*
X66475000Y-29359000D02*
X66475000Y-34000105D01*
X49400000Y-34000105D02*
X51189895Y-34000105D01*
X47880000Y-27210000D02*
X49430001Y-28760001D01*
X49430001Y-28760001D02*
X49430001Y-33970104D01*
X49430001Y-33970104D02*
X49400000Y-34000105D01*
X87465000Y-28441000D02*
X89485000Y-26421000D01*
X87465000Y-34426000D02*
X87465000Y-28441000D01*
X84977000Y-36914000D02*
X87465000Y-34426000D01*
X75693790Y-36914000D02*
X84977000Y-36914000D01*
X72779895Y-34000105D02*
X75693790Y-36914000D01*
D31*
X104800000Y-12400000D02*
X100730000Y-12400000D01*
X100730000Y-12400000D02*
X91940000Y-21190000D01*
X107600000Y-9600000D02*
X104800000Y-12400000D01*
X109200000Y-9600000D02*
X107600000Y-9600000D01*
X10200000Y-62800000D02*
X10200000Y-57340000D01*
X10200000Y-57340000D02*
X11750000Y-55790000D01*
X11750000Y-55790000D02*
X13200000Y-55790000D01*
D32*
X72020370Y-45320000D02*
X89400000Y-45320000D01*
D31*
X89400000Y-45320000D02*
X89400000Y-46590000D01*
D32*
X34155000Y-34000105D02*
X38600000Y-29555105D01*
X29710000Y-38445105D02*
X34155000Y-34000105D01*
X29710000Y-45320000D02*
X36060000Y-45320000D01*
X23360000Y-45320000D02*
X29710000Y-45320000D01*
X29710000Y-45320000D02*
X29710000Y-38445105D01*
X55110000Y-45320000D02*
X72020370Y-45320000D01*
X72020370Y-45320000D02*
X77268785Y-50568415D01*
X36060000Y-45320000D02*
X55110000Y-45320000D01*
X55110000Y-45320000D02*
X61460000Y-51670000D01*
X36060000Y-45320000D02*
X42410000Y-51670000D01*
D31*
X108250000Y-71616399D02*
X117761399Y-71616399D01*
X107978601Y-71616399D02*
X108250000Y-71616399D01*
X108250000Y-71616399D02*
X107738601Y-71616399D01*
X107738601Y-71616399D02*
X106500000Y-72855000D01*
X100390000Y-72855000D02*
X101467630Y-72855000D01*
X101467630Y-72855000D02*
X106500000Y-72855000D01*
X117761399Y-71616399D02*
X119000000Y-72855000D01*
X101600000Y-61350509D02*
X101600000Y-65164178D01*
X101600000Y-65164178D02*
X99443499Y-67320679D01*
X99443499Y-67320679D02*
X99443499Y-71908499D01*
X99443499Y-71908499D02*
X99628001Y-72093001D01*
X99628001Y-72093001D02*
X100390000Y-72855000D01*
D32*
X89879491Y-61350509D02*
X101600000Y-61350509D01*
D31*
X101350000Y-61600509D02*
X101600000Y-61350509D01*
D32*
X101600000Y-61350509D02*
X105234491Y-61350509D01*
D31*
X107700000Y-58885000D02*
X108831370Y-58885000D01*
X108831370Y-58885000D02*
X111125000Y-56591370D01*
X111125000Y-56591370D02*
X111125000Y-53600000D01*
D32*
X80510000Y-61350509D02*
X86375000Y-61350509D01*
X92460000Y-56345000D02*
X92460000Y-57476370D01*
X86375000Y-61350509D02*
X89879491Y-61350509D01*
X92460000Y-57476370D02*
X88585861Y-61350509D01*
X88585861Y-61350509D02*
X86375000Y-61350509D01*
X105234491Y-61350509D02*
X107700000Y-58885000D01*
X47784599Y-19931399D02*
X55500000Y-19931399D01*
X55500000Y-22130000D02*
X55500000Y-20998630D01*
X55500000Y-19931399D02*
X69747399Y-19931399D01*
X55500000Y-20998630D02*
X55500000Y-19931399D01*
X10660000Y-42780000D02*
X28440000Y-25000000D01*
X28440000Y-25000000D02*
X42909107Y-25000000D01*
X42909107Y-25000000D02*
X46329999Y-21579108D01*
X46329999Y-21579108D02*
X46329999Y-21385999D01*
X46329999Y-21385999D02*
X47784599Y-19931399D01*
X69747399Y-19931399D02*
X71517001Y-21701001D01*
X71517001Y-21701001D02*
X72317000Y-22501000D01*
X75624000Y-25808000D02*
X82877000Y-25808000D01*
X82877000Y-25808000D02*
X83685000Y-25000000D01*
X72317000Y-22501000D02*
X75624000Y-25808000D01*
D31*
X103687685Y-13499284D02*
X103687685Y-13075020D01*
X93210000Y-25000000D02*
X94949002Y-25000000D01*
X103687685Y-16261317D02*
X103687685Y-13499284D01*
X94949002Y-25000000D02*
X103687685Y-16261317D01*
X95650000Y-53155000D02*
X95650000Y-50725000D01*
X92460000Y-56345000D02*
X95650000Y-53155000D01*
X72800000Y-53628570D02*
X72800000Y-50800000D01*
X69648785Y-55648415D02*
X70780155Y-55648415D01*
X70780155Y-55648415D02*
X72800000Y-53628570D01*
X55800000Y-53600000D02*
X56400000Y-53000000D01*
X54971370Y-56750000D02*
X55800000Y-55921370D01*
X55800000Y-55921370D02*
X55800000Y-53600000D01*
X53840000Y-56750000D02*
X54971370Y-56750000D01*
X34790000Y-56750000D02*
X37400000Y-54140000D01*
X37400000Y-54140000D02*
X37400000Y-49400000D01*
D32*
X63946691Y-61350509D02*
X80510000Y-61350509D01*
D31*
X80510000Y-52940000D02*
X80510000Y-61350509D01*
X83685000Y-25000000D02*
X83685000Y-23095000D01*
D32*
X83685000Y-25000000D02*
X93210000Y-25000000D01*
D31*
X83685000Y-26270000D02*
X83685000Y-25000000D01*
D32*
X93210000Y-25000000D02*
X97020000Y-28810000D01*
X48840000Y-61750000D02*
X49239491Y-61350509D01*
X49239491Y-61350509D02*
X63946691Y-61350509D01*
X68848786Y-56448414D02*
X69648785Y-55648415D01*
X63946691Y-61350509D02*
X68848786Y-56448414D01*
X29790000Y-61750000D02*
X48840000Y-61750000D01*
X48840000Y-61750000D02*
X53840000Y-56750000D01*
X23360000Y-61750000D02*
X29790000Y-61750000D01*
X29790000Y-61750000D02*
X34790000Y-56750000D01*
D31*
X21465000Y-28175000D02*
X22100000Y-28175000D01*
X24630000Y-32620000D02*
X27170000Y-35160000D01*
X27170000Y-35160000D02*
X27170000Y-37700000D01*
X31735178Y-39444802D02*
X31312310Y-39867670D01*
X79119822Y-39444802D02*
X31735178Y-39444802D01*
X83090020Y-43415000D02*
X79119822Y-39444802D01*
X31312310Y-39867670D02*
X31012311Y-40167669D01*
X30345000Y-19920000D02*
X30345000Y-6512878D01*
X30345000Y-6512878D02*
X33312889Y-3544989D01*
X22090000Y-28175000D02*
X30345000Y-19920000D01*
X103410020Y-9970736D02*
X103410020Y-10395000D01*
X33312889Y-3544989D02*
X98497111Y-3544989D01*
X103410020Y-8457898D02*
X103410020Y-9970736D01*
X98497111Y-3544989D02*
X103410020Y-8457898D01*
X106161597Y-29715357D02*
X116495001Y-40048761D01*
X116495001Y-44248209D02*
X116995012Y-44748220D01*
X116495001Y-40048761D02*
X116495001Y-44248209D01*
X116995012Y-44748220D02*
X116995012Y-61019988D01*
X116995012Y-61019988D02*
X110240000Y-67775000D01*
X110240000Y-67775000D02*
X106740000Y-67775000D01*
X107011226Y-30564986D02*
X106161597Y-29715357D01*
X116495001Y-59449001D02*
X109500000Y-66444002D01*
X104669002Y-67775000D02*
X105944002Y-66500000D01*
X109444002Y-66500000D02*
X109500000Y-66444002D01*
X105944002Y-66500000D02*
X109444002Y-66500000D01*
X106162117Y-34622447D02*
X116495001Y-44955331D01*
X106162117Y-33522817D02*
X106162117Y-34622447D01*
X116495001Y-44955331D02*
X116495001Y-59449001D01*
X104669002Y-67775000D02*
X100390000Y-67775000D01*
X30980000Y-6585000D02*
X33483530Y-4081470D01*
X33483530Y-4081470D02*
X97920552Y-4081470D01*
X14470000Y-27379980D02*
X14470000Y-28810000D01*
X15365710Y-29705710D02*
X21829290Y-29705710D01*
X21829290Y-29705710D02*
X30980000Y-20555000D01*
X30980000Y-20555000D02*
X30980000Y-6585000D01*
X14470000Y-28810000D02*
X15365710Y-29705710D01*
X97920552Y-4081470D02*
X102735000Y-8895918D01*
X102735000Y-8895918D02*
X102735000Y-10767118D01*
X102735000Y-10767118D02*
X103536630Y-11568748D01*
X103536630Y-11568748D02*
X103960894Y-11568748D01*
X32885000Y-40240000D02*
X32250000Y-40875000D01*
X78616998Y-40240000D02*
X32885000Y-40240000D01*
X82103499Y-43726501D02*
X78616998Y-40240000D01*
D33*
G36*
X9400000Y-22450000D02*
X9406839Y-22486346D01*
X9428319Y-22519727D01*
X9461094Y-22542121D01*
X9500000Y-22550000D01*
X23650000Y-22550000D01*
X23687629Y-22542650D01*
X23720711Y-22520711D01*
X29120711Y-17120711D01*
X29142121Y-17088906D01*
X29150000Y-17050000D01*
X29150000Y-2896628D01*
X113370879Y-2896628D01*
X113477223Y-3154000D01*
X113673964Y-3351085D01*
X113931150Y-3457878D01*
X114209628Y-3458121D01*
X114330930Y-3408000D01*
X115213762Y-3408000D01*
X115975000Y-4169238D01*
X115975000Y-4675000D01*
X114100000Y-4675000D01*
X113851256Y-4724478D01*
X113640381Y-4865381D01*
X113499478Y-5076256D01*
X113450000Y-5325000D01*
X113499478Y-5573744D01*
X113640381Y-5784619D01*
X113851256Y-5925522D01*
X114100000Y-5975000D01*
X115975000Y-5975000D01*
X115975000Y-6075000D01*
X116003736Y-6219467D01*
X116024478Y-6323745D01*
X116165381Y-6534619D01*
X117115381Y-7484619D01*
X117326255Y-7625522D01*
X117575000Y-7675000D01*
X119540030Y-7675000D01*
X119660150Y-7724878D01*
X119938628Y-7725121D01*
X120196000Y-7618777D01*
X120393085Y-7422036D01*
X120499878Y-7164850D01*
X120500121Y-6886372D01*
X120450000Y-6765070D01*
X120450000Y-5425785D01*
X122849628Y-5425785D01*
X123176256Y-6216286D01*
X123780533Y-6821619D01*
X124570462Y-7149626D01*
X125425785Y-7150372D01*
X126216286Y-6823744D01*
X126821619Y-6219467D01*
X127149626Y-5429538D01*
X127150372Y-4574215D01*
X126823744Y-3783714D01*
X126219467Y-3178381D01*
X125429538Y-2850374D01*
X124574215Y-2849628D01*
X123783714Y-3176256D01*
X123178381Y-3780533D01*
X122850374Y-4570462D01*
X122849628Y-5425785D01*
X120450000Y-5425785D01*
X120450000Y-4950000D01*
X120400522Y-4701256D01*
X120259619Y-4490381D01*
X120048744Y-4349478D01*
X119800000Y-4300000D01*
X119551256Y-4349478D01*
X119340381Y-4490381D01*
X119199478Y-4701256D01*
X119150000Y-4950000D01*
X119150000Y-6375000D01*
X118775000Y-6375000D01*
X118775000Y-4925000D01*
X118725522Y-4676256D01*
X118584619Y-4465381D01*
X118373744Y-4324478D01*
X118125000Y-4275000D01*
X117876256Y-4324478D01*
X117665381Y-4465381D01*
X117524478Y-4676256D01*
X117475000Y-4925000D01*
X117475000Y-6005762D01*
X117275000Y-5805762D01*
X117275000Y-3900000D01*
X117244347Y-3745898D01*
X117225522Y-3651255D01*
X117084619Y-3440381D01*
X115942619Y-2298381D01*
X115731745Y-2157478D01*
X115690476Y-2149269D01*
X115483000Y-2108000D01*
X114330970Y-2108000D01*
X114210850Y-2058122D01*
X113932372Y-2057879D01*
X113675000Y-2164223D01*
X113477915Y-2360964D01*
X113371122Y-2618150D01*
X113370879Y-2896628D01*
X29150000Y-2896628D01*
X29150000Y-475000D01*
X129525000Y-475000D01*
X129525000Y-84525000D01*
X475000Y-84525000D01*
X475000Y-80425785D01*
X2849628Y-80425785D01*
X3176256Y-81216286D01*
X3780533Y-81821619D01*
X4570462Y-82149626D01*
X5425785Y-82150372D01*
X6216286Y-81823744D01*
X6821619Y-81219467D01*
X7149626Y-80429538D01*
X7150372Y-79574215D01*
X6823744Y-78783714D01*
X6219467Y-78178381D01*
X5429538Y-77850374D01*
X4574215Y-77849628D01*
X3783714Y-78176256D01*
X3178381Y-78780533D01*
X2850374Y-79570462D01*
X2849628Y-80425785D01*
X475000Y-80425785D01*
X475000Y-77744000D01*
X8859164Y-77744000D01*
X8859164Y-79744000D01*
X8887056Y-79892231D01*
X8974660Y-80028372D01*
X9108329Y-80119704D01*
X9267000Y-80151836D01*
X11267000Y-80151836D01*
X11415231Y-80123944D01*
X11551372Y-80036340D01*
X11642704Y-79902671D01*
X11674836Y-79744000D01*
X11674836Y-78570122D01*
X43787799Y-78570122D01*
X43964330Y-78997360D01*
X44290920Y-79324521D01*
X44717850Y-79501798D01*
X45180122Y-79502201D01*
X45607360Y-79325670D01*
X45934521Y-78999080D01*
X46111798Y-78572150D01*
X46111799Y-78570122D01*
X55217799Y-78570122D01*
X55394330Y-78997360D01*
X55720920Y-79324521D01*
X56147850Y-79501798D01*
X56610122Y-79502201D01*
X57037360Y-79325670D01*
X57364521Y-78999080D01*
X57541798Y-78572150D01*
X57541799Y-78570122D01*
X66647799Y-78570122D01*
X66824330Y-78997360D01*
X67150920Y-79324521D01*
X67577850Y-79501798D01*
X68040122Y-79502201D01*
X68467360Y-79325670D01*
X68794521Y-78999080D01*
X68971798Y-78572150D01*
X68971908Y-78445122D01*
X82337799Y-78445122D01*
X82514330Y-78872360D01*
X82840920Y-79199521D01*
X83267850Y-79376798D01*
X83730122Y-79377201D01*
X84157360Y-79200670D01*
X84484521Y-78874080D01*
X84661798Y-78447150D01*
X84662043Y-78165122D01*
X90337799Y-78165122D01*
X90514330Y-78592360D01*
X90840920Y-78919521D01*
X91267850Y-79096798D01*
X91730122Y-79097201D01*
X92157360Y-78920670D01*
X92484521Y-78594080D01*
X92661798Y-78167150D01*
X92662201Y-77704878D01*
X92485670Y-77277640D01*
X92159080Y-76950479D01*
X91732150Y-76773202D01*
X91269878Y-76772799D01*
X90842640Y-76949330D01*
X90515479Y-77275920D01*
X90338202Y-77702850D01*
X90337799Y-78165122D01*
X84662043Y-78165122D01*
X84662201Y-77984878D01*
X84485670Y-77557640D01*
X84159080Y-77230479D01*
X83732150Y-77053202D01*
X83269878Y-77052799D01*
X82842640Y-77229330D01*
X82515479Y-77555920D01*
X82338202Y-77982850D01*
X82337799Y-78445122D01*
X68971908Y-78445122D01*
X68972201Y-78109878D01*
X68795670Y-77682640D01*
X68469080Y-77355479D01*
X68042150Y-77178202D01*
X67579878Y-77177799D01*
X67152640Y-77354330D01*
X66825479Y-77680920D01*
X66648202Y-78107850D01*
X66647799Y-78570122D01*
X57541799Y-78570122D01*
X57542201Y-78109878D01*
X57365670Y-77682640D01*
X57039080Y-77355479D01*
X56612150Y-77178202D01*
X56149878Y-77177799D01*
X55722640Y-77354330D01*
X55395479Y-77680920D01*
X55218202Y-78107850D01*
X55217799Y-78570122D01*
X46111799Y-78570122D01*
X46112201Y-78109878D01*
X45935670Y-77682640D01*
X45609080Y-77355479D01*
X45182150Y-77178202D01*
X44719878Y-77177799D01*
X44292640Y-77354330D01*
X43965479Y-77680920D01*
X43788202Y-78107850D01*
X43787799Y-78570122D01*
X11674836Y-78570122D01*
X11674836Y-77744000D01*
X11646944Y-77595769D01*
X11559340Y-77459628D01*
X11425671Y-77368296D01*
X11267000Y-77336164D01*
X11114488Y-77336164D01*
X11453170Y-76998072D01*
X11666757Y-76483699D01*
X11667152Y-76030122D01*
X43787799Y-76030122D01*
X43964330Y-76457360D01*
X44290920Y-76784521D01*
X44717850Y-76961798D01*
X45180122Y-76962201D01*
X45607360Y-76785670D01*
X45934521Y-76459080D01*
X46111798Y-76032150D01*
X46111799Y-76030122D01*
X55217799Y-76030122D01*
X55394330Y-76457360D01*
X55720920Y-76784521D01*
X56147850Y-76961798D01*
X56610122Y-76962201D01*
X57037360Y-76785670D01*
X57364521Y-76459080D01*
X57541798Y-76032150D01*
X57541799Y-76030122D01*
X66647799Y-76030122D01*
X66824330Y-76457360D01*
X67150920Y-76784521D01*
X67577850Y-76961798D01*
X68040122Y-76962201D01*
X68467360Y-76785670D01*
X68794521Y-76459080D01*
X68971798Y-76032150D01*
X68971908Y-75905122D01*
X82337799Y-75905122D01*
X82514330Y-76332360D01*
X82840920Y-76659521D01*
X83267850Y-76836798D01*
X83730122Y-76837201D01*
X84157360Y-76660670D01*
X84484521Y-76334080D01*
X84661798Y-75907150D01*
X84662043Y-75625122D01*
X90337799Y-75625122D01*
X90514330Y-76052360D01*
X90840920Y-76379521D01*
X91267850Y-76556798D01*
X91730122Y-76557201D01*
X92157360Y-76380670D01*
X92484521Y-76054080D01*
X92661798Y-75627150D01*
X92662201Y-75164878D01*
X92485670Y-74737640D01*
X92159080Y-74410479D01*
X91732150Y-74233202D01*
X91269878Y-74232799D01*
X90842640Y-74409330D01*
X90515479Y-74735920D01*
X90338202Y-75162850D01*
X90337799Y-75625122D01*
X84662043Y-75625122D01*
X84662201Y-75444878D01*
X84485670Y-75017640D01*
X84159080Y-74690479D01*
X83732150Y-74513202D01*
X83269878Y-74512799D01*
X82842640Y-74689330D01*
X82515479Y-75015920D01*
X82338202Y-75442850D01*
X82337799Y-75905122D01*
X68971908Y-75905122D01*
X68972201Y-75569878D01*
X68795670Y-75142640D01*
X68469080Y-74815479D01*
X68042150Y-74638202D01*
X67579878Y-74637799D01*
X67152640Y-74814330D01*
X66825479Y-75140920D01*
X66648202Y-75567850D01*
X66647799Y-76030122D01*
X57541799Y-76030122D01*
X57542201Y-75569878D01*
X57365670Y-75142640D01*
X57039080Y-74815479D01*
X56612150Y-74638202D01*
X56149878Y-74637799D01*
X55722640Y-74814330D01*
X55395479Y-75140920D01*
X55218202Y-75567850D01*
X55217799Y-76030122D01*
X46111799Y-76030122D01*
X46112201Y-75569878D01*
X45935670Y-75142640D01*
X45609080Y-74815479D01*
X45182150Y-74638202D01*
X44719878Y-74637799D01*
X44292640Y-74814330D01*
X43965479Y-75140920D01*
X43788202Y-75567850D01*
X43787799Y-76030122D01*
X11667152Y-76030122D01*
X11667243Y-75926744D01*
X11454555Y-75412000D01*
X11061072Y-75017830D01*
X10546699Y-74804243D01*
X9989744Y-74803757D01*
X9475000Y-75016445D01*
X9080830Y-75409928D01*
X8867243Y-75924301D01*
X8866757Y-76481256D01*
X9079445Y-76996000D01*
X9419016Y-77336164D01*
X9267000Y-77336164D01*
X9118769Y-77364056D01*
X8982628Y-77451660D01*
X8891296Y-77585329D01*
X8859164Y-77744000D01*
X475000Y-77744000D01*
X475000Y-73490122D01*
X43787799Y-73490122D01*
X43964330Y-73917360D01*
X44290920Y-74244521D01*
X44717850Y-74421798D01*
X45180122Y-74422201D01*
X45607360Y-74245670D01*
X45934521Y-73919080D01*
X46111798Y-73492150D01*
X46111799Y-73490122D01*
X55217799Y-73490122D01*
X55394330Y-73917360D01*
X55720920Y-74244521D01*
X56147850Y-74421798D01*
X56610122Y-74422201D01*
X57037360Y-74245670D01*
X57364521Y-73919080D01*
X57541798Y-73492150D01*
X57541799Y-73490122D01*
X66647799Y-73490122D01*
X66824330Y-73917360D01*
X67150920Y-74244521D01*
X67577850Y-74421798D01*
X68040122Y-74422201D01*
X68467360Y-74245670D01*
X68794521Y-73919080D01*
X68971798Y-73492150D01*
X68971908Y-73365122D01*
X82337799Y-73365122D01*
X82514330Y-73792360D01*
X82840920Y-74119521D01*
X83267850Y-74296798D01*
X83730122Y-74297201D01*
X84157360Y-74120670D01*
X84484521Y-73794080D01*
X84661798Y-73367150D01*
X84662043Y-73085122D01*
X90337799Y-73085122D01*
X90514330Y-73512360D01*
X90840920Y-73839521D01*
X91267850Y-74016798D01*
X91730122Y-74017201D01*
X92157360Y-73840670D01*
X92484521Y-73514080D01*
X92661798Y-73087150D01*
X92662201Y-72624878D01*
X92485670Y-72197640D01*
X92159080Y-71870479D01*
X91732150Y-71693202D01*
X91269878Y-71692799D01*
X90842640Y-71869330D01*
X90515479Y-72195920D01*
X90338202Y-72622850D01*
X90337799Y-73085122D01*
X84662043Y-73085122D01*
X84662201Y-72904878D01*
X84485670Y-72477640D01*
X84159080Y-72150479D01*
X83732150Y-71973202D01*
X83269878Y-71972799D01*
X82842640Y-72149330D01*
X82515479Y-72475920D01*
X82338202Y-72902850D01*
X82337799Y-73365122D01*
X68971908Y-73365122D01*
X68972201Y-73029878D01*
X68795670Y-72602640D01*
X68469080Y-72275479D01*
X68042150Y-72098202D01*
X67579878Y-72097799D01*
X67152640Y-72274330D01*
X66825479Y-72600920D01*
X66648202Y-73027850D01*
X66647799Y-73490122D01*
X57541799Y-73490122D01*
X57542201Y-73029878D01*
X57365670Y-72602640D01*
X57039080Y-72275479D01*
X56612150Y-72098202D01*
X56149878Y-72097799D01*
X55722640Y-72274330D01*
X55395479Y-72600920D01*
X55218202Y-73027850D01*
X55217799Y-73490122D01*
X46111799Y-73490122D01*
X46112201Y-73029878D01*
X45935670Y-72602640D01*
X45609080Y-72275479D01*
X45182150Y-72098202D01*
X44719878Y-72097799D01*
X44292640Y-72274330D01*
X43965479Y-72600920D01*
X43788202Y-73027850D01*
X43787799Y-73490122D01*
X475000Y-73490122D01*
X475000Y-68422396D01*
X37743332Y-68422396D01*
X37890922Y-68779592D01*
X38163971Y-69053118D01*
X38520909Y-69201331D01*
X38907396Y-69201668D01*
X39264592Y-69054078D01*
X39538118Y-68781029D01*
X39686331Y-68424091D01*
X39686376Y-68372396D01*
X43978332Y-68372396D01*
X44125922Y-68729592D01*
X44398971Y-69003118D01*
X44755909Y-69151331D01*
X45142396Y-69151668D01*
X45499592Y-69004078D01*
X45773118Y-68731029D01*
X45921331Y-68374091D01*
X45921332Y-68372396D01*
X55408332Y-68372396D01*
X55555922Y-68729592D01*
X55828971Y-69003118D01*
X56185909Y-69151331D01*
X56572396Y-69151668D01*
X56929592Y-69004078D01*
X57203118Y-68731029D01*
X57351331Y-68374091D01*
X57351332Y-68372396D01*
X66838332Y-68372396D01*
X66985922Y-68729592D01*
X67258971Y-69003118D01*
X67615909Y-69151331D01*
X68002396Y-69151668D01*
X68359592Y-69004078D01*
X68633118Y-68731029D01*
X68781331Y-68374091D01*
X68781489Y-68192396D01*
X82388332Y-68192396D01*
X82535922Y-68549592D01*
X82808971Y-68823118D01*
X83165909Y-68971331D01*
X83552396Y-68971668D01*
X83909592Y-68824078D01*
X84183118Y-68551029D01*
X84331331Y-68194091D01*
X84331668Y-67807604D01*
X84184078Y-67450408D01*
X83911029Y-67176882D01*
X83554091Y-67028669D01*
X83167604Y-67028332D01*
X82810408Y-67175922D01*
X82536882Y-67448971D01*
X82388669Y-67805909D01*
X82388332Y-68192396D01*
X68781489Y-68192396D01*
X68781668Y-67987604D01*
X68634078Y-67630408D01*
X68361029Y-67356882D01*
X68004091Y-67208669D01*
X67617604Y-67208332D01*
X67260408Y-67355922D01*
X66986882Y-67628971D01*
X66838669Y-67985909D01*
X66838332Y-68372396D01*
X57351332Y-68372396D01*
X57351668Y-67987604D01*
X57204078Y-67630408D01*
X56931029Y-67356882D01*
X56574091Y-67208669D01*
X56187604Y-67208332D01*
X55830408Y-67355922D01*
X55556882Y-67628971D01*
X55408669Y-67985909D01*
X55408332Y-68372396D01*
X45921332Y-68372396D01*
X45921668Y-67987604D01*
X45774078Y-67630408D01*
X45501029Y-67356882D01*
X45144091Y-67208669D01*
X44757604Y-67208332D01*
X44400408Y-67355922D01*
X44126882Y-67628971D01*
X43978669Y-67985909D01*
X43978332Y-68372396D01*
X39686376Y-68372396D01*
X39686668Y-68037604D01*
X39539078Y-67680408D01*
X39266029Y-67406882D01*
X38909091Y-67258669D01*
X38522604Y-67258332D01*
X38165408Y-67405922D01*
X37891882Y-67678971D01*
X37743669Y-68035909D01*
X37743332Y-68422396D01*
X475000Y-68422396D01*
X475000Y-62938628D01*
X9499879Y-62938628D01*
X9606223Y-63196000D01*
X9802964Y-63393085D01*
X10060150Y-63499878D01*
X10338628Y-63500121D01*
X10596000Y-63393777D01*
X10793085Y-63197036D01*
X10830528Y-63106863D01*
X11599723Y-63106863D01*
X11842795Y-63695143D01*
X12292489Y-64145623D01*
X12880344Y-64389722D01*
X13516863Y-64390277D01*
X14105143Y-64147205D01*
X14555623Y-63697511D01*
X14799722Y-63109656D01*
X14800277Y-62473137D01*
X14557205Y-61884857D01*
X14107511Y-61434377D01*
X13519656Y-61190278D01*
X12883137Y-61189723D01*
X12294857Y-61432795D01*
X11844377Y-61882489D01*
X11600278Y-62470344D01*
X11599723Y-63106863D01*
X10830528Y-63106863D01*
X10899878Y-62939850D01*
X10900121Y-62661372D01*
X10793777Y-62404000D01*
X10725000Y-62335103D01*
X10725000Y-60589942D01*
X12117847Y-60589942D01*
X12244841Y-60866665D01*
X12920911Y-61112172D01*
X13639470Y-61080271D01*
X14155159Y-60866665D01*
X14282153Y-60589942D01*
X13200000Y-59507789D01*
X12117847Y-60589942D01*
X10725000Y-60589942D01*
X10725000Y-59010911D01*
X11377828Y-59010911D01*
X11409729Y-59729470D01*
X11623335Y-60245159D01*
X11900058Y-60372153D01*
X12982211Y-59290000D01*
X13417789Y-59290000D01*
X14499942Y-60372153D01*
X14776665Y-60245159D01*
X15022172Y-59569089D01*
X14990271Y-58850530D01*
X14776665Y-58334841D01*
X14499942Y-58207847D01*
X13417789Y-59290000D01*
X12982211Y-59290000D01*
X11900058Y-58207847D01*
X11623335Y-58334841D01*
X11377828Y-59010911D01*
X10725000Y-59010911D01*
X10725000Y-57990058D01*
X12117847Y-57990058D01*
X13200000Y-59072211D01*
X14282153Y-57990058D01*
X14155159Y-57713335D01*
X13479089Y-57467828D01*
X12760530Y-57499729D01*
X12244841Y-57713335D01*
X12117847Y-57990058D01*
X10725000Y-57990058D01*
X10725000Y-57557462D01*
X11592164Y-56690298D01*
X11592164Y-56990000D01*
X11620056Y-57138231D01*
X11707660Y-57274372D01*
X11841329Y-57365704D01*
X12000000Y-57397836D01*
X14400000Y-57397836D01*
X14548231Y-57369944D01*
X14684372Y-57282340D01*
X14775704Y-57148671D01*
X14794470Y-57056000D01*
X22102000Y-57056000D01*
X22102000Y-57520939D01*
X22194563Y-57744405D01*
X22365596Y-57915438D01*
X22589062Y-58008000D01*
X23054000Y-58008000D01*
X23206000Y-57856000D01*
X23206000Y-56904000D01*
X23514000Y-56904000D01*
X23514000Y-57856000D01*
X23666000Y-58008000D01*
X24130938Y-58008000D01*
X24354404Y-57915438D01*
X24525437Y-57744405D01*
X24618000Y-57520939D01*
X24618000Y-57056000D01*
X24466000Y-56904000D01*
X23514000Y-56904000D01*
X23206000Y-56904000D01*
X22254000Y-56904000D01*
X22102000Y-57056000D01*
X14794470Y-57056000D01*
X14807836Y-56990000D01*
X14807836Y-55979061D01*
X22102000Y-55979061D01*
X22102000Y-56444000D01*
X22254000Y-56596000D01*
X23206000Y-56596000D01*
X23206000Y-55644000D01*
X23514000Y-55644000D01*
X23514000Y-56596000D01*
X24466000Y-56596000D01*
X24618000Y-56444000D01*
X24618000Y-55979061D01*
X24525437Y-55755595D01*
X24354404Y-55584562D01*
X24130938Y-55492000D01*
X23666000Y-55492000D01*
X23514000Y-55644000D01*
X23206000Y-55644000D01*
X23054000Y-55492000D01*
X22589062Y-55492000D01*
X22365596Y-55584562D01*
X22194563Y-55755595D01*
X22102000Y-55979061D01*
X14807836Y-55979061D01*
X14807836Y-54590000D01*
X14779944Y-54441769D01*
X14692340Y-54305628D01*
X14558671Y-54214296D01*
X14400000Y-54182164D01*
X12000000Y-54182164D01*
X11851769Y-54210056D01*
X11715628Y-54297660D01*
X11624296Y-54431329D01*
X11592164Y-54590000D01*
X11592164Y-55296395D01*
X11549091Y-55304963D01*
X11378769Y-55418769D01*
X9828769Y-56968769D01*
X9714963Y-57139091D01*
X9675000Y-57340000D01*
X9675000Y-62334998D01*
X9606915Y-62402964D01*
X9500122Y-62660150D01*
X9499879Y-62938628D01*
X475000Y-62938628D01*
X475000Y-53838958D01*
X33431769Y-53838958D01*
X33543477Y-54056000D01*
X34636000Y-54056000D01*
X34636000Y-54036000D01*
X34944000Y-54036000D01*
X34944000Y-54056000D01*
X36036523Y-54056000D01*
X36148231Y-53838958D01*
X36012791Y-53511944D01*
X35652577Y-53097139D01*
X35161044Y-52851757D01*
X34944002Y-52962434D01*
X34944002Y-52844043D01*
X35272729Y-52778655D01*
X35662037Y-52518528D01*
X35922164Y-52129220D01*
X36013509Y-51670000D01*
X35922164Y-51210780D01*
X35662037Y-50821472D01*
X35272729Y-50561345D01*
X34813509Y-50470000D01*
X34766491Y-50470000D01*
X34307271Y-50561345D01*
X33917963Y-50821472D01*
X33657836Y-51210780D01*
X33566491Y-51670000D01*
X33657836Y-52129220D01*
X33917963Y-52518528D01*
X34307271Y-52778655D01*
X34635998Y-52844043D01*
X34635998Y-52962434D01*
X34418956Y-52851757D01*
X33927423Y-53097139D01*
X33567209Y-53511944D01*
X33431769Y-53838958D01*
X475000Y-53838958D01*
X475000Y-51220931D01*
X22676858Y-51220931D01*
X22736122Y-51440694D01*
X23212483Y-51594134D01*
X23711302Y-51553599D01*
X23983878Y-51440694D01*
X24043142Y-51220931D01*
X23360000Y-50537789D01*
X22676858Y-51220931D01*
X475000Y-51220931D01*
X475000Y-50172483D01*
X22085866Y-50172483D01*
X22126401Y-50671302D01*
X22239306Y-50943878D01*
X22459069Y-51003142D01*
X23142211Y-50320000D01*
X23577789Y-50320000D01*
X24260931Y-51003142D01*
X24480694Y-50943878D01*
X24634134Y-50467517D01*
X24593599Y-49968698D01*
X24480694Y-49696122D01*
X24260931Y-49636858D01*
X23577789Y-50320000D01*
X23142211Y-50320000D01*
X22459069Y-49636858D01*
X22239306Y-49696122D01*
X22085866Y-50172483D01*
X475000Y-50172483D01*
X475000Y-49419069D01*
X22676858Y-49419069D01*
X23360000Y-50102211D01*
X24043142Y-49419069D01*
X23983878Y-49199306D01*
X23768715Y-49130000D01*
X33566491Y-49130000D01*
X33657836Y-49589220D01*
X33917963Y-49978528D01*
X34307271Y-50238655D01*
X34766491Y-50330000D01*
X34813509Y-50330000D01*
X35272729Y-50238655D01*
X35662037Y-49978528D01*
X35922164Y-49589220D01*
X36013509Y-49130000D01*
X35922164Y-48670780D01*
X35662037Y-48281472D01*
X35272729Y-48021345D01*
X34813509Y-47930000D01*
X34766491Y-47930000D01*
X34307271Y-48021345D01*
X33917963Y-48281472D01*
X33657836Y-48670780D01*
X33566491Y-49130000D01*
X23768715Y-49130000D01*
X23507517Y-49045866D01*
X23008698Y-49086401D01*
X22736122Y-49199306D01*
X22676858Y-49419069D01*
X475000Y-49419069D01*
X475000Y-42987942D01*
X9609818Y-42987942D01*
X9769334Y-43374000D01*
X10064446Y-43669628D01*
X10450226Y-43829818D01*
X10867942Y-43830182D01*
X11254000Y-43670666D01*
X11549628Y-43375554D01*
X11700445Y-43012347D01*
X12582792Y-42130000D01*
X14602164Y-42130000D01*
X14602164Y-43430000D01*
X14630056Y-43578231D01*
X14717660Y-43714372D01*
X14851329Y-43805704D01*
X15010000Y-43837836D01*
X16310000Y-43837836D01*
X16458231Y-43809944D01*
X16594372Y-43722340D01*
X16685704Y-43588671D01*
X16717836Y-43430000D01*
X16717836Y-42130000D01*
X16689944Y-41981769D01*
X16602340Y-41845628D01*
X16468671Y-41754296D01*
X16310000Y-41722164D01*
X15010000Y-41722164D01*
X14861769Y-41750056D01*
X14725628Y-41837660D01*
X14634296Y-41971329D01*
X14602164Y-42130000D01*
X12582792Y-42130000D01*
X17544221Y-37168571D01*
X20939430Y-37168571D01*
X20939430Y-38231429D01*
X21027012Y-38671733D01*
X21276424Y-39045005D01*
X21649696Y-39294417D01*
X22090000Y-39381999D01*
X22530304Y-39294417D01*
X22903576Y-39045005D01*
X23152988Y-38671733D01*
X23240570Y-38231429D01*
X23240570Y-37854000D01*
X23271430Y-37854000D01*
X23271430Y-38353110D01*
X23433778Y-38861290D01*
X23778240Y-39268659D01*
X24266739Y-39508214D01*
X24476000Y-39395812D01*
X24476000Y-37854000D01*
X24784000Y-37854000D01*
X24784000Y-39395812D01*
X24993261Y-39508214D01*
X25481760Y-39268659D01*
X25826222Y-38861290D01*
X25988570Y-38353110D01*
X25988570Y-37854000D01*
X24784000Y-37854000D01*
X24476000Y-37854000D01*
X23271430Y-37854000D01*
X23240570Y-37854000D01*
X23240570Y-37168571D01*
X23216367Y-37046890D01*
X23271430Y-37046890D01*
X23271430Y-37546000D01*
X24476000Y-37546000D01*
X24476000Y-36004188D01*
X24784000Y-36004188D01*
X24784000Y-37546000D01*
X25988570Y-37546000D01*
X25988570Y-37046890D01*
X25826222Y-36538710D01*
X25481760Y-36131341D01*
X24993261Y-35891786D01*
X24784000Y-36004188D01*
X24476000Y-36004188D01*
X24266739Y-35891786D01*
X23778240Y-36131341D01*
X23433778Y-36538710D01*
X23271430Y-37046890D01*
X23216367Y-37046890D01*
X23152988Y-36728267D01*
X22903576Y-36354995D01*
X22530304Y-36105583D01*
X22090000Y-36018001D01*
X21649696Y-36105583D01*
X21276424Y-36354995D01*
X21027012Y-36728267D01*
X20939430Y-37168571D01*
X17544221Y-37168571D01*
X21954164Y-32758628D01*
X23929879Y-32758628D01*
X24036223Y-33016000D01*
X24232964Y-33213085D01*
X24490150Y-33319878D01*
X24587501Y-33319963D01*
X26645000Y-35377462D01*
X26645000Y-36162175D01*
X26356424Y-36354995D01*
X26107012Y-36728267D01*
X26019430Y-37168571D01*
X26019430Y-38231429D01*
X26107012Y-38671733D01*
X26356424Y-39045005D01*
X26729696Y-39294417D01*
X27170000Y-39381999D01*
X27610304Y-39294417D01*
X27983576Y-39045005D01*
X28232988Y-38671733D01*
X28320570Y-38231429D01*
X28320570Y-37168571D01*
X28232988Y-36728267D01*
X27983576Y-36354995D01*
X27695000Y-36162175D01*
X27695000Y-35160000D01*
X27655037Y-34959091D01*
X27541231Y-34788769D01*
X25330037Y-32577575D01*
X25330121Y-32481372D01*
X25223777Y-32224000D01*
X25027036Y-32026915D01*
X24769850Y-31920122D01*
X24491372Y-31919879D01*
X24234000Y-32026223D01*
X24036915Y-32222964D01*
X23930122Y-32480150D01*
X23929879Y-32758628D01*
X21954164Y-32758628D01*
X28812792Y-25900000D01*
X42909107Y-25900000D01*
X43253522Y-25831492D01*
X43545503Y-25636396D01*
X44511899Y-24670000D01*
X46656491Y-24670000D01*
X46747836Y-25129220D01*
X47007963Y-25518528D01*
X47397271Y-25778655D01*
X47856491Y-25870000D01*
X47903509Y-25870000D01*
X48362729Y-25778655D01*
X48752037Y-25518528D01*
X49012164Y-25129220D01*
X49103509Y-24670000D01*
X54276491Y-24670000D01*
X54367836Y-25129220D01*
X54627963Y-25518528D01*
X55017271Y-25778655D01*
X55476491Y-25870000D01*
X55523509Y-25870000D01*
X55982729Y-25778655D01*
X56372037Y-25518528D01*
X56632164Y-25129220D01*
X56723509Y-24670000D01*
X56632164Y-24210780D01*
X56548121Y-24085000D01*
X56906259Y-24085000D01*
X57002445Y-24568559D01*
X57276359Y-24978500D01*
X57686300Y-25252414D01*
X58169859Y-25348600D01*
X58530141Y-25348600D01*
X59013700Y-25252414D01*
X59423641Y-24978500D01*
X59697555Y-24568559D01*
X59787773Y-24115000D01*
X60456259Y-24115000D01*
X60552445Y-24598559D01*
X60826359Y-25008500D01*
X61236300Y-25282414D01*
X61719859Y-25378600D01*
X62080141Y-25378600D01*
X62563700Y-25282414D01*
X62925001Y-25041000D01*
X63473491Y-25041000D01*
X63564836Y-25500220D01*
X63824963Y-25889528D01*
X64214271Y-26149655D01*
X64673491Y-26241000D01*
X64720509Y-26241000D01*
X65179729Y-26149655D01*
X65569037Y-25889528D01*
X65829164Y-25500220D01*
X65920509Y-25041000D01*
X65829164Y-24581780D01*
X65569037Y-24192472D01*
X65179729Y-23932345D01*
X64720509Y-23841000D01*
X64673491Y-23841000D01*
X64214271Y-23932345D01*
X63824963Y-24192472D01*
X63564836Y-24581780D01*
X63473491Y-25041000D01*
X62925001Y-25041000D01*
X62973641Y-25008500D01*
X63247555Y-24598559D01*
X63343741Y-24115000D01*
X63247555Y-23631441D01*
X62973641Y-23221500D01*
X62563700Y-22947586D01*
X62080141Y-22851400D01*
X61719859Y-22851400D01*
X61236300Y-22947586D01*
X60826359Y-23221500D01*
X60552445Y-23631441D01*
X60456259Y-24115000D01*
X59787773Y-24115000D01*
X59793741Y-24085000D01*
X59697555Y-23601441D01*
X59423641Y-23191500D01*
X59013700Y-22917586D01*
X58530141Y-22821400D01*
X58169859Y-22821400D01*
X57686300Y-22917586D01*
X57276359Y-23191500D01*
X57002445Y-23601441D01*
X56906259Y-24085000D01*
X56548121Y-24085000D01*
X56372037Y-23821472D01*
X55982729Y-23561345D01*
X55523509Y-23470000D01*
X55476491Y-23470000D01*
X55017271Y-23561345D01*
X54627963Y-23821472D01*
X54367836Y-24210780D01*
X54276491Y-24670000D01*
X49103509Y-24670000D01*
X49012164Y-24210780D01*
X48752037Y-23821472D01*
X48362729Y-23561345D01*
X47903509Y-23470000D01*
X47856491Y-23470000D01*
X47397271Y-23561345D01*
X47007963Y-23821472D01*
X46747836Y-24210780D01*
X46656491Y-24670000D01*
X44511899Y-24670000D01*
X46722094Y-22459805D01*
X46747836Y-22589220D01*
X47007963Y-22978528D01*
X47397271Y-23238655D01*
X47856491Y-23330000D01*
X47903509Y-23330000D01*
X48362729Y-23238655D01*
X48752037Y-22978528D01*
X49012164Y-22589220D01*
X49103509Y-22130000D01*
X49012164Y-21670780D01*
X48752037Y-21281472D01*
X48362729Y-21021345D01*
X48033027Y-20955763D01*
X48157391Y-20831399D01*
X54600000Y-20831399D01*
X54600000Y-21323322D01*
X54367836Y-21670780D01*
X54276491Y-22130000D01*
X54367836Y-22589220D01*
X54627963Y-22978528D01*
X55017271Y-23238655D01*
X55476491Y-23330000D01*
X55523509Y-23330000D01*
X55982729Y-23238655D01*
X56372037Y-22978528D01*
X56632164Y-22589220D01*
X56723509Y-22130000D01*
X56632164Y-21670780D01*
X56400000Y-21323322D01*
X56400000Y-20831399D01*
X56926164Y-20831399D01*
X56926164Y-22408600D01*
X56954056Y-22556831D01*
X57041660Y-22692972D01*
X57175329Y-22784304D01*
X57334000Y-22816436D01*
X59366000Y-22816436D01*
X59514231Y-22788544D01*
X59650372Y-22700940D01*
X59741704Y-22567271D01*
X59773836Y-22408600D01*
X59773836Y-20831399D01*
X60726200Y-20831399D01*
X60552445Y-21091441D01*
X60456259Y-21575000D01*
X60552445Y-22058559D01*
X60826359Y-22468500D01*
X61236300Y-22742414D01*
X61719859Y-22838600D01*
X62080141Y-22838600D01*
X62563700Y-22742414D01*
X62925001Y-22501000D01*
X63473491Y-22501000D01*
X63564836Y-22960220D01*
X63824963Y-23349528D01*
X64214271Y-23609655D01*
X64673491Y-23701000D01*
X64720509Y-23701000D01*
X65179729Y-23609655D01*
X65569037Y-23349528D01*
X65829164Y-22960220D01*
X65920509Y-22501000D01*
X65829164Y-22041780D01*
X65569037Y-21652472D01*
X65179729Y-21392345D01*
X64720509Y-21301000D01*
X64673491Y-21301000D01*
X64214271Y-21392345D01*
X63824963Y-21652472D01*
X63564836Y-22041780D01*
X63473491Y-22501000D01*
X62925001Y-22501000D01*
X62973641Y-22468500D01*
X63247555Y-22058559D01*
X63343741Y-21575000D01*
X63247555Y-21091441D01*
X63073800Y-20831399D01*
X69374607Y-20831399D01*
X71105728Y-22562520D01*
X71184836Y-22960220D01*
X71444963Y-23349528D01*
X71834271Y-23609655D01*
X72231971Y-23688763D01*
X72395059Y-23851851D01*
X72340509Y-23841000D01*
X72293491Y-23841000D01*
X71834271Y-23932345D01*
X71444963Y-24192472D01*
X71184836Y-24581780D01*
X71093491Y-25041000D01*
X71184836Y-25500220D01*
X71444963Y-25889528D01*
X71834271Y-26149655D01*
X72293491Y-26241000D01*
X72340509Y-26241000D01*
X72799729Y-26149655D01*
X73189037Y-25889528D01*
X73449164Y-25500220D01*
X73540509Y-25041000D01*
X73529658Y-24986450D01*
X74987604Y-26444396D01*
X75279584Y-26639492D01*
X75624000Y-26708000D01*
X82877000Y-26708000D01*
X83090990Y-26665435D01*
X83091223Y-26666000D01*
X83287964Y-26863085D01*
X83545150Y-26969878D01*
X83823628Y-26970121D01*
X84081000Y-26863777D01*
X84278085Y-26667036D01*
X84384878Y-26409850D01*
X84385121Y-26131372D01*
X84289520Y-25900000D01*
X88733208Y-25900000D01*
X86828604Y-27804604D01*
X86633508Y-28096585D01*
X86565000Y-28441000D01*
X86565000Y-34053208D01*
X84604208Y-36014000D01*
X76066582Y-36014000D01*
X73648308Y-33595726D01*
X74849711Y-33595726D01*
X75103418Y-34209743D01*
X75572786Y-34679931D01*
X76186359Y-34934709D01*
X76850726Y-34935289D01*
X77464743Y-34681582D01*
X77934931Y-34212214D01*
X78189709Y-33598641D01*
X78189711Y-33595726D01*
X79929711Y-33595726D01*
X80183418Y-34209743D01*
X80652786Y-34679931D01*
X81266359Y-34934709D01*
X81930726Y-34935289D01*
X82544743Y-34681582D01*
X83014931Y-34212214D01*
X83269709Y-33598641D01*
X83270289Y-32934274D01*
X83016582Y-32320257D01*
X82547214Y-31850069D01*
X81933641Y-31595291D01*
X81269274Y-31594711D01*
X80655257Y-31848418D01*
X80185069Y-32317786D01*
X79930291Y-32931359D01*
X79929711Y-33595726D01*
X78189711Y-33595726D01*
X78190289Y-32934274D01*
X77936582Y-32320257D01*
X77467214Y-31850069D01*
X76853641Y-31595291D01*
X76189274Y-31594711D01*
X75575257Y-31848418D01*
X75105069Y-32317786D01*
X74850291Y-32931359D01*
X74849711Y-33595726D01*
X73648308Y-33595726D01*
X73416291Y-33363709D01*
X73124310Y-33168613D01*
X72779895Y-33100105D01*
X67375000Y-33100105D01*
X67375000Y-30492042D01*
X70958769Y-30492042D01*
X71094209Y-30819056D01*
X71454423Y-31233861D01*
X71945956Y-31479243D01*
X72163000Y-31368565D01*
X72163000Y-30275000D01*
X72471000Y-30275000D01*
X72471000Y-31368565D01*
X72688044Y-31479243D01*
X73179577Y-31233861D01*
X73539791Y-30819056D01*
X73675231Y-30492042D01*
X73563523Y-30275000D01*
X72471000Y-30275000D01*
X72163000Y-30275000D01*
X71070477Y-30275000D01*
X70958769Y-30492042D01*
X67375000Y-30492042D01*
X67375000Y-29749958D01*
X70958769Y-29749958D01*
X71070477Y-29967000D01*
X72163000Y-29967000D01*
X72163000Y-29947000D01*
X72471000Y-29947000D01*
X72471000Y-29967000D01*
X73563523Y-29967000D01*
X73675231Y-29749958D01*
X73539791Y-29422944D01*
X73179577Y-29008139D01*
X72688044Y-28762757D01*
X72471002Y-28873434D01*
X72471002Y-28755043D01*
X72799729Y-28689655D01*
X73189037Y-28429528D01*
X73449164Y-28040220D01*
X73540509Y-27581000D01*
X73449164Y-27121780D01*
X73189037Y-26732472D01*
X72799729Y-26472345D01*
X72340509Y-26381000D01*
X72293491Y-26381000D01*
X71834271Y-26472345D01*
X71444963Y-26732472D01*
X71184836Y-27121780D01*
X71093491Y-27581000D01*
X71184836Y-28040220D01*
X71444963Y-28429528D01*
X71834271Y-28689655D01*
X72162998Y-28755043D01*
X72162998Y-28873434D01*
X71945956Y-28762757D01*
X71454423Y-29008139D01*
X71094209Y-29422944D01*
X70958769Y-29749958D01*
X67375000Y-29749958D01*
X67375000Y-29359000D01*
X67306492Y-29014585D01*
X67111396Y-28722604D01*
X65908272Y-27519480D01*
X65829164Y-27121780D01*
X65569037Y-26732472D01*
X65179729Y-26472345D01*
X64720509Y-26381000D01*
X64673491Y-26381000D01*
X64214271Y-26472345D01*
X63824963Y-26732472D01*
X63564836Y-27121780D01*
X63473491Y-27581000D01*
X63564836Y-28040220D01*
X63824963Y-28429528D01*
X64214271Y-28689655D01*
X64611971Y-28768763D01*
X64775059Y-28931851D01*
X64720509Y-28921000D01*
X64673491Y-28921000D01*
X64214271Y-29012345D01*
X63824963Y-29272472D01*
X63564836Y-29661780D01*
X63473491Y-30121000D01*
X63564836Y-30580220D01*
X63824963Y-30969528D01*
X64214271Y-31229655D01*
X64673491Y-31321000D01*
X64720509Y-31321000D01*
X65179729Y-31229655D01*
X65569037Y-30969528D01*
X65575000Y-30960604D01*
X65575000Y-33100105D01*
X50330001Y-33100105D01*
X50330001Y-30121042D01*
X54141769Y-30121042D01*
X54277209Y-30448056D01*
X54637423Y-30862861D01*
X55128956Y-31108243D01*
X55346000Y-30997565D01*
X55346000Y-29904000D01*
X55654000Y-29904000D01*
X55654000Y-30997565D01*
X55871044Y-31108243D01*
X56362577Y-30862861D01*
X56722791Y-30448056D01*
X56858231Y-30121042D01*
X56746523Y-29904000D01*
X55654000Y-29904000D01*
X55346000Y-29904000D01*
X54253477Y-29904000D01*
X54141769Y-30121042D01*
X50330001Y-30121042D01*
X50330001Y-29378958D01*
X54141769Y-29378958D01*
X54253477Y-29596000D01*
X55346000Y-29596000D01*
X55346000Y-29576000D01*
X55654000Y-29576000D01*
X55654000Y-29596000D01*
X56746523Y-29596000D01*
X56858231Y-29378958D01*
X56722791Y-29051944D01*
X56362577Y-28637139D01*
X55871044Y-28391757D01*
X55654002Y-28502434D01*
X55654002Y-28384043D01*
X55982729Y-28318655D01*
X56372037Y-28058528D01*
X56632164Y-27669220D01*
X56723509Y-27210000D01*
X56632164Y-26750780D01*
X56548121Y-26625000D01*
X56906259Y-26625000D01*
X57002445Y-27108559D01*
X57276359Y-27518500D01*
X57686300Y-27792414D01*
X58169859Y-27888600D01*
X58530141Y-27888600D01*
X59013700Y-27792414D01*
X59423641Y-27518500D01*
X59697555Y-27108559D01*
X59793741Y-26625000D01*
X59697555Y-26141441D01*
X59463665Y-25791400D01*
X60476164Y-25791400D01*
X60476164Y-27518600D01*
X60504056Y-27666831D01*
X60591660Y-27802972D01*
X60725329Y-27894304D01*
X60884000Y-27926436D01*
X62916000Y-27926436D01*
X63064231Y-27898544D01*
X63200372Y-27810940D01*
X63291704Y-27677271D01*
X63323836Y-27518600D01*
X63323836Y-25791400D01*
X63295944Y-25643169D01*
X63208340Y-25507028D01*
X63074671Y-25415696D01*
X62916000Y-25383564D01*
X60884000Y-25383564D01*
X60735769Y-25411456D01*
X60599628Y-25499060D01*
X60508296Y-25632729D01*
X60476164Y-25791400D01*
X59463665Y-25791400D01*
X59423641Y-25731500D01*
X59013700Y-25457586D01*
X58530141Y-25361400D01*
X58169859Y-25361400D01*
X57686300Y-25457586D01*
X57276359Y-25731500D01*
X57002445Y-26141441D01*
X56906259Y-26625000D01*
X56548121Y-26625000D01*
X56372037Y-26361472D01*
X55982729Y-26101345D01*
X55523509Y-26010000D01*
X55476491Y-26010000D01*
X55017271Y-26101345D01*
X54627963Y-26361472D01*
X54367836Y-26750780D01*
X54276491Y-27210000D01*
X54367836Y-27669220D01*
X54627963Y-28058528D01*
X55017271Y-28318655D01*
X55345998Y-28384043D01*
X55345998Y-28502434D01*
X55128956Y-28391757D01*
X54637423Y-28637139D01*
X54277209Y-29051944D01*
X54141769Y-29378958D01*
X50330001Y-29378958D01*
X50330001Y-28760001D01*
X50292407Y-28571000D01*
X50261493Y-28415585D01*
X50066397Y-28123605D01*
X49091272Y-27148480D01*
X49012164Y-26750780D01*
X48752037Y-26361472D01*
X48362729Y-26101345D01*
X47903509Y-26010000D01*
X47856491Y-26010000D01*
X47397271Y-26101345D01*
X47007963Y-26361472D01*
X46747836Y-26750780D01*
X46656491Y-27210000D01*
X46747836Y-27669220D01*
X47007963Y-28058528D01*
X47397271Y-28318655D01*
X47794971Y-28397763D01*
X47958059Y-28560851D01*
X47903509Y-28550000D01*
X47856491Y-28550000D01*
X47397271Y-28641345D01*
X47007963Y-28901472D01*
X46747836Y-29290780D01*
X46656491Y-29750000D01*
X46747836Y-30209220D01*
X47007963Y-30598528D01*
X47397271Y-30858655D01*
X47856491Y-30950000D01*
X47903509Y-30950000D01*
X48362729Y-30858655D01*
X48530001Y-30746888D01*
X48530001Y-33100105D01*
X36327792Y-33100105D01*
X38661520Y-30766377D01*
X39059220Y-30687269D01*
X39448528Y-30427142D01*
X39708655Y-30037834D01*
X39800000Y-29578614D01*
X39800000Y-29531596D01*
X39940000Y-29531596D01*
X39940000Y-29578614D01*
X40031345Y-30037834D01*
X40291472Y-30427142D01*
X40680780Y-30687269D01*
X41140000Y-30778614D01*
X41599220Y-30687269D01*
X41988528Y-30427142D01*
X42248655Y-30037834D01*
X42314043Y-29709107D01*
X42432434Y-29709107D01*
X42321757Y-29926149D01*
X42567139Y-30417682D01*
X42981944Y-30777896D01*
X43308958Y-30913336D01*
X43526000Y-30801628D01*
X43526000Y-29709105D01*
X43834000Y-29709105D01*
X43834000Y-30801628D01*
X44051042Y-30913336D01*
X44378056Y-30777896D01*
X44792861Y-30417682D01*
X45038243Y-29926149D01*
X44927565Y-29709105D01*
X43834000Y-29709105D01*
X43526000Y-29709105D01*
X43506000Y-29709105D01*
X43506000Y-29401105D01*
X43526000Y-29401105D01*
X43526000Y-28308582D01*
X43834000Y-28308582D01*
X43834000Y-29401105D01*
X44927565Y-29401105D01*
X45038243Y-29184061D01*
X44792861Y-28692528D01*
X44378056Y-28332314D01*
X44051042Y-28196874D01*
X43834000Y-28308582D01*
X43526000Y-28308582D01*
X43308958Y-28196874D01*
X42981944Y-28332314D01*
X42567139Y-28692528D01*
X42321757Y-29184061D01*
X42432434Y-29401103D01*
X42314043Y-29401103D01*
X42248655Y-29072376D01*
X41988528Y-28683068D01*
X41599220Y-28422941D01*
X41140000Y-28331596D01*
X40680780Y-28422941D01*
X40291472Y-28683068D01*
X40031345Y-29072376D01*
X39940000Y-29531596D01*
X39800000Y-29531596D01*
X39708655Y-29072376D01*
X39448528Y-28683068D01*
X39059220Y-28422941D01*
X38600000Y-28331596D01*
X38140780Y-28422941D01*
X37751472Y-28683068D01*
X37491345Y-29072376D01*
X37412237Y-29470076D01*
X37249149Y-29633164D01*
X37260000Y-29578614D01*
X37260000Y-29531596D01*
X37168655Y-29072376D01*
X36908528Y-28683068D01*
X36519220Y-28422941D01*
X36060000Y-28331596D01*
X35600780Y-28422941D01*
X35211472Y-28683068D01*
X34951345Y-29072376D01*
X34860000Y-29531596D01*
X34860000Y-29578614D01*
X34951345Y-30037834D01*
X35211472Y-30427142D01*
X35600780Y-30687269D01*
X36060000Y-30778614D01*
X36114550Y-30767763D01*
X29073604Y-37808709D01*
X28878508Y-38100690D01*
X28810000Y-38445105D01*
X28810000Y-44420000D01*
X24324458Y-44420000D01*
X24302340Y-44385628D01*
X24168671Y-44294296D01*
X24010000Y-44262164D01*
X22710000Y-44262164D01*
X22561769Y-44290056D01*
X22425628Y-44377660D01*
X22334296Y-44511329D01*
X22302164Y-44670000D01*
X22302164Y-45970000D01*
X22330056Y-46118231D01*
X22417660Y-46254372D01*
X22551329Y-46345704D01*
X22710000Y-46377836D01*
X24010000Y-46377836D01*
X24158231Y-46349944D01*
X24294372Y-46262340D01*
X24323302Y-46220000D01*
X35687208Y-46220000D01*
X41198728Y-51731520D01*
X41277836Y-52129220D01*
X41537963Y-52518528D01*
X41927271Y-52778655D01*
X42386491Y-52870000D01*
X42433509Y-52870000D01*
X42892729Y-52778655D01*
X43282037Y-52518528D01*
X43542164Y-52129220D01*
X43633509Y-51670000D01*
X43542164Y-51210780D01*
X43282037Y-50821472D01*
X42892729Y-50561345D01*
X42495029Y-50482237D01*
X42331941Y-50319149D01*
X42386491Y-50330000D01*
X42433509Y-50330000D01*
X42892729Y-50238655D01*
X43282037Y-49978528D01*
X43542164Y-49589220D01*
X43633509Y-49130000D01*
X52616491Y-49130000D01*
X52707836Y-49589220D01*
X52967963Y-49978528D01*
X53357271Y-50238655D01*
X53816491Y-50330000D01*
X53863509Y-50330000D01*
X54322729Y-50238655D01*
X54712037Y-49978528D01*
X54972164Y-49589220D01*
X55063509Y-49130000D01*
X54972164Y-48670780D01*
X54712037Y-48281472D01*
X54322729Y-48021345D01*
X53863509Y-47930000D01*
X53816491Y-47930000D01*
X53357271Y-48021345D01*
X52967963Y-48281472D01*
X52707836Y-48670780D01*
X52616491Y-49130000D01*
X43633509Y-49130000D01*
X43542164Y-48670780D01*
X43282037Y-48281472D01*
X42892729Y-48021345D01*
X42433509Y-47930000D01*
X42386491Y-47930000D01*
X41927271Y-48021345D01*
X41537963Y-48281472D01*
X41277836Y-48670780D01*
X41186491Y-49130000D01*
X41197342Y-49184550D01*
X38232792Y-46220000D01*
X54737208Y-46220000D01*
X60248728Y-51731520D01*
X60327836Y-52129220D01*
X60587963Y-52518528D01*
X60977271Y-52778655D01*
X61436491Y-52870000D01*
X61483509Y-52870000D01*
X61942729Y-52778655D01*
X62004511Y-52737373D01*
X68290554Y-52737373D01*
X68402262Y-52954415D01*
X69494785Y-52954415D01*
X69494785Y-52934415D01*
X69802785Y-52934415D01*
X69802785Y-52954415D01*
X70895308Y-52954415D01*
X71007016Y-52737373D01*
X70871576Y-52410359D01*
X70511362Y-51995554D01*
X70019829Y-51750172D01*
X69802787Y-51860849D01*
X69802787Y-51742458D01*
X70131514Y-51677070D01*
X70520822Y-51416943D01*
X70780949Y-51027635D01*
X70872294Y-50568415D01*
X70780949Y-50109195D01*
X70520822Y-49719887D01*
X70131514Y-49459760D01*
X69672294Y-49368415D01*
X69625276Y-49368415D01*
X69166056Y-49459760D01*
X68776748Y-49719887D01*
X68516621Y-50109195D01*
X68425276Y-50568415D01*
X68516621Y-51027635D01*
X68776748Y-51416943D01*
X69166056Y-51677070D01*
X69494783Y-51742458D01*
X69494783Y-51860849D01*
X69277741Y-51750172D01*
X68786208Y-51995554D01*
X68425994Y-52410359D01*
X68290554Y-52737373D01*
X62004511Y-52737373D01*
X62332037Y-52518528D01*
X62592164Y-52129220D01*
X62683509Y-51670000D01*
X62592164Y-51210780D01*
X62332037Y-50821472D01*
X61942729Y-50561345D01*
X61545029Y-50482237D01*
X61381941Y-50319149D01*
X61436491Y-50330000D01*
X61483509Y-50330000D01*
X61942729Y-50238655D01*
X62332037Y-49978528D01*
X62592164Y-49589220D01*
X62683509Y-49130000D01*
X62592164Y-48670780D01*
X62332037Y-48281472D01*
X61953311Y-48028415D01*
X68425276Y-48028415D01*
X68516621Y-48487635D01*
X68776748Y-48876943D01*
X69166056Y-49137070D01*
X69625276Y-49228415D01*
X69672294Y-49228415D01*
X70131514Y-49137070D01*
X70520822Y-48876943D01*
X70780949Y-48487635D01*
X70872294Y-48028415D01*
X70780949Y-47569195D01*
X70520822Y-47179887D01*
X70131514Y-46919760D01*
X69672294Y-46828415D01*
X69625276Y-46828415D01*
X69166056Y-46919760D01*
X68776748Y-47179887D01*
X68516621Y-47569195D01*
X68425276Y-48028415D01*
X61953311Y-48028415D01*
X61942729Y-48021345D01*
X61483509Y-47930000D01*
X61436491Y-47930000D01*
X60977271Y-48021345D01*
X60587963Y-48281472D01*
X60327836Y-48670780D01*
X60236491Y-49130000D01*
X60247342Y-49184550D01*
X57282792Y-46220000D01*
X71647578Y-46220000D01*
X76057513Y-50629935D01*
X76136621Y-51027635D01*
X76396748Y-51416943D01*
X76786056Y-51677070D01*
X77245276Y-51768415D01*
X77292294Y-51768415D01*
X77751514Y-51677070D01*
X78140822Y-51416943D01*
X78400949Y-51027635D01*
X78492294Y-50568415D01*
X78400949Y-50109195D01*
X78140822Y-49719887D01*
X77751514Y-49459760D01*
X77353814Y-49380652D01*
X77190726Y-49217564D01*
X77245276Y-49228415D01*
X77292294Y-49228415D01*
X77751514Y-49137070D01*
X78140822Y-48876943D01*
X78242346Y-48725000D01*
X91236491Y-48725000D01*
X91327836Y-49184220D01*
X91587963Y-49573528D01*
X91977271Y-49833655D01*
X92436491Y-49925000D01*
X92483509Y-49925000D01*
X92942729Y-49833655D01*
X93332037Y-49573528D01*
X93592164Y-49184220D01*
X93683509Y-48725000D01*
X93592164Y-48265780D01*
X93332037Y-47876472D01*
X92942729Y-47616345D01*
X92483509Y-47525000D01*
X92436491Y-47525000D01*
X91977271Y-47616345D01*
X91587963Y-47876472D01*
X91327836Y-48265780D01*
X91236491Y-48725000D01*
X78242346Y-48725000D01*
X78400949Y-48487635D01*
X78492294Y-48028415D01*
X78400949Y-47569195D01*
X78140822Y-47179887D01*
X77751514Y-46919760D01*
X77292294Y-46828415D01*
X77245276Y-46828415D01*
X76786056Y-46919760D01*
X76396748Y-47179887D01*
X76136621Y-47569195D01*
X76045276Y-48028415D01*
X76056127Y-48082965D01*
X74193162Y-46220000D01*
X88795689Y-46220000D01*
X88700122Y-46450150D01*
X88699879Y-46728628D01*
X88806223Y-46986000D01*
X89002964Y-47183085D01*
X89260150Y-47289878D01*
X89538628Y-47290121D01*
X89796000Y-47183777D01*
X89993085Y-46987036D01*
X90099878Y-46729850D01*
X90100121Y-46451372D01*
X90004520Y-46220000D01*
X96800000Y-46220000D01*
X96800000Y-50016370D01*
X96868508Y-50360785D01*
X97063604Y-50652766D01*
X98312234Y-51901396D01*
X98604215Y-52096492D01*
X98948630Y-52165000D01*
X99284996Y-52165000D01*
X99597271Y-52373655D01*
X100056491Y-52465000D01*
X100103509Y-52465000D01*
X100562729Y-52373655D01*
X100952037Y-52113528D01*
X101212164Y-51724220D01*
X101303509Y-51265000D01*
X106476491Y-51265000D01*
X106567836Y-51724220D01*
X106827963Y-52113528D01*
X107217271Y-52373655D01*
X107676491Y-52465000D01*
X107723509Y-52465000D01*
X108182729Y-52373655D01*
X108572037Y-52113528D01*
X108832164Y-51724220D01*
X108923509Y-51265000D01*
X108832164Y-50805780D01*
X108572037Y-50416472D01*
X108182729Y-50156345D01*
X107723509Y-50065000D01*
X107676491Y-50065000D01*
X107217271Y-50156345D01*
X106827963Y-50416472D01*
X106567836Y-50805780D01*
X106476491Y-51265000D01*
X101303509Y-51265000D01*
X101212164Y-50805780D01*
X100952037Y-50416472D01*
X100562729Y-50156345D01*
X100103509Y-50065000D01*
X100056491Y-50065000D01*
X99597271Y-50156345D01*
X99306832Y-50350410D01*
X98600000Y-49643578D01*
X98600000Y-48725000D01*
X98856491Y-48725000D01*
X98947836Y-49184220D01*
X99207963Y-49573528D01*
X99597271Y-49833655D01*
X100056491Y-49925000D01*
X100103509Y-49925000D01*
X100562729Y-49833655D01*
X100952037Y-49573528D01*
X101212164Y-49184220D01*
X101303509Y-48725000D01*
X101212164Y-48265780D01*
X100952037Y-47876472D01*
X100562729Y-47616345D01*
X100103509Y-47525000D01*
X100056491Y-47525000D01*
X99597271Y-47616345D01*
X99207963Y-47876472D01*
X98947836Y-48265780D01*
X98856491Y-48725000D01*
X98600000Y-48725000D01*
X98600000Y-46220000D01*
X106462208Y-46220000D01*
X114108728Y-53866520D01*
X114187836Y-54264220D01*
X114447963Y-54653528D01*
X114837271Y-54913655D01*
X115296491Y-55005000D01*
X115343509Y-55005000D01*
X115802729Y-54913655D01*
X115970001Y-54801888D01*
X115970001Y-55348112D01*
X115802729Y-55236345D01*
X115343509Y-55145000D01*
X115296491Y-55145000D01*
X114837271Y-55236345D01*
X114447963Y-55496472D01*
X114187836Y-55885780D01*
X114096491Y-56345000D01*
X114187836Y-56804220D01*
X114447963Y-57193528D01*
X114837271Y-57453655D01*
X115296491Y-57545000D01*
X115343509Y-57545000D01*
X115802729Y-57453655D01*
X115970001Y-57341888D01*
X115970001Y-57888112D01*
X115802729Y-57776345D01*
X115343509Y-57685000D01*
X115296491Y-57685000D01*
X114837271Y-57776345D01*
X114447963Y-58036472D01*
X114187836Y-58425780D01*
X114096491Y-58885000D01*
X114187836Y-59344220D01*
X114447963Y-59733528D01*
X114837271Y-59993655D01*
X115146396Y-60055144D01*
X109226540Y-65975000D01*
X105944002Y-65975000D01*
X105743093Y-66014963D01*
X105572771Y-66128769D01*
X104451540Y-67250000D01*
X101224239Y-67250000D01*
X101214078Y-67225408D01*
X100941029Y-66951882D01*
X100668091Y-66838549D01*
X101971231Y-65535409D01*
X102085037Y-65365087D01*
X102125000Y-65164178D01*
X102125000Y-62250509D01*
X105234491Y-62250509D01*
X105578906Y-62182001D01*
X105870887Y-61986905D01*
X107785029Y-60072763D01*
X108182729Y-59993655D01*
X108572037Y-59733528D01*
X108788211Y-59410000D01*
X108831370Y-59410000D01*
X109032279Y-59370037D01*
X109202601Y-59256231D01*
X111496231Y-56962601D01*
X111610037Y-56792279D01*
X111650000Y-56591370D01*
X111650000Y-54065002D01*
X111718085Y-53997036D01*
X111824878Y-53739850D01*
X111825121Y-53461372D01*
X111718777Y-53204000D01*
X111522036Y-53006915D01*
X111264850Y-52900122D01*
X110986372Y-52899879D01*
X110729000Y-53006223D01*
X110531915Y-53202964D01*
X110425122Y-53460150D01*
X110424879Y-53738628D01*
X110531223Y-53996000D01*
X110600000Y-54064897D01*
X110600000Y-56373908D01*
X108718395Y-58255513D01*
X108572037Y-58036472D01*
X108182729Y-57776345D01*
X107854002Y-57710957D01*
X107854002Y-57592566D01*
X108071044Y-57703243D01*
X108562577Y-57457861D01*
X108922791Y-57043056D01*
X109058231Y-56716042D01*
X108946523Y-56499000D01*
X107854000Y-56499000D01*
X107854000Y-56519000D01*
X107546000Y-56519000D01*
X107546000Y-56499000D01*
X106453477Y-56499000D01*
X106341769Y-56716042D01*
X106477209Y-57043056D01*
X106837423Y-57457861D01*
X107328956Y-57703243D01*
X107545998Y-57592566D01*
X107545998Y-57710957D01*
X107217271Y-57776345D01*
X106827963Y-58036472D01*
X106567836Y-58425780D01*
X106488728Y-58823480D01*
X104861699Y-60450509D01*
X90758653Y-60450509D01*
X93096396Y-58112766D01*
X93291492Y-57820785D01*
X93360000Y-57476370D01*
X93360000Y-57151678D01*
X93592164Y-56804220D01*
X93683509Y-56345000D01*
X98856491Y-56345000D01*
X98947836Y-56804220D01*
X99207963Y-57193528D01*
X99597271Y-57453655D01*
X100056491Y-57545000D01*
X100103509Y-57545000D01*
X100562729Y-57453655D01*
X100952037Y-57193528D01*
X101212164Y-56804220D01*
X101303509Y-56345000D01*
X101229704Y-55973958D01*
X106341769Y-55973958D01*
X106453477Y-56191000D01*
X107546000Y-56191000D01*
X107546000Y-56171000D01*
X107854000Y-56171000D01*
X107854000Y-56191000D01*
X108946523Y-56191000D01*
X109058231Y-55973958D01*
X108922791Y-55646944D01*
X108562577Y-55232139D01*
X108071044Y-54986757D01*
X107854002Y-55097434D01*
X107854002Y-54979043D01*
X108182729Y-54913655D01*
X108572037Y-54653528D01*
X108832164Y-54264220D01*
X108923509Y-53805000D01*
X108832164Y-53345780D01*
X108572037Y-52956472D01*
X108182729Y-52696345D01*
X107723509Y-52605000D01*
X107676491Y-52605000D01*
X107217271Y-52696345D01*
X106827963Y-52956472D01*
X106567836Y-53345780D01*
X106476491Y-53805000D01*
X106567836Y-54264220D01*
X106827963Y-54653528D01*
X107217271Y-54913655D01*
X107545998Y-54979043D01*
X107545998Y-55097434D01*
X107328956Y-54986757D01*
X106837423Y-55232139D01*
X106477209Y-55646944D01*
X106341769Y-55973958D01*
X101229704Y-55973958D01*
X101212164Y-55885780D01*
X100952037Y-55496472D01*
X100562729Y-55236345D01*
X100103509Y-55145000D01*
X100056491Y-55145000D01*
X99597271Y-55236345D01*
X99207963Y-55496472D01*
X98947836Y-55885780D01*
X98856491Y-56345000D01*
X93683509Y-56345000D01*
X93603698Y-55943764D01*
X95742462Y-53805000D01*
X98856491Y-53805000D01*
X98947836Y-54264220D01*
X99207963Y-54653528D01*
X99597271Y-54913655D01*
X100056491Y-55005000D01*
X100103509Y-55005000D01*
X100562729Y-54913655D01*
X100952037Y-54653528D01*
X101212164Y-54264220D01*
X101303509Y-53805000D01*
X101212164Y-53345780D01*
X100952037Y-52956472D01*
X100562729Y-52696345D01*
X100103509Y-52605000D01*
X100056491Y-52605000D01*
X99597271Y-52696345D01*
X99207963Y-52956472D01*
X98947836Y-53345780D01*
X98856491Y-53805000D01*
X95742462Y-53805000D01*
X96021231Y-53526231D01*
X96135037Y-53355909D01*
X96175000Y-53155000D01*
X96175000Y-51190002D01*
X96243085Y-51122036D01*
X96349878Y-50864850D01*
X96350121Y-50586372D01*
X96243777Y-50329000D01*
X96047036Y-50131915D01*
X95789850Y-50025122D01*
X95511372Y-50024879D01*
X95254000Y-50131223D01*
X95056915Y-50327964D01*
X94950122Y-50585150D01*
X94949879Y-50863628D01*
X95056223Y-51121000D01*
X95125000Y-51189897D01*
X95125000Y-52937538D01*
X93769969Y-54292569D01*
X93818231Y-54176042D01*
X93706523Y-53959000D01*
X92614000Y-53959000D01*
X92614000Y-53979000D01*
X92306000Y-53979000D01*
X92306000Y-53959000D01*
X91213477Y-53959000D01*
X91101769Y-54176042D01*
X91237209Y-54503056D01*
X91597423Y-54917861D01*
X92088956Y-55163243D01*
X92305998Y-55052566D01*
X92305998Y-55170957D01*
X91977271Y-55236345D01*
X91587963Y-55496472D01*
X91327836Y-55885780D01*
X91236491Y-56345000D01*
X91327836Y-56804220D01*
X91540734Y-57122844D01*
X88213069Y-60450509D01*
X81035000Y-60450509D01*
X81035000Y-53433958D01*
X91101769Y-53433958D01*
X91213477Y-53651000D01*
X92306000Y-53651000D01*
X92306000Y-53631000D01*
X92614000Y-53631000D01*
X92614000Y-53651000D01*
X93706523Y-53651000D01*
X93818231Y-53433958D01*
X93682791Y-53106944D01*
X93322577Y-52692139D01*
X92831044Y-52446757D01*
X92614002Y-52557434D01*
X92614002Y-52439043D01*
X92942729Y-52373655D01*
X93332037Y-52113528D01*
X93592164Y-51724220D01*
X93683509Y-51265000D01*
X93592164Y-50805780D01*
X93332037Y-50416472D01*
X92942729Y-50156345D01*
X92483509Y-50065000D01*
X92436491Y-50065000D01*
X91977271Y-50156345D01*
X91587963Y-50416472D01*
X91327836Y-50805780D01*
X91236491Y-51265000D01*
X91327836Y-51724220D01*
X91587963Y-52113528D01*
X91977271Y-52373655D01*
X92305998Y-52439043D01*
X92305998Y-52557434D01*
X92088956Y-52446757D01*
X91597423Y-52692139D01*
X91237209Y-53106944D01*
X91101769Y-53433958D01*
X81035000Y-53433958D01*
X81035000Y-53405002D01*
X81103085Y-53337036D01*
X81209878Y-53079850D01*
X81210121Y-52801372D01*
X81103777Y-52544000D01*
X80907036Y-52346915D01*
X80649850Y-52240122D01*
X80371372Y-52239879D01*
X80114000Y-52346223D01*
X79916915Y-52542964D01*
X79810122Y-52800150D01*
X79809879Y-53078628D01*
X79916223Y-53336000D01*
X79985000Y-53404897D01*
X79985000Y-60450509D01*
X66119483Y-60450509D01*
X69733814Y-56836178D01*
X70131514Y-56757070D01*
X70520822Y-56496943D01*
X70736996Y-56173415D01*
X70780155Y-56173415D01*
X70981064Y-56133452D01*
X71151386Y-56019646D01*
X71522617Y-55648415D01*
X76045276Y-55648415D01*
X76136621Y-56107635D01*
X76396748Y-56496943D01*
X76786056Y-56757070D01*
X77245276Y-56848415D01*
X77292294Y-56848415D01*
X77751514Y-56757070D01*
X78140822Y-56496943D01*
X78400949Y-56107635D01*
X78492294Y-55648415D01*
X78400949Y-55189195D01*
X78140822Y-54799887D01*
X77751514Y-54539760D01*
X77292294Y-54448415D01*
X77245276Y-54448415D01*
X76786056Y-54539760D01*
X76396748Y-54799887D01*
X76136621Y-55189195D01*
X76045276Y-55648415D01*
X71522617Y-55648415D01*
X73171231Y-53999801D01*
X73285037Y-53829479D01*
X73325000Y-53628570D01*
X73325000Y-53108415D01*
X76045276Y-53108415D01*
X76136621Y-53567635D01*
X76396748Y-53956943D01*
X76786056Y-54217070D01*
X77245276Y-54308415D01*
X77292294Y-54308415D01*
X77751514Y-54217070D01*
X78140822Y-53956943D01*
X78400949Y-53567635D01*
X78492294Y-53108415D01*
X78400949Y-52649195D01*
X78140822Y-52259887D01*
X77751514Y-51999760D01*
X77292294Y-51908415D01*
X77245276Y-51908415D01*
X76786056Y-51999760D01*
X76396748Y-52259887D01*
X76136621Y-52649195D01*
X76045276Y-53108415D01*
X73325000Y-53108415D01*
X73325000Y-51265002D01*
X73393085Y-51197036D01*
X73499878Y-50939850D01*
X73500121Y-50661372D01*
X73393777Y-50404000D01*
X73197036Y-50206915D01*
X72939850Y-50100122D01*
X72661372Y-50099879D01*
X72404000Y-50206223D01*
X72206915Y-50402964D01*
X72100122Y-50660150D01*
X72099879Y-50938628D01*
X72206223Y-51196000D01*
X72275000Y-51264897D01*
X72275000Y-53411108D01*
X70667180Y-55018928D01*
X70520822Y-54799887D01*
X70131514Y-54539760D01*
X69802787Y-54474372D01*
X69802787Y-54355981D01*
X70019829Y-54466658D01*
X70511362Y-54221276D01*
X70871576Y-53806471D01*
X71007016Y-53479457D01*
X70895308Y-53262415D01*
X69802785Y-53262415D01*
X69802785Y-53282415D01*
X69494785Y-53282415D01*
X69494785Y-53262415D01*
X68402262Y-53262415D01*
X68290554Y-53479457D01*
X68425994Y-53806471D01*
X68786208Y-54221276D01*
X69277741Y-54466658D01*
X69494783Y-54355981D01*
X69494783Y-54474372D01*
X69166056Y-54539760D01*
X68776748Y-54799887D01*
X68516621Y-55189195D01*
X68437513Y-55586895D01*
X63573899Y-60450509D01*
X51412283Y-60450509D01*
X53925029Y-57937763D01*
X54322729Y-57858655D01*
X54712037Y-57598528D01*
X54928211Y-57275000D01*
X54971370Y-57275000D01*
X55172279Y-57235037D01*
X55342601Y-57121231D01*
X55713832Y-56750000D01*
X60236491Y-56750000D01*
X60327836Y-57209220D01*
X60587963Y-57598528D01*
X60977271Y-57858655D01*
X61436491Y-57950000D01*
X61483509Y-57950000D01*
X61942729Y-57858655D01*
X62332037Y-57598528D01*
X62592164Y-57209220D01*
X62683509Y-56750000D01*
X62592164Y-56290780D01*
X62332037Y-55901472D01*
X61942729Y-55641345D01*
X61483509Y-55550000D01*
X61436491Y-55550000D01*
X60977271Y-55641345D01*
X60587963Y-55901472D01*
X60327836Y-56290780D01*
X60236491Y-56750000D01*
X55713832Y-56750000D01*
X56171231Y-56292601D01*
X56285037Y-56122279D01*
X56325000Y-55921370D01*
X56325000Y-54210000D01*
X60236491Y-54210000D01*
X60327836Y-54669220D01*
X60587963Y-55058528D01*
X60977271Y-55318655D01*
X61436491Y-55410000D01*
X61483509Y-55410000D01*
X61942729Y-55318655D01*
X62332037Y-55058528D01*
X62592164Y-54669220D01*
X62683509Y-54210000D01*
X62592164Y-53750780D01*
X62332037Y-53361472D01*
X61942729Y-53101345D01*
X61483509Y-53010000D01*
X61436491Y-53010000D01*
X60977271Y-53101345D01*
X60587963Y-53361472D01*
X60327836Y-53750780D01*
X60236491Y-54210000D01*
X56325000Y-54210000D01*
X56325000Y-53817462D01*
X56442425Y-53700037D01*
X56538628Y-53700121D01*
X56796000Y-53593777D01*
X56993085Y-53397036D01*
X57099878Y-53139850D01*
X57100121Y-52861372D01*
X56993777Y-52604000D01*
X56797036Y-52406915D01*
X56539850Y-52300122D01*
X56261372Y-52299879D01*
X56004000Y-52406223D01*
X55806915Y-52602964D01*
X55700122Y-52860150D01*
X55700037Y-52957501D01*
X55428769Y-53228769D01*
X55314963Y-53399091D01*
X55275000Y-53600000D01*
X55275000Y-55703908D01*
X54858395Y-56120513D01*
X54712037Y-55901472D01*
X54322729Y-55641345D01*
X53994002Y-55575957D01*
X53994002Y-55457566D01*
X54211044Y-55568243D01*
X54702577Y-55322861D01*
X55062791Y-54908056D01*
X55198231Y-54581042D01*
X55086523Y-54364000D01*
X53994000Y-54364000D01*
X53994000Y-54384000D01*
X53686000Y-54384000D01*
X53686000Y-54364000D01*
X52593477Y-54364000D01*
X52481769Y-54581042D01*
X52617209Y-54908056D01*
X52977423Y-55322861D01*
X53468956Y-55568243D01*
X53685998Y-55457566D01*
X53685998Y-55575957D01*
X53357271Y-55641345D01*
X52967963Y-55901472D01*
X52707836Y-56290780D01*
X52628728Y-56688480D01*
X48467208Y-60850000D01*
X31962792Y-60850000D01*
X34875029Y-57937763D01*
X35272729Y-57858655D01*
X35662037Y-57598528D01*
X35922164Y-57209220D01*
X36013509Y-56750000D01*
X41186491Y-56750000D01*
X41277836Y-57209220D01*
X41537963Y-57598528D01*
X41927271Y-57858655D01*
X42386491Y-57950000D01*
X42433509Y-57950000D01*
X42892729Y-57858655D01*
X43282037Y-57598528D01*
X43542164Y-57209220D01*
X43633509Y-56750000D01*
X43542164Y-56290780D01*
X43282037Y-55901472D01*
X42892729Y-55641345D01*
X42433509Y-55550000D01*
X42386491Y-55550000D01*
X41927271Y-55641345D01*
X41537963Y-55901472D01*
X41277836Y-56290780D01*
X41186491Y-56750000D01*
X36013509Y-56750000D01*
X35933698Y-56348764D01*
X37771231Y-54511231D01*
X37885037Y-54340909D01*
X37911076Y-54210000D01*
X41186491Y-54210000D01*
X41277836Y-54669220D01*
X41537963Y-55058528D01*
X41927271Y-55318655D01*
X42386491Y-55410000D01*
X42433509Y-55410000D01*
X42892729Y-55318655D01*
X43282037Y-55058528D01*
X43542164Y-54669220D01*
X43633509Y-54210000D01*
X43559704Y-53838958D01*
X52481769Y-53838958D01*
X52593477Y-54056000D01*
X53686000Y-54056000D01*
X53686000Y-54036000D01*
X53994000Y-54036000D01*
X53994000Y-54056000D01*
X55086523Y-54056000D01*
X55198231Y-53838958D01*
X55062791Y-53511944D01*
X54702577Y-53097139D01*
X54211044Y-52851757D01*
X53994002Y-52962434D01*
X53994002Y-52844043D01*
X54322729Y-52778655D01*
X54712037Y-52518528D01*
X54972164Y-52129220D01*
X55063509Y-51670000D01*
X54972164Y-51210780D01*
X54712037Y-50821472D01*
X54322729Y-50561345D01*
X53863509Y-50470000D01*
X53816491Y-50470000D01*
X53357271Y-50561345D01*
X52967963Y-50821472D01*
X52707836Y-51210780D01*
X52616491Y-51670000D01*
X52707836Y-52129220D01*
X52967963Y-52518528D01*
X53357271Y-52778655D01*
X53685998Y-52844043D01*
X53685998Y-52962434D01*
X53468956Y-52851757D01*
X52977423Y-53097139D01*
X52617209Y-53511944D01*
X52481769Y-53838958D01*
X43559704Y-53838958D01*
X43542164Y-53750780D01*
X43282037Y-53361472D01*
X42892729Y-53101345D01*
X42433509Y-53010000D01*
X42386491Y-53010000D01*
X41927271Y-53101345D01*
X41537963Y-53361472D01*
X41277836Y-53750780D01*
X41186491Y-54210000D01*
X37911076Y-54210000D01*
X37925000Y-54140000D01*
X37925000Y-52338628D01*
X38099879Y-52338628D01*
X38206223Y-52596000D01*
X38402964Y-52793085D01*
X38660150Y-52899878D01*
X38938628Y-52900121D01*
X39196000Y-52793777D01*
X39393085Y-52597036D01*
X39499878Y-52339850D01*
X39500121Y-52061372D01*
X39393777Y-51804000D01*
X39197036Y-51606915D01*
X38939850Y-51500122D01*
X38661372Y-51499879D01*
X38404000Y-51606223D01*
X38206915Y-51802964D01*
X38100122Y-52060150D01*
X38099879Y-52338628D01*
X37925000Y-52338628D01*
X37925000Y-49865002D01*
X37993085Y-49797036D01*
X38099878Y-49539850D01*
X38100121Y-49261372D01*
X37993777Y-49004000D01*
X37797036Y-48806915D01*
X37539850Y-48700122D01*
X37261372Y-48699879D01*
X37004000Y-48806223D01*
X36806915Y-49002964D01*
X36700122Y-49260150D01*
X36699879Y-49538628D01*
X36806223Y-49796000D01*
X36875000Y-49864897D01*
X36875000Y-53922538D01*
X36099969Y-54697569D01*
X36148231Y-54581042D01*
X36036523Y-54364000D01*
X34944000Y-54364000D01*
X34944000Y-54384000D01*
X34636000Y-54384000D01*
X34636000Y-54364000D01*
X33543477Y-54364000D01*
X33431769Y-54581042D01*
X33567209Y-54908056D01*
X33927423Y-55322861D01*
X34418956Y-55568243D01*
X34635998Y-55457566D01*
X34635998Y-55575957D01*
X34307271Y-55641345D01*
X33917963Y-55901472D01*
X33657836Y-56290780D01*
X33578728Y-56688480D01*
X29417208Y-60850000D01*
X23930575Y-60850000D01*
X23569774Y-60700182D01*
X23152058Y-60699818D01*
X22766000Y-60859334D01*
X22470372Y-61154446D01*
X22310182Y-61540226D01*
X22309818Y-61957942D01*
X22469334Y-62344000D01*
X22764446Y-62639628D01*
X23150226Y-62799818D01*
X23567942Y-62800182D01*
X23931410Y-62650000D01*
X48840000Y-62650000D01*
X49184415Y-62581492D01*
X49476396Y-62386396D01*
X49612283Y-62250509D01*
X63814414Y-62250509D01*
X63814414Y-64099490D01*
X63842306Y-64247721D01*
X63929910Y-64383862D01*
X64063579Y-64475194D01*
X64222250Y-64507326D01*
X66221230Y-64507326D01*
X66369461Y-64479434D01*
X66505602Y-64391830D01*
X66596934Y-64258161D01*
X66629066Y-64099490D01*
X66629066Y-62250509D01*
X73816934Y-62250509D01*
X73816934Y-64099490D01*
X73844826Y-64247721D01*
X73932430Y-64383862D01*
X74066099Y-64475194D01*
X74224770Y-64507326D01*
X76223750Y-64507326D01*
X76371981Y-64479434D01*
X76508122Y-64391830D01*
X76599454Y-64258161D01*
X76631586Y-64099490D01*
X76631586Y-63370510D01*
X86674414Y-63370510D01*
X86674414Y-65369490D01*
X86702306Y-65517721D01*
X86789910Y-65653862D01*
X86923579Y-65745194D01*
X87082250Y-65777326D01*
X89081230Y-65777326D01*
X89229461Y-65749434D01*
X89365602Y-65661830D01*
X89456934Y-65528161D01*
X89489066Y-65369490D01*
X89489066Y-63370510D01*
X96676934Y-63370510D01*
X96676934Y-65369490D01*
X96704826Y-65517721D01*
X96792430Y-65653862D01*
X96926099Y-65745194D01*
X97084770Y-65777326D01*
X99083750Y-65777326D01*
X99231981Y-65749434D01*
X99368122Y-65661830D01*
X99459454Y-65528161D01*
X99491586Y-65369490D01*
X99491586Y-63370510D01*
X99463694Y-63222279D01*
X99376090Y-63086138D01*
X99242421Y-62994806D01*
X99083750Y-62962674D01*
X97084770Y-62962674D01*
X96936539Y-62990566D01*
X96800398Y-63078170D01*
X96709066Y-63211839D01*
X96676934Y-63370510D01*
X89489066Y-63370510D01*
X89461174Y-63222279D01*
X89373570Y-63086138D01*
X89239901Y-62994806D01*
X89081230Y-62962674D01*
X87082250Y-62962674D01*
X86934019Y-62990566D01*
X86797878Y-63078170D01*
X86706546Y-63211839D01*
X86674414Y-63370510D01*
X76631586Y-63370510D01*
X76631586Y-62250509D01*
X99384345Y-62250509D01*
X99380122Y-62260679D01*
X99379879Y-62539157D01*
X99486223Y-62796529D01*
X99555000Y-62865426D01*
X99555000Y-65759594D01*
X98128769Y-67185825D01*
X98014963Y-67356147D01*
X97975000Y-67557056D01*
X97975000Y-76045000D01*
X98014963Y-76245909D01*
X98128769Y-76416231D01*
X99283123Y-77570585D01*
X99228202Y-77702850D01*
X99227799Y-78165122D01*
X99404330Y-78592360D01*
X99730920Y-78919521D01*
X100157850Y-79096798D01*
X100620122Y-79097201D01*
X101047360Y-78920670D01*
X101374521Y-78594080D01*
X101430196Y-78460000D01*
X105459640Y-78460000D01*
X105514330Y-78592360D01*
X105840920Y-78919521D01*
X106267850Y-79096798D01*
X106730122Y-79097201D01*
X106864298Y-79041760D01*
X108268770Y-80446232D01*
X108439092Y-80560038D01*
X108640001Y-80600001D01*
X114952369Y-80600001D01*
X115153278Y-80560038D01*
X115323600Y-80446232D01*
X115344047Y-80425785D01*
X122849628Y-80425785D01*
X123176256Y-81216286D01*
X123780533Y-81821619D01*
X124570462Y-82149626D01*
X125425785Y-82150372D01*
X126216286Y-81823744D01*
X126821619Y-81219467D01*
X127149626Y-80429538D01*
X127150372Y-79574215D01*
X126823744Y-78783714D01*
X126219467Y-78178381D01*
X125429538Y-77850374D01*
X124574215Y-77849628D01*
X123783714Y-78176256D01*
X123178381Y-78780533D01*
X122850374Y-79570462D01*
X122849628Y-80425785D01*
X115344047Y-80425785D01*
X117309832Y-78460000D01*
X117959640Y-78460000D01*
X118014330Y-78592360D01*
X118340920Y-78919521D01*
X118767850Y-79096798D01*
X119230122Y-79097201D01*
X119657360Y-78920670D01*
X119984521Y-78594080D01*
X120161798Y-78167150D01*
X120162201Y-77704878D01*
X119985670Y-77277640D01*
X119659080Y-76950479D01*
X119232150Y-76773202D01*
X118769878Y-76772799D01*
X118342640Y-76949330D01*
X118015479Y-77275920D01*
X117959804Y-77410000D01*
X117092370Y-77410000D01*
X116891461Y-77449963D01*
X116721139Y-77563769D01*
X114734907Y-79550001D01*
X113880143Y-79550001D01*
X113936170Y-79494072D01*
X114149757Y-78979699D01*
X114150243Y-78422744D01*
X113937555Y-77908000D01*
X113544072Y-77513830D01*
X113029699Y-77300243D01*
X112472744Y-77299757D01*
X111958000Y-77512445D01*
X111563830Y-77905928D01*
X111350243Y-78420301D01*
X111349757Y-78977256D01*
X111562445Y-79492000D01*
X111620345Y-79550001D01*
X108857463Y-79550001D01*
X107606877Y-78299415D01*
X107661798Y-78167150D01*
X107662201Y-77704878D01*
X107485670Y-77277640D01*
X107159080Y-76950479D01*
X106732150Y-76773202D01*
X106269878Y-76772799D01*
X105842640Y-76949330D01*
X105515479Y-77275920D01*
X105459804Y-77410000D01*
X101430360Y-77410000D01*
X101375670Y-77277640D01*
X101049080Y-76950479D01*
X100622150Y-76773202D01*
X100159878Y-76772799D01*
X100025702Y-76828240D01*
X99025000Y-75827538D01*
X99025000Y-75625122D01*
X99227799Y-75625122D01*
X99404330Y-76052360D01*
X99730920Y-76379521D01*
X100157850Y-76556798D01*
X100620122Y-76557201D01*
X101047360Y-76380670D01*
X101374521Y-76054080D01*
X101551798Y-75627150D01*
X101551799Y-75625122D01*
X105337799Y-75625122D01*
X105514330Y-76052360D01*
X105840920Y-76379521D01*
X106267850Y-76556798D01*
X106730122Y-76557201D01*
X107157360Y-76380670D01*
X107484521Y-76054080D01*
X107661798Y-75627150D01*
X107661799Y-75625122D01*
X117837799Y-75625122D01*
X118014330Y-76052360D01*
X118340920Y-76379521D01*
X118767850Y-76556798D01*
X119230122Y-76557201D01*
X119657360Y-76380670D01*
X119984521Y-76054080D01*
X120161798Y-75627150D01*
X120162201Y-75164878D01*
X119985670Y-74737640D01*
X119659080Y-74410479D01*
X119232150Y-74233202D01*
X118769878Y-74232799D01*
X118342640Y-74409330D01*
X118015479Y-74735920D01*
X117838202Y-75162850D01*
X117837799Y-75625122D01*
X107661799Y-75625122D01*
X107662201Y-75164878D01*
X107485670Y-74737640D01*
X107159080Y-74410479D01*
X106838244Y-74277256D01*
X111349757Y-74277256D01*
X111562445Y-74792000D01*
X111955928Y-75186170D01*
X112470301Y-75399757D01*
X113027256Y-75400243D01*
X113542000Y-75187555D01*
X113936170Y-74794072D01*
X114149757Y-74279699D01*
X114150243Y-73722744D01*
X113937555Y-73208000D01*
X113544072Y-72813830D01*
X113029699Y-72600243D01*
X112472744Y-72599757D01*
X111958000Y-72812445D01*
X111563830Y-73205928D01*
X111350243Y-73720301D01*
X111349757Y-74277256D01*
X106838244Y-74277256D01*
X106732150Y-74233202D01*
X106269878Y-74232799D01*
X105842640Y-74409330D01*
X105515479Y-74735920D01*
X105338202Y-75162850D01*
X105337799Y-75625122D01*
X101551799Y-75625122D01*
X101552201Y-75164878D01*
X101375670Y-74737640D01*
X101049080Y-74410479D01*
X100622150Y-74233202D01*
X100159878Y-74232799D01*
X99732640Y-74409330D01*
X99405479Y-74735920D01*
X99228202Y-75162850D01*
X99227799Y-75625122D01*
X99025000Y-75625122D01*
X99025000Y-72208989D01*
X99072268Y-72279730D01*
X99283123Y-72490585D01*
X99228202Y-72622850D01*
X99227799Y-73085122D01*
X99404330Y-73512360D01*
X99730920Y-73839521D01*
X100157850Y-74016798D01*
X100620122Y-74017201D01*
X101047360Y-73840670D01*
X101374521Y-73514080D01*
X101430196Y-73380000D01*
X105459640Y-73380000D01*
X105514330Y-73512360D01*
X105840920Y-73839521D01*
X106267850Y-74016798D01*
X106730122Y-74017201D01*
X107157360Y-73840670D01*
X107484521Y-73514080D01*
X107661798Y-73087150D01*
X107662201Y-72624878D01*
X107606760Y-72490702D01*
X107956063Y-72141399D01*
X117543937Y-72141399D01*
X117893123Y-72490585D01*
X117838202Y-72622850D01*
X117837799Y-73085122D01*
X118014330Y-73512360D01*
X118340920Y-73839521D01*
X118767850Y-74016798D01*
X119230122Y-74017201D01*
X119657360Y-73840670D01*
X119984521Y-73514080D01*
X120161798Y-73087150D01*
X120162201Y-72624878D01*
X119985670Y-72197640D01*
X119659080Y-71870479D01*
X119232150Y-71693202D01*
X118769878Y-71692799D01*
X118635702Y-71748240D01*
X118132630Y-71245168D01*
X117962308Y-71131362D01*
X117761399Y-71091399D01*
X107738601Y-71091399D01*
X107537692Y-71131362D01*
X107367370Y-71245168D01*
X106864415Y-71748123D01*
X106732150Y-71693202D01*
X106269878Y-71692799D01*
X105842640Y-71869330D01*
X105515479Y-72195920D01*
X105459804Y-72330000D01*
X101430360Y-72330000D01*
X101375670Y-72197640D01*
X101049080Y-71870479D01*
X100622150Y-71693202D01*
X100159878Y-71692799D01*
X100025702Y-71748240D01*
X99968499Y-71691037D01*
X99968499Y-69577256D01*
X111349757Y-69577256D01*
X111562445Y-70092000D01*
X111955928Y-70486170D01*
X112470301Y-70699757D01*
X113027256Y-70700243D01*
X113542000Y-70487555D01*
X113936170Y-70094072D01*
X114149757Y-69579699D01*
X114150243Y-69022744D01*
X113937555Y-68508000D01*
X113872066Y-68442396D01*
X118028332Y-68442396D01*
X118175922Y-68799592D01*
X118448971Y-69073118D01*
X118805909Y-69221331D01*
X119192396Y-69221668D01*
X119549592Y-69074078D01*
X119823118Y-68801029D01*
X119971331Y-68444091D01*
X119971668Y-68057604D01*
X119824078Y-67700408D01*
X119551029Y-67426882D01*
X119194091Y-67278669D01*
X118807604Y-67278332D01*
X118450408Y-67425922D01*
X118176882Y-67698971D01*
X118028669Y-68055909D01*
X118028332Y-68442396D01*
X113872066Y-68442396D01*
X113544072Y-68113830D01*
X113029699Y-67900243D01*
X112472744Y-67899757D01*
X111958000Y-68112445D01*
X111563830Y-68505928D01*
X111350243Y-69020301D01*
X111349757Y-69577256D01*
X99968499Y-69577256D01*
X99968499Y-68651903D01*
X100195909Y-68746331D01*
X100582396Y-68746668D01*
X100939592Y-68599078D01*
X101213118Y-68326029D01*
X101223926Y-68300000D01*
X104669002Y-68300000D01*
X104869911Y-68260037D01*
X105040233Y-68146231D01*
X105884494Y-67301970D01*
X105768669Y-67580909D01*
X105768332Y-67967396D01*
X105915922Y-68324592D01*
X106188971Y-68598118D01*
X106545909Y-68746331D01*
X106932396Y-68746668D01*
X107289592Y-68599078D01*
X107563118Y-68326029D01*
X107573926Y-68300000D01*
X110240000Y-68300000D01*
X110440909Y-68260037D01*
X110611231Y-68146231D01*
X117366243Y-61391219D01*
X117480049Y-61220897D01*
X117520012Y-61019988D01*
X117520012Y-44748220D01*
X117480049Y-44547311D01*
X117366243Y-44376989D01*
X117020001Y-44030747D01*
X117020001Y-40048761D01*
X116980038Y-39847852D01*
X116866232Y-39677530D01*
X110958995Y-33770293D01*
X115072270Y-33770293D01*
X115262114Y-34229751D01*
X115613334Y-34581584D01*
X116072460Y-34772230D01*
X116569593Y-34772664D01*
X117029051Y-34582820D01*
X117380884Y-34231600D01*
X117571530Y-33772474D01*
X117571964Y-33275341D01*
X117382120Y-32815883D01*
X117030900Y-32464050D01*
X116571774Y-32273404D01*
X116074641Y-32272970D01*
X115615183Y-32462814D01*
X115263350Y-32814034D01*
X115072704Y-33273160D01*
X115072270Y-33770293D01*
X110958995Y-33770293D01*
X107335519Y-30146817D01*
X107411010Y-29965014D01*
X107411444Y-29467881D01*
X107221600Y-29008423D01*
X107079153Y-28865727D01*
X115064131Y-28865727D01*
X115064131Y-30564987D01*
X115092023Y-30713218D01*
X115179627Y-30849359D01*
X115313296Y-30940691D01*
X115471967Y-30972823D01*
X117171227Y-30972823D01*
X117319458Y-30944931D01*
X117455599Y-30857327D01*
X117546931Y-30723658D01*
X117579063Y-30564987D01*
X117579063Y-28865727D01*
X117551171Y-28717496D01*
X117463567Y-28581355D01*
X117329898Y-28490023D01*
X117171227Y-28457891D01*
X115471967Y-28457891D01*
X115323736Y-28485783D01*
X115187595Y-28573387D01*
X115096263Y-28707056D01*
X115064131Y-28865727D01*
X107079153Y-28865727D01*
X106870380Y-28656590D01*
X106411254Y-28465944D01*
X105914121Y-28465510D01*
X105454663Y-28655354D01*
X105102830Y-29006574D01*
X104912184Y-29465700D01*
X104911750Y-29962833D01*
X105101594Y-30422291D01*
X105452814Y-30774124D01*
X105911940Y-30964770D01*
X106409073Y-30965204D01*
X106592989Y-30889211D01*
X115970001Y-40266223D01*
X115970001Y-43687869D01*
X107054391Y-34772259D01*
X107159978Y-34752391D01*
X107296119Y-34664787D01*
X107387451Y-34531118D01*
X107419583Y-34372447D01*
X107419583Y-32673187D01*
X107391691Y-32524956D01*
X107304087Y-32388815D01*
X107170418Y-32297483D01*
X107011747Y-32265351D01*
X105312487Y-32265351D01*
X105164256Y-32293243D01*
X105028115Y-32380847D01*
X104936783Y-32514516D01*
X104904651Y-32673187D01*
X104904651Y-34372447D01*
X104932543Y-34520678D01*
X105020147Y-34656819D01*
X105153816Y-34748151D01*
X105312487Y-34780283D01*
X105668512Y-34780283D01*
X105677080Y-34823356D01*
X105790886Y-34993678D01*
X115970001Y-45172793D01*
X115970001Y-50268112D01*
X115802729Y-50156345D01*
X115343509Y-50065000D01*
X115296491Y-50065000D01*
X114837271Y-50156345D01*
X114447963Y-50416472D01*
X114187836Y-50805780D01*
X114096491Y-51265000D01*
X114107342Y-51319550D01*
X107471396Y-44683604D01*
X107179415Y-44488508D01*
X106835000Y-44420000D01*
X82258153Y-44420000D01*
X82499499Y-44320278D01*
X82696584Y-44123537D01*
X82736944Y-44026339D01*
X82950170Y-44114878D01*
X83228648Y-44115121D01*
X83486020Y-44008777D01*
X83683105Y-43812036D01*
X83789898Y-43554850D01*
X83790141Y-43276372D01*
X83683797Y-43019000D01*
X83487056Y-42821915D01*
X83229870Y-42715122D01*
X83132519Y-42715037D01*
X79491053Y-39073571D01*
X79320731Y-38959765D01*
X79119822Y-38919802D01*
X31735178Y-38919802D01*
X31534269Y-38959765D01*
X31363947Y-39073571D01*
X30969886Y-39467632D01*
X30873683Y-39467548D01*
X30616311Y-39573892D01*
X30610000Y-39580192D01*
X30610000Y-38817897D01*
X34527792Y-34900105D01*
X72407103Y-34900105D01*
X75057394Y-37550396D01*
X75349375Y-37745492D01*
X75693790Y-37814000D01*
X84977000Y-37814000D01*
X85321415Y-37745492D01*
X85613396Y-37550396D01*
X88101396Y-35062396D01*
X88296492Y-34770416D01*
X88365000Y-34426000D01*
X88365000Y-29402962D01*
X88551472Y-29682037D01*
X88940780Y-29942164D01*
X89400000Y-30033509D01*
X89859220Y-29942164D01*
X90248528Y-29682037D01*
X90508655Y-29292729D01*
X90600000Y-28833509D01*
X90600000Y-28786491D01*
X90740000Y-28786491D01*
X90740000Y-28833509D01*
X90831345Y-29292729D01*
X91091472Y-29682037D01*
X91480780Y-29942164D01*
X91940000Y-30033509D01*
X92399220Y-29942164D01*
X92788528Y-29682037D01*
X93048655Y-29292729D01*
X93140000Y-28833509D01*
X93140000Y-28786491D01*
X93048655Y-28327271D01*
X92788528Y-27937963D01*
X92399220Y-27677836D01*
X91940000Y-27586491D01*
X91480780Y-27677836D01*
X91091472Y-27937963D01*
X90831345Y-28327271D01*
X90740000Y-28786491D01*
X90600000Y-28786491D01*
X90508655Y-28327271D01*
X90248528Y-27937963D01*
X89859220Y-27677836D01*
X89560396Y-27618396D01*
X90121396Y-27057396D01*
X90316492Y-26765416D01*
X90385000Y-26421000D01*
X90316492Y-26076585D01*
X90198501Y-25900000D01*
X92837208Y-25900000D01*
X94534550Y-27597342D01*
X94480000Y-27586491D01*
X94020780Y-27677836D01*
X93631472Y-27937963D01*
X93371345Y-28327271D01*
X93280000Y-28786491D01*
X93280000Y-28833509D01*
X93371345Y-29292729D01*
X93631472Y-29682037D01*
X94020780Y-29942164D01*
X94480000Y-30033509D01*
X94939220Y-29942164D01*
X95328528Y-29682037D01*
X95588655Y-29292729D01*
X95680000Y-28833509D01*
X95680000Y-28786491D01*
X95669149Y-28731941D01*
X95832237Y-28895029D01*
X95911345Y-29292729D01*
X96171472Y-29682037D01*
X96560780Y-29942164D01*
X97020000Y-30033509D01*
X97479220Y-29942164D01*
X97868528Y-29682037D01*
X98128655Y-29292729D01*
X98220000Y-28833509D01*
X98220000Y-28786491D01*
X98128655Y-28327271D01*
X97868528Y-27937963D01*
X97479220Y-27677836D01*
X97081520Y-27598728D01*
X94998038Y-25515246D01*
X95149911Y-25485037D01*
X95320233Y-25371231D01*
X104058916Y-16632548D01*
X104172722Y-16462226D01*
X104212685Y-16261317D01*
X104212685Y-13540022D01*
X104280770Y-13472056D01*
X104387563Y-13214870D01*
X104387806Y-12936392D01*
X104383099Y-12925000D01*
X104800000Y-12925000D01*
X105000909Y-12885037D01*
X105171231Y-12771231D01*
X107817462Y-10125000D01*
X108734998Y-10125000D01*
X108802964Y-10193085D01*
X109060150Y-10299878D01*
X109338628Y-10300121D01*
X109596000Y-10193777D01*
X109793085Y-9997036D01*
X109899878Y-9739850D01*
X109900121Y-9461372D01*
X109793777Y-9204000D01*
X109597036Y-9006915D01*
X109339850Y-8900122D01*
X109061372Y-8899879D01*
X108804000Y-9006223D01*
X108735103Y-9075000D01*
X107600000Y-9075000D01*
X107399091Y-9114963D01*
X107228769Y-9228769D01*
X104598165Y-11859373D01*
X104660772Y-11708598D01*
X104661015Y-11430120D01*
X104554671Y-11172748D01*
X104357930Y-10975663D01*
X104100744Y-10868870D01*
X103926289Y-10868718D01*
X104003105Y-10792036D01*
X104109898Y-10534850D01*
X104110141Y-10256372D01*
X104003797Y-9999000D01*
X103935020Y-9930103D01*
X103935020Y-8457898D01*
X103895057Y-8256989D01*
X103781251Y-8086667D01*
X98868342Y-3173758D01*
X98698020Y-3059952D01*
X98497111Y-3019989D01*
X33312889Y-3019989D01*
X33111980Y-3059952D01*
X32941658Y-3173758D01*
X29973769Y-6141647D01*
X29859963Y-6311969D01*
X29820000Y-6512878D01*
X29820000Y-19702538D01*
X21896291Y-27626247D01*
X21852036Y-27581915D01*
X21594850Y-27475122D01*
X21316372Y-27474879D01*
X21059000Y-27581223D01*
X20861915Y-27777964D01*
X20755122Y-28035150D01*
X20754879Y-28313628D01*
X20861223Y-28571000D01*
X21057964Y-28768085D01*
X21315150Y-28874878D01*
X21593628Y-28875121D01*
X21851000Y-28768777D01*
X21919897Y-28700000D01*
X22092538Y-28700000D01*
X21611828Y-29180710D01*
X15583172Y-29180710D01*
X14995000Y-28592538D01*
X14995000Y-27844982D01*
X15063085Y-27777016D01*
X15169878Y-27519830D01*
X15170121Y-27241352D01*
X15063777Y-26983980D01*
X14867036Y-26786895D01*
X14609850Y-26680102D01*
X14331372Y-26679859D01*
X14074000Y-26786203D01*
X13876915Y-26982944D01*
X13770122Y-27240130D01*
X13769879Y-27518608D01*
X13876223Y-27775980D01*
X13945000Y-27844877D01*
X13945000Y-28810000D01*
X13984963Y-29010909D01*
X14098769Y-29181231D01*
X14994479Y-30076941D01*
X15164801Y-30190747D01*
X15365710Y-30230710D01*
X21829290Y-30230710D01*
X21963118Y-30204090D01*
X10427062Y-41740146D01*
X10066000Y-41889334D01*
X9770372Y-42184446D01*
X9610182Y-42570226D01*
X9609818Y-42987942D01*
X475000Y-42987942D01*
X475000Y-5425785D01*
X2849628Y-5425785D01*
X3176256Y-6216286D01*
X3780533Y-6821619D01*
X4570462Y-7149626D01*
X5425785Y-7150372D01*
X6216286Y-6823744D01*
X6821619Y-6219467D01*
X7149626Y-5429538D01*
X7150372Y-4574215D01*
X6823744Y-3783714D01*
X6219467Y-3178381D01*
X5429538Y-2850374D01*
X4574215Y-2849628D01*
X3783714Y-3176256D01*
X3178381Y-3780533D01*
X2850374Y-4570462D01*
X2849628Y-5425785D01*
X475000Y-5425785D01*
X475000Y-475000D01*
X9400000Y-475000D01*
X9400000Y-22450000D01*
X9400000Y-22450000D01*
G37*
X9400000Y-22450000D02*
X9406839Y-22486346D01*
X9428319Y-22519727D01*
X9461094Y-22542121D01*
X9500000Y-22550000D01*
X23650000Y-22550000D01*
X23687629Y-22542650D01*
X23720711Y-22520711D01*
X29120711Y-17120711D01*
X29142121Y-17088906D01*
X29150000Y-17050000D01*
X29150000Y-2896628D01*
X113370879Y-2896628D01*
X113477223Y-3154000D01*
X113673964Y-3351085D01*
X113931150Y-3457878D01*
X114209628Y-3458121D01*
X114330930Y-3408000D01*
X115213762Y-3408000D01*
X115975000Y-4169238D01*
X115975000Y-4675000D01*
X114100000Y-4675000D01*
X113851256Y-4724478D01*
X113640381Y-4865381D01*
X113499478Y-5076256D01*
X113450000Y-5325000D01*
X113499478Y-5573744D01*
X113640381Y-5784619D01*
X113851256Y-5925522D01*
X114100000Y-5975000D01*
X115975000Y-5975000D01*
X115975000Y-6075000D01*
X116003736Y-6219467D01*
X116024478Y-6323745D01*
X116165381Y-6534619D01*
X117115381Y-7484619D01*
X117326255Y-7625522D01*
X117575000Y-7675000D01*
X119540030Y-7675000D01*
X119660150Y-7724878D01*
X119938628Y-7725121D01*
X120196000Y-7618777D01*
X120393085Y-7422036D01*
X120499878Y-7164850D01*
X120500121Y-6886372D01*
X120450000Y-6765070D01*
X120450000Y-5425785D01*
X122849628Y-5425785D01*
X123176256Y-6216286D01*
X123780533Y-6821619D01*
X124570462Y-7149626D01*
X125425785Y-7150372D01*
X126216286Y-6823744D01*
X126821619Y-6219467D01*
X127149626Y-5429538D01*
X127150372Y-4574215D01*
X126823744Y-3783714D01*
X126219467Y-3178381D01*
X125429538Y-2850374D01*
X124574215Y-2849628D01*
X123783714Y-3176256D01*
X123178381Y-3780533D01*
X122850374Y-4570462D01*
X122849628Y-5425785D01*
X120450000Y-5425785D01*
X120450000Y-4950000D01*
X120400522Y-4701256D01*
X120259619Y-4490381D01*
X120048744Y-4349478D01*
X119800000Y-4300000D01*
X119551256Y-4349478D01*
X119340381Y-4490381D01*
X119199478Y-4701256D01*
X119150000Y-4950000D01*
X119150000Y-6375000D01*
X118775000Y-6375000D01*
X118775000Y-4925000D01*
X118725522Y-4676256D01*
X118584619Y-4465381D01*
X118373744Y-4324478D01*
X118125000Y-4275000D01*
X117876256Y-4324478D01*
X117665381Y-4465381D01*
X117524478Y-4676256D01*
X117475000Y-4925000D01*
X117475000Y-6005762D01*
X117275000Y-5805762D01*
X117275000Y-3900000D01*
X117244347Y-3745898D01*
X117225522Y-3651255D01*
X117084619Y-3440381D01*
X115942619Y-2298381D01*
X115731745Y-2157478D01*
X115690476Y-2149269D01*
X115483000Y-2108000D01*
X114330970Y-2108000D01*
X114210850Y-2058122D01*
X113932372Y-2057879D01*
X113675000Y-2164223D01*
X113477915Y-2360964D01*
X113371122Y-2618150D01*
X113370879Y-2896628D01*
X29150000Y-2896628D01*
X29150000Y-475000D01*
X129525000Y-475000D01*
X129525000Y-84525000D01*
X475000Y-84525000D01*
X475000Y-80425785D01*
X2849628Y-80425785D01*
X3176256Y-81216286D01*
X3780533Y-81821619D01*
X4570462Y-82149626D01*
X5425785Y-82150372D01*
X6216286Y-81823744D01*
X6821619Y-81219467D01*
X7149626Y-80429538D01*
X7150372Y-79574215D01*
X6823744Y-78783714D01*
X6219467Y-78178381D01*
X5429538Y-77850374D01*
X4574215Y-77849628D01*
X3783714Y-78176256D01*
X3178381Y-78780533D01*
X2850374Y-79570462D01*
X2849628Y-80425785D01*
X475000Y-80425785D01*
X475000Y-77744000D01*
X8859164Y-77744000D01*
X8859164Y-79744000D01*
X8887056Y-79892231D01*
X8974660Y-80028372D01*
X9108329Y-80119704D01*
X9267000Y-80151836D01*
X11267000Y-80151836D01*
X11415231Y-80123944D01*
X11551372Y-80036340D01*
X11642704Y-79902671D01*
X11674836Y-79744000D01*
X11674836Y-78570122D01*
X43787799Y-78570122D01*
X43964330Y-78997360D01*
X44290920Y-79324521D01*
X44717850Y-79501798D01*
X45180122Y-79502201D01*
X45607360Y-79325670D01*
X45934521Y-78999080D01*
X46111798Y-78572150D01*
X46111799Y-78570122D01*
X55217799Y-78570122D01*
X55394330Y-78997360D01*
X55720920Y-79324521D01*
X56147850Y-79501798D01*
X56610122Y-79502201D01*
X57037360Y-79325670D01*
X57364521Y-78999080D01*
X57541798Y-78572150D01*
X57541799Y-78570122D01*
X66647799Y-78570122D01*
X66824330Y-78997360D01*
X67150920Y-79324521D01*
X67577850Y-79501798D01*
X68040122Y-79502201D01*
X68467360Y-79325670D01*
X68794521Y-78999080D01*
X68971798Y-78572150D01*
X68971908Y-78445122D01*
X82337799Y-78445122D01*
X82514330Y-78872360D01*
X82840920Y-79199521D01*
X83267850Y-79376798D01*
X83730122Y-79377201D01*
X84157360Y-79200670D01*
X84484521Y-78874080D01*
X84661798Y-78447150D01*
X84662043Y-78165122D01*
X90337799Y-78165122D01*
X90514330Y-78592360D01*
X90840920Y-78919521D01*
X91267850Y-79096798D01*
X91730122Y-79097201D01*
X92157360Y-78920670D01*
X92484521Y-78594080D01*
X92661798Y-78167150D01*
X92662201Y-77704878D01*
X92485670Y-77277640D01*
X92159080Y-76950479D01*
X91732150Y-76773202D01*
X91269878Y-76772799D01*
X90842640Y-76949330D01*
X90515479Y-77275920D01*
X90338202Y-77702850D01*
X90337799Y-78165122D01*
X84662043Y-78165122D01*
X84662201Y-77984878D01*
X84485670Y-77557640D01*
X84159080Y-77230479D01*
X83732150Y-77053202D01*
X83269878Y-77052799D01*
X82842640Y-77229330D01*
X82515479Y-77555920D01*
X82338202Y-77982850D01*
X82337799Y-78445122D01*
X68971908Y-78445122D01*
X68972201Y-78109878D01*
X68795670Y-77682640D01*
X68469080Y-77355479D01*
X68042150Y-77178202D01*
X67579878Y-77177799D01*
X67152640Y-77354330D01*
X66825479Y-77680920D01*
X66648202Y-78107850D01*
X66647799Y-78570122D01*
X57541799Y-78570122D01*
X57542201Y-78109878D01*
X57365670Y-77682640D01*
X57039080Y-77355479D01*
X56612150Y-77178202D01*
X56149878Y-77177799D01*
X55722640Y-77354330D01*
X55395479Y-77680920D01*
X55218202Y-78107850D01*
X55217799Y-78570122D01*
X46111799Y-78570122D01*
X46112201Y-78109878D01*
X45935670Y-77682640D01*
X45609080Y-77355479D01*
X45182150Y-77178202D01*
X44719878Y-77177799D01*
X44292640Y-77354330D01*
X43965479Y-77680920D01*
X43788202Y-78107850D01*
X43787799Y-78570122D01*
X11674836Y-78570122D01*
X11674836Y-77744000D01*
X11646944Y-77595769D01*
X11559340Y-77459628D01*
X11425671Y-77368296D01*
X11267000Y-77336164D01*
X11114488Y-77336164D01*
X11453170Y-76998072D01*
X11666757Y-76483699D01*
X11667152Y-76030122D01*
X43787799Y-76030122D01*
X43964330Y-76457360D01*
X44290920Y-76784521D01*
X44717850Y-76961798D01*
X45180122Y-76962201D01*
X45607360Y-76785670D01*
X45934521Y-76459080D01*
X46111798Y-76032150D01*
X46111799Y-76030122D01*
X55217799Y-76030122D01*
X55394330Y-76457360D01*
X55720920Y-76784521D01*
X56147850Y-76961798D01*
X56610122Y-76962201D01*
X57037360Y-76785670D01*
X57364521Y-76459080D01*
X57541798Y-76032150D01*
X57541799Y-76030122D01*
X66647799Y-76030122D01*
X66824330Y-76457360D01*
X67150920Y-76784521D01*
X67577850Y-76961798D01*
X68040122Y-76962201D01*
X68467360Y-76785670D01*
X68794521Y-76459080D01*
X68971798Y-76032150D01*
X68971908Y-75905122D01*
X82337799Y-75905122D01*
X82514330Y-76332360D01*
X82840920Y-76659521D01*
X83267850Y-76836798D01*
X83730122Y-76837201D01*
X84157360Y-76660670D01*
X84484521Y-76334080D01*
X84661798Y-75907150D01*
X84662043Y-75625122D01*
X90337799Y-75625122D01*
X90514330Y-76052360D01*
X90840920Y-76379521D01*
X91267850Y-76556798D01*
X91730122Y-76557201D01*
X92157360Y-76380670D01*
X92484521Y-76054080D01*
X92661798Y-75627150D01*
X92662201Y-75164878D01*
X92485670Y-74737640D01*
X92159080Y-74410479D01*
X91732150Y-74233202D01*
X91269878Y-74232799D01*
X90842640Y-74409330D01*
X90515479Y-74735920D01*
X90338202Y-75162850D01*
X90337799Y-75625122D01*
X84662043Y-75625122D01*
X84662201Y-75444878D01*
X84485670Y-75017640D01*
X84159080Y-74690479D01*
X83732150Y-74513202D01*
X83269878Y-74512799D01*
X82842640Y-74689330D01*
X82515479Y-75015920D01*
X82338202Y-75442850D01*
X82337799Y-75905122D01*
X68971908Y-75905122D01*
X68972201Y-75569878D01*
X68795670Y-75142640D01*
X68469080Y-74815479D01*
X68042150Y-74638202D01*
X67579878Y-74637799D01*
X67152640Y-74814330D01*
X66825479Y-75140920D01*
X66648202Y-75567850D01*
X66647799Y-76030122D01*
X57541799Y-76030122D01*
X57542201Y-75569878D01*
X57365670Y-75142640D01*
X57039080Y-74815479D01*
X56612150Y-74638202D01*
X56149878Y-74637799D01*
X55722640Y-74814330D01*
X55395479Y-75140920D01*
X55218202Y-75567850D01*
X55217799Y-76030122D01*
X46111799Y-76030122D01*
X46112201Y-75569878D01*
X45935670Y-75142640D01*
X45609080Y-74815479D01*
X45182150Y-74638202D01*
X44719878Y-74637799D01*
X44292640Y-74814330D01*
X43965479Y-75140920D01*
X43788202Y-75567850D01*
X43787799Y-76030122D01*
X11667152Y-76030122D01*
X11667243Y-75926744D01*
X11454555Y-75412000D01*
X11061072Y-75017830D01*
X10546699Y-74804243D01*
X9989744Y-74803757D01*
X9475000Y-75016445D01*
X9080830Y-75409928D01*
X8867243Y-75924301D01*
X8866757Y-76481256D01*
X9079445Y-76996000D01*
X9419016Y-77336164D01*
X9267000Y-77336164D01*
X9118769Y-77364056D01*
X8982628Y-77451660D01*
X8891296Y-77585329D01*
X8859164Y-77744000D01*
X475000Y-77744000D01*
X475000Y-73490122D01*
X43787799Y-73490122D01*
X43964330Y-73917360D01*
X44290920Y-74244521D01*
X44717850Y-74421798D01*
X45180122Y-74422201D01*
X45607360Y-74245670D01*
X45934521Y-73919080D01*
X46111798Y-73492150D01*
X46111799Y-73490122D01*
X55217799Y-73490122D01*
X55394330Y-73917360D01*
X55720920Y-74244521D01*
X56147850Y-74421798D01*
X56610122Y-74422201D01*
X57037360Y-74245670D01*
X57364521Y-73919080D01*
X57541798Y-73492150D01*
X57541799Y-73490122D01*
X66647799Y-73490122D01*
X66824330Y-73917360D01*
X67150920Y-74244521D01*
X67577850Y-74421798D01*
X68040122Y-74422201D01*
X68467360Y-74245670D01*
X68794521Y-73919080D01*
X68971798Y-73492150D01*
X68971908Y-73365122D01*
X82337799Y-73365122D01*
X82514330Y-73792360D01*
X82840920Y-74119521D01*
X83267850Y-74296798D01*
X83730122Y-74297201D01*
X84157360Y-74120670D01*
X84484521Y-73794080D01*
X84661798Y-73367150D01*
X84662043Y-73085122D01*
X90337799Y-73085122D01*
X90514330Y-73512360D01*
X90840920Y-73839521D01*
X91267850Y-74016798D01*
X91730122Y-74017201D01*
X92157360Y-73840670D01*
X92484521Y-73514080D01*
X92661798Y-73087150D01*
X92662201Y-72624878D01*
X92485670Y-72197640D01*
X92159080Y-71870479D01*
X91732150Y-71693202D01*
X91269878Y-71692799D01*
X90842640Y-71869330D01*
X90515479Y-72195920D01*
X90338202Y-72622850D01*
X90337799Y-73085122D01*
X84662043Y-73085122D01*
X84662201Y-72904878D01*
X84485670Y-72477640D01*
X84159080Y-72150479D01*
X83732150Y-71973202D01*
X83269878Y-71972799D01*
X82842640Y-72149330D01*
X82515479Y-72475920D01*
X82338202Y-72902850D01*
X82337799Y-73365122D01*
X68971908Y-73365122D01*
X68972201Y-73029878D01*
X68795670Y-72602640D01*
X68469080Y-72275479D01*
X68042150Y-72098202D01*
X67579878Y-72097799D01*
X67152640Y-72274330D01*
X66825479Y-72600920D01*
X66648202Y-73027850D01*
X66647799Y-73490122D01*
X57541799Y-73490122D01*
X57542201Y-73029878D01*
X57365670Y-72602640D01*
X57039080Y-72275479D01*
X56612150Y-72098202D01*
X56149878Y-72097799D01*
X55722640Y-72274330D01*
X55395479Y-72600920D01*
X55218202Y-73027850D01*
X55217799Y-73490122D01*
X46111799Y-73490122D01*
X46112201Y-73029878D01*
X45935670Y-72602640D01*
X45609080Y-72275479D01*
X45182150Y-72098202D01*
X44719878Y-72097799D01*
X44292640Y-72274330D01*
X43965479Y-72600920D01*
X43788202Y-73027850D01*
X43787799Y-73490122D01*
X475000Y-73490122D01*
X475000Y-68422396D01*
X37743332Y-68422396D01*
X37890922Y-68779592D01*
X38163971Y-69053118D01*
X38520909Y-69201331D01*
X38907396Y-69201668D01*
X39264592Y-69054078D01*
X39538118Y-68781029D01*
X39686331Y-68424091D01*
X39686376Y-68372396D01*
X43978332Y-68372396D01*
X44125922Y-68729592D01*
X44398971Y-69003118D01*
X44755909Y-69151331D01*
X45142396Y-69151668D01*
X45499592Y-69004078D01*
X45773118Y-68731029D01*
X45921331Y-68374091D01*
X45921332Y-68372396D01*
X55408332Y-68372396D01*
X55555922Y-68729592D01*
X55828971Y-69003118D01*
X56185909Y-69151331D01*
X56572396Y-69151668D01*
X56929592Y-69004078D01*
X57203118Y-68731029D01*
X57351331Y-68374091D01*
X57351332Y-68372396D01*
X66838332Y-68372396D01*
X66985922Y-68729592D01*
X67258971Y-69003118D01*
X67615909Y-69151331D01*
X68002396Y-69151668D01*
X68359592Y-69004078D01*
X68633118Y-68731029D01*
X68781331Y-68374091D01*
X68781489Y-68192396D01*
X82388332Y-68192396D01*
X82535922Y-68549592D01*
X82808971Y-68823118D01*
X83165909Y-68971331D01*
X83552396Y-68971668D01*
X83909592Y-68824078D01*
X84183118Y-68551029D01*
X84331331Y-68194091D01*
X84331668Y-67807604D01*
X84184078Y-67450408D01*
X83911029Y-67176882D01*
X83554091Y-67028669D01*
X83167604Y-67028332D01*
X82810408Y-67175922D01*
X82536882Y-67448971D01*
X82388669Y-67805909D01*
X82388332Y-68192396D01*
X68781489Y-68192396D01*
X68781668Y-67987604D01*
X68634078Y-67630408D01*
X68361029Y-67356882D01*
X68004091Y-67208669D01*
X67617604Y-67208332D01*
X67260408Y-67355922D01*
X66986882Y-67628971D01*
X66838669Y-67985909D01*
X66838332Y-68372396D01*
X57351332Y-68372396D01*
X57351668Y-67987604D01*
X57204078Y-67630408D01*
X56931029Y-67356882D01*
X56574091Y-67208669D01*
X56187604Y-67208332D01*
X55830408Y-67355922D01*
X55556882Y-67628971D01*
X55408669Y-67985909D01*
X55408332Y-68372396D01*
X45921332Y-68372396D01*
X45921668Y-67987604D01*
X45774078Y-67630408D01*
X45501029Y-67356882D01*
X45144091Y-67208669D01*
X44757604Y-67208332D01*
X44400408Y-67355922D01*
X44126882Y-67628971D01*
X43978669Y-67985909D01*
X43978332Y-68372396D01*
X39686376Y-68372396D01*
X39686668Y-68037604D01*
X39539078Y-67680408D01*
X39266029Y-67406882D01*
X38909091Y-67258669D01*
X38522604Y-67258332D01*
X38165408Y-67405922D01*
X37891882Y-67678971D01*
X37743669Y-68035909D01*
X37743332Y-68422396D01*
X475000Y-68422396D01*
X475000Y-62938628D01*
X9499879Y-62938628D01*
X9606223Y-63196000D01*
X9802964Y-63393085D01*
X10060150Y-63499878D01*
X10338628Y-63500121D01*
X10596000Y-63393777D01*
X10793085Y-63197036D01*
X10830528Y-63106863D01*
X11599723Y-63106863D01*
X11842795Y-63695143D01*
X12292489Y-64145623D01*
X12880344Y-64389722D01*
X13516863Y-64390277D01*
X14105143Y-64147205D01*
X14555623Y-63697511D01*
X14799722Y-63109656D01*
X14800277Y-62473137D01*
X14557205Y-61884857D01*
X14107511Y-61434377D01*
X13519656Y-61190278D01*
X12883137Y-61189723D01*
X12294857Y-61432795D01*
X11844377Y-61882489D01*
X11600278Y-62470344D01*
X11599723Y-63106863D01*
X10830528Y-63106863D01*
X10899878Y-62939850D01*
X10900121Y-62661372D01*
X10793777Y-62404000D01*
X10725000Y-62335103D01*
X10725000Y-60589942D01*
X12117847Y-60589942D01*
X12244841Y-60866665D01*
X12920911Y-61112172D01*
X13639470Y-61080271D01*
X14155159Y-60866665D01*
X14282153Y-60589942D01*
X13200000Y-59507789D01*
X12117847Y-60589942D01*
X10725000Y-60589942D01*
X10725000Y-59010911D01*
X11377828Y-59010911D01*
X11409729Y-59729470D01*
X11623335Y-60245159D01*
X11900058Y-60372153D01*
X12982211Y-59290000D01*
X13417789Y-59290000D01*
X14499942Y-60372153D01*
X14776665Y-60245159D01*
X15022172Y-59569089D01*
X14990271Y-58850530D01*
X14776665Y-58334841D01*
X14499942Y-58207847D01*
X13417789Y-59290000D01*
X12982211Y-59290000D01*
X11900058Y-58207847D01*
X11623335Y-58334841D01*
X11377828Y-59010911D01*
X10725000Y-59010911D01*
X10725000Y-57990058D01*
X12117847Y-57990058D01*
X13200000Y-59072211D01*
X14282153Y-57990058D01*
X14155159Y-57713335D01*
X13479089Y-57467828D01*
X12760530Y-57499729D01*
X12244841Y-57713335D01*
X12117847Y-57990058D01*
X10725000Y-57990058D01*
X10725000Y-57557462D01*
X11592164Y-56690298D01*
X11592164Y-56990000D01*
X11620056Y-57138231D01*
X11707660Y-57274372D01*
X11841329Y-57365704D01*
X12000000Y-57397836D01*
X14400000Y-57397836D01*
X14548231Y-57369944D01*
X14684372Y-57282340D01*
X14775704Y-57148671D01*
X14794470Y-57056000D01*
X22102000Y-57056000D01*
X22102000Y-57520939D01*
X22194563Y-57744405D01*
X22365596Y-57915438D01*
X22589062Y-58008000D01*
X23054000Y-58008000D01*
X23206000Y-57856000D01*
X23206000Y-56904000D01*
X23514000Y-56904000D01*
X23514000Y-57856000D01*
X23666000Y-58008000D01*
X24130938Y-58008000D01*
X24354404Y-57915438D01*
X24525437Y-57744405D01*
X24618000Y-57520939D01*
X24618000Y-57056000D01*
X24466000Y-56904000D01*
X23514000Y-56904000D01*
X23206000Y-56904000D01*
X22254000Y-56904000D01*
X22102000Y-57056000D01*
X14794470Y-57056000D01*
X14807836Y-56990000D01*
X14807836Y-55979061D01*
X22102000Y-55979061D01*
X22102000Y-56444000D01*
X22254000Y-56596000D01*
X23206000Y-56596000D01*
X23206000Y-55644000D01*
X23514000Y-55644000D01*
X23514000Y-56596000D01*
X24466000Y-56596000D01*
X24618000Y-56444000D01*
X24618000Y-55979061D01*
X24525437Y-55755595D01*
X24354404Y-55584562D01*
X24130938Y-55492000D01*
X23666000Y-55492000D01*
X23514000Y-55644000D01*
X23206000Y-55644000D01*
X23054000Y-55492000D01*
X22589062Y-55492000D01*
X22365596Y-55584562D01*
X22194563Y-55755595D01*
X22102000Y-55979061D01*
X14807836Y-55979061D01*
X14807836Y-54590000D01*
X14779944Y-54441769D01*
X14692340Y-54305628D01*
X14558671Y-54214296D01*
X14400000Y-54182164D01*
X12000000Y-54182164D01*
X11851769Y-54210056D01*
X11715628Y-54297660D01*
X11624296Y-54431329D01*
X11592164Y-54590000D01*
X11592164Y-55296395D01*
X11549091Y-55304963D01*
X11378769Y-55418769D01*
X9828769Y-56968769D01*
X9714963Y-57139091D01*
X9675000Y-57340000D01*
X9675000Y-62334998D01*
X9606915Y-62402964D01*
X9500122Y-62660150D01*
X9499879Y-62938628D01*
X475000Y-62938628D01*
X475000Y-53838958D01*
X33431769Y-53838958D01*
X33543477Y-54056000D01*
X34636000Y-54056000D01*
X34636000Y-54036000D01*
X34944000Y-54036000D01*
X34944000Y-54056000D01*
X36036523Y-54056000D01*
X36148231Y-53838958D01*
X36012791Y-53511944D01*
X35652577Y-53097139D01*
X35161044Y-52851757D01*
X34944002Y-52962434D01*
X34944002Y-52844043D01*
X35272729Y-52778655D01*
X35662037Y-52518528D01*
X35922164Y-52129220D01*
X36013509Y-51670000D01*
X35922164Y-51210780D01*
X35662037Y-50821472D01*
X35272729Y-50561345D01*
X34813509Y-50470000D01*
X34766491Y-50470000D01*
X34307271Y-50561345D01*
X33917963Y-50821472D01*
X33657836Y-51210780D01*
X33566491Y-51670000D01*
X33657836Y-52129220D01*
X33917963Y-52518528D01*
X34307271Y-52778655D01*
X34635998Y-52844043D01*
X34635998Y-52962434D01*
X34418956Y-52851757D01*
X33927423Y-53097139D01*
X33567209Y-53511944D01*
X33431769Y-53838958D01*
X475000Y-53838958D01*
X475000Y-51220931D01*
X22676858Y-51220931D01*
X22736122Y-51440694D01*
X23212483Y-51594134D01*
X23711302Y-51553599D01*
X23983878Y-51440694D01*
X24043142Y-51220931D01*
X23360000Y-50537789D01*
X22676858Y-51220931D01*
X475000Y-51220931D01*
X475000Y-50172483D01*
X22085866Y-50172483D01*
X22126401Y-50671302D01*
X22239306Y-50943878D01*
X22459069Y-51003142D01*
X23142211Y-50320000D01*
X23577789Y-50320000D01*
X24260931Y-51003142D01*
X24480694Y-50943878D01*
X24634134Y-50467517D01*
X24593599Y-49968698D01*
X24480694Y-49696122D01*
X24260931Y-49636858D01*
X23577789Y-50320000D01*
X23142211Y-50320000D01*
X22459069Y-49636858D01*
X22239306Y-49696122D01*
X22085866Y-50172483D01*
X475000Y-50172483D01*
X475000Y-49419069D01*
X22676858Y-49419069D01*
X23360000Y-50102211D01*
X24043142Y-49419069D01*
X23983878Y-49199306D01*
X23768715Y-49130000D01*
X33566491Y-49130000D01*
X33657836Y-49589220D01*
X33917963Y-49978528D01*
X34307271Y-50238655D01*
X34766491Y-50330000D01*
X34813509Y-50330000D01*
X35272729Y-50238655D01*
X35662037Y-49978528D01*
X35922164Y-49589220D01*
X36013509Y-49130000D01*
X35922164Y-48670780D01*
X35662037Y-48281472D01*
X35272729Y-48021345D01*
X34813509Y-47930000D01*
X34766491Y-47930000D01*
X34307271Y-48021345D01*
X33917963Y-48281472D01*
X33657836Y-48670780D01*
X33566491Y-49130000D01*
X23768715Y-49130000D01*
X23507517Y-49045866D01*
X23008698Y-49086401D01*
X22736122Y-49199306D01*
X22676858Y-49419069D01*
X475000Y-49419069D01*
X475000Y-42987942D01*
X9609818Y-42987942D01*
X9769334Y-43374000D01*
X10064446Y-43669628D01*
X10450226Y-43829818D01*
X10867942Y-43830182D01*
X11254000Y-43670666D01*
X11549628Y-43375554D01*
X11700445Y-43012347D01*
X12582792Y-42130000D01*
X14602164Y-42130000D01*
X14602164Y-43430000D01*
X14630056Y-43578231D01*
X14717660Y-43714372D01*
X14851329Y-43805704D01*
X15010000Y-43837836D01*
X16310000Y-43837836D01*
X16458231Y-43809944D01*
X16594372Y-43722340D01*
X16685704Y-43588671D01*
X16717836Y-43430000D01*
X16717836Y-42130000D01*
X16689944Y-41981769D01*
X16602340Y-41845628D01*
X16468671Y-41754296D01*
X16310000Y-41722164D01*
X15010000Y-41722164D01*
X14861769Y-41750056D01*
X14725628Y-41837660D01*
X14634296Y-41971329D01*
X14602164Y-42130000D01*
X12582792Y-42130000D01*
X17544221Y-37168571D01*
X20939430Y-37168571D01*
X20939430Y-38231429D01*
X21027012Y-38671733D01*
X21276424Y-39045005D01*
X21649696Y-39294417D01*
X22090000Y-39381999D01*
X22530304Y-39294417D01*
X22903576Y-39045005D01*
X23152988Y-38671733D01*
X23240570Y-38231429D01*
X23240570Y-37854000D01*
X23271430Y-37854000D01*
X23271430Y-38353110D01*
X23433778Y-38861290D01*
X23778240Y-39268659D01*
X24266739Y-39508214D01*
X24476000Y-39395812D01*
X24476000Y-37854000D01*
X24784000Y-37854000D01*
X24784000Y-39395812D01*
X24993261Y-39508214D01*
X25481760Y-39268659D01*
X25826222Y-38861290D01*
X25988570Y-38353110D01*
X25988570Y-37854000D01*
X24784000Y-37854000D01*
X24476000Y-37854000D01*
X23271430Y-37854000D01*
X23240570Y-37854000D01*
X23240570Y-37168571D01*
X23216367Y-37046890D01*
X23271430Y-37046890D01*
X23271430Y-37546000D01*
X24476000Y-37546000D01*
X24476000Y-36004188D01*
X24784000Y-36004188D01*
X24784000Y-37546000D01*
X25988570Y-37546000D01*
X25988570Y-37046890D01*
X25826222Y-36538710D01*
X25481760Y-36131341D01*
X24993261Y-35891786D01*
X24784000Y-36004188D01*
X24476000Y-36004188D01*
X24266739Y-35891786D01*
X23778240Y-36131341D01*
X23433778Y-36538710D01*
X23271430Y-37046890D01*
X23216367Y-37046890D01*
X23152988Y-36728267D01*
X22903576Y-36354995D01*
X22530304Y-36105583D01*
X22090000Y-36018001D01*
X21649696Y-36105583D01*
X21276424Y-36354995D01*
X21027012Y-36728267D01*
X20939430Y-37168571D01*
X17544221Y-37168571D01*
X21954164Y-32758628D01*
X23929879Y-32758628D01*
X24036223Y-33016000D01*
X24232964Y-33213085D01*
X24490150Y-33319878D01*
X24587501Y-33319963D01*
X26645000Y-35377462D01*
X26645000Y-36162175D01*
X26356424Y-36354995D01*
X26107012Y-36728267D01*
X26019430Y-37168571D01*
X26019430Y-38231429D01*
X26107012Y-38671733D01*
X26356424Y-39045005D01*
X26729696Y-39294417D01*
X27170000Y-39381999D01*
X27610304Y-39294417D01*
X27983576Y-39045005D01*
X28232988Y-38671733D01*
X28320570Y-38231429D01*
X28320570Y-37168571D01*
X28232988Y-36728267D01*
X27983576Y-36354995D01*
X27695000Y-36162175D01*
X27695000Y-35160000D01*
X27655037Y-34959091D01*
X27541231Y-34788769D01*
X25330037Y-32577575D01*
X25330121Y-32481372D01*
X25223777Y-32224000D01*
X25027036Y-32026915D01*
X24769850Y-31920122D01*
X24491372Y-31919879D01*
X24234000Y-32026223D01*
X24036915Y-32222964D01*
X23930122Y-32480150D01*
X23929879Y-32758628D01*
X21954164Y-32758628D01*
X28812792Y-25900000D01*
X42909107Y-25900000D01*
X43253522Y-25831492D01*
X43545503Y-25636396D01*
X44511899Y-24670000D01*
X46656491Y-24670000D01*
X46747836Y-25129220D01*
X47007963Y-25518528D01*
X47397271Y-25778655D01*
X47856491Y-25870000D01*
X47903509Y-25870000D01*
X48362729Y-25778655D01*
X48752037Y-25518528D01*
X49012164Y-25129220D01*
X49103509Y-24670000D01*
X54276491Y-24670000D01*
X54367836Y-25129220D01*
X54627963Y-25518528D01*
X55017271Y-25778655D01*
X55476491Y-25870000D01*
X55523509Y-25870000D01*
X55982729Y-25778655D01*
X56372037Y-25518528D01*
X56632164Y-25129220D01*
X56723509Y-24670000D01*
X56632164Y-24210780D01*
X56548121Y-24085000D01*
X56906259Y-24085000D01*
X57002445Y-24568559D01*
X57276359Y-24978500D01*
X57686300Y-25252414D01*
X58169859Y-25348600D01*
X58530141Y-25348600D01*
X59013700Y-25252414D01*
X59423641Y-24978500D01*
X59697555Y-24568559D01*
X59787773Y-24115000D01*
X60456259Y-24115000D01*
X60552445Y-24598559D01*
X60826359Y-25008500D01*
X61236300Y-25282414D01*
X61719859Y-25378600D01*
X62080141Y-25378600D01*
X62563700Y-25282414D01*
X62925001Y-25041000D01*
X63473491Y-25041000D01*
X63564836Y-25500220D01*
X63824963Y-25889528D01*
X64214271Y-26149655D01*
X64673491Y-26241000D01*
X64720509Y-26241000D01*
X65179729Y-26149655D01*
X65569037Y-25889528D01*
X65829164Y-25500220D01*
X65920509Y-25041000D01*
X65829164Y-24581780D01*
X65569037Y-24192472D01*
X65179729Y-23932345D01*
X64720509Y-23841000D01*
X64673491Y-23841000D01*
X64214271Y-23932345D01*
X63824963Y-24192472D01*
X63564836Y-24581780D01*
X63473491Y-25041000D01*
X62925001Y-25041000D01*
X62973641Y-25008500D01*
X63247555Y-24598559D01*
X63343741Y-24115000D01*
X63247555Y-23631441D01*
X62973641Y-23221500D01*
X62563700Y-22947586D01*
X62080141Y-22851400D01*
X61719859Y-22851400D01*
X61236300Y-22947586D01*
X60826359Y-23221500D01*
X60552445Y-23631441D01*
X60456259Y-24115000D01*
X59787773Y-24115000D01*
X59793741Y-24085000D01*
X59697555Y-23601441D01*
X59423641Y-23191500D01*
X59013700Y-22917586D01*
X58530141Y-22821400D01*
X58169859Y-22821400D01*
X57686300Y-22917586D01*
X57276359Y-23191500D01*
X57002445Y-23601441D01*
X56906259Y-24085000D01*
X56548121Y-24085000D01*
X56372037Y-23821472D01*
X55982729Y-23561345D01*
X55523509Y-23470000D01*
X55476491Y-23470000D01*
X55017271Y-23561345D01*
X54627963Y-23821472D01*
X54367836Y-24210780D01*
X54276491Y-24670000D01*
X49103509Y-24670000D01*
X49012164Y-24210780D01*
X48752037Y-23821472D01*
X48362729Y-23561345D01*
X47903509Y-23470000D01*
X47856491Y-23470000D01*
X47397271Y-23561345D01*
X47007963Y-23821472D01*
X46747836Y-24210780D01*
X46656491Y-24670000D01*
X44511899Y-24670000D01*
X46722094Y-22459805D01*
X46747836Y-22589220D01*
X47007963Y-22978528D01*
X47397271Y-23238655D01*
X47856491Y-23330000D01*
X47903509Y-23330000D01*
X48362729Y-23238655D01*
X48752037Y-22978528D01*
X49012164Y-22589220D01*
X49103509Y-22130000D01*
X49012164Y-21670780D01*
X48752037Y-21281472D01*
X48362729Y-21021345D01*
X48033027Y-20955763D01*
X48157391Y-20831399D01*
X54600000Y-20831399D01*
X54600000Y-21323322D01*
X54367836Y-21670780D01*
X54276491Y-22130000D01*
X54367836Y-22589220D01*
X54627963Y-22978528D01*
X55017271Y-23238655D01*
X55476491Y-23330000D01*
X55523509Y-23330000D01*
X55982729Y-23238655D01*
X56372037Y-22978528D01*
X56632164Y-22589220D01*
X56723509Y-22130000D01*
X56632164Y-21670780D01*
X56400000Y-21323322D01*
X56400000Y-20831399D01*
X56926164Y-20831399D01*
X56926164Y-22408600D01*
X56954056Y-22556831D01*
X57041660Y-22692972D01*
X57175329Y-22784304D01*
X57334000Y-22816436D01*
X59366000Y-22816436D01*
X59514231Y-22788544D01*
X59650372Y-22700940D01*
X59741704Y-22567271D01*
X59773836Y-22408600D01*
X59773836Y-20831399D01*
X60726200Y-20831399D01*
X60552445Y-21091441D01*
X60456259Y-21575000D01*
X60552445Y-22058559D01*
X60826359Y-22468500D01*
X61236300Y-22742414D01*
X61719859Y-22838600D01*
X62080141Y-22838600D01*
X62563700Y-22742414D01*
X62925001Y-22501000D01*
X63473491Y-22501000D01*
X63564836Y-22960220D01*
X63824963Y-23349528D01*
X64214271Y-23609655D01*
X64673491Y-23701000D01*
X64720509Y-23701000D01*
X65179729Y-23609655D01*
X65569037Y-23349528D01*
X65829164Y-22960220D01*
X65920509Y-22501000D01*
X65829164Y-22041780D01*
X65569037Y-21652472D01*
X65179729Y-21392345D01*
X64720509Y-21301000D01*
X64673491Y-21301000D01*
X64214271Y-21392345D01*
X63824963Y-21652472D01*
X63564836Y-22041780D01*
X63473491Y-22501000D01*
X62925001Y-22501000D01*
X62973641Y-22468500D01*
X63247555Y-22058559D01*
X63343741Y-21575000D01*
X63247555Y-21091441D01*
X63073800Y-20831399D01*
X69374607Y-20831399D01*
X71105728Y-22562520D01*
X71184836Y-22960220D01*
X71444963Y-23349528D01*
X71834271Y-23609655D01*
X72231971Y-23688763D01*
X72395059Y-23851851D01*
X72340509Y-23841000D01*
X72293491Y-23841000D01*
X71834271Y-23932345D01*
X71444963Y-24192472D01*
X71184836Y-24581780D01*
X71093491Y-25041000D01*
X71184836Y-25500220D01*
X71444963Y-25889528D01*
X71834271Y-26149655D01*
X72293491Y-26241000D01*
X72340509Y-26241000D01*
X72799729Y-26149655D01*
X73189037Y-25889528D01*
X73449164Y-25500220D01*
X73540509Y-25041000D01*
X73529658Y-24986450D01*
X74987604Y-26444396D01*
X75279584Y-26639492D01*
X75624000Y-26708000D01*
X82877000Y-26708000D01*
X83090990Y-26665435D01*
X83091223Y-26666000D01*
X83287964Y-26863085D01*
X83545150Y-26969878D01*
X83823628Y-26970121D01*
X84081000Y-26863777D01*
X84278085Y-26667036D01*
X84384878Y-26409850D01*
X84385121Y-26131372D01*
X84289520Y-25900000D01*
X88733208Y-25900000D01*
X86828604Y-27804604D01*
X86633508Y-28096585D01*
X86565000Y-28441000D01*
X86565000Y-34053208D01*
X84604208Y-36014000D01*
X76066582Y-36014000D01*
X73648308Y-33595726D01*
X74849711Y-33595726D01*
X75103418Y-34209743D01*
X75572786Y-34679931D01*
X76186359Y-34934709D01*
X76850726Y-34935289D01*
X77464743Y-34681582D01*
X77934931Y-34212214D01*
X78189709Y-33598641D01*
X78189711Y-33595726D01*
X79929711Y-33595726D01*
X80183418Y-34209743D01*
X80652786Y-34679931D01*
X81266359Y-34934709D01*
X81930726Y-34935289D01*
X82544743Y-34681582D01*
X83014931Y-34212214D01*
X83269709Y-33598641D01*
X83270289Y-32934274D01*
X83016582Y-32320257D01*
X82547214Y-31850069D01*
X81933641Y-31595291D01*
X81269274Y-31594711D01*
X80655257Y-31848418D01*
X80185069Y-32317786D01*
X79930291Y-32931359D01*
X79929711Y-33595726D01*
X78189711Y-33595726D01*
X78190289Y-32934274D01*
X77936582Y-32320257D01*
X77467214Y-31850069D01*
X76853641Y-31595291D01*
X76189274Y-31594711D01*
X75575257Y-31848418D01*
X75105069Y-32317786D01*
X74850291Y-32931359D01*
X74849711Y-33595726D01*
X73648308Y-33595726D01*
X73416291Y-33363709D01*
X73124310Y-33168613D01*
X72779895Y-33100105D01*
X67375000Y-33100105D01*
X67375000Y-30492042D01*
X70958769Y-30492042D01*
X71094209Y-30819056D01*
X71454423Y-31233861D01*
X71945956Y-31479243D01*
X72163000Y-31368565D01*
X72163000Y-30275000D01*
X72471000Y-30275000D01*
X72471000Y-31368565D01*
X72688044Y-31479243D01*
X73179577Y-31233861D01*
X73539791Y-30819056D01*
X73675231Y-30492042D01*
X73563523Y-30275000D01*
X72471000Y-30275000D01*
X72163000Y-30275000D01*
X71070477Y-30275000D01*
X70958769Y-30492042D01*
X67375000Y-30492042D01*
X67375000Y-29749958D01*
X70958769Y-29749958D01*
X71070477Y-29967000D01*
X72163000Y-29967000D01*
X72163000Y-29947000D01*
X72471000Y-29947000D01*
X72471000Y-29967000D01*
X73563523Y-29967000D01*
X73675231Y-29749958D01*
X73539791Y-29422944D01*
X73179577Y-29008139D01*
X72688044Y-28762757D01*
X72471002Y-28873434D01*
X72471002Y-28755043D01*
X72799729Y-28689655D01*
X73189037Y-28429528D01*
X73449164Y-28040220D01*
X73540509Y-27581000D01*
X73449164Y-27121780D01*
X73189037Y-26732472D01*
X72799729Y-26472345D01*
X72340509Y-26381000D01*
X72293491Y-26381000D01*
X71834271Y-26472345D01*
X71444963Y-26732472D01*
X71184836Y-27121780D01*
X71093491Y-27581000D01*
X71184836Y-28040220D01*
X71444963Y-28429528D01*
X71834271Y-28689655D01*
X72162998Y-28755043D01*
X72162998Y-28873434D01*
X71945956Y-28762757D01*
X71454423Y-29008139D01*
X71094209Y-29422944D01*
X70958769Y-29749958D01*
X67375000Y-29749958D01*
X67375000Y-29359000D01*
X67306492Y-29014585D01*
X67111396Y-28722604D01*
X65908272Y-27519480D01*
X65829164Y-27121780D01*
X65569037Y-26732472D01*
X65179729Y-26472345D01*
X64720509Y-26381000D01*
X64673491Y-26381000D01*
X64214271Y-26472345D01*
X63824963Y-26732472D01*
X63564836Y-27121780D01*
X63473491Y-27581000D01*
X63564836Y-28040220D01*
X63824963Y-28429528D01*
X64214271Y-28689655D01*
X64611971Y-28768763D01*
X64775059Y-28931851D01*
X64720509Y-28921000D01*
X64673491Y-28921000D01*
X64214271Y-29012345D01*
X63824963Y-29272472D01*
X63564836Y-29661780D01*
X63473491Y-30121000D01*
X63564836Y-30580220D01*
X63824963Y-30969528D01*
X64214271Y-31229655D01*
X64673491Y-31321000D01*
X64720509Y-31321000D01*
X65179729Y-31229655D01*
X65569037Y-30969528D01*
X65575000Y-30960604D01*
X65575000Y-33100105D01*
X50330001Y-33100105D01*
X50330001Y-30121042D01*
X54141769Y-30121042D01*
X54277209Y-30448056D01*
X54637423Y-30862861D01*
X55128956Y-31108243D01*
X55346000Y-30997565D01*
X55346000Y-29904000D01*
X55654000Y-29904000D01*
X55654000Y-30997565D01*
X55871044Y-31108243D01*
X56362577Y-30862861D01*
X56722791Y-30448056D01*
X56858231Y-30121042D01*
X56746523Y-29904000D01*
X55654000Y-29904000D01*
X55346000Y-29904000D01*
X54253477Y-29904000D01*
X54141769Y-30121042D01*
X50330001Y-30121042D01*
X50330001Y-29378958D01*
X54141769Y-29378958D01*
X54253477Y-29596000D01*
X55346000Y-29596000D01*
X55346000Y-29576000D01*
X55654000Y-29576000D01*
X55654000Y-29596000D01*
X56746523Y-29596000D01*
X56858231Y-29378958D01*
X56722791Y-29051944D01*
X56362577Y-28637139D01*
X55871044Y-28391757D01*
X55654002Y-28502434D01*
X55654002Y-28384043D01*
X55982729Y-28318655D01*
X56372037Y-28058528D01*
X56632164Y-27669220D01*
X56723509Y-27210000D01*
X56632164Y-26750780D01*
X56548121Y-26625000D01*
X56906259Y-26625000D01*
X57002445Y-27108559D01*
X57276359Y-27518500D01*
X57686300Y-27792414D01*
X58169859Y-27888600D01*
X58530141Y-27888600D01*
X59013700Y-27792414D01*
X59423641Y-27518500D01*
X59697555Y-27108559D01*
X59793741Y-26625000D01*
X59697555Y-26141441D01*
X59463665Y-25791400D01*
X60476164Y-25791400D01*
X60476164Y-27518600D01*
X60504056Y-27666831D01*
X60591660Y-27802972D01*
X60725329Y-27894304D01*
X60884000Y-27926436D01*
X62916000Y-27926436D01*
X63064231Y-27898544D01*
X63200372Y-27810940D01*
X63291704Y-27677271D01*
X63323836Y-27518600D01*
X63323836Y-25791400D01*
X63295944Y-25643169D01*
X63208340Y-25507028D01*
X63074671Y-25415696D01*
X62916000Y-25383564D01*
X60884000Y-25383564D01*
X60735769Y-25411456D01*
X60599628Y-25499060D01*
X60508296Y-25632729D01*
X60476164Y-25791400D01*
X59463665Y-25791400D01*
X59423641Y-25731500D01*
X59013700Y-25457586D01*
X58530141Y-25361400D01*
X58169859Y-25361400D01*
X57686300Y-25457586D01*
X57276359Y-25731500D01*
X57002445Y-26141441D01*
X56906259Y-26625000D01*
X56548121Y-26625000D01*
X56372037Y-26361472D01*
X55982729Y-26101345D01*
X55523509Y-26010000D01*
X55476491Y-26010000D01*
X55017271Y-26101345D01*
X54627963Y-26361472D01*
X54367836Y-26750780D01*
X54276491Y-27210000D01*
X54367836Y-27669220D01*
X54627963Y-28058528D01*
X55017271Y-28318655D01*
X55345998Y-28384043D01*
X55345998Y-28502434D01*
X55128956Y-28391757D01*
X54637423Y-28637139D01*
X54277209Y-29051944D01*
X54141769Y-29378958D01*
X50330001Y-29378958D01*
X50330001Y-28760001D01*
X50292407Y-28571000D01*
X50261493Y-28415585D01*
X50066397Y-28123605D01*
X49091272Y-27148480D01*
X49012164Y-26750780D01*
X48752037Y-26361472D01*
X48362729Y-26101345D01*
X47903509Y-26010000D01*
X47856491Y-26010000D01*
X47397271Y-26101345D01*
X47007963Y-26361472D01*
X46747836Y-26750780D01*
X46656491Y-27210000D01*
X46747836Y-27669220D01*
X47007963Y-28058528D01*
X47397271Y-28318655D01*
X47794971Y-28397763D01*
X47958059Y-28560851D01*
X47903509Y-28550000D01*
X47856491Y-28550000D01*
X47397271Y-28641345D01*
X47007963Y-28901472D01*
X46747836Y-29290780D01*
X46656491Y-29750000D01*
X46747836Y-30209220D01*
X47007963Y-30598528D01*
X47397271Y-30858655D01*
X47856491Y-30950000D01*
X47903509Y-30950000D01*
X48362729Y-30858655D01*
X48530001Y-30746888D01*
X48530001Y-33100105D01*
X36327792Y-33100105D01*
X38661520Y-30766377D01*
X39059220Y-30687269D01*
X39448528Y-30427142D01*
X39708655Y-30037834D01*
X39800000Y-29578614D01*
X39800000Y-29531596D01*
X39940000Y-29531596D01*
X39940000Y-29578614D01*
X40031345Y-30037834D01*
X40291472Y-30427142D01*
X40680780Y-30687269D01*
X41140000Y-30778614D01*
X41599220Y-30687269D01*
X41988528Y-30427142D01*
X42248655Y-30037834D01*
X42314043Y-29709107D01*
X42432434Y-29709107D01*
X42321757Y-29926149D01*
X42567139Y-30417682D01*
X42981944Y-30777896D01*
X43308958Y-30913336D01*
X43526000Y-30801628D01*
X43526000Y-29709105D01*
X43834000Y-29709105D01*
X43834000Y-30801628D01*
X44051042Y-30913336D01*
X44378056Y-30777896D01*
X44792861Y-30417682D01*
X45038243Y-29926149D01*
X44927565Y-29709105D01*
X43834000Y-29709105D01*
X43526000Y-29709105D01*
X43506000Y-29709105D01*
X43506000Y-29401105D01*
X43526000Y-29401105D01*
X43526000Y-28308582D01*
X43834000Y-28308582D01*
X43834000Y-29401105D01*
X44927565Y-29401105D01*
X45038243Y-29184061D01*
X44792861Y-28692528D01*
X44378056Y-28332314D01*
X44051042Y-28196874D01*
X43834000Y-28308582D01*
X43526000Y-28308582D01*
X43308958Y-28196874D01*
X42981944Y-28332314D01*
X42567139Y-28692528D01*
X42321757Y-29184061D01*
X42432434Y-29401103D01*
X42314043Y-29401103D01*
X42248655Y-29072376D01*
X41988528Y-28683068D01*
X41599220Y-28422941D01*
X41140000Y-28331596D01*
X40680780Y-28422941D01*
X40291472Y-28683068D01*
X40031345Y-29072376D01*
X39940000Y-29531596D01*
X39800000Y-29531596D01*
X39708655Y-29072376D01*
X39448528Y-28683068D01*
X39059220Y-28422941D01*
X38600000Y-28331596D01*
X38140780Y-28422941D01*
X37751472Y-28683068D01*
X37491345Y-29072376D01*
X37412237Y-29470076D01*
X37249149Y-29633164D01*
X37260000Y-29578614D01*
X37260000Y-29531596D01*
X37168655Y-29072376D01*
X36908528Y-28683068D01*
X36519220Y-28422941D01*
X36060000Y-28331596D01*
X35600780Y-28422941D01*
X35211472Y-28683068D01*
X34951345Y-29072376D01*
X34860000Y-29531596D01*
X34860000Y-29578614D01*
X34951345Y-30037834D01*
X35211472Y-30427142D01*
X35600780Y-30687269D01*
X36060000Y-30778614D01*
X36114550Y-30767763D01*
X29073604Y-37808709D01*
X28878508Y-38100690D01*
X28810000Y-38445105D01*
X28810000Y-44420000D01*
X24324458Y-44420000D01*
X24302340Y-44385628D01*
X24168671Y-44294296D01*
X24010000Y-44262164D01*
X22710000Y-44262164D01*
X22561769Y-44290056D01*
X22425628Y-44377660D01*
X22334296Y-44511329D01*
X22302164Y-44670000D01*
X22302164Y-45970000D01*
X22330056Y-46118231D01*
X22417660Y-46254372D01*
X22551329Y-46345704D01*
X22710000Y-46377836D01*
X24010000Y-46377836D01*
X24158231Y-46349944D01*
X24294372Y-46262340D01*
X24323302Y-46220000D01*
X35687208Y-46220000D01*
X41198728Y-51731520D01*
X41277836Y-52129220D01*
X41537963Y-52518528D01*
X41927271Y-52778655D01*
X42386491Y-52870000D01*
X42433509Y-52870000D01*
X42892729Y-52778655D01*
X43282037Y-52518528D01*
X43542164Y-52129220D01*
X43633509Y-51670000D01*
X43542164Y-51210780D01*
X43282037Y-50821472D01*
X42892729Y-50561345D01*
X42495029Y-50482237D01*
X42331941Y-50319149D01*
X42386491Y-50330000D01*
X42433509Y-50330000D01*
X42892729Y-50238655D01*
X43282037Y-49978528D01*
X43542164Y-49589220D01*
X43633509Y-49130000D01*
X52616491Y-49130000D01*
X52707836Y-49589220D01*
X52967963Y-49978528D01*
X53357271Y-50238655D01*
X53816491Y-50330000D01*
X53863509Y-50330000D01*
X54322729Y-50238655D01*
X54712037Y-49978528D01*
X54972164Y-49589220D01*
X55063509Y-49130000D01*
X54972164Y-48670780D01*
X54712037Y-48281472D01*
X54322729Y-48021345D01*
X53863509Y-47930000D01*
X53816491Y-47930000D01*
X53357271Y-48021345D01*
X52967963Y-48281472D01*
X52707836Y-48670780D01*
X52616491Y-49130000D01*
X43633509Y-49130000D01*
X43542164Y-48670780D01*
X43282037Y-48281472D01*
X42892729Y-48021345D01*
X42433509Y-47930000D01*
X42386491Y-47930000D01*
X41927271Y-48021345D01*
X41537963Y-48281472D01*
X41277836Y-48670780D01*
X41186491Y-49130000D01*
X41197342Y-49184550D01*
X38232792Y-46220000D01*
X54737208Y-46220000D01*
X60248728Y-51731520D01*
X60327836Y-52129220D01*
X60587963Y-52518528D01*
X60977271Y-52778655D01*
X61436491Y-52870000D01*
X61483509Y-52870000D01*
X61942729Y-52778655D01*
X62004511Y-52737373D01*
X68290554Y-52737373D01*
X68402262Y-52954415D01*
X69494785Y-52954415D01*
X69494785Y-52934415D01*
X69802785Y-52934415D01*
X69802785Y-52954415D01*
X70895308Y-52954415D01*
X71007016Y-52737373D01*
X70871576Y-52410359D01*
X70511362Y-51995554D01*
X70019829Y-51750172D01*
X69802787Y-51860849D01*
X69802787Y-51742458D01*
X70131514Y-51677070D01*
X70520822Y-51416943D01*
X70780949Y-51027635D01*
X70872294Y-50568415D01*
X70780949Y-50109195D01*
X70520822Y-49719887D01*
X70131514Y-49459760D01*
X69672294Y-49368415D01*
X69625276Y-49368415D01*
X69166056Y-49459760D01*
X68776748Y-49719887D01*
X68516621Y-50109195D01*
X68425276Y-50568415D01*
X68516621Y-51027635D01*
X68776748Y-51416943D01*
X69166056Y-51677070D01*
X69494783Y-51742458D01*
X69494783Y-51860849D01*
X69277741Y-51750172D01*
X68786208Y-51995554D01*
X68425994Y-52410359D01*
X68290554Y-52737373D01*
X62004511Y-52737373D01*
X62332037Y-52518528D01*
X62592164Y-52129220D01*
X62683509Y-51670000D01*
X62592164Y-51210780D01*
X62332037Y-50821472D01*
X61942729Y-50561345D01*
X61545029Y-50482237D01*
X61381941Y-50319149D01*
X61436491Y-50330000D01*
X61483509Y-50330000D01*
X61942729Y-50238655D01*
X62332037Y-49978528D01*
X62592164Y-49589220D01*
X62683509Y-49130000D01*
X62592164Y-48670780D01*
X62332037Y-48281472D01*
X61953311Y-48028415D01*
X68425276Y-48028415D01*
X68516621Y-48487635D01*
X68776748Y-48876943D01*
X69166056Y-49137070D01*
X69625276Y-49228415D01*
X69672294Y-49228415D01*
X70131514Y-49137070D01*
X70520822Y-48876943D01*
X70780949Y-48487635D01*
X70872294Y-48028415D01*
X70780949Y-47569195D01*
X70520822Y-47179887D01*
X70131514Y-46919760D01*
X69672294Y-46828415D01*
X69625276Y-46828415D01*
X69166056Y-46919760D01*
X68776748Y-47179887D01*
X68516621Y-47569195D01*
X68425276Y-48028415D01*
X61953311Y-48028415D01*
X61942729Y-48021345D01*
X61483509Y-47930000D01*
X61436491Y-47930000D01*
X60977271Y-48021345D01*
X60587963Y-48281472D01*
X60327836Y-48670780D01*
X60236491Y-49130000D01*
X60247342Y-49184550D01*
X57282792Y-46220000D01*
X71647578Y-46220000D01*
X76057513Y-50629935D01*
X76136621Y-51027635D01*
X76396748Y-51416943D01*
X76786056Y-51677070D01*
X77245276Y-51768415D01*
X77292294Y-51768415D01*
X77751514Y-51677070D01*
X78140822Y-51416943D01*
X78400949Y-51027635D01*
X78492294Y-50568415D01*
X78400949Y-50109195D01*
X78140822Y-49719887D01*
X77751514Y-49459760D01*
X77353814Y-49380652D01*
X77190726Y-49217564D01*
X77245276Y-49228415D01*
X77292294Y-49228415D01*
X77751514Y-49137070D01*
X78140822Y-48876943D01*
X78242346Y-48725000D01*
X91236491Y-48725000D01*
X91327836Y-49184220D01*
X91587963Y-49573528D01*
X91977271Y-49833655D01*
X92436491Y-49925000D01*
X92483509Y-49925000D01*
X92942729Y-49833655D01*
X93332037Y-49573528D01*
X93592164Y-49184220D01*
X93683509Y-48725000D01*
X93592164Y-48265780D01*
X93332037Y-47876472D01*
X92942729Y-47616345D01*
X92483509Y-47525000D01*
X92436491Y-47525000D01*
X91977271Y-47616345D01*
X91587963Y-47876472D01*
X91327836Y-48265780D01*
X91236491Y-48725000D01*
X78242346Y-48725000D01*
X78400949Y-48487635D01*
X78492294Y-48028415D01*
X78400949Y-47569195D01*
X78140822Y-47179887D01*
X77751514Y-46919760D01*
X77292294Y-46828415D01*
X77245276Y-46828415D01*
X76786056Y-46919760D01*
X76396748Y-47179887D01*
X76136621Y-47569195D01*
X76045276Y-48028415D01*
X76056127Y-48082965D01*
X74193162Y-46220000D01*
X88795689Y-46220000D01*
X88700122Y-46450150D01*
X88699879Y-46728628D01*
X88806223Y-46986000D01*
X89002964Y-47183085D01*
X89260150Y-47289878D01*
X89538628Y-47290121D01*
X89796000Y-47183777D01*
X89993085Y-46987036D01*
X90099878Y-46729850D01*
X90100121Y-46451372D01*
X90004520Y-46220000D01*
X96800000Y-46220000D01*
X96800000Y-50016370D01*
X96868508Y-50360785D01*
X97063604Y-50652766D01*
X98312234Y-51901396D01*
X98604215Y-52096492D01*
X98948630Y-52165000D01*
X99284996Y-52165000D01*
X99597271Y-52373655D01*
X100056491Y-52465000D01*
X100103509Y-52465000D01*
X100562729Y-52373655D01*
X100952037Y-52113528D01*
X101212164Y-51724220D01*
X101303509Y-51265000D01*
X106476491Y-51265000D01*
X106567836Y-51724220D01*
X106827963Y-52113528D01*
X107217271Y-52373655D01*
X107676491Y-52465000D01*
X107723509Y-52465000D01*
X108182729Y-52373655D01*
X108572037Y-52113528D01*
X108832164Y-51724220D01*
X108923509Y-51265000D01*
X108832164Y-50805780D01*
X108572037Y-50416472D01*
X108182729Y-50156345D01*
X107723509Y-50065000D01*
X107676491Y-50065000D01*
X107217271Y-50156345D01*
X106827963Y-50416472D01*
X106567836Y-50805780D01*
X106476491Y-51265000D01*
X101303509Y-51265000D01*
X101212164Y-50805780D01*
X100952037Y-50416472D01*
X100562729Y-50156345D01*
X100103509Y-50065000D01*
X100056491Y-50065000D01*
X99597271Y-50156345D01*
X99306832Y-50350410D01*
X98600000Y-49643578D01*
X98600000Y-48725000D01*
X98856491Y-48725000D01*
X98947836Y-49184220D01*
X99207963Y-49573528D01*
X99597271Y-49833655D01*
X100056491Y-49925000D01*
X100103509Y-49925000D01*
X100562729Y-49833655D01*
X100952037Y-49573528D01*
X101212164Y-49184220D01*
X101303509Y-48725000D01*
X101212164Y-48265780D01*
X100952037Y-47876472D01*
X100562729Y-47616345D01*
X100103509Y-47525000D01*
X100056491Y-47525000D01*
X99597271Y-47616345D01*
X99207963Y-47876472D01*
X98947836Y-48265780D01*
X98856491Y-48725000D01*
X98600000Y-48725000D01*
X98600000Y-46220000D01*
X106462208Y-46220000D01*
X114108728Y-53866520D01*
X114187836Y-54264220D01*
X114447963Y-54653528D01*
X114837271Y-54913655D01*
X115296491Y-55005000D01*
X115343509Y-55005000D01*
X115802729Y-54913655D01*
X115970001Y-54801888D01*
X115970001Y-55348112D01*
X115802729Y-55236345D01*
X115343509Y-55145000D01*
X115296491Y-55145000D01*
X114837271Y-55236345D01*
X114447963Y-55496472D01*
X114187836Y-55885780D01*
X114096491Y-56345000D01*
X114187836Y-56804220D01*
X114447963Y-57193528D01*
X114837271Y-57453655D01*
X115296491Y-57545000D01*
X115343509Y-57545000D01*
X115802729Y-57453655D01*
X115970001Y-57341888D01*
X115970001Y-57888112D01*
X115802729Y-57776345D01*
X115343509Y-57685000D01*
X115296491Y-57685000D01*
X114837271Y-57776345D01*
X114447963Y-58036472D01*
X114187836Y-58425780D01*
X114096491Y-58885000D01*
X114187836Y-59344220D01*
X114447963Y-59733528D01*
X114837271Y-59993655D01*
X115146396Y-60055144D01*
X109226540Y-65975000D01*
X105944002Y-65975000D01*
X105743093Y-66014963D01*
X105572771Y-66128769D01*
X104451540Y-67250000D01*
X101224239Y-67250000D01*
X101214078Y-67225408D01*
X100941029Y-66951882D01*
X100668091Y-66838549D01*
X101971231Y-65535409D01*
X102085037Y-65365087D01*
X102125000Y-65164178D01*
X102125000Y-62250509D01*
X105234491Y-62250509D01*
X105578906Y-62182001D01*
X105870887Y-61986905D01*
X107785029Y-60072763D01*
X108182729Y-59993655D01*
X108572037Y-59733528D01*
X108788211Y-59410000D01*
X108831370Y-59410000D01*
X109032279Y-59370037D01*
X109202601Y-59256231D01*
X111496231Y-56962601D01*
X111610037Y-56792279D01*
X111650000Y-56591370D01*
X111650000Y-54065002D01*
X111718085Y-53997036D01*
X111824878Y-53739850D01*
X111825121Y-53461372D01*
X111718777Y-53204000D01*
X111522036Y-53006915D01*
X111264850Y-52900122D01*
X110986372Y-52899879D01*
X110729000Y-53006223D01*
X110531915Y-53202964D01*
X110425122Y-53460150D01*
X110424879Y-53738628D01*
X110531223Y-53996000D01*
X110600000Y-54064897D01*
X110600000Y-56373908D01*
X108718395Y-58255513D01*
X108572037Y-58036472D01*
X108182729Y-57776345D01*
X107854002Y-57710957D01*
X107854002Y-57592566D01*
X108071044Y-57703243D01*
X108562577Y-57457861D01*
X108922791Y-57043056D01*
X109058231Y-56716042D01*
X108946523Y-56499000D01*
X107854000Y-56499000D01*
X107854000Y-56519000D01*
X107546000Y-56519000D01*
X107546000Y-56499000D01*
X106453477Y-56499000D01*
X106341769Y-56716042D01*
X106477209Y-57043056D01*
X106837423Y-57457861D01*
X107328956Y-57703243D01*
X107545998Y-57592566D01*
X107545998Y-57710957D01*
X107217271Y-57776345D01*
X106827963Y-58036472D01*
X106567836Y-58425780D01*
X106488728Y-58823480D01*
X104861699Y-60450509D01*
X90758653Y-60450509D01*
X93096396Y-58112766D01*
X93291492Y-57820785D01*
X93360000Y-57476370D01*
X93360000Y-57151678D01*
X93592164Y-56804220D01*
X93683509Y-56345000D01*
X98856491Y-56345000D01*
X98947836Y-56804220D01*
X99207963Y-57193528D01*
X99597271Y-57453655D01*
X100056491Y-57545000D01*
X100103509Y-57545000D01*
X100562729Y-57453655D01*
X100952037Y-57193528D01*
X101212164Y-56804220D01*
X101303509Y-56345000D01*
X101229704Y-55973958D01*
X106341769Y-55973958D01*
X106453477Y-56191000D01*
X107546000Y-56191000D01*
X107546000Y-56171000D01*
X107854000Y-56171000D01*
X107854000Y-56191000D01*
X108946523Y-56191000D01*
X109058231Y-55973958D01*
X108922791Y-55646944D01*
X108562577Y-55232139D01*
X108071044Y-54986757D01*
X107854002Y-55097434D01*
X107854002Y-54979043D01*
X108182729Y-54913655D01*
X108572037Y-54653528D01*
X108832164Y-54264220D01*
X108923509Y-53805000D01*
X108832164Y-53345780D01*
X108572037Y-52956472D01*
X108182729Y-52696345D01*
X107723509Y-52605000D01*
X107676491Y-52605000D01*
X107217271Y-52696345D01*
X106827963Y-52956472D01*
X106567836Y-53345780D01*
X106476491Y-53805000D01*
X106567836Y-54264220D01*
X106827963Y-54653528D01*
X107217271Y-54913655D01*
X107545998Y-54979043D01*
X107545998Y-55097434D01*
X107328956Y-54986757D01*
X106837423Y-55232139D01*
X106477209Y-55646944D01*
X106341769Y-55973958D01*
X101229704Y-55973958D01*
X101212164Y-55885780D01*
X100952037Y-55496472D01*
X100562729Y-55236345D01*
X100103509Y-55145000D01*
X100056491Y-55145000D01*
X99597271Y-55236345D01*
X99207963Y-55496472D01*
X98947836Y-55885780D01*
X98856491Y-56345000D01*
X93683509Y-56345000D01*
X93603698Y-55943764D01*
X95742462Y-53805000D01*
X98856491Y-53805000D01*
X98947836Y-54264220D01*
X99207963Y-54653528D01*
X99597271Y-54913655D01*
X100056491Y-55005000D01*
X100103509Y-55005000D01*
X100562729Y-54913655D01*
X100952037Y-54653528D01*
X101212164Y-54264220D01*
X101303509Y-53805000D01*
X101212164Y-53345780D01*
X100952037Y-52956472D01*
X100562729Y-52696345D01*
X100103509Y-52605000D01*
X100056491Y-52605000D01*
X99597271Y-52696345D01*
X99207963Y-52956472D01*
X98947836Y-53345780D01*
X98856491Y-53805000D01*
X95742462Y-53805000D01*
X96021231Y-53526231D01*
X96135037Y-53355909D01*
X96175000Y-53155000D01*
X96175000Y-51190002D01*
X96243085Y-51122036D01*
X96349878Y-50864850D01*
X96350121Y-50586372D01*
X96243777Y-50329000D01*
X96047036Y-50131915D01*
X95789850Y-50025122D01*
X95511372Y-50024879D01*
X95254000Y-50131223D01*
X95056915Y-50327964D01*
X94950122Y-50585150D01*
X94949879Y-50863628D01*
X95056223Y-51121000D01*
X95125000Y-51189897D01*
X95125000Y-52937538D01*
X93769969Y-54292569D01*
X93818231Y-54176042D01*
X93706523Y-53959000D01*
X92614000Y-53959000D01*
X92614000Y-53979000D01*
X92306000Y-53979000D01*
X92306000Y-53959000D01*
X91213477Y-53959000D01*
X91101769Y-54176042D01*
X91237209Y-54503056D01*
X91597423Y-54917861D01*
X92088956Y-55163243D01*
X92305998Y-55052566D01*
X92305998Y-55170957D01*
X91977271Y-55236345D01*
X91587963Y-55496472D01*
X91327836Y-55885780D01*
X91236491Y-56345000D01*
X91327836Y-56804220D01*
X91540734Y-57122844D01*
X88213069Y-60450509D01*
X81035000Y-60450509D01*
X81035000Y-53433958D01*
X91101769Y-53433958D01*
X91213477Y-53651000D01*
X92306000Y-53651000D01*
X92306000Y-53631000D01*
X92614000Y-53631000D01*
X92614000Y-53651000D01*
X93706523Y-53651000D01*
X93818231Y-53433958D01*
X93682791Y-53106944D01*
X93322577Y-52692139D01*
X92831044Y-52446757D01*
X92614002Y-52557434D01*
X92614002Y-52439043D01*
X92942729Y-52373655D01*
X93332037Y-52113528D01*
X93592164Y-51724220D01*
X93683509Y-51265000D01*
X93592164Y-50805780D01*
X93332037Y-50416472D01*
X92942729Y-50156345D01*
X92483509Y-50065000D01*
X92436491Y-50065000D01*
X91977271Y-50156345D01*
X91587963Y-50416472D01*
X91327836Y-50805780D01*
X91236491Y-51265000D01*
X91327836Y-51724220D01*
X91587963Y-52113528D01*
X91977271Y-52373655D01*
X92305998Y-52439043D01*
X92305998Y-52557434D01*
X92088956Y-52446757D01*
X91597423Y-52692139D01*
X91237209Y-53106944D01*
X91101769Y-53433958D01*
X81035000Y-53433958D01*
X81035000Y-53405002D01*
X81103085Y-53337036D01*
X81209878Y-53079850D01*
X81210121Y-52801372D01*
X81103777Y-52544000D01*
X80907036Y-52346915D01*
X80649850Y-52240122D01*
X80371372Y-52239879D01*
X80114000Y-52346223D01*
X79916915Y-52542964D01*
X79810122Y-52800150D01*
X79809879Y-53078628D01*
X79916223Y-53336000D01*
X79985000Y-53404897D01*
X79985000Y-60450509D01*
X66119483Y-60450509D01*
X69733814Y-56836178D01*
X70131514Y-56757070D01*
X70520822Y-56496943D01*
X70736996Y-56173415D01*
X70780155Y-56173415D01*
X70981064Y-56133452D01*
X71151386Y-56019646D01*
X71522617Y-55648415D01*
X76045276Y-55648415D01*
X76136621Y-56107635D01*
X76396748Y-56496943D01*
X76786056Y-56757070D01*
X77245276Y-56848415D01*
X77292294Y-56848415D01*
X77751514Y-56757070D01*
X78140822Y-56496943D01*
X78400949Y-56107635D01*
X78492294Y-55648415D01*
X78400949Y-55189195D01*
X78140822Y-54799887D01*
X77751514Y-54539760D01*
X77292294Y-54448415D01*
X77245276Y-54448415D01*
X76786056Y-54539760D01*
X76396748Y-54799887D01*
X76136621Y-55189195D01*
X76045276Y-55648415D01*
X71522617Y-55648415D01*
X73171231Y-53999801D01*
X73285037Y-53829479D01*
X73325000Y-53628570D01*
X73325000Y-53108415D01*
X76045276Y-53108415D01*
X76136621Y-53567635D01*
X76396748Y-53956943D01*
X76786056Y-54217070D01*
X77245276Y-54308415D01*
X77292294Y-54308415D01*
X77751514Y-54217070D01*
X78140822Y-53956943D01*
X78400949Y-53567635D01*
X78492294Y-53108415D01*
X78400949Y-52649195D01*
X78140822Y-52259887D01*
X77751514Y-51999760D01*
X77292294Y-51908415D01*
X77245276Y-51908415D01*
X76786056Y-51999760D01*
X76396748Y-52259887D01*
X76136621Y-52649195D01*
X76045276Y-53108415D01*
X73325000Y-53108415D01*
X73325000Y-51265002D01*
X73393085Y-51197036D01*
X73499878Y-50939850D01*
X73500121Y-50661372D01*
X73393777Y-50404000D01*
X73197036Y-50206915D01*
X72939850Y-50100122D01*
X72661372Y-50099879D01*
X72404000Y-50206223D01*
X72206915Y-50402964D01*
X72100122Y-50660150D01*
X72099879Y-50938628D01*
X72206223Y-51196000D01*
X72275000Y-51264897D01*
X72275000Y-53411108D01*
X70667180Y-55018928D01*
X70520822Y-54799887D01*
X70131514Y-54539760D01*
X69802787Y-54474372D01*
X69802787Y-54355981D01*
X70019829Y-54466658D01*
X70511362Y-54221276D01*
X70871576Y-53806471D01*
X71007016Y-53479457D01*
X70895308Y-53262415D01*
X69802785Y-53262415D01*
X69802785Y-53282415D01*
X69494785Y-53282415D01*
X69494785Y-53262415D01*
X68402262Y-53262415D01*
X68290554Y-53479457D01*
X68425994Y-53806471D01*
X68786208Y-54221276D01*
X69277741Y-54466658D01*
X69494783Y-54355981D01*
X69494783Y-54474372D01*
X69166056Y-54539760D01*
X68776748Y-54799887D01*
X68516621Y-55189195D01*
X68437513Y-55586895D01*
X63573899Y-60450509D01*
X51412283Y-60450509D01*
X53925029Y-57937763D01*
X54322729Y-57858655D01*
X54712037Y-57598528D01*
X54928211Y-57275000D01*
X54971370Y-57275000D01*
X55172279Y-57235037D01*
X55342601Y-57121231D01*
X55713832Y-56750000D01*
X60236491Y-56750000D01*
X60327836Y-57209220D01*
X60587963Y-57598528D01*
X60977271Y-57858655D01*
X61436491Y-57950000D01*
X61483509Y-57950000D01*
X61942729Y-57858655D01*
X62332037Y-57598528D01*
X62592164Y-57209220D01*
X62683509Y-56750000D01*
X62592164Y-56290780D01*
X62332037Y-55901472D01*
X61942729Y-55641345D01*
X61483509Y-55550000D01*
X61436491Y-55550000D01*
X60977271Y-55641345D01*
X60587963Y-55901472D01*
X60327836Y-56290780D01*
X60236491Y-56750000D01*
X55713832Y-56750000D01*
X56171231Y-56292601D01*
X56285037Y-56122279D01*
X56325000Y-55921370D01*
X56325000Y-54210000D01*
X60236491Y-54210000D01*
X60327836Y-54669220D01*
X60587963Y-55058528D01*
X60977271Y-55318655D01*
X61436491Y-55410000D01*
X61483509Y-55410000D01*
X61942729Y-55318655D01*
X62332037Y-55058528D01*
X62592164Y-54669220D01*
X62683509Y-54210000D01*
X62592164Y-53750780D01*
X62332037Y-53361472D01*
X61942729Y-53101345D01*
X61483509Y-53010000D01*
X61436491Y-53010000D01*
X60977271Y-53101345D01*
X60587963Y-53361472D01*
X60327836Y-53750780D01*
X60236491Y-54210000D01*
X56325000Y-54210000D01*
X56325000Y-53817462D01*
X56442425Y-53700037D01*
X56538628Y-53700121D01*
X56796000Y-53593777D01*
X56993085Y-53397036D01*
X57099878Y-53139850D01*
X57100121Y-52861372D01*
X56993777Y-52604000D01*
X56797036Y-52406915D01*
X56539850Y-52300122D01*
X56261372Y-52299879D01*
X56004000Y-52406223D01*
X55806915Y-52602964D01*
X55700122Y-52860150D01*
X55700037Y-52957501D01*
X55428769Y-53228769D01*
X55314963Y-53399091D01*
X55275000Y-53600000D01*
X55275000Y-55703908D01*
X54858395Y-56120513D01*
X54712037Y-55901472D01*
X54322729Y-55641345D01*
X53994002Y-55575957D01*
X53994002Y-55457566D01*
X54211044Y-55568243D01*
X54702577Y-55322861D01*
X55062791Y-54908056D01*
X55198231Y-54581042D01*
X55086523Y-54364000D01*
X53994000Y-54364000D01*
X53994000Y-54384000D01*
X53686000Y-54384000D01*
X53686000Y-54364000D01*
X52593477Y-54364000D01*
X52481769Y-54581042D01*
X52617209Y-54908056D01*
X52977423Y-55322861D01*
X53468956Y-55568243D01*
X53685998Y-55457566D01*
X53685998Y-55575957D01*
X53357271Y-55641345D01*
X52967963Y-55901472D01*
X52707836Y-56290780D01*
X52628728Y-56688480D01*
X48467208Y-60850000D01*
X31962792Y-60850000D01*
X34875029Y-57937763D01*
X35272729Y-57858655D01*
X35662037Y-57598528D01*
X35922164Y-57209220D01*
X36013509Y-56750000D01*
X41186491Y-56750000D01*
X41277836Y-57209220D01*
X41537963Y-57598528D01*
X41927271Y-57858655D01*
X42386491Y-57950000D01*
X42433509Y-57950000D01*
X42892729Y-57858655D01*
X43282037Y-57598528D01*
X43542164Y-57209220D01*
X43633509Y-56750000D01*
X43542164Y-56290780D01*
X43282037Y-55901472D01*
X42892729Y-55641345D01*
X42433509Y-55550000D01*
X42386491Y-55550000D01*
X41927271Y-55641345D01*
X41537963Y-55901472D01*
X41277836Y-56290780D01*
X41186491Y-56750000D01*
X36013509Y-56750000D01*
X35933698Y-56348764D01*
X37771231Y-54511231D01*
X37885037Y-54340909D01*
X37911076Y-54210000D01*
X41186491Y-54210000D01*
X41277836Y-54669220D01*
X41537963Y-55058528D01*
X41927271Y-55318655D01*
X42386491Y-55410000D01*
X42433509Y-55410000D01*
X42892729Y-55318655D01*
X43282037Y-55058528D01*
X43542164Y-54669220D01*
X43633509Y-54210000D01*
X43559704Y-53838958D01*
X52481769Y-53838958D01*
X52593477Y-54056000D01*
X53686000Y-54056000D01*
X53686000Y-54036000D01*
X53994000Y-54036000D01*
X53994000Y-54056000D01*
X55086523Y-54056000D01*
X55198231Y-53838958D01*
X55062791Y-53511944D01*
X54702577Y-53097139D01*
X54211044Y-52851757D01*
X53994002Y-52962434D01*
X53994002Y-52844043D01*
X54322729Y-52778655D01*
X54712037Y-52518528D01*
X54972164Y-52129220D01*
X55063509Y-51670000D01*
X54972164Y-51210780D01*
X54712037Y-50821472D01*
X54322729Y-50561345D01*
X53863509Y-50470000D01*
X53816491Y-50470000D01*
X53357271Y-50561345D01*
X52967963Y-50821472D01*
X52707836Y-51210780D01*
X52616491Y-51670000D01*
X52707836Y-52129220D01*
X52967963Y-52518528D01*
X53357271Y-52778655D01*
X53685998Y-52844043D01*
X53685998Y-52962434D01*
X53468956Y-52851757D01*
X52977423Y-53097139D01*
X52617209Y-53511944D01*
X52481769Y-53838958D01*
X43559704Y-53838958D01*
X43542164Y-53750780D01*
X43282037Y-53361472D01*
X42892729Y-53101345D01*
X42433509Y-53010000D01*
X42386491Y-53010000D01*
X41927271Y-53101345D01*
X41537963Y-53361472D01*
X41277836Y-53750780D01*
X41186491Y-54210000D01*
X37911076Y-54210000D01*
X37925000Y-54140000D01*
X37925000Y-52338628D01*
X38099879Y-52338628D01*
X38206223Y-52596000D01*
X38402964Y-52793085D01*
X38660150Y-52899878D01*
X38938628Y-52900121D01*
X39196000Y-52793777D01*
X39393085Y-52597036D01*
X39499878Y-52339850D01*
X39500121Y-52061372D01*
X39393777Y-51804000D01*
X39197036Y-51606915D01*
X38939850Y-51500122D01*
X38661372Y-51499879D01*
X38404000Y-51606223D01*
X38206915Y-51802964D01*
X38100122Y-52060150D01*
X38099879Y-52338628D01*
X37925000Y-52338628D01*
X37925000Y-49865002D01*
X37993085Y-49797036D01*
X38099878Y-49539850D01*
X38100121Y-49261372D01*
X37993777Y-49004000D01*
X37797036Y-48806915D01*
X37539850Y-48700122D01*
X37261372Y-48699879D01*
X37004000Y-48806223D01*
X36806915Y-49002964D01*
X36700122Y-49260150D01*
X36699879Y-49538628D01*
X36806223Y-49796000D01*
X36875000Y-49864897D01*
X36875000Y-53922538D01*
X36099969Y-54697569D01*
X36148231Y-54581042D01*
X36036523Y-54364000D01*
X34944000Y-54364000D01*
X34944000Y-54384000D01*
X34636000Y-54384000D01*
X34636000Y-54364000D01*
X33543477Y-54364000D01*
X33431769Y-54581042D01*
X33567209Y-54908056D01*
X33927423Y-55322861D01*
X34418956Y-55568243D01*
X34635998Y-55457566D01*
X34635998Y-55575957D01*
X34307271Y-55641345D01*
X33917963Y-55901472D01*
X33657836Y-56290780D01*
X33578728Y-56688480D01*
X29417208Y-60850000D01*
X23930575Y-60850000D01*
X23569774Y-60700182D01*
X23152058Y-60699818D01*
X22766000Y-60859334D01*
X22470372Y-61154446D01*
X22310182Y-61540226D01*
X22309818Y-61957942D01*
X22469334Y-62344000D01*
X22764446Y-62639628D01*
X23150226Y-62799818D01*
X23567942Y-62800182D01*
X23931410Y-62650000D01*
X48840000Y-62650000D01*
X49184415Y-62581492D01*
X49476396Y-62386396D01*
X49612283Y-62250509D01*
X63814414Y-62250509D01*
X63814414Y-64099490D01*
X63842306Y-64247721D01*
X63929910Y-64383862D01*
X64063579Y-64475194D01*
X64222250Y-64507326D01*
X66221230Y-64507326D01*
X66369461Y-64479434D01*
X66505602Y-64391830D01*
X66596934Y-64258161D01*
X66629066Y-64099490D01*
X66629066Y-62250509D01*
X73816934Y-62250509D01*
X73816934Y-64099490D01*
X73844826Y-64247721D01*
X73932430Y-64383862D01*
X74066099Y-64475194D01*
X74224770Y-64507326D01*
X76223750Y-64507326D01*
X76371981Y-64479434D01*
X76508122Y-64391830D01*
X76599454Y-64258161D01*
X76631586Y-64099490D01*
X76631586Y-63370510D01*
X86674414Y-63370510D01*
X86674414Y-65369490D01*
X86702306Y-65517721D01*
X86789910Y-65653862D01*
X86923579Y-65745194D01*
X87082250Y-65777326D01*
X89081230Y-65777326D01*
X89229461Y-65749434D01*
X89365602Y-65661830D01*
X89456934Y-65528161D01*
X89489066Y-65369490D01*
X89489066Y-63370510D01*
X96676934Y-63370510D01*
X96676934Y-65369490D01*
X96704826Y-65517721D01*
X96792430Y-65653862D01*
X96926099Y-65745194D01*
X97084770Y-65777326D01*
X99083750Y-65777326D01*
X99231981Y-65749434D01*
X99368122Y-65661830D01*
X99459454Y-65528161D01*
X99491586Y-65369490D01*
X99491586Y-63370510D01*
X99463694Y-63222279D01*
X99376090Y-63086138D01*
X99242421Y-62994806D01*
X99083750Y-62962674D01*
X97084770Y-62962674D01*
X96936539Y-62990566D01*
X96800398Y-63078170D01*
X96709066Y-63211839D01*
X96676934Y-63370510D01*
X89489066Y-63370510D01*
X89461174Y-63222279D01*
X89373570Y-63086138D01*
X89239901Y-62994806D01*
X89081230Y-62962674D01*
X87082250Y-62962674D01*
X86934019Y-62990566D01*
X86797878Y-63078170D01*
X86706546Y-63211839D01*
X86674414Y-63370510D01*
X76631586Y-63370510D01*
X76631586Y-62250509D01*
X99384345Y-62250509D01*
X99380122Y-62260679D01*
X99379879Y-62539157D01*
X99486223Y-62796529D01*
X99555000Y-62865426D01*
X99555000Y-65759594D01*
X98128769Y-67185825D01*
X98014963Y-67356147D01*
X97975000Y-67557056D01*
X97975000Y-76045000D01*
X98014963Y-76245909D01*
X98128769Y-76416231D01*
X99283123Y-77570585D01*
X99228202Y-77702850D01*
X99227799Y-78165122D01*
X99404330Y-78592360D01*
X99730920Y-78919521D01*
X100157850Y-79096798D01*
X100620122Y-79097201D01*
X101047360Y-78920670D01*
X101374521Y-78594080D01*
X101430196Y-78460000D01*
X105459640Y-78460000D01*
X105514330Y-78592360D01*
X105840920Y-78919521D01*
X106267850Y-79096798D01*
X106730122Y-79097201D01*
X106864298Y-79041760D01*
X108268770Y-80446232D01*
X108439092Y-80560038D01*
X108640001Y-80600001D01*
X114952369Y-80600001D01*
X115153278Y-80560038D01*
X115323600Y-80446232D01*
X115344047Y-80425785D01*
X122849628Y-80425785D01*
X123176256Y-81216286D01*
X123780533Y-81821619D01*
X124570462Y-82149626D01*
X125425785Y-82150372D01*
X126216286Y-81823744D01*
X126821619Y-81219467D01*
X127149626Y-80429538D01*
X127150372Y-79574215D01*
X126823744Y-78783714D01*
X126219467Y-78178381D01*
X125429538Y-77850374D01*
X124574215Y-77849628D01*
X123783714Y-78176256D01*
X123178381Y-78780533D01*
X122850374Y-79570462D01*
X122849628Y-80425785D01*
X115344047Y-80425785D01*
X117309832Y-78460000D01*
X117959640Y-78460000D01*
X118014330Y-78592360D01*
X118340920Y-78919521D01*
X118767850Y-79096798D01*
X119230122Y-79097201D01*
X119657360Y-78920670D01*
X119984521Y-78594080D01*
X120161798Y-78167150D01*
X120162201Y-77704878D01*
X119985670Y-77277640D01*
X119659080Y-76950479D01*
X119232150Y-76773202D01*
X118769878Y-76772799D01*
X118342640Y-76949330D01*
X118015479Y-77275920D01*
X117959804Y-77410000D01*
X117092370Y-77410000D01*
X116891461Y-77449963D01*
X116721139Y-77563769D01*
X114734907Y-79550001D01*
X113880143Y-79550001D01*
X113936170Y-79494072D01*
X114149757Y-78979699D01*
X114150243Y-78422744D01*
X113937555Y-77908000D01*
X113544072Y-77513830D01*
X113029699Y-77300243D01*
X112472744Y-77299757D01*
X111958000Y-77512445D01*
X111563830Y-77905928D01*
X111350243Y-78420301D01*
X111349757Y-78977256D01*
X111562445Y-79492000D01*
X111620345Y-79550001D01*
X108857463Y-79550001D01*
X107606877Y-78299415D01*
X107661798Y-78167150D01*
X107662201Y-77704878D01*
X107485670Y-77277640D01*
X107159080Y-76950479D01*
X106732150Y-76773202D01*
X106269878Y-76772799D01*
X105842640Y-76949330D01*
X105515479Y-77275920D01*
X105459804Y-77410000D01*
X101430360Y-77410000D01*
X101375670Y-77277640D01*
X101049080Y-76950479D01*
X100622150Y-76773202D01*
X100159878Y-76772799D01*
X100025702Y-76828240D01*
X99025000Y-75827538D01*
X99025000Y-75625122D01*
X99227799Y-75625122D01*
X99404330Y-76052360D01*
X99730920Y-76379521D01*
X100157850Y-76556798D01*
X100620122Y-76557201D01*
X101047360Y-76380670D01*
X101374521Y-76054080D01*
X101551798Y-75627150D01*
X101551799Y-75625122D01*
X105337799Y-75625122D01*
X105514330Y-76052360D01*
X105840920Y-76379521D01*
X106267850Y-76556798D01*
X106730122Y-76557201D01*
X107157360Y-76380670D01*
X107484521Y-76054080D01*
X107661798Y-75627150D01*
X107661799Y-75625122D01*
X117837799Y-75625122D01*
X118014330Y-76052360D01*
X118340920Y-76379521D01*
X118767850Y-76556798D01*
X119230122Y-76557201D01*
X119657360Y-76380670D01*
X119984521Y-76054080D01*
X120161798Y-75627150D01*
X120162201Y-75164878D01*
X119985670Y-74737640D01*
X119659080Y-74410479D01*
X119232150Y-74233202D01*
X118769878Y-74232799D01*
X118342640Y-74409330D01*
X118015479Y-74735920D01*
X117838202Y-75162850D01*
X117837799Y-75625122D01*
X107661799Y-75625122D01*
X107662201Y-75164878D01*
X107485670Y-74737640D01*
X107159080Y-74410479D01*
X106838244Y-74277256D01*
X111349757Y-74277256D01*
X111562445Y-74792000D01*
X111955928Y-75186170D01*
X112470301Y-75399757D01*
X113027256Y-75400243D01*
X113542000Y-75187555D01*
X113936170Y-74794072D01*
X114149757Y-74279699D01*
X114150243Y-73722744D01*
X113937555Y-73208000D01*
X113544072Y-72813830D01*
X113029699Y-72600243D01*
X112472744Y-72599757D01*
X111958000Y-72812445D01*
X111563830Y-73205928D01*
X111350243Y-73720301D01*
X111349757Y-74277256D01*
X106838244Y-74277256D01*
X106732150Y-74233202D01*
X106269878Y-74232799D01*
X105842640Y-74409330D01*
X105515479Y-74735920D01*
X105338202Y-75162850D01*
X105337799Y-75625122D01*
X101551799Y-75625122D01*
X101552201Y-75164878D01*
X101375670Y-74737640D01*
X101049080Y-74410479D01*
X100622150Y-74233202D01*
X100159878Y-74232799D01*
X99732640Y-74409330D01*
X99405479Y-74735920D01*
X99228202Y-75162850D01*
X99227799Y-75625122D01*
X99025000Y-75625122D01*
X99025000Y-72208989D01*
X99072268Y-72279730D01*
X99283123Y-72490585D01*
X99228202Y-72622850D01*
X99227799Y-73085122D01*
X99404330Y-73512360D01*
X99730920Y-73839521D01*
X100157850Y-74016798D01*
X100620122Y-74017201D01*
X101047360Y-73840670D01*
X101374521Y-73514080D01*
X101430196Y-73380000D01*
X105459640Y-73380000D01*
X105514330Y-73512360D01*
X105840920Y-73839521D01*
X106267850Y-74016798D01*
X106730122Y-74017201D01*
X107157360Y-73840670D01*
X107484521Y-73514080D01*
X107661798Y-73087150D01*
X107662201Y-72624878D01*
X107606760Y-72490702D01*
X107956063Y-72141399D01*
X117543937Y-72141399D01*
X117893123Y-72490585D01*
X117838202Y-72622850D01*
X117837799Y-73085122D01*
X118014330Y-73512360D01*
X118340920Y-73839521D01*
X118767850Y-74016798D01*
X119230122Y-74017201D01*
X119657360Y-73840670D01*
X119984521Y-73514080D01*
X120161798Y-73087150D01*
X120162201Y-72624878D01*
X119985670Y-72197640D01*
X119659080Y-71870479D01*
X119232150Y-71693202D01*
X118769878Y-71692799D01*
X118635702Y-71748240D01*
X118132630Y-71245168D01*
X117962308Y-71131362D01*
X117761399Y-71091399D01*
X107738601Y-71091399D01*
X107537692Y-71131362D01*
X107367370Y-71245168D01*
X106864415Y-71748123D01*
X106732150Y-71693202D01*
X106269878Y-71692799D01*
X105842640Y-71869330D01*
X105515479Y-72195920D01*
X105459804Y-72330000D01*
X101430360Y-72330000D01*
X101375670Y-72197640D01*
X101049080Y-71870479D01*
X100622150Y-71693202D01*
X100159878Y-71692799D01*
X100025702Y-71748240D01*
X99968499Y-71691037D01*
X99968499Y-69577256D01*
X111349757Y-69577256D01*
X111562445Y-70092000D01*
X111955928Y-70486170D01*
X112470301Y-70699757D01*
X113027256Y-70700243D01*
X113542000Y-70487555D01*
X113936170Y-70094072D01*
X114149757Y-69579699D01*
X114150243Y-69022744D01*
X113937555Y-68508000D01*
X113872066Y-68442396D01*
X118028332Y-68442396D01*
X118175922Y-68799592D01*
X118448971Y-69073118D01*
X118805909Y-69221331D01*
X119192396Y-69221668D01*
X119549592Y-69074078D01*
X119823118Y-68801029D01*
X119971331Y-68444091D01*
X119971668Y-68057604D01*
X119824078Y-67700408D01*
X119551029Y-67426882D01*
X119194091Y-67278669D01*
X118807604Y-67278332D01*
X118450408Y-67425922D01*
X118176882Y-67698971D01*
X118028669Y-68055909D01*
X118028332Y-68442396D01*
X113872066Y-68442396D01*
X113544072Y-68113830D01*
X113029699Y-67900243D01*
X112472744Y-67899757D01*
X111958000Y-68112445D01*
X111563830Y-68505928D01*
X111350243Y-69020301D01*
X111349757Y-69577256D01*
X99968499Y-69577256D01*
X99968499Y-68651903D01*
X100195909Y-68746331D01*
X100582396Y-68746668D01*
X100939592Y-68599078D01*
X101213118Y-68326029D01*
X101223926Y-68300000D01*
X104669002Y-68300000D01*
X104869911Y-68260037D01*
X105040233Y-68146231D01*
X105884494Y-67301970D01*
X105768669Y-67580909D01*
X105768332Y-67967396D01*
X105915922Y-68324592D01*
X106188971Y-68598118D01*
X106545909Y-68746331D01*
X106932396Y-68746668D01*
X107289592Y-68599078D01*
X107563118Y-68326029D01*
X107573926Y-68300000D01*
X110240000Y-68300000D01*
X110440909Y-68260037D01*
X110611231Y-68146231D01*
X117366243Y-61391219D01*
X117480049Y-61220897D01*
X117520012Y-61019988D01*
X117520012Y-44748220D01*
X117480049Y-44547311D01*
X117366243Y-44376989D01*
X117020001Y-44030747D01*
X117020001Y-40048761D01*
X116980038Y-39847852D01*
X116866232Y-39677530D01*
X110958995Y-33770293D01*
X115072270Y-33770293D01*
X115262114Y-34229751D01*
X115613334Y-34581584D01*
X116072460Y-34772230D01*
X116569593Y-34772664D01*
X117029051Y-34582820D01*
X117380884Y-34231600D01*
X117571530Y-33772474D01*
X117571964Y-33275341D01*
X117382120Y-32815883D01*
X117030900Y-32464050D01*
X116571774Y-32273404D01*
X116074641Y-32272970D01*
X115615183Y-32462814D01*
X115263350Y-32814034D01*
X115072704Y-33273160D01*
X115072270Y-33770293D01*
X110958995Y-33770293D01*
X107335519Y-30146817D01*
X107411010Y-29965014D01*
X107411444Y-29467881D01*
X107221600Y-29008423D01*
X107079153Y-28865727D01*
X115064131Y-28865727D01*
X115064131Y-30564987D01*
X115092023Y-30713218D01*
X115179627Y-30849359D01*
X115313296Y-30940691D01*
X115471967Y-30972823D01*
X117171227Y-30972823D01*
X117319458Y-30944931D01*
X117455599Y-30857327D01*
X117546931Y-30723658D01*
X117579063Y-30564987D01*
X117579063Y-28865727D01*
X117551171Y-28717496D01*
X117463567Y-28581355D01*
X117329898Y-28490023D01*
X117171227Y-28457891D01*
X115471967Y-28457891D01*
X115323736Y-28485783D01*
X115187595Y-28573387D01*
X115096263Y-28707056D01*
X115064131Y-28865727D01*
X107079153Y-28865727D01*
X106870380Y-28656590D01*
X106411254Y-28465944D01*
X105914121Y-28465510D01*
X105454663Y-28655354D01*
X105102830Y-29006574D01*
X104912184Y-29465700D01*
X104911750Y-29962833D01*
X105101594Y-30422291D01*
X105452814Y-30774124D01*
X105911940Y-30964770D01*
X106409073Y-30965204D01*
X106592989Y-30889211D01*
X115970001Y-40266223D01*
X115970001Y-43687869D01*
X107054391Y-34772259D01*
X107159978Y-34752391D01*
X107296119Y-34664787D01*
X107387451Y-34531118D01*
X107419583Y-34372447D01*
X107419583Y-32673187D01*
X107391691Y-32524956D01*
X107304087Y-32388815D01*
X107170418Y-32297483D01*
X107011747Y-32265351D01*
X105312487Y-32265351D01*
X105164256Y-32293243D01*
X105028115Y-32380847D01*
X104936783Y-32514516D01*
X104904651Y-32673187D01*
X104904651Y-34372447D01*
X104932543Y-34520678D01*
X105020147Y-34656819D01*
X105153816Y-34748151D01*
X105312487Y-34780283D01*
X105668512Y-34780283D01*
X105677080Y-34823356D01*
X105790886Y-34993678D01*
X115970001Y-45172793D01*
X115970001Y-50268112D01*
X115802729Y-50156345D01*
X115343509Y-50065000D01*
X115296491Y-50065000D01*
X114837271Y-50156345D01*
X114447963Y-50416472D01*
X114187836Y-50805780D01*
X114096491Y-51265000D01*
X114107342Y-51319550D01*
X107471396Y-44683604D01*
X107179415Y-44488508D01*
X106835000Y-44420000D01*
X82258153Y-44420000D01*
X82499499Y-44320278D01*
X82696584Y-44123537D01*
X82736944Y-44026339D01*
X82950170Y-44114878D01*
X83228648Y-44115121D01*
X83486020Y-44008777D01*
X83683105Y-43812036D01*
X83789898Y-43554850D01*
X83790141Y-43276372D01*
X83683797Y-43019000D01*
X83487056Y-42821915D01*
X83229870Y-42715122D01*
X83132519Y-42715037D01*
X79491053Y-39073571D01*
X79320731Y-38959765D01*
X79119822Y-38919802D01*
X31735178Y-38919802D01*
X31534269Y-38959765D01*
X31363947Y-39073571D01*
X30969886Y-39467632D01*
X30873683Y-39467548D01*
X30616311Y-39573892D01*
X30610000Y-39580192D01*
X30610000Y-38817897D01*
X34527792Y-34900105D01*
X72407103Y-34900105D01*
X75057394Y-37550396D01*
X75349375Y-37745492D01*
X75693790Y-37814000D01*
X84977000Y-37814000D01*
X85321415Y-37745492D01*
X85613396Y-37550396D01*
X88101396Y-35062396D01*
X88296492Y-34770416D01*
X88365000Y-34426000D01*
X88365000Y-29402962D01*
X88551472Y-29682037D01*
X88940780Y-29942164D01*
X89400000Y-30033509D01*
X89859220Y-29942164D01*
X90248528Y-29682037D01*
X90508655Y-29292729D01*
X90600000Y-28833509D01*
X90600000Y-28786491D01*
X90740000Y-28786491D01*
X90740000Y-28833509D01*
X90831345Y-29292729D01*
X91091472Y-29682037D01*
X91480780Y-29942164D01*
X91940000Y-30033509D01*
X92399220Y-29942164D01*
X92788528Y-29682037D01*
X93048655Y-29292729D01*
X93140000Y-28833509D01*
X93140000Y-28786491D01*
X93048655Y-28327271D01*
X92788528Y-27937963D01*
X92399220Y-27677836D01*
X91940000Y-27586491D01*
X91480780Y-27677836D01*
X91091472Y-27937963D01*
X90831345Y-28327271D01*
X90740000Y-28786491D01*
X90600000Y-28786491D01*
X90508655Y-28327271D01*
X90248528Y-27937963D01*
X89859220Y-27677836D01*
X89560396Y-27618396D01*
X90121396Y-27057396D01*
X90316492Y-26765416D01*
X90385000Y-26421000D01*
X90316492Y-26076585D01*
X90198501Y-25900000D01*
X92837208Y-25900000D01*
X94534550Y-27597342D01*
X94480000Y-27586491D01*
X94020780Y-27677836D01*
X93631472Y-27937963D01*
X93371345Y-28327271D01*
X93280000Y-28786491D01*
X93280000Y-28833509D01*
X93371345Y-29292729D01*
X93631472Y-29682037D01*
X94020780Y-29942164D01*
X94480000Y-30033509D01*
X94939220Y-29942164D01*
X95328528Y-29682037D01*
X95588655Y-29292729D01*
X95680000Y-28833509D01*
X95680000Y-28786491D01*
X95669149Y-28731941D01*
X95832237Y-28895029D01*
X95911345Y-29292729D01*
X96171472Y-29682037D01*
X96560780Y-29942164D01*
X97020000Y-30033509D01*
X97479220Y-29942164D01*
X97868528Y-29682037D01*
X98128655Y-29292729D01*
X98220000Y-28833509D01*
X98220000Y-28786491D01*
X98128655Y-28327271D01*
X97868528Y-27937963D01*
X97479220Y-27677836D01*
X97081520Y-27598728D01*
X94998038Y-25515246D01*
X95149911Y-25485037D01*
X95320233Y-25371231D01*
X104058916Y-16632548D01*
X104172722Y-16462226D01*
X104212685Y-16261317D01*
X104212685Y-13540022D01*
X104280770Y-13472056D01*
X104387563Y-13214870D01*
X104387806Y-12936392D01*
X104383099Y-12925000D01*
X104800000Y-12925000D01*
X105000909Y-12885037D01*
X105171231Y-12771231D01*
X107817462Y-10125000D01*
X108734998Y-10125000D01*
X108802964Y-10193085D01*
X109060150Y-10299878D01*
X109338628Y-10300121D01*
X109596000Y-10193777D01*
X109793085Y-9997036D01*
X109899878Y-9739850D01*
X109900121Y-9461372D01*
X109793777Y-9204000D01*
X109597036Y-9006915D01*
X109339850Y-8900122D01*
X109061372Y-8899879D01*
X108804000Y-9006223D01*
X108735103Y-9075000D01*
X107600000Y-9075000D01*
X107399091Y-9114963D01*
X107228769Y-9228769D01*
X104598165Y-11859373D01*
X104660772Y-11708598D01*
X104661015Y-11430120D01*
X104554671Y-11172748D01*
X104357930Y-10975663D01*
X104100744Y-10868870D01*
X103926289Y-10868718D01*
X104003105Y-10792036D01*
X104109898Y-10534850D01*
X104110141Y-10256372D01*
X104003797Y-9999000D01*
X103935020Y-9930103D01*
X103935020Y-8457898D01*
X103895057Y-8256989D01*
X103781251Y-8086667D01*
X98868342Y-3173758D01*
X98698020Y-3059952D01*
X98497111Y-3019989D01*
X33312889Y-3019989D01*
X33111980Y-3059952D01*
X32941658Y-3173758D01*
X29973769Y-6141647D01*
X29859963Y-6311969D01*
X29820000Y-6512878D01*
X29820000Y-19702538D01*
X21896291Y-27626247D01*
X21852036Y-27581915D01*
X21594850Y-27475122D01*
X21316372Y-27474879D01*
X21059000Y-27581223D01*
X20861915Y-27777964D01*
X20755122Y-28035150D01*
X20754879Y-28313628D01*
X20861223Y-28571000D01*
X21057964Y-28768085D01*
X21315150Y-28874878D01*
X21593628Y-28875121D01*
X21851000Y-28768777D01*
X21919897Y-28700000D01*
X22092538Y-28700000D01*
X21611828Y-29180710D01*
X15583172Y-29180710D01*
X14995000Y-28592538D01*
X14995000Y-27844982D01*
X15063085Y-27777016D01*
X15169878Y-27519830D01*
X15170121Y-27241352D01*
X15063777Y-26983980D01*
X14867036Y-26786895D01*
X14609850Y-26680102D01*
X14331372Y-26679859D01*
X14074000Y-26786203D01*
X13876915Y-26982944D01*
X13770122Y-27240130D01*
X13769879Y-27518608D01*
X13876223Y-27775980D01*
X13945000Y-27844877D01*
X13945000Y-28810000D01*
X13984963Y-29010909D01*
X14098769Y-29181231D01*
X14994479Y-30076941D01*
X15164801Y-30190747D01*
X15365710Y-30230710D01*
X21829290Y-30230710D01*
X21963118Y-30204090D01*
X10427062Y-41740146D01*
X10066000Y-41889334D01*
X9770372Y-42184446D01*
X9610182Y-42570226D01*
X9609818Y-42987942D01*
X475000Y-42987942D01*
X475000Y-5425785D01*
X2849628Y-5425785D01*
X3176256Y-6216286D01*
X3780533Y-6821619D01*
X4570462Y-7149626D01*
X5425785Y-7150372D01*
X6216286Y-6823744D01*
X6821619Y-6219467D01*
X7149626Y-5429538D01*
X7150372Y-4574215D01*
X6823744Y-3783714D01*
X6219467Y-3178381D01*
X5429538Y-2850374D01*
X4574215Y-2849628D01*
X3783714Y-3176256D01*
X3178381Y-3780533D01*
X2850374Y-4570462D01*
X2849628Y-5425785D01*
X475000Y-5425785D01*
X475000Y-475000D01*
X9400000Y-475000D01*
X9400000Y-22450000D01*
G36*
X32207575Y-40174963D02*
X32111372Y-40174879D01*
X31854000Y-40281223D01*
X31656915Y-40477964D01*
X31550122Y-40735150D01*
X31549879Y-41013628D01*
X31656223Y-41271000D01*
X31852964Y-41468085D01*
X32110150Y-41574878D01*
X32388628Y-41575121D01*
X32646000Y-41468777D01*
X32843085Y-41272036D01*
X32949878Y-41014850D01*
X32949963Y-40917499D01*
X33102462Y-40765000D01*
X78399536Y-40765000D01*
X81403462Y-43768926D01*
X81403378Y-43865129D01*
X81509722Y-44122501D01*
X81706463Y-44319586D01*
X81948287Y-44420000D01*
X30610000Y-44420000D01*
X30610000Y-40755470D01*
X30615275Y-40760754D01*
X30872461Y-40867547D01*
X31150939Y-40867790D01*
X31408311Y-40761446D01*
X31605396Y-40564705D01*
X31712189Y-40307519D01*
X31712274Y-40210168D01*
X31952640Y-39969802D01*
X32412736Y-39969802D01*
X32207575Y-40174963D01*
X32207575Y-40174963D01*
G37*
X32207575Y-40174963D02*
X32111372Y-40174879D01*
X31854000Y-40281223D01*
X31656915Y-40477964D01*
X31550122Y-40735150D01*
X31549879Y-41013628D01*
X31656223Y-41271000D01*
X31852964Y-41468085D01*
X32110150Y-41574878D01*
X32388628Y-41575121D01*
X32646000Y-41468777D01*
X32843085Y-41272036D01*
X32949878Y-41014850D01*
X32949963Y-40917499D01*
X33102462Y-40765000D01*
X78399536Y-40765000D01*
X81403462Y-43768926D01*
X81403378Y-43865129D01*
X81509722Y-44122501D01*
X81706463Y-44319586D01*
X81948287Y-44420000D01*
X30610000Y-44420000D01*
X30610000Y-40755470D01*
X30615275Y-40760754D01*
X30872461Y-40867547D01*
X31150939Y-40867790D01*
X31408311Y-40761446D01*
X31605396Y-40564705D01*
X31712189Y-40307519D01*
X31712274Y-40210168D01*
X31952640Y-39969802D01*
X32412736Y-39969802D01*
X32207575Y-40174963D01*
G36*
X43181083Y-5170377D02*
X42942653Y-6061045D01*
X42942653Y-7811105D01*
X45146713Y-7811105D01*
X45146713Y-7791105D01*
X45454713Y-7791105D01*
X45454713Y-7811105D01*
X47658773Y-7811105D01*
X47658773Y-6061045D01*
X47420343Y-5170377D01*
X46987852Y-4606470D01*
X49606338Y-4606470D01*
X49180370Y-5161872D01*
X48941940Y-6052540D01*
X48941940Y-7802600D01*
X51146000Y-7802600D01*
X51146000Y-7782600D01*
X51454000Y-7782600D01*
X51454000Y-7802600D01*
X53658060Y-7802600D01*
X53658060Y-6052540D01*
X53419630Y-5161872D01*
X52993662Y-4606470D01*
X59804438Y-4606470D01*
X59378470Y-5161872D01*
X59140040Y-6052540D01*
X59140040Y-7802600D01*
X61344100Y-7802600D01*
X61344100Y-7782600D01*
X61652100Y-7782600D01*
X61652100Y-7802600D01*
X63856160Y-7802600D01*
X63856160Y-6052540D01*
X63617730Y-5161872D01*
X63191762Y-4606470D01*
X67664740Y-4606470D01*
X67541898Y-4688550D01*
X67075824Y-5386080D01*
X66912160Y-6208872D01*
X66912160Y-9861808D01*
X67075824Y-10684600D01*
X67541898Y-11382130D01*
X68239428Y-11848204D01*
X69062220Y-12011868D01*
X69885012Y-11848204D01*
X70541852Y-11409318D01*
X70460540Y-11818101D01*
X70460540Y-12781899D01*
X70551892Y-13241157D01*
X70812041Y-13630498D01*
X71201382Y-13890647D01*
X71660640Y-13981999D01*
X72119898Y-13890647D01*
X72509239Y-13630498D01*
X72769388Y-13241157D01*
X72860740Y-12781899D01*
X72860740Y-11818101D01*
X72959900Y-11818101D01*
X72959900Y-12781899D01*
X73051252Y-13241157D01*
X73311401Y-13630498D01*
X73700742Y-13890647D01*
X74160000Y-13981999D01*
X74619258Y-13890647D01*
X75008599Y-13630498D01*
X75268748Y-13241157D01*
X75360100Y-12781899D01*
X75360100Y-12375260D01*
X88032540Y-12375260D01*
X88032540Y-12824840D01*
X88198658Y-13351974D01*
X88553857Y-13775412D01*
X89069582Y-14029170D01*
X89286640Y-13917464D01*
X89286640Y-12375260D01*
X88032540Y-12375260D01*
X75360100Y-12375260D01*
X75360100Y-11818101D01*
X75268748Y-11358843D01*
X75008599Y-10969502D01*
X74619258Y-10709353D01*
X74160000Y-10618001D01*
X73700742Y-10709353D01*
X73311401Y-10969502D01*
X73051252Y-11358843D01*
X72959900Y-11818101D01*
X72860740Y-11818101D01*
X72769388Y-11358843D01*
X72509239Y-10969502D01*
X72119898Y-10709353D01*
X71660640Y-10618001D01*
X71201382Y-10709353D01*
X70895522Y-10913722D01*
X71048616Y-10684600D01*
X71212280Y-9861808D01*
X71212280Y-6208872D01*
X71048616Y-5386080D01*
X70582542Y-4688550D01*
X70459700Y-4606470D01*
X77862840Y-4606470D01*
X77739998Y-4688550D01*
X77273924Y-5386080D01*
X77110260Y-6208872D01*
X77110260Y-9861808D01*
X77273924Y-10684600D01*
X77739998Y-11382130D01*
X78437528Y-11848204D01*
X79260320Y-12011868D01*
X80083112Y-11848204D01*
X80780642Y-11382130D01*
X81246716Y-10684600D01*
X81410380Y-9861808D01*
X81410380Y-8110600D01*
X84484160Y-8110600D01*
X84484160Y-9860660D01*
X84722590Y-10751328D01*
X85283714Y-11482955D01*
X86082107Y-11944157D01*
X86322022Y-12006625D01*
X86688220Y-11907338D01*
X86688220Y-8110600D01*
X86996220Y-8110600D01*
X86996220Y-11907338D01*
X87362418Y-12006625D01*
X87602333Y-11944157D01*
X88032540Y-11695642D01*
X88032540Y-12067260D01*
X89286640Y-12067260D01*
X89286640Y-10525056D01*
X89594640Y-10525056D01*
X89594640Y-12067260D01*
X89614640Y-12067260D01*
X89614640Y-12375260D01*
X89594640Y-12375260D01*
X89594640Y-13917464D01*
X89811698Y-14029170D01*
X90327423Y-13775412D01*
X90682622Y-13351974D01*
X90796854Y-12989487D01*
X90831252Y-13162417D01*
X91091401Y-13551758D01*
X91480742Y-13811907D01*
X91940000Y-13903259D01*
X92399258Y-13811907D01*
X92788599Y-13551758D01*
X93048748Y-13162417D01*
X93140100Y-12703159D01*
X93140100Y-11739361D01*
X93048748Y-11280103D01*
X92788599Y-10890762D01*
X92399258Y-10630613D01*
X91940000Y-10539261D01*
X91480742Y-10630613D01*
X91091401Y-10890762D01*
X90831252Y-11280103D01*
X90796854Y-11453033D01*
X90682622Y-11090546D01*
X90327423Y-10667108D01*
X89811698Y-10413350D01*
X89594640Y-10525056D01*
X89286640Y-10525056D01*
X89069582Y-10413350D01*
X89049708Y-10423129D01*
X89200280Y-9860660D01*
X89200280Y-8110600D01*
X94682260Y-8110600D01*
X94682260Y-9860660D01*
X94920690Y-10751328D01*
X95481814Y-11482955D01*
X96280207Y-11944157D01*
X96520122Y-12006625D01*
X96886320Y-11907338D01*
X96886320Y-8110600D01*
X97194320Y-8110600D01*
X97194320Y-11907338D01*
X97560518Y-12006625D01*
X97800433Y-11944157D01*
X98598826Y-11482955D01*
X99159950Y-10751328D01*
X99398380Y-9860660D01*
X99398380Y-8110600D01*
X97194320Y-8110600D01*
X96886320Y-8110600D01*
X94682260Y-8110600D01*
X89200280Y-8110600D01*
X86996220Y-8110600D01*
X86688220Y-8110600D01*
X84484160Y-8110600D01*
X81410380Y-8110600D01*
X81410380Y-6208872D01*
X81246716Y-5386080D01*
X80780642Y-4688550D01*
X80657800Y-4606470D01*
X85148558Y-4606470D01*
X84722590Y-5161872D01*
X84484160Y-6052540D01*
X84484160Y-7802600D01*
X86688220Y-7802600D01*
X86688220Y-7782600D01*
X86996220Y-7782600D01*
X86996220Y-7802600D01*
X89200280Y-7802600D01*
X89200280Y-6052540D01*
X88961850Y-5161872D01*
X88535882Y-4606470D01*
X95346658Y-4606470D01*
X94920690Y-5161872D01*
X94682260Y-6052540D01*
X94682260Y-7802600D01*
X96886320Y-7802600D01*
X96886320Y-7782600D01*
X97194320Y-7782600D01*
X97194320Y-7802600D01*
X99398380Y-7802600D01*
X99398380Y-6301760D01*
X102210000Y-9113380D01*
X102210000Y-10767118D01*
X102249963Y-10968027D01*
X102363769Y-11138349D01*
X103100420Y-11875000D01*
X100730000Y-11875000D01*
X100529091Y-11914963D01*
X100358769Y-12028769D01*
X92341236Y-20046302D01*
X91940000Y-19966491D01*
X91480780Y-20057836D01*
X91091472Y-20317963D01*
X90831345Y-20707271D01*
X90740000Y-21166491D01*
X90740000Y-21213509D01*
X90831345Y-21672729D01*
X91091472Y-22062037D01*
X91480780Y-22322164D01*
X91940000Y-22413509D01*
X92399220Y-22322164D01*
X92788528Y-22062037D01*
X93048655Y-21672729D01*
X93140000Y-21213509D01*
X93140000Y-21166491D01*
X93280000Y-21166491D01*
X93280000Y-21213509D01*
X93371345Y-21672729D01*
X93631472Y-22062037D01*
X94020780Y-22322164D01*
X94480000Y-22413509D01*
X94939220Y-22322164D01*
X95328528Y-22062037D01*
X95588655Y-21672729D01*
X95680000Y-21213509D01*
X95680000Y-21166491D01*
X95588655Y-20707271D01*
X95328528Y-20317963D01*
X94939220Y-20057836D01*
X94480000Y-19966491D01*
X94020780Y-20057836D01*
X93631472Y-20317963D01*
X93371345Y-20707271D01*
X93280000Y-21166491D01*
X93140000Y-21166491D01*
X93067990Y-20804472D01*
X100947462Y-12925000D01*
X102992030Y-12925000D01*
X102987807Y-12935170D01*
X102987564Y-13213648D01*
X103093908Y-13471020D01*
X103162685Y-13539917D01*
X103162685Y-16043855D01*
X98190144Y-21016396D01*
X98128655Y-20707271D01*
X97868528Y-20317963D01*
X97479220Y-20057836D01*
X97020000Y-19966491D01*
X96560780Y-20057836D01*
X96171472Y-20317963D01*
X95911345Y-20707271D01*
X95820000Y-21166491D01*
X95820000Y-21213509D01*
X95911345Y-21672729D01*
X96171472Y-22062037D01*
X96560780Y-22322164D01*
X96830688Y-22375852D01*
X94731540Y-24475000D01*
X93957792Y-24475000D01*
X93846396Y-24363604D01*
X93554415Y-24168508D01*
X93210000Y-24100000D01*
X84210000Y-24100000D01*
X84210000Y-23560002D01*
X84278085Y-23492036D01*
X84384878Y-23234850D01*
X84385121Y-22956372D01*
X84278777Y-22699000D01*
X84082036Y-22501915D01*
X83824850Y-22395122D01*
X83546372Y-22394879D01*
X83289000Y-22501223D01*
X83195877Y-22594183D01*
X83016582Y-22160257D01*
X82547214Y-21690069D01*
X81933641Y-21435291D01*
X81269274Y-21434711D01*
X80655257Y-21688418D01*
X80185069Y-22157786D01*
X79930291Y-22771359D01*
X79929711Y-23435726D01*
X80183418Y-24049743D01*
X80652786Y-24519931D01*
X81266359Y-24774709D01*
X81930726Y-24775289D01*
X82544743Y-24521582D01*
X83014931Y-24052214D01*
X83160000Y-23702849D01*
X83160000Y-24289171D01*
X83048604Y-24363604D01*
X82504208Y-24908000D01*
X75996792Y-24908000D01*
X75634242Y-24545450D01*
X76186359Y-24774709D01*
X76850726Y-24775289D01*
X77464743Y-24521582D01*
X77934931Y-24052214D01*
X78189709Y-23438641D01*
X78190289Y-22774274D01*
X77936582Y-22160257D01*
X77467214Y-21690069D01*
X76853641Y-21435291D01*
X76189274Y-21434711D01*
X75575257Y-21688418D01*
X75105069Y-22157786D01*
X74850291Y-22771359D01*
X74849711Y-23435726D01*
X75078691Y-23989899D01*
X73528272Y-22439480D01*
X73449164Y-22041780D01*
X73189037Y-21652472D01*
X72799729Y-21392345D01*
X72402029Y-21313237D01*
X72255283Y-21166491D01*
X88200000Y-21166491D01*
X88200000Y-21213509D01*
X88291345Y-21672729D01*
X88551472Y-22062037D01*
X88940780Y-22322164D01*
X89400000Y-22413509D01*
X89859220Y-22322164D01*
X90248528Y-22062037D01*
X90508655Y-21672729D01*
X90600000Y-21213509D01*
X90600000Y-21166491D01*
X90508655Y-20707271D01*
X90248528Y-20317963D01*
X89859220Y-20057836D01*
X89400000Y-19966491D01*
X88940780Y-20057836D01*
X88551472Y-20317963D01*
X88291345Y-20707271D01*
X88200000Y-21166491D01*
X72255283Y-21166491D01*
X70383795Y-19295003D01*
X70091814Y-19099907D01*
X69747399Y-19031399D01*
X47784599Y-19031399D01*
X47440184Y-19099907D01*
X47148203Y-19295003D01*
X45693603Y-20749603D01*
X45498507Y-21041584D01*
X45474614Y-21161701D01*
X44854237Y-21782078D01*
X44788655Y-21452376D01*
X44528528Y-21063068D01*
X44139220Y-20802941D01*
X43680000Y-20711596D01*
X43220780Y-20802941D01*
X42831472Y-21063068D01*
X42571345Y-21452376D01*
X42480000Y-21911596D01*
X42480000Y-21958614D01*
X42571345Y-22417834D01*
X42831472Y-22807142D01*
X43220780Y-23067269D01*
X43511265Y-23125050D01*
X42536315Y-24100000D01*
X28440000Y-24100000D01*
X28112274Y-24165188D01*
X30365866Y-21911596D01*
X34860000Y-21911596D01*
X34860000Y-21958614D01*
X34951345Y-22417834D01*
X35211472Y-22807142D01*
X35600780Y-23067269D01*
X36060000Y-23158614D01*
X36519220Y-23067269D01*
X36908528Y-22807142D01*
X37168655Y-22417834D01*
X37260000Y-21958614D01*
X37260000Y-21911596D01*
X37400000Y-21911596D01*
X37400000Y-21958614D01*
X37491345Y-22417834D01*
X37751472Y-22807142D01*
X38140780Y-23067269D01*
X38600000Y-23158614D01*
X39059220Y-23067269D01*
X39448528Y-22807142D01*
X39708655Y-22417834D01*
X39800000Y-21958614D01*
X39800000Y-21911596D01*
X39940000Y-21911596D01*
X39940000Y-21958614D01*
X40031345Y-22417834D01*
X40291472Y-22807142D01*
X40680780Y-23067269D01*
X41140000Y-23158614D01*
X41599220Y-23067269D01*
X41988528Y-22807142D01*
X42248655Y-22417834D01*
X42340000Y-21958614D01*
X42340000Y-21911596D01*
X42248655Y-21452376D01*
X41988528Y-21063068D01*
X41599220Y-20802941D01*
X41140000Y-20711596D01*
X40680780Y-20802941D01*
X40291472Y-21063068D01*
X40031345Y-21452376D01*
X39940000Y-21911596D01*
X39800000Y-21911596D01*
X39708655Y-21452376D01*
X39448528Y-21063068D01*
X39059220Y-20802941D01*
X38600000Y-20711596D01*
X38140780Y-20802941D01*
X37751472Y-21063068D01*
X37491345Y-21452376D01*
X37400000Y-21911596D01*
X37260000Y-21911596D01*
X37168655Y-21452376D01*
X36908528Y-21063068D01*
X36519220Y-20802941D01*
X36060000Y-20711596D01*
X35600780Y-20802941D01*
X35211472Y-21063068D01*
X34951345Y-21452376D01*
X34860000Y-21911596D01*
X30365866Y-21911596D01*
X31351231Y-20926231D01*
X31465037Y-20755909D01*
X31505000Y-20555000D01*
X31505000Y-12383765D01*
X36292933Y-12383765D01*
X36292933Y-12833345D01*
X36459051Y-13360479D01*
X36814250Y-13783917D01*
X37329975Y-14037675D01*
X37547033Y-13925969D01*
X37547033Y-12383765D01*
X36292933Y-12383765D01*
X31505000Y-12383765D01*
X31505000Y-8119105D01*
X32744553Y-8119105D01*
X32744553Y-9869165D01*
X32982983Y-10759833D01*
X33544107Y-11491460D01*
X34342500Y-11952662D01*
X34582415Y-12015130D01*
X34948613Y-11915843D01*
X34948613Y-8119105D01*
X35256613Y-8119105D01*
X35256613Y-11915843D01*
X35622811Y-12015130D01*
X35862726Y-11952662D01*
X36292933Y-11704147D01*
X36292933Y-12075765D01*
X37547033Y-12075765D01*
X37547033Y-10533561D01*
X37855033Y-10533561D01*
X37855033Y-12075765D01*
X37875033Y-12075765D01*
X37875033Y-12383765D01*
X37855033Y-12383765D01*
X37855033Y-13925969D01*
X38072091Y-14037675D01*
X38587816Y-13783917D01*
X38943015Y-13360479D01*
X39057247Y-12997992D01*
X39091645Y-13170922D01*
X39351794Y-13560263D01*
X39741135Y-13820412D01*
X40200393Y-13911764D01*
X40659651Y-13820412D01*
X41048992Y-13560263D01*
X41309141Y-13170922D01*
X41400493Y-12711664D01*
X41400493Y-12375260D01*
X52490320Y-12375260D01*
X52490320Y-12824840D01*
X52656438Y-13351974D01*
X53011637Y-13775412D01*
X53527362Y-14029170D01*
X53744420Y-13917464D01*
X53744420Y-12375260D01*
X52490320Y-12375260D01*
X41400493Y-12375260D01*
X41400493Y-11747866D01*
X41309141Y-11288608D01*
X41048992Y-10899267D01*
X40659651Y-10639118D01*
X40200393Y-10547766D01*
X39741135Y-10639118D01*
X39351794Y-10899267D01*
X39091645Y-11288608D01*
X39057247Y-11461538D01*
X38943015Y-11099051D01*
X38587816Y-10675613D01*
X38072091Y-10421855D01*
X37855033Y-10533561D01*
X37547033Y-10533561D01*
X37329975Y-10421855D01*
X37310101Y-10431634D01*
X37460673Y-9869165D01*
X37460673Y-8119105D01*
X42942653Y-8119105D01*
X42942653Y-9869165D01*
X43181083Y-10759833D01*
X43742207Y-11491460D01*
X44540600Y-11952662D01*
X44780515Y-12015130D01*
X45146713Y-11915843D01*
X45146713Y-8119105D01*
X45454713Y-8119105D01*
X45454713Y-11915843D01*
X45820911Y-12015130D01*
X46060826Y-11952662D01*
X46859219Y-11491460D01*
X47420343Y-10759833D01*
X47658773Y-9869165D01*
X47658773Y-8119105D01*
X45454713Y-8119105D01*
X45146713Y-8119105D01*
X42942653Y-8119105D01*
X37460673Y-8119105D01*
X35256613Y-8119105D01*
X34948613Y-8119105D01*
X32744553Y-8119105D01*
X31505000Y-8119105D01*
X31505000Y-8110600D01*
X48941940Y-8110600D01*
X48941940Y-9860660D01*
X49180370Y-10751328D01*
X49741494Y-11482955D01*
X50539887Y-11944157D01*
X50779802Y-12006625D01*
X51146000Y-11907338D01*
X51146000Y-8110600D01*
X51454000Y-8110600D01*
X51454000Y-11907338D01*
X51820198Y-12006625D01*
X52060113Y-11944157D01*
X52490320Y-11695642D01*
X52490320Y-12067260D01*
X53744420Y-12067260D01*
X53744420Y-10525056D01*
X54052420Y-10525056D01*
X54052420Y-12067260D01*
X54072420Y-12067260D01*
X54072420Y-12375260D01*
X54052420Y-12375260D01*
X54052420Y-13917464D01*
X54269478Y-14029170D01*
X54785203Y-13775412D01*
X55140402Y-13351974D01*
X55254634Y-12989487D01*
X55289032Y-13162417D01*
X55549181Y-13551758D01*
X55938522Y-13811907D01*
X56397780Y-13903259D01*
X56857038Y-13811907D01*
X57246379Y-13551758D01*
X57506528Y-13162417D01*
X57597880Y-12703159D01*
X57597880Y-11739361D01*
X57506528Y-11280103D01*
X57246379Y-10890762D01*
X56857038Y-10630613D01*
X56397780Y-10539261D01*
X55938522Y-10630613D01*
X55549181Y-10890762D01*
X55289032Y-11280103D01*
X55254634Y-11453033D01*
X55140402Y-11090546D01*
X54785203Y-10667108D01*
X54269478Y-10413350D01*
X54052420Y-10525056D01*
X53744420Y-10525056D01*
X53527362Y-10413350D01*
X53507488Y-10423129D01*
X53658060Y-9860660D01*
X53658060Y-8110600D01*
X59140040Y-8110600D01*
X59140040Y-9860660D01*
X59378470Y-10751328D01*
X59939594Y-11482955D01*
X60737987Y-11944157D01*
X60977902Y-12006625D01*
X61344100Y-11907338D01*
X61344100Y-8110600D01*
X61652100Y-8110600D01*
X61652100Y-11907338D01*
X62018298Y-12006625D01*
X62258213Y-11944157D01*
X63056606Y-11482955D01*
X63617730Y-10751328D01*
X63856160Y-9860660D01*
X63856160Y-8110600D01*
X61652100Y-8110600D01*
X61344100Y-8110600D01*
X59140040Y-8110600D01*
X53658060Y-8110600D01*
X51454000Y-8110600D01*
X51146000Y-8110600D01*
X48941940Y-8110600D01*
X31505000Y-8110600D01*
X31505000Y-6802462D01*
X32926650Y-5380812D01*
X32744553Y-6061045D01*
X32744553Y-7811105D01*
X34948613Y-7811105D01*
X34948613Y-7791105D01*
X35256613Y-7791105D01*
X35256613Y-7811105D01*
X37460673Y-7811105D01*
X37460673Y-6061045D01*
X37222243Y-5170377D01*
X36789752Y-4606470D01*
X43613574Y-4606470D01*
X43181083Y-5170377D01*
X43181083Y-5170377D01*
G37*
X43181083Y-5170377D02*
X42942653Y-6061045D01*
X42942653Y-7811105D01*
X45146713Y-7811105D01*
X45146713Y-7791105D01*
X45454713Y-7791105D01*
X45454713Y-7811105D01*
X47658773Y-7811105D01*
X47658773Y-6061045D01*
X47420343Y-5170377D01*
X46987852Y-4606470D01*
X49606338Y-4606470D01*
X49180370Y-5161872D01*
X48941940Y-6052540D01*
X48941940Y-7802600D01*
X51146000Y-7802600D01*
X51146000Y-7782600D01*
X51454000Y-7782600D01*
X51454000Y-7802600D01*
X53658060Y-7802600D01*
X53658060Y-6052540D01*
X53419630Y-5161872D01*
X52993662Y-4606470D01*
X59804438Y-4606470D01*
X59378470Y-5161872D01*
X59140040Y-6052540D01*
X59140040Y-7802600D01*
X61344100Y-7802600D01*
X61344100Y-7782600D01*
X61652100Y-7782600D01*
X61652100Y-7802600D01*
X63856160Y-7802600D01*
X63856160Y-6052540D01*
X63617730Y-5161872D01*
X63191762Y-4606470D01*
X67664740Y-4606470D01*
X67541898Y-4688550D01*
X67075824Y-5386080D01*
X66912160Y-6208872D01*
X66912160Y-9861808D01*
X67075824Y-10684600D01*
X67541898Y-11382130D01*
X68239428Y-11848204D01*
X69062220Y-12011868D01*
X69885012Y-11848204D01*
X70541852Y-11409318D01*
X70460540Y-11818101D01*
X70460540Y-12781899D01*
X70551892Y-13241157D01*
X70812041Y-13630498D01*
X71201382Y-13890647D01*
X71660640Y-13981999D01*
X72119898Y-13890647D01*
X72509239Y-13630498D01*
X72769388Y-13241157D01*
X72860740Y-12781899D01*
X72860740Y-11818101D01*
X72959900Y-11818101D01*
X72959900Y-12781899D01*
X73051252Y-13241157D01*
X73311401Y-13630498D01*
X73700742Y-13890647D01*
X74160000Y-13981999D01*
X74619258Y-13890647D01*
X75008599Y-13630498D01*
X75268748Y-13241157D01*
X75360100Y-12781899D01*
X75360100Y-12375260D01*
X88032540Y-12375260D01*
X88032540Y-12824840D01*
X88198658Y-13351974D01*
X88553857Y-13775412D01*
X89069582Y-14029170D01*
X89286640Y-13917464D01*
X89286640Y-12375260D01*
X88032540Y-12375260D01*
X75360100Y-12375260D01*
X75360100Y-11818101D01*
X75268748Y-11358843D01*
X75008599Y-10969502D01*
X74619258Y-10709353D01*
X74160000Y-10618001D01*
X73700742Y-10709353D01*
X73311401Y-10969502D01*
X73051252Y-11358843D01*
X72959900Y-11818101D01*
X72860740Y-11818101D01*
X72769388Y-11358843D01*
X72509239Y-10969502D01*
X72119898Y-10709353D01*
X71660640Y-10618001D01*
X71201382Y-10709353D01*
X70895522Y-10913722D01*
X71048616Y-10684600D01*
X71212280Y-9861808D01*
X71212280Y-6208872D01*
X71048616Y-5386080D01*
X70582542Y-4688550D01*
X70459700Y-4606470D01*
X77862840Y-4606470D01*
X77739998Y-4688550D01*
X77273924Y-5386080D01*
X77110260Y-6208872D01*
X77110260Y-9861808D01*
X77273924Y-10684600D01*
X77739998Y-11382130D01*
X78437528Y-11848204D01*
X79260320Y-12011868D01*
X80083112Y-11848204D01*
X80780642Y-11382130D01*
X81246716Y-10684600D01*
X81410380Y-9861808D01*
X81410380Y-8110600D01*
X84484160Y-8110600D01*
X84484160Y-9860660D01*
X84722590Y-10751328D01*
X85283714Y-11482955D01*
X86082107Y-11944157D01*
X86322022Y-12006625D01*
X86688220Y-11907338D01*
X86688220Y-8110600D01*
X86996220Y-8110600D01*
X86996220Y-11907338D01*
X87362418Y-12006625D01*
X87602333Y-11944157D01*
X88032540Y-11695642D01*
X88032540Y-12067260D01*
X89286640Y-12067260D01*
X89286640Y-10525056D01*
X89594640Y-10525056D01*
X89594640Y-12067260D01*
X89614640Y-12067260D01*
X89614640Y-12375260D01*
X89594640Y-12375260D01*
X89594640Y-13917464D01*
X89811698Y-14029170D01*
X90327423Y-13775412D01*
X90682622Y-13351974D01*
X90796854Y-12989487D01*
X90831252Y-13162417D01*
X91091401Y-13551758D01*
X91480742Y-13811907D01*
X91940000Y-13903259D01*
X92399258Y-13811907D01*
X92788599Y-13551758D01*
X93048748Y-13162417D01*
X93140100Y-12703159D01*
X93140100Y-11739361D01*
X93048748Y-11280103D01*
X92788599Y-10890762D01*
X92399258Y-10630613D01*
X91940000Y-10539261D01*
X91480742Y-10630613D01*
X91091401Y-10890762D01*
X90831252Y-11280103D01*
X90796854Y-11453033D01*
X90682622Y-11090546D01*
X90327423Y-10667108D01*
X89811698Y-10413350D01*
X89594640Y-10525056D01*
X89286640Y-10525056D01*
X89069582Y-10413350D01*
X89049708Y-10423129D01*
X89200280Y-9860660D01*
X89200280Y-8110600D01*
X94682260Y-8110600D01*
X94682260Y-9860660D01*
X94920690Y-10751328D01*
X95481814Y-11482955D01*
X96280207Y-11944157D01*
X96520122Y-12006625D01*
X96886320Y-11907338D01*
X96886320Y-8110600D01*
X97194320Y-8110600D01*
X97194320Y-11907338D01*
X97560518Y-12006625D01*
X97800433Y-11944157D01*
X98598826Y-11482955D01*
X99159950Y-10751328D01*
X99398380Y-9860660D01*
X99398380Y-8110600D01*
X97194320Y-8110600D01*
X96886320Y-8110600D01*
X94682260Y-8110600D01*
X89200280Y-8110600D01*
X86996220Y-8110600D01*
X86688220Y-8110600D01*
X84484160Y-8110600D01*
X81410380Y-8110600D01*
X81410380Y-6208872D01*
X81246716Y-5386080D01*
X80780642Y-4688550D01*
X80657800Y-4606470D01*
X85148558Y-4606470D01*
X84722590Y-5161872D01*
X84484160Y-6052540D01*
X84484160Y-7802600D01*
X86688220Y-7802600D01*
X86688220Y-7782600D01*
X86996220Y-7782600D01*
X86996220Y-7802600D01*
X89200280Y-7802600D01*
X89200280Y-6052540D01*
X88961850Y-5161872D01*
X88535882Y-4606470D01*
X95346658Y-4606470D01*
X94920690Y-5161872D01*
X94682260Y-6052540D01*
X94682260Y-7802600D01*
X96886320Y-7802600D01*
X96886320Y-7782600D01*
X97194320Y-7782600D01*
X97194320Y-7802600D01*
X99398380Y-7802600D01*
X99398380Y-6301760D01*
X102210000Y-9113380D01*
X102210000Y-10767118D01*
X102249963Y-10968027D01*
X102363769Y-11138349D01*
X103100420Y-11875000D01*
X100730000Y-11875000D01*
X100529091Y-11914963D01*
X100358769Y-12028769D01*
X92341236Y-20046302D01*
X91940000Y-19966491D01*
X91480780Y-20057836D01*
X91091472Y-20317963D01*
X90831345Y-20707271D01*
X90740000Y-21166491D01*
X90740000Y-21213509D01*
X90831345Y-21672729D01*
X91091472Y-22062037D01*
X91480780Y-22322164D01*
X91940000Y-22413509D01*
X92399220Y-22322164D01*
X92788528Y-22062037D01*
X93048655Y-21672729D01*
X93140000Y-21213509D01*
X93140000Y-21166491D01*
X93280000Y-21166491D01*
X93280000Y-21213509D01*
X93371345Y-21672729D01*
X93631472Y-22062037D01*
X94020780Y-22322164D01*
X94480000Y-22413509D01*
X94939220Y-22322164D01*
X95328528Y-22062037D01*
X95588655Y-21672729D01*
X95680000Y-21213509D01*
X95680000Y-21166491D01*
X95588655Y-20707271D01*
X95328528Y-20317963D01*
X94939220Y-20057836D01*
X94480000Y-19966491D01*
X94020780Y-20057836D01*
X93631472Y-20317963D01*
X93371345Y-20707271D01*
X93280000Y-21166491D01*
X93140000Y-21166491D01*
X93067990Y-20804472D01*
X100947462Y-12925000D01*
X102992030Y-12925000D01*
X102987807Y-12935170D01*
X102987564Y-13213648D01*
X103093908Y-13471020D01*
X103162685Y-13539917D01*
X103162685Y-16043855D01*
X98190144Y-21016396D01*
X98128655Y-20707271D01*
X97868528Y-20317963D01*
X97479220Y-20057836D01*
X97020000Y-19966491D01*
X96560780Y-20057836D01*
X96171472Y-20317963D01*
X95911345Y-20707271D01*
X95820000Y-21166491D01*
X95820000Y-21213509D01*
X95911345Y-21672729D01*
X96171472Y-22062037D01*
X96560780Y-22322164D01*
X96830688Y-22375852D01*
X94731540Y-24475000D01*
X93957792Y-24475000D01*
X93846396Y-24363604D01*
X93554415Y-24168508D01*
X93210000Y-24100000D01*
X84210000Y-24100000D01*
X84210000Y-23560002D01*
X84278085Y-23492036D01*
X84384878Y-23234850D01*
X84385121Y-22956372D01*
X84278777Y-22699000D01*
X84082036Y-22501915D01*
X83824850Y-22395122D01*
X83546372Y-22394879D01*
X83289000Y-22501223D01*
X83195877Y-22594183D01*
X83016582Y-22160257D01*
X82547214Y-21690069D01*
X81933641Y-21435291D01*
X81269274Y-21434711D01*
X80655257Y-21688418D01*
X80185069Y-22157786D01*
X79930291Y-22771359D01*
X79929711Y-23435726D01*
X80183418Y-24049743D01*
X80652786Y-24519931D01*
X81266359Y-24774709D01*
X81930726Y-24775289D01*
X82544743Y-24521582D01*
X83014931Y-24052214D01*
X83160000Y-23702849D01*
X83160000Y-24289171D01*
X83048604Y-24363604D01*
X82504208Y-24908000D01*
X75996792Y-24908000D01*
X75634242Y-24545450D01*
X76186359Y-24774709D01*
X76850726Y-24775289D01*
X77464743Y-24521582D01*
X77934931Y-24052214D01*
X78189709Y-23438641D01*
X78190289Y-22774274D01*
X77936582Y-22160257D01*
X77467214Y-21690069D01*
X76853641Y-21435291D01*
X76189274Y-21434711D01*
X75575257Y-21688418D01*
X75105069Y-22157786D01*
X74850291Y-22771359D01*
X74849711Y-23435726D01*
X75078691Y-23989899D01*
X73528272Y-22439480D01*
X73449164Y-22041780D01*
X73189037Y-21652472D01*
X72799729Y-21392345D01*
X72402029Y-21313237D01*
X72255283Y-21166491D01*
X88200000Y-21166491D01*
X88200000Y-21213509D01*
X88291345Y-21672729D01*
X88551472Y-22062037D01*
X88940780Y-22322164D01*
X89400000Y-22413509D01*
X89859220Y-22322164D01*
X90248528Y-22062037D01*
X90508655Y-21672729D01*
X90600000Y-21213509D01*
X90600000Y-21166491D01*
X90508655Y-20707271D01*
X90248528Y-20317963D01*
X89859220Y-20057836D01*
X89400000Y-19966491D01*
X88940780Y-20057836D01*
X88551472Y-20317963D01*
X88291345Y-20707271D01*
X88200000Y-21166491D01*
X72255283Y-21166491D01*
X70383795Y-19295003D01*
X70091814Y-19099907D01*
X69747399Y-19031399D01*
X47784599Y-19031399D01*
X47440184Y-19099907D01*
X47148203Y-19295003D01*
X45693603Y-20749603D01*
X45498507Y-21041584D01*
X45474614Y-21161701D01*
X44854237Y-21782078D01*
X44788655Y-21452376D01*
X44528528Y-21063068D01*
X44139220Y-20802941D01*
X43680000Y-20711596D01*
X43220780Y-20802941D01*
X42831472Y-21063068D01*
X42571345Y-21452376D01*
X42480000Y-21911596D01*
X42480000Y-21958614D01*
X42571345Y-22417834D01*
X42831472Y-22807142D01*
X43220780Y-23067269D01*
X43511265Y-23125050D01*
X42536315Y-24100000D01*
X28440000Y-24100000D01*
X28112274Y-24165188D01*
X30365866Y-21911596D01*
X34860000Y-21911596D01*
X34860000Y-21958614D01*
X34951345Y-22417834D01*
X35211472Y-22807142D01*
X35600780Y-23067269D01*
X36060000Y-23158614D01*
X36519220Y-23067269D01*
X36908528Y-22807142D01*
X37168655Y-22417834D01*
X37260000Y-21958614D01*
X37260000Y-21911596D01*
X37400000Y-21911596D01*
X37400000Y-21958614D01*
X37491345Y-22417834D01*
X37751472Y-22807142D01*
X38140780Y-23067269D01*
X38600000Y-23158614D01*
X39059220Y-23067269D01*
X39448528Y-22807142D01*
X39708655Y-22417834D01*
X39800000Y-21958614D01*
X39800000Y-21911596D01*
X39940000Y-21911596D01*
X39940000Y-21958614D01*
X40031345Y-22417834D01*
X40291472Y-22807142D01*
X40680780Y-23067269D01*
X41140000Y-23158614D01*
X41599220Y-23067269D01*
X41988528Y-22807142D01*
X42248655Y-22417834D01*
X42340000Y-21958614D01*
X42340000Y-21911596D01*
X42248655Y-21452376D01*
X41988528Y-21063068D01*
X41599220Y-20802941D01*
X41140000Y-20711596D01*
X40680780Y-20802941D01*
X40291472Y-21063068D01*
X40031345Y-21452376D01*
X39940000Y-21911596D01*
X39800000Y-21911596D01*
X39708655Y-21452376D01*
X39448528Y-21063068D01*
X39059220Y-20802941D01*
X38600000Y-20711596D01*
X38140780Y-20802941D01*
X37751472Y-21063068D01*
X37491345Y-21452376D01*
X37400000Y-21911596D01*
X37260000Y-21911596D01*
X37168655Y-21452376D01*
X36908528Y-21063068D01*
X36519220Y-20802941D01*
X36060000Y-20711596D01*
X35600780Y-20802941D01*
X35211472Y-21063068D01*
X34951345Y-21452376D01*
X34860000Y-21911596D01*
X30365866Y-21911596D01*
X31351231Y-20926231D01*
X31465037Y-20755909D01*
X31505000Y-20555000D01*
X31505000Y-12383765D01*
X36292933Y-12383765D01*
X36292933Y-12833345D01*
X36459051Y-13360479D01*
X36814250Y-13783917D01*
X37329975Y-14037675D01*
X37547033Y-13925969D01*
X37547033Y-12383765D01*
X36292933Y-12383765D01*
X31505000Y-12383765D01*
X31505000Y-8119105D01*
X32744553Y-8119105D01*
X32744553Y-9869165D01*
X32982983Y-10759833D01*
X33544107Y-11491460D01*
X34342500Y-11952662D01*
X34582415Y-12015130D01*
X34948613Y-11915843D01*
X34948613Y-8119105D01*
X35256613Y-8119105D01*
X35256613Y-11915843D01*
X35622811Y-12015130D01*
X35862726Y-11952662D01*
X36292933Y-11704147D01*
X36292933Y-12075765D01*
X37547033Y-12075765D01*
X37547033Y-10533561D01*
X37855033Y-10533561D01*
X37855033Y-12075765D01*
X37875033Y-12075765D01*
X37875033Y-12383765D01*
X37855033Y-12383765D01*
X37855033Y-13925969D01*
X38072091Y-14037675D01*
X38587816Y-13783917D01*
X38943015Y-13360479D01*
X39057247Y-12997992D01*
X39091645Y-13170922D01*
X39351794Y-13560263D01*
X39741135Y-13820412D01*
X40200393Y-13911764D01*
X40659651Y-13820412D01*
X41048992Y-13560263D01*
X41309141Y-13170922D01*
X41400493Y-12711664D01*
X41400493Y-12375260D01*
X52490320Y-12375260D01*
X52490320Y-12824840D01*
X52656438Y-13351974D01*
X53011637Y-13775412D01*
X53527362Y-14029170D01*
X53744420Y-13917464D01*
X53744420Y-12375260D01*
X52490320Y-12375260D01*
X41400493Y-12375260D01*
X41400493Y-11747866D01*
X41309141Y-11288608D01*
X41048992Y-10899267D01*
X40659651Y-10639118D01*
X40200393Y-10547766D01*
X39741135Y-10639118D01*
X39351794Y-10899267D01*
X39091645Y-11288608D01*
X39057247Y-11461538D01*
X38943015Y-11099051D01*
X38587816Y-10675613D01*
X38072091Y-10421855D01*
X37855033Y-10533561D01*
X37547033Y-10533561D01*
X37329975Y-10421855D01*
X37310101Y-10431634D01*
X37460673Y-9869165D01*
X37460673Y-8119105D01*
X42942653Y-8119105D01*
X42942653Y-9869165D01*
X43181083Y-10759833D01*
X43742207Y-11491460D01*
X44540600Y-11952662D01*
X44780515Y-12015130D01*
X45146713Y-11915843D01*
X45146713Y-8119105D01*
X45454713Y-8119105D01*
X45454713Y-11915843D01*
X45820911Y-12015130D01*
X46060826Y-11952662D01*
X46859219Y-11491460D01*
X47420343Y-10759833D01*
X47658773Y-9869165D01*
X47658773Y-8119105D01*
X45454713Y-8119105D01*
X45146713Y-8119105D01*
X42942653Y-8119105D01*
X37460673Y-8119105D01*
X35256613Y-8119105D01*
X34948613Y-8119105D01*
X32744553Y-8119105D01*
X31505000Y-8119105D01*
X31505000Y-8110600D01*
X48941940Y-8110600D01*
X48941940Y-9860660D01*
X49180370Y-10751328D01*
X49741494Y-11482955D01*
X50539887Y-11944157D01*
X50779802Y-12006625D01*
X51146000Y-11907338D01*
X51146000Y-8110600D01*
X51454000Y-8110600D01*
X51454000Y-11907338D01*
X51820198Y-12006625D01*
X52060113Y-11944157D01*
X52490320Y-11695642D01*
X52490320Y-12067260D01*
X53744420Y-12067260D01*
X53744420Y-10525056D01*
X54052420Y-10525056D01*
X54052420Y-12067260D01*
X54072420Y-12067260D01*
X54072420Y-12375260D01*
X54052420Y-12375260D01*
X54052420Y-13917464D01*
X54269478Y-14029170D01*
X54785203Y-13775412D01*
X55140402Y-13351974D01*
X55254634Y-12989487D01*
X55289032Y-13162417D01*
X55549181Y-13551758D01*
X55938522Y-13811907D01*
X56397780Y-13903259D01*
X56857038Y-13811907D01*
X57246379Y-13551758D01*
X57506528Y-13162417D01*
X57597880Y-12703159D01*
X57597880Y-11739361D01*
X57506528Y-11280103D01*
X57246379Y-10890762D01*
X56857038Y-10630613D01*
X56397780Y-10539261D01*
X55938522Y-10630613D01*
X55549181Y-10890762D01*
X55289032Y-11280103D01*
X55254634Y-11453033D01*
X55140402Y-11090546D01*
X54785203Y-10667108D01*
X54269478Y-10413350D01*
X54052420Y-10525056D01*
X53744420Y-10525056D01*
X53527362Y-10413350D01*
X53507488Y-10423129D01*
X53658060Y-9860660D01*
X53658060Y-8110600D01*
X59140040Y-8110600D01*
X59140040Y-9860660D01*
X59378470Y-10751328D01*
X59939594Y-11482955D01*
X60737987Y-11944157D01*
X60977902Y-12006625D01*
X61344100Y-11907338D01*
X61344100Y-8110600D01*
X61652100Y-8110600D01*
X61652100Y-11907338D01*
X62018298Y-12006625D01*
X62258213Y-11944157D01*
X63056606Y-11482955D01*
X63617730Y-10751328D01*
X63856160Y-9860660D01*
X63856160Y-8110600D01*
X61652100Y-8110600D01*
X61344100Y-8110600D01*
X59140040Y-8110600D01*
X53658060Y-8110600D01*
X51454000Y-8110600D01*
X51146000Y-8110600D01*
X48941940Y-8110600D01*
X31505000Y-8110600D01*
X31505000Y-6802462D01*
X32926650Y-5380812D01*
X32744553Y-6061045D01*
X32744553Y-7811105D01*
X34948613Y-7811105D01*
X34948613Y-7791105D01*
X35256613Y-7791105D01*
X35256613Y-7811105D01*
X37460673Y-7811105D01*
X37460673Y-6061045D01*
X37222243Y-5170377D01*
X36789752Y-4606470D01*
X43613574Y-4606470D01*
X43181083Y-5170377D01*
M02*
